<?xml version="1.0" encoding="UTF-8"?>
<!DOCTYPE svg PUBLIC "-//W3C//DTD SVG 1.1//EN" "http://www.w3.org/Graphics/SVG/1.1/DTD/svg11.dtd">
<!-- Creator: CorelDRAW Home & Student X8 -->
<svg xmlns="http://www.w3.org/2000/svg" xml:space="preserve" width="119.973mm" height="80.01mm" version="1.1" style="shape-rendering:geometricPrecision; text-rendering:geometricPrecision; image-rendering:optimizeQuality; fill-rule:evenodd; clip-rule:evenodd"
viewBox="0 0 11997 8001"
 xmlns:xlink="http://www.w3.org/1999/xlink">
 <defs>
  <style type="text/css">
   <![CDATA[
    .fil0 {fill:#FEFEFE}
    .fil6 {fill:#FCFDFE}
    .fil9 {fill:#DD2528}
    .fil2 {fill:#DB2326}
    .fil17 {fill:#FAFBFB}
    .fil8 {fill:#FAF9F9}
    .fil23 {fill:#F09980}
    .fil19 {fill:#F1B29B}
    .fil18 {fill:#EC8B6F}
    .fil14 {fill:#F3F3F3}
    .fil10 {fill:#F2F2F1}
    .fil12 {fill:#E9E9EA}
    .fil25 {fill:#E4E4E5}
    .fil24 {fill:#DFDFE0}
    .fil13 {fill:#DBDBDB}
    .fil21 {fill:#D9D9D9}
    .fil26 {fill:#D1D2D2}
    .fil27 {fill:#CFD0D1}
    .fil28 {fill:#CDCDCE}
    .fil22 {fill:#C4C5C5}
    .fil4 {fill:#B4B4B4}
    .fil5 {fill:#9E9F9E}
    .fil16 {fill:#999B9B}
    .fil15 {fill:#989999}
    .fil20 {fill:#949594}
    .fil11 {fill:#919090}
    .fil7 {fill:#888A89}
    .fil3 {fill:#898988}
    .fil1 {fill:#5B5B5B}
   ]]>
  </style>
 </defs>
 <g id="Ebene_x0020_1">
  <metadata id="CorelCorpID_0Corel-Layer"/>
  <g id="_863075176">
   <path class="fil0" d="M6820 7716c-23,-50 -37,-99 35,-121 1,2 3,2 4,5 0,5 8,6 9,23 2,18 -13,72 -48,93zm506 -144l15 53c-17,-11 -12,-4 -19,-20 -42,-9 -73,-10 -102,-31l-3 -53 27 -14c39,4 59,35 82,65zm104 -303c-9,0 -26,1 -34,1l-37 -11c-4,-24 -1,-34 29,-38 49,-7 42,12 42,48zm-967 -445c58,28 116,38 101,120l-74 -15c-17,-34 -27,-64 -27,-105zm-870 171c16,23 16,23 4,56 -41,8 -12,1 -23,-4l-29 -50c-4,2 -6,3 -6,5 -1,4 -6,7 -8,8 -46,37 -89,-120 -87,-130 1,-5 6,-18 10,-23l22 -22c-25,-60 -33,-70 -11,-128 49,10 78,49 103,77 44,49 65,42 49,137 -38,-9 -44,-39 -102,-53 23,52 66,73 78,127zm3446 -921c20,-38 86,-68 123,-23 -31,28 -82,30 -123,23zm-4572 -503c33,19 22,24 20,66 -15,-7 -23,-2 -32,-27 -9,-24 4,-31 12,-39zm2050 -125l-1 -47 51 -6c2,50 -6,69 -50,53zm-69 -50c-51,6 -81,-21 -71,-69 32,-55 69,-20 97,0 -6,37 -4,42 -26,69zm1864 -60c34,94 83,182 -3,253 -52,43 -206,-28 -289,-36 -95,-11 -207,22 -284,64 -40,21 -73,45 -109,69 -38,25 -100,42 -125,59 17,69 174,65 316,118 37,15 76,37 107,46l-6 84c-119,4 -119,-107 -456,-112 -42,-1 -11,12 -123,17 -86,4 -165,18 -247,41 -50,14 -75,22 -84,66 100,95 327,41 466,83 83,25 277,162 344,215 38,30 89,94 112,158 15,41 20,70 11,115 -15,76 95,189 -71,302 -234,160 -204,159 -551,279 -57,20 -348,128 -396,163 -21,15 -12,17 -44,25 -57,15 -85,34 -143,67 -62,37 -117,66 -177,102 -61,36 -118,71 -169,110l-156 125c-14,-45 -10,-43 -46,-66 71,-123 422,-305 555,-375l629 -310c53,-26 101,-50 154,-75 104,-47 27,-18 112,-125 129,-166 278,-246 80,-421 -42,-38 -311,-82 -380,-95 -75,-13 -273,-74 -273,-74 -29,-5 -78,-4 -110,-7 -259,-25 -201,-191 -201,-247 0,-43 -15,-61 -41,-79 -28,-21 -32,-29 -51,-68 -61,-120 28,-202 136,-289l425 -279c83,-46 424,-173 513,-197 511,-142 626,227 615,254l-40 40zm1358 728c12,-30 6,-18 28,-35 28,-21 12,-9 32,-36 20,-27 47,-39 67,-59 43,-42 98,-81 85,-172 -67,-60 -102,-45 -154,10 -75,79 -155,135 -236,204 -171,143 -53,44 -189,133 -48,31 -104,78 -140,113 -87,86 -300,337 -344,427 52,109 12,147 -44,227 -12,18 -20,25 -32,44 -12,19 -18,36 -29,56 -18,34 -45,63 -66,95 -151,225 -74,246 -190,292 -51,19 -86,-22 -105,-45 -3,-49 15,-66 0,-110 21,-36 45,-64 67,-111l162 -388c117,-349 163,-752 302,-1172l139 -413c17,-83 3,-116 84,-116 153,0 266,85 267,244 0,82 -17,4 -88,136 -82,151 -118,331 -243,554 -13,23 -19,55 -34,84 -25,52 -62,85 -89,139 -25,50 -112,294 -103,341 71,-31 98,-133 192,-225 64,-62 182,-193 259,-258 20,-18 34,-30 55,-48l213 -201c17,-15 38,-29 55,-46 24,-23 82,-113 146,-168 95,-82 30,-66 131,-131 24,-15 10,1 25,-26 20,-37 18,-32 44,-57l415 -415c32,-32 79,-58 135,-77 33,12 53,27 81,46 45,32 101,90 128,143l25 76c0,40 3,19 -101,46 -52,14 -49,23 -78,49 -47,44 -76,82 -120,126 -84,84 -163,160 -247,243l-235 257c-68,75 -123,174 -270,224zm99 -1078c-58,-75 -38,-145 7,-147 55,-3 26,45 19,68 -15,47 7,42 -26,79zm-9045 -157c2,-15 5,-13 9,-19 32,19 21,32 22,71 -10,-3 -41,2 -31,-52zm8599 -63c-24,-15 -9,-64 -5,-83 24,4 29,8 45,18l-7 61c-2,1 -9,19 -33,4zm1604 9c-28,-37 -36,-100 9,-130 38,15 50,56 64,99 -19,24 -34,34 -73,31zm-9463 -31c-10,11 -27,29 -47,32 -28,5 -33,-4 -42,-22 -22,-44 -4,-80 18,-110 40,5 56,43 71,100zm2073 31c-29,-37 -37,-98 7,-130 36,9 61,63 67,106 -26,16 -36,27 -74,24zm-315 -147c-29,-8 -40,-9 -46,-32 22,-21 31,-20 55,-4 8,21 2,19 -9,36zm5311 -231c16,-26 10,-30 41,-47 15,14 63,48 8,86 -20,-7 -35,-19 -49,-39zm-2850 -32c-22,18 -19,19 -27,-16 17,8 18,7 27,16zm1976 -225c46,14 56,54 48,94l-14 30c-45,-9 -73,-46 -67,-99l33 -25zm-1358 -263c62,-73 76,-107 156,-166 34,-26 72,-30 102,-59 32,-31 46,-60 101,-60 169,0 311,174 195,313 -31,28 -81,48 -118,69 -45,27 -67,44 -117,61 -183,62 -196,10 -282,-19 -94,74 -72,266 4,352 65,75 358,74 509,-17 85,-51 -12,18 64,-24l11 65c-114,14 -34,74 -156,39l-59 44c-66,-9 -26,-9 -85,8 -35,-13 -43,-13 -86,-15 -52,-1 -49,16 -83,17 -18,0 -133,-63 -138,-69 -16,-16 -22,-46 -37,-65 -28,-36 -22,-6 -38,-63 -30,-100 -48,-206 -8,-307 6,-16 15,-29 14,-47 -4,-43 -24,-70 51,-57zm-2739 2c13,-19 39,-54 54,-72 109,-127 179,-123 211,-160 47,-54 85,-75 177,-41 79,28 180,123 153,210 -36,110 -46,99 -193,179 -230,126 -268,51 -372,19 -48,72 -77,166 -41,258 37,95 65,126 179,142 276,39 371,-76 431,-82l11 -2c33,3 25,32 16,58 -17,7 -25,3 -46,14 -40,22 -22,67 -107,28 -16,13 -45,46 -68,46 -43,-1 -14,-21 -76,7 -34,-9 -87,-23 -133,-9 -60,18 -54,15 -104,-17 -93,-61 -51,0 -106,-99 -14,-24 -19,-24 -29,-38 -40,-58 -61,-235 -20,-342 23,-62 -6,-64 15,-106l48 7zm7390 0c19,-35 90,-111 118,-135 110,-95 105,-48 147,-99 122,-149 367,53 330,169 -35,111 -51,103 -193,180 -235,128 -269,50 -368,22 -62,72 -77,172 -45,257 37,101 71,127 188,142 218,28 272,-24 399,-78 12,-5 5,-2 14,-4 2,-1 8,-2 10,-2 44,-3 33,21 26,64 -88,-6 -65,88 -151,35 -28,15 -43,41 -69,45 -30,0 -15,-22 -75,8 -38,-7 -84,-25 -134,-10 -65,19 -59,16 -110,-19 -40,-27 -59,-18 -84,-60l-55 -89c-27,-61 -43,-181 -31,-255 6,-37 31,-91 32,-111 1,-50 -24,-83 51,-60zm-9541 -2c35,-30 83,-103 119,-132 22,-17 44,-38 74,-53 42,-21 46,-11 74,-45 41,-51 93,-75 183,-39 73,29 96,61 133,112 21,30 30,52 18,93 -38,125 -56,100 -191,181 -49,30 -116,51 -178,67 -74,20 -140,-25 -190,-45 -100,91 -92,357 97,392 92,17 188,19 276,-2 110,-26 149,-63 162,-66 0,0 32,1 35,-9 1,-3 4,-3 7,-5l13 68c-48,0 -73,26 -96,53 -44,-2 -29,-8 -62,-16 -70,69 -64,20 -136,51 -31,-5 -24,-10 -66,-12 -127,-8 -87,43 -164,-4 -102,-63 -79,-32 -113,-99 -23,-45 -82,-79 -78,-267 1,-41 11,-84 23,-118 6,-16 15,-29 14,-49 0,-3 -29,-84 46,-56zm8559 716c10,-161 479,-942 487,-946 76,-40 108,108 93,146 0,0 -230,214 -246,329 17,-19 48,-46 70,-67l133 -146c56,-61 150,-146 230,-185 92,-45 159,19 166,65 -53,1 -45,-25 -98,-6 -87,32 -322,287 -385,368 -83,107 -318,387 -362,492 -50,-3 -60,-23 -88,-50zm-1199 -572c-45,-5 -48,22 -71,45 -36,40 -149,137 -195,161 -37,19 -43,23 -88,4 -142,-59 -24,-216 -14,-242 40,-95 166,-169 250,-224 99,-65 244,-123 335,-20 -9,52 -55,215 -84,263 -82,139 -23,31 -66,162 -32,94 -49,181 -78,260 -161,-35 19,-328 11,-409zm-1061 -216c-42,-5 -53,-19 -59,-59 49,0 59,10 59,59zm-2209 -34c3,-34 9,-55 46,-48 0,37 -10,45 -46,48zm2952 -18c-9,-17 -22,-30 -28,-47 10,-16 64,-12 81,50l-53 -3zm-595 -106c50,6 35,38 78,71 -29,18 -35,6 -57,-16 -17,-16 -31,-22 -21,-55zm-995 -20c31,16 23,37 -4,51 -8,-27 -12,-26 4,-51zm-4877 0c15,23 13,26 0,49 -4,-2 -17,6 -18,-24 0,-30 10,-21 18,-25zm9534 51c-6,-5 -13,-1 -16,-26 0,-7 3,-22 4,-28 47,20 23,38 12,54zm-7392 -1c-2,-3 -13,-11 -14,-26 -1,-24 13,-25 14,-26 43,36 1,52 0,52zm2693 -68c-1,-34 -1,-8 8,-23 0,0 37,4 0,46 -3,-5 -7,13 -8,-23zm4655 24c-7,-32 -10,-29 10,-46 20,29 8,33 -10,46zm-7393 -24c-1,-23 6,-16 11,-22 19,22 13,24 1,47 -4,-5 -11,13 -12,-25zm-2139 22c-20,-31 -10,-35 10,-46 8,25 12,29 -10,46zm8066 -19c-19,-52 -19,-165 55,-113 0,17 -7,59 -11,76 -7,29 -17,31 -44,37zm-4745 65c67,-32 92,-90 133,-129 -18,119 -87,152 -106,175 -6,7 -32,47 -35,54 51,26 11,-22 64,10 -44,50 -81,20 -107,35l-176 291c-13,21 -2,7 -19,20 18,9 -3,27 42,-18l-355 707c-15,41 -11,16 -30,46 -37,56 -28,67 -105,174 -63,88 -53,49 -119,170 -29,54 -44,109 -127,152 -77,39 -173,34 -205,-36 33,-4 67,-9 90,-25 -20,-17 -29,-15 -58,-16 -20,22 -4,14 -32,25 -26,-17 -60,-62 -77,-94 5,-23 12,-25 11,-37 -3,-26 -15,-10 -3,-47l13 30c6,17 9,22 19,32 15,15 39,29 63,38 11,-11 28,-30 41,-41l136 -119c46,-39 39,-36 67,-102 17,-42 36,-83 53,-125 28,-68 193,-460 179,-503 -28,-7 -18,22 -79,24 -36,1 -67,-10 -89,-27 -44,-32 -68,-91 -86,-150 -47,-151 -8,-273 58,-386 18,-32 27,-41 49,-70 38,-51 125,-142 175,-180 184,-137 274,-190 496,-117 90,29 51,34 69,119 38,-1 4,-6 48,-18l15 27c17,-8 39,-17 66,-22 -31,60 -66,33 -79,133zm-2874 -186c0,-62 12,-51 31,-107 47,-138 135,18 139,57 1,18 -20,115 -26,142 -40,188 -66,132 -106,232 -32,84 -58,164 -83,256 -20,73 -79,194 -81,257l183 -257c17,-38 34,-34 50,-60 18,-28 -9,-11 46,-64 29,-27 29,-28 47,-64 18,-34 13,-39 44,-40 28,-58 16,-18 35,-45 -16,-9 -11,2 -9,-13l11 -7c15,-7 3,0 12,-5 25,-15 29,-29 44,-49 20,-28 38,-40 66,-61 67,-51 170,-143 210,-31 13,36 -9,45 -8,70 2,27 15,16 9,73 -15,140 -70,276 -76,391l102 -122c19,-18 18,-19 33,-43 53,-92 247,-328 328,-426 22,-26 45,-51 60,-84 2,1 11,9 13,11 16,6 4,2 21,1 -6,23 -14,38 2,60 39,0 21,-15 59,-32l12 49c-57,14 -37,-4 -66,38l-458 633c-99,161 -67,233 -100,298 4,-37 22,-109 8,-135 -19,10 1,-18 -21,20l-29 57c-20,27 6,7 -30,20l-15 -36c-55,11 -45,-21 -38,-78 22,-171 61,-362 118,-524 19,-56 3,-48 13,-95 19,-85 23,-66 16,-151 -39,-2 -100,53 -125,75l-78 74c-143,133 -251,324 -353,494 -23,38 -47,89 -69,134 -19,40 -34,104 -57,137l-55 -1c-34,-45 -42,-59 -38,-127 5,-77 106,-453 130,-520 48,-133 79,-255 79,-402zm825 178c15,-67 50,-115 85,-167 20,-30 52,-89 78,-109 41,-31 67,10 29,38 -74,53 -129,172 -192,238zm2098 -227c-18,-9 -29,-17 -34,-46 -4,-27 7,-42 14,-58 60,15 37,83 20,104zm-2514 -36c1,-40 4,-50 39,-56 10,36 -7,51 -39,56zm7136 -48c-10,-18 -8,1 -10,-32l38 -7c-4,39 5,30 -28,39zm-4453 626c132,0 149,-61 196,-153 39,-76 89,-151 130,-218l227 -416c40,-93 194,36 179,133 -22,66 -90,71 -149,108 -63,40 -76,73 -115,132 -19,29 -31,34 -52,74 -15,31 -22,49 -40,78 -121,193 -96,195 107,196 123,1 65,12 117,40 22,12 9,-4 32,15 -3,38 -8,29 -47,33 -104,11 -320,-15 -382,52 -31,34 -86,147 -108,196 -30,65 -64,150 -88,218 -29,84 -15,175 -66,236 -64,8 -110,-11 -135,-57 -14,-59 77,-199 87,-226 9,-23 16,-52 28,-73l38 -73c29,-66 91,-154 91,-211 -22,5 -44,2 -64,9 -19,6 -14,18 -54,15 -55,-5 -152,2 -119,-99 139,-18 70,-9 187,-9zm4995 -655c-19,-32 -14,-82 14,-113 14,-15 24,-9 47,2 75,34 9,54 -16,115l-45 -4zm-2731 -105c-14,-16 -28,-24 -23,-47 22,-14 9,-12 53,-8l12 22c1,2 2,4 3,5l25 25 -14 32c-41,3 -37,-6 -56,-29zm317 -272l4 66c-51,-2 -52,-6 -55,-57l51 -9zm-1276 2140c-27,0 -602,128 -798,148 -35,4 -120,3 -145,18 -24,14 -51,62 -57,103 63,12 190,-21 250,-46 84,-35 153,40 134,125 -44,8 -49,-11 -68,-37 -37,-2 -297,49 -339,63 -62,19 -65,50 -92,104 -23,46 -46,85 -69,132l-233 572c-75,188 -152,390 -246,559 -20,36 -15,26 -26,67 -8,29 -23,34 -34,69 -34,111 -95,254 -155,351 -24,40 -14,40 -28,73 -36,-2 -38,-22 -70,-40l-33 5c6,-35 2,-11 13,-20 8,-63 75,-161 102,-229 16,-42 25,-77 39,-121 11,-32 15,-19 27,-59 22,-73 80,-144 119,-210 24,-39 6,-29 19,-66 9,-24 20,-24 32,-44 15,-25 10,-39 18,-67 7,-30 36,-89 49,-120l287 -703c56,-131 99,-151 98,-229 -81,-3 -376,74 -463,81 -144,13 -398,14 -511,-46l-4 -22 -12 0c-6,13 16,11 -18,10 -31,-23 -52,-26 -78,-53 -14,-15 -46,-58 -57,-83 134,9 244,-9 368,-31 125,-22 235,-30 363,-43 151,-15 470,-3 589,-114 18,-17 28,-32 36,-64 -94,-1 -217,6 -308,21 -138,21 -188,63 -257,73 -181,28 -427,68 -611,24l-14 -29c-8,11 -4,-9 -16,34 -5,-3 -36,-23 -40,-28 -34,-34 -7,-46 -7,-46 36,-20 32,-2 63,9 27,10 61,5 91,5 161,-2 343,-22 500,-44 205,-29 444,-77 647,-85 21,-60 138,-187 191,-264 52,-76 36,-159 214,-111 23,-13 16,-20 30,-40 39,5 50,35 73,102l-45 32c-31,84 -110,1 -175,72 -25,27 -92,111 -98,148l25 25c132,8 293,-7 428,-14 51,-2 269,-11 312,11 32,17 65,40 48,73 13,30 90,10 112,-1 47,-21 38,-11 91,-19 57,-8 17,-25 63,-47 79,-38 107,-42 186,-126 114,-123 74,-98 211,-213 21,-18 33,-39 50,-60 19,-23 29,-29 49,-52 35,-41 41,-94 77,-135 13,-16 34,-42 45,-65 25,-49 8,-20 51,-51 79,-56 107,-167 159,-273 49,-99 2,-122 93,-313 65,-137 72,-167 118,-305 18,-53 38,-107 57,-156 13,-36 62,-126 34,-155 -14,-14 28,-12 -66,-1 -25,2 -51,4 -77,5 -189,7 -140,-23 -201,51 -54,-3 -101,-46 -95,-102 35,-13 193,2 254,-3 62,-4 182,-8 232,-27 37,-50 6,-132 98,-82 -2,45 -14,37 -16,77 133,0 233,-44 265,19 -53,29 -204,32 -274,43 -58,49 -42,93 -72,156 -29,56 -43,106 -64,165 -20,56 -41,110 -61,168 -95,278 32,115 -86,354 -25,50 -43,109 -67,162 -40,90 -254,435 -336,527 -58,65 -26,56 -57,112 -19,33 -30,22 -45,65 -20,54 -71,81 -110,119 -72,69 -169,134 -283,174 -100,35 -309,61 -399,1l6 -13zm-6157 -1020c29,-23 52,-48 80,-70 163,-126 106,-30 218,-222 73,-126 142,-243 215,-369 72,-126 149,-250 230,-363l107 -122c24,-31 74,-82 109,-103 121,-70 157,10 141,44 -51,50 -99,21 -151,73 -102,102 -76,79 -154,176l-140 190c-40,53 -324,509 -322,555 249,0 146,75 85,242 -15,40 -55,167 -76,195 -12,17 -18,14 -31,36 -14,24 -7,20 -26,42 -51,55 -101,78 -182,89 -59,7 -69,-13 -117,-16 -8,53 -28,98 -51,136 -20,34 -43,172 -111,91 20,-64 96,-208 92,-273l-29 -32c6,-7 4,-6 14,-14l74 -54c80,-55 123,-185 167,-268 -47,26 -101,131 -142,37zm8399 553c6,-44 21,-22 33,-69 8,-33 10,-48 23,-78 20,-47 47,-84 64,-131 5,-13 7,-25 12,-39 22,-68 20,20 42,-104 6,-37 35,-105 50,-143 73,-184 161,-367 254,-533 157,-281 384,-756 599,-975 135,24 117,17 193,80 0,42 1,42 -14,70 -56,8 -70,-7 -120,-5 -15,7 -187,215 -228,278 -19,30 -31,29 -46,55l-39 63c-62,82 -192,293 -206,405 -7,57 -63,128 -80,224 102,-25 128,-156 242,-88 28,16 48,14 73,37 117,104 -2,307 -15,359 -12,45 -47,130 -74,163 -30,37 -118,278 -133,333 -10,38 -51,97 -30,134 12,22 0,2 13,12l15 11c-31,15 -22,3 -52,-8 -21,-7 -36,-3 -59,-5 -41,-5 -76,-30 -94,-54 -37,-92 199,-562 253,-688 16,-37 131,-262 46,-226 -23,10 -43,32 -59,52 -24,29 -46,60 -70,83 -20,20 -49,57 -68,84 -30,42 -47,50 -32,102 -16,19 -12,9 -18,36l24 15c-22,48 -67,98 -89,147 -18,39 -17,43 -41,77 -124,178 -108,225 -178,390 -27,2 -156,-30 -191,-64zm481 -2617c329,-76 358,505 107,571 -170,45 -265,-79 -281,-224 -15,-140 14,-309 174,-347zm-808 -1c327,-73 355,517 96,575 -170,38 -259,-88 -274,-237 -13,-140 19,-303 178,-338zm325 76c103,-7 102,-42 120,-72l69 0 0 568 -87 -1 0 -432 -102 -1 0 -62zm-989 -6c158,-130 387,-90 384,85 -3,184 -249,167 -292,332l298 0 1 85 -409 0c18,-284 262,-284 306,-385 23,-53 -11,-177 -236,-52 -25,-17 -40,-40 -52,-65zm-1107 -1349c649,-76 858,453 862,1002 3,303 -36,539 -168,771 -97,172 -282,344 -552,379 -136,18 -289,-1 -405,-50 -575,-248 -545,-1305 -296,-1726 104,-175 280,-343 559,-376zm2818 1105l-1668 0 -38 0 0 -36 0 -10 1706 0 0 46zm-367 -790c165,-50 261,74 280,213 22,161 -28,318 -160,354 -263,72 -330,-259 -256,-443 29,-72 62,-101 136,-124zm-4041 -314c432,-57 718,181 817,579 21,82 -97,373 -21,860 16,99 11,91 -24,184 -63,161 -157,297 -297,398 -325,234 -787,158 -996,-130 -140,-194 -189,-453 -199,-738 -20,-576 205,-1086 720,-1153zm3400 635c-141,69 -321,42 -333,-125 -12,-163 163,-251 312,-191 152,61 142,252 91,370 -56,131 -204,215 -319,196l0 -75c84,-22 209,-29 249,-175zm175 -247c64,-15 99,-18 112,-75l71 0 -2 567 -84 0 0 -432 -100 -2 3 -58zm-805 12c30,-40 59,0 104,-61 23,-32 3,-28 84,-23l-1 564 -87 -2 -1 -430 -97 0 -2 -48zm-4345 -220c116,-49 272,-90 399,-132 67,-23 133,-55 208,-55 88,0 176,0 264,0 0,102 0,203 0,305 0,216 15,96 -38,269 -97,318 -95,746 -3,1066 10,35 31,83 38,114l3 447 -433 0 0 -1763c-86,23 -319,140 -378,143l-60 -394zm-3745 7061l11997 0 0 -8001 -11997 0 0 8001z"/>
   <path class="fil1" d="M7444 1874c-16,297 -98,815 -518,750 -346,-54 -384,-541 -369,-903 9,-211 26,-354 110,-526 140,-288 608,-335 725,107 47,175 62,384 52,572zm-512 -1146c-279,33 -455,201 -559,376 -249,421 -279,1478 296,1726 116,49 269,68 405,50 270,-35 455,-207 552,-379 132,-232 171,-468 168,-771 -4,-549 -213,-1078 -862,-1002z"/>
   <path class="fil1" d="M5379 980c418,-52 482,419 481,784 0,281 -44,817 -403,862 -442,54 -477,-486 -484,-786 -9,-367 53,-816 406,-860zm-37 -251c-515,67 -740,577 -720,1153 10,285 59,544 199,738 209,288 671,364 996,130 140,-101 234,-237 297,-398 35,-93 40,-85 24,-184 -76,-487 42,-778 21,-860 -99,-398 -385,-636 -817,-579z"/>
   <path class="fil2" d="M6753 5803c0,-137 127,-230 234,-269 -4,63 -105,150 -146,229 -14,27 -23,60 -34,81 -33,-10 -30,-20 -54,-41zm1599 -507c11,-27 -104,-396 -615,-254 -89,24 -430,151 -513,197l-425 279c-108,87 -197,169 -136,289 19,39 23,47 51,68 26,18 41,36 41,79 0,56 -58,222 201,247 32,3 81,2 110,7 0,0 198,61 273,74 69,13 338,57 380,95 198,175 49,255 -80,421 -85,107 -8,78 -112,125 -53,25 -101,49 -154,75l-629 310c-133,70 -484,252 -555,375 36,23 32,21 46,66l156 -125c51,-39 108,-74 169,-110 60,-36 115,-65 177,-102 58,-33 86,-52 143,-67 32,-8 23,-10 44,-25 48,-35 339,-143 396,-163 347,-120 317,-119 551,-279 166,-113 56,-226 71,-302 9,-45 4,-74 -11,-115 -23,-64 -74,-128 -112,-158 -67,-53 -261,-190 -344,-215 -139,-42 -366,12 -466,-83 9,-44 34,-52 84,-66 82,-23 161,-37 247,-41 112,-5 81,-18 123,-17 337,5 337,116 456,112l6 -84c-31,-9 -70,-31 -107,-46 -142,-53 -299,-49 -316,-118 25,-17 87,-34 125,-59 36,-24 69,-48 109,-69 77,-42 189,-75 284,-64 83,8 237,79 289,36 86,-71 37,-159 3,-253l40 -40z"/>
   <path class="fil0" d="M7444 1874c10,-188 -5,-397 -52,-572 -117,-442 -585,-395 -725,-107 -84,172 -101,315 -110,526 -15,362 23,849 369,903 420,65 502,-453 518,-750z"/>
   <path class="fil0" d="M5379 980c-353,44 -415,493 -406,860 7,300 42,840 484,786 359,-45 403,-581 403,-862 1,-365 -63,-836 -481,-784z"/>
   <path class="fil2" d="M9670 6064c147,-50 202,-149 270,-224l235 -257c84,-83 163,-159 247,-243 44,-44 73,-82 120,-126 29,-26 26,-35 78,-49 104,-27 101,-6 101,-46l-25 -76c-27,-53 -83,-111 -128,-143 -28,-19 -48,-34 -81,-46 -56,19 -103,45 -135,77l-415 415c-26,25 -24,20 -44,57 -15,27 -1,11 -25,26 -101,65 -36,49 -131,131 -64,55 -122,145 -146,168 -17,17 -38,31 -55,46l-213 201c-21,18 -35,30 -55,48 -77,65 -195,196 -259,258 -94,92 -121,194 -192,225 -9,-47 78,-291 103,-341 27,-54 64,-87 89,-139 15,-29 21,-61 34,-84 125,-223 161,-403 243,-554 71,-132 88,-54 88,-136 -1,-159 -114,-244 -267,-244 -81,0 -67,33 -84,116l-139 413c-139,420 -185,823 -302,1172l-162 388c-22,47 -46,75 -67,111 15,44 -3,61 0,110 19,23 54,64 105,45 116,-46 39,-67 190,-292 21,-32 48,-61 66,-95 11,-20 17,-37 29,-56 12,-19 20,-26 32,-44 56,-80 96,-118 44,-227 44,-90 257,-341 344,-427 36,-35 92,-82 140,-113 136,-89 18,10 189,-133 81,-69 161,-125 236,-204 52,-55 87,-70 154,-10 13,91 -42,130 -85,172 -20,20 -47,32 -67,59 -20,27 -4,15 -32,36 -22,17 -16,5 -28,35z"/>
   <path class="fil1" d="M3767 909l60 394c59,-3 292,-120 378,-143l0 1763 433 0 -3 -447c-7,-31 -28,-79 -38,-114 -92,-320 -94,-748 3,-1066 53,-173 38,-53 38,-269 0,-102 0,-203 0,-305 -88,0 -176,0 -264,0 -75,0 -141,32 -208,55 -127,42 -283,83 -399,132z"/>
   <path class="fil2" d="M5880 5216c6,-32 28,-56 54,-72 52,-34 297,-46 327,-28 -14,20 -47,27 -88,38 -34,9 -63,16 -96,23 -63,12 -138,24 -197,39zm-1288 287l3 -26c-13,-36 -25,-20 -15,-61 49,-11 8,13 63,3 34,-6 15,-11 61,-13 65,-3 270,-50 398,-61 99,-8 178,9 279,8 65,0 233,-28 270,-15 20,104 -77,100 -189,121 -195,38 -364,61 -563,59 -106,0 -183,-21 -278,-29l-19 -3 2 17 4 22c113,60 367,59 511,46 87,-7 382,-84 463,-81 1,78 -42,98 -98,229l-287 703c-13,31 -42,90 -49,120 -8,28 -3,42 -18,67 -12,20 -23,20 -32,44 -13,37 5,27 -19,66 -39,66 -97,137 -119,210 -12,40 -16,27 -27,59 -14,44 -23,79 -39,121 -27,68 -94,166 -102,229l20 15c32,18 34,38 70,40 14,-33 4,-33 28,-73 60,-97 121,-240 155,-351 11,-35 26,-40 34,-69 11,-41 6,-31 26,-67 94,-169 171,-371 246,-559l233 -572c23,-47 46,-86 69,-132 27,-54 30,-85 92,-104 42,-14 302,-65 339,-63 19,26 24,45 68,37 19,-85 -50,-160 -134,-125 -60,25 -187,58 -250,46 6,-41 33,-89 57,-103 25,-15 110,-14 145,-18 196,-20 771,-148 798,-148l58 1c17,-33 -16,-56 -48,-73 -43,-22 -261,-13 -312,-11 -135,7 -296,22 -428,14l-25 -25c6,-37 73,-121 98,-148 65,-71 144,12 175,-72l-27 -2c-28,-30 -31,-41 -31,-92 -178,-48 -162,35 -214,111 -53,77 -170,204 -191,264 -203,8 -442,56 -647,85 -157,22 -339,42 -500,44 -30,0 -64,5 -91,-5 -31,-11 -27,-29 -63,-9 0,0 -27,12 7,46 4,5 35,25 40,28 12,-43 8,-23 16,-34l14 29c184,44 430,4 611,-24 69,-10 119,-52 257,-73 91,-15 214,-22 308,-21 -8,32 -18,47 -36,64 -119,111 -438,99 -589,114 -128,13 -238,21 -363,43 -124,22 -234,40 -368,31 11,25 43,68 57,83 26,27 47,30 78,53 34,1 12,3 18,-10z"/>
   <path class="fil3" d="M9030 4625c35,34 164,66 191,64 70,-165 54,-212 178,-390 24,-34 23,-38 41,-77 22,-49 67,-99 89,-147l-24 -15c6,-27 2,-17 18,-36 -15,-52 2,-60 32,-102 19,-27 48,-64 68,-84 24,-23 46,-54 70,-83 16,-20 36,-42 59,-52 85,-36 -30,189 -46,226 -54,126 -290,596 -253,688 18,24 53,49 94,54 23,2 38,-2 59,5 30,11 21,23 52,8l-15 -11c-13,-10 -1,10 -13,-12 -21,-37 20,-96 30,-134 15,-55 103,-296 133,-333 27,-33 62,-118 74,-163 13,-52 132,-255 15,-359 -25,-23 -45,-21 -73,-37 -114,-68 -140,63 -242,88 17,-96 73,-167 80,-224 14,-112 144,-323 206,-405l39 -63c15,-26 27,-25 46,-55 41,-63 213,-271 228,-278 50,-2 64,13 120,5 15,-28 14,-28 14,-70 -76,-63 -58,-56 -193,-80 -215,219 -442,694 -599,975 -93,166 -181,349 -254,533 -15,38 -44,106 -50,143 -22,124 -20,36 -42,104 -5,14 -7,26 -12,39 -17,47 -44,84 -64,131 -13,30 -15,45 -23,78 -12,47 -27,25 -33,69z"/>
   <path class="fil3" d="M4199 5345c13,-12 165,-109 197,-118 -32,70 -139,169 -197,118zm56 -109c-8,15 -7,21 -26,25 -32,6 -29,-8 -32,-11l58 -14zm-130 12c-38,-1 -40,-5 -48,-38 43,16 23,6 48,38zm103 -35c12,-30 3,-23 36,-36 -13,23 -12,22 -36,36zm80 19c24,-45 51,-96 75,-148 42,-88 53,-84 80,-133 4,44 -3,69 -20,100l22 23c-51,55 -12,107 -157,158zm606 -936c5,-16 0,-6 8,-19 1,-1 4,-2 5,-4 0,-3 3,-3 5,-4l-7 16c0,16 4,12 -11,11zm18 -27c8,-40 20,-32 21,-40 1,-3 4,-3 5,-4 -17,54 -19,39 -26,44zm-18 27c-21,79 -50,110 -75,176 -31,85 -213,422 -269,482 1,-52 101,-319 127,-369 137,-260 295,-669 451,-853 11,-13 21,-17 30,-29 26,-33 22,-53 44,-77 48,63 -5,58 -19,119 -13,51 -29,65 -55,104 -46,67 -97,121 -136,195 -22,43 -42,65 -62,108 -57,122 -60,98 -112,209l-43 85c-7,23 6,35 27,19 25,-19 22,-76 92,-169zm183 -670c38,-36 23,-1 24,0 -6,3 8,20 -24,0zm137 0c-7,-11 -20,-4 -5,-36 13,9 14,-2 17,20 4,33 -1,5 -12,16zm-235 -92c28,13 22,10 38,41 -10,31 -39,67 -58,97l-268 469c-50,44 -118,109 -184,103 -85,-9 -89,-144 -83,-211 12,-135 179,-385 305,-429 66,-24 45,-15 91,-53l-5 -40 140 -36c34,1 26,44 24,59zm266 143c13,-100 48,-73 79,-133 -27,5 -49,14 -66,22l-15 -27c-44,12 -10,17 -48,18 -18,-85 21,-90 -69,-119 -222,-73 -312,-20 -496,117 -50,38 -137,129 -175,180 -22,29 -31,38 -49,70 -66,113 -105,235 -58,386 18,59 42,118 86,150 22,17 53,28 89,27 61,-2 51,-31 79,-24 14,43 -151,435 -179,503 -17,42 -36,83 -53,125 -28,66 -21,63 -67,102l-136 119c-13,11 -30,30 -41,41 -24,-9 -48,-23 -63,-38 -10,-10 -13,-15 -19,-32l-13 -30c-12,37 0,21 3,47 1,12 -6,14 -11,37 17,32 51,77 77,94 28,-11 12,-3 32,-25 29,1 38,-1 58,16 -23,16 -57,21 -90,25 32,70 128,75 205,36 83,-43 98,-98 127,-152 66,-121 56,-82 119,-170 77,-107 68,-118 105,-174 19,-30 15,-5 30,-46l355 -707c-45,45 -24,27 -42,18 17,-13 6,1 19,-20l176 -291c26,-15 63,15 107,-35 -53,-32 -13,16 -64,-10 3,-7 29,-47 35,-54 19,-23 88,-56 106,-175 -41,39 -66,97 -133,129z"/>
   <path class="fil3" d="M2841 4364c37,7 27,-8 30,29 -32,1 -26,1 -30,-29zm144 -114c3,-45 -1,-40 34,-46 -3,32 -12,29 -34,46zm92 -115c-6,33 6,11 -19,31 10,-28 -6,-13 19,-31zm-199 208c-31,-54 25,-41 63,-125 32,-70 38,-56 93,-115l1 47c-34,-12 -23,6 -40,36l-55 82c-73,80 0,26 -62,75zm281 -329c2,26 3,-6 -4,12 -6,-5 -19,-2 0,-28 3,6 3,2 4,16zm64 -77c-9,-13 -14,-12 2,-36l82 -86c-5,40 6,5 -22,36 -11,11 -14,20 -19,26 -8,12 -18,17 -26,29l-14 27c-1,-1 -2,3 -3,4zm169 -294l-1 27c-19,15 -35,19 -47,43 -27,51 -1,15 -44,46 19,-35 55,-102 92,-116zm0 0c9,-29 25,-51 58,-69 -7,25 -24,44 -42,60 -13,10 -5,4 -16,9zm-1001 -152c0,147 -31,269 -79,402 -24,67 -125,443 -130,520 -4,68 4,82 38,127l55 1c23,-33 38,-97 57,-137 22,-45 46,-96 69,-134 102,-170 210,-361 353,-494l78 -74c25,-22 86,-77 125,-75 7,85 3,66 -16,151 -10,47 6,39 -13,95 -57,162 -96,353 -118,524 -7,57 -17,89 38,78l15 36c36,-13 10,7 30,-20l29 -57c22,-38 2,-10 21,-20 14,26 -4,98 -8,135 33,-65 1,-137 100,-298l458 -633c29,-42 9,-24 66,-38l-12 -49c-38,17 -20,32 -59,32 -16,-22 -8,-37 -2,-60 -17,1 -5,5 -21,-1 -2,-2 -11,-10 -13,-11 -15,33 -38,58 -60,84 -81,98 -275,334 -328,426 -15,24 -14,25 -33,43l-102 122c6,-115 61,-251 76,-391 6,-57 -7,-46 -9,-73 -1,-25 21,-34 8,-70 -40,-112 -143,-20 -210,31 -28,21 -46,33 -66,61 -15,20 -19,34 -44,49 -9,5 3,-2 -12,5l-11 7c-2,15 -7,4 9,13 -19,27 -7,-13 -35,45 -31,1 -26,6 -44,40 -18,36 -18,37 -47,64 -55,53 -28,36 -46,64 -16,26 -33,22 -50,60l-183 257c2,-63 61,-184 81,-257 25,-92 51,-172 83,-256 40,-100 66,-44 106,-232 6,-27 27,-124 26,-142 -4,-39 -92,-195 -139,-57 -19,56 -31,45 -31,107z"/>
   <path class="fil3" d="M6846 5093l-58 -1 -6 13c90,60 299,34 399,-1 114,-40 211,-105 283,-174 39,-38 90,-65 110,-119 15,-43 26,-32 45,-65 31,-56 -1,-47 57,-112 82,-92 296,-437 336,-527 24,-53 42,-112 67,-162 118,-239 -9,-76 86,-354 20,-58 41,-112 61,-168 21,-59 35,-109 64,-165 30,-63 14,-107 72,-156 70,-11 221,-14 274,-43 -32,-63 -132,-19 -265,-19 2,-40 14,-32 16,-77 -92,-50 -61,32 -98,82 -50,19 -170,23 -232,27 -61,5 -219,-10 -254,3 -6,56 41,99 95,102 61,-74 12,-44 201,-51 26,-1 52,-3 77,-5 94,-11 52,-13 66,1 28,29 -21,119 -34,155 -19,49 -39,103 -57,156 -46,138 -53,168 -118,305 -91,191 -44,214 -93,313 -52,106 -80,217 -159,273 -43,31 -26,2 -51,51 -11,23 -32,49 -45,65 -36,41 -42,94 -77,135 -20,23 -30,29 -49,52 -17,21 -29,42 -50,60 -137,115 -97,90 -211,213 -79,84 -107,88 -186,126 -46,22 -6,39 -63,47 -53,8 -44,-2 -91,19 -22,11 -99,31 -112,1z"/>
   <path class="fil3" d="M5483 3984c-117,0 -48,-9 -187,9 -33,101 64,94 119,99 40,3 35,-9 54,-15 20,-7 42,-4 64,-9 0,57 -62,145 -91,211l-38 73c-12,21 -19,50 -28,73 -10,27 -101,167 -87,226 25,46 71,65 135,57 51,-61 37,-152 66,-236 24,-68 58,-153 88,-218 22,-49 77,-162 108,-196 62,-67 278,-41 382,-52 39,-4 44,5 47,-33 -23,-19 -10,-3 -32,-15 -52,-28 6,-39 -117,-40 -203,-1 -228,-3 -107,-196 18,-29 25,-47 40,-78 21,-40 33,-45 52,-74 39,-59 52,-92 115,-132 59,-37 127,-42 149,-108 15,-97 -139,-226 -179,-133l-227 416c-41,67 -91,142 -130,218 -47,92 -64,153 -196,153z"/>
   <path class="fil3" d="M654 4409c2,-22 236,-465 285,-484 90,-35 125,-2 86,86 -40,89 -9,12 -30,88 -8,27 -26,47 -37,74 -9,23 -6,28 -11,47 -8,33 -5,15 -24,36 -53,59 13,50 -97,132 -81,59 -86,52 -172,21zm-23 -337c41,94 95,-11 142,-37 -44,83 -87,213 -167,268l-74 54c-10,8 -8,7 -14,14l29 32c4,65 -72,209 -92,273 68,81 91,-57 111,-91 23,-38 43,-83 51,-136 48,3 58,23 117,16 81,-11 131,-34 182,-89 19,-22 12,-18 26,-42 13,-22 19,-19 31,-36 21,-28 61,-155 76,-195 61,-167 164,-242 -85,-242 -2,-46 282,-502 322,-555l140 -190c78,-97 52,-74 154,-176 52,-52 100,-23 151,-73 16,-34 -20,-114 -141,-44 -35,21 -85,72 -109,103l-107 122c-81,113 -158,237 -230,363 -73,126 -142,243 -215,369 -112,192 -55,96 -218,222 -28,22 -51,47 -80,70z"/>
   <path class="fil0" d="M4835 3511l5 40c-46,38 -25,29 -91,53 -126,44 -293,294 -305,429 -6,67 -2,202 83,211 66,6 134,-59 184,-103l268 -469c19,-30 48,-66 58,-97 -16,-31 -10,-28 -38,-41 2,-15 10,-58 -24,-59l-140 36z"/>
   <path class="fil3" d="M9970 4593c28,27 38,47 88,50 44,-105 279,-385 362,-492 63,-81 298,-336 385,-368 53,-19 45,7 98,6 -7,-46 -74,-110 -166,-65 -80,39 -174,124 -230,185l-133 146c-22,21 -53,48 -70,67 16,-115 246,-329 246,-329 15,-38 -17,-186 -93,-146 -8,4 -477,785 -487,946z"/>
   <path class="fil3" d="M4156 4377l19 -24c1,24 -19,16 -19,24zm-503 -436c5,-46 8,-40 39,-57 139,-77 53,-68 147,-107 101,-42 79,-53 115,-63 61,-16 100,5 133,27 -25,125 -203,161 -296,190 -73,23 -63,14 -138,10zm-91 -62l-48 -7c-21,42 8,44 -15,106 -41,107 -20,284 20,342 10,14 15,14 29,38 55,99 13,38 106,99 50,32 44,35 104,17 46,-14 99,0 133,9 62,-28 33,-8 76,-7 23,0 52,-33 68,-46 85,39 67,-6 107,-28 21,-11 29,-7 46,-14 9,-26 17,-55 -16,-58l-11 2c-60,6 -155,121 -431,82 -114,-16 -142,-47 -179,-142 -36,-92 -7,-186 41,-258 104,32 142,107 372,-19 147,-80 157,-69 193,-179 27,-87 -74,-182 -153,-210 -92,-34 -130,-13 -177,41 -32,37 -102,33 -211,160 -15,18 -41,53 -54,72z"/>
   <path class="fil3" d="M2029 4353c-10,23 6,8 -18,22 2,-17 6,-15 18,-22zm-522 -416c6,-49 51,-61 89,-83 48,-27 15,-9 47,-46 14,-17 31,-24 53,-32 57,-22 79,-54 115,-62 68,-15 94,2 130,33 -52,146 -334,217 -434,190zm-96 -60c-75,-28 -46,53 -46,56 1,20 -8,33 -14,49 -12,34 -22,77 -23,118 -4,188 55,222 78,267 34,67 11,36 113,99 77,47 37,-4 164,4 42,2 35,7 66,12 72,-31 66,18 136,-51 33,8 18,14 62,16 23,-27 48,-53 96,-53l-13 -68c-3,2 -6,2 -7,5 -3,10 -35,9 -35,9 -13,3 -52,40 -162,66 -88,21 -184,19 -276,2 -189,-35 -197,-301 -97,-392 50,20 116,65 190,45 62,-16 129,-37 178,-67 135,-81 153,-56 191,-181 12,-41 3,-63 -18,-93 -37,-51 -60,-83 -133,-112 -90,-36 -142,-12 -183,39 -28,34 -32,24 -74,45 -30,15 -52,36 -74,53 -36,29 -84,102 -119,132z"/>
   <path class="fil3" d="M11565 4354c-9,25 8,13 -18,19 2,-17 13,-16 18,-19zm-523 -423c9,-38 17,-34 46,-51 129,-74 52,-68 148,-105 23,-9 39,-14 58,-28 54,-39 102,-64 182,-3 -31,120 -190,157 -301,190 -36,10 -66,19 -107,9 -25,-6 -17,-6 -26,-12zm-90 -52c-75,-23 -50,10 -51,60 -1,20 -26,74 -32,111 -12,74 4,194 31,255l55 89c25,42 44,33 84,60 51,35 45,38 110,19 50,-15 96,3 134,10 60,-30 45,-8 75,-8 26,-4 41,-30 69,-45 86,53 63,-41 151,-35 7,-43 18,-67 -26,-64 -2,0 -8,1 -10,2 -9,2 -2,-1 -14,4 -127,54 -181,106 -399,78 -117,-15 -151,-41 -188,-142 -32,-85 -17,-185 45,-257 99,28 133,106 368,-22 142,-77 158,-69 193,-180 37,-116 -208,-318 -330,-169 -42,51 -37,4 -147,99 -28,24 -99,100 -118,135z"/>
   <path class="fil3" d="M6917 4355l-21 20c2,-18 7,-15 21,-20zm-526 -418c4,-36 8,-36 37,-52 99,-54 66,-40 99,-78l169 -93c60,-13 101,-3 129,39 -63,142 -330,209 -434,184zm-90 -60c-75,-13 -55,14 -51,57 1,18 -8,31 -14,47 -40,101 -22,207 8,307 16,57 10,27 38,63 15,19 21,49 37,65 5,6 120,69 138,69 34,-1 31,-18 83,-17 43,2 51,2 86,15 59,-17 19,-17 85,-8l59 -44c122,35 42,-25 156,-39l-11 -65c-76,42 21,-27 -64,24 -151,91 -444,92 -509,17 -76,-86 -98,-278 -4,-352 86,29 99,81 282,19 50,-17 72,-34 117,-61 37,-21 87,-41 118,-69 116,-139 -26,-313 -195,-313 -55,0 -69,29 -101,60 -30,29 -68,33 -102,59 -80,59 -94,93 -156,166z"/>
   <path class="fil3" d="M8550 4000c6,-63 44,-104 92,-127 59,-28 105,-32 152,-69l59 2c-9,34 -15,12 -36,30 0,0 -112,161 -227,191l-40 -27zm221 21c8,81 -172,374 -11,409 29,-79 46,-166 78,-260 43,-131 -16,-23 66,-162 29,-48 75,-211 84,-263 -91,-103 -236,-45 -335,20 -84,55 -210,129 -250,224 -10,26 -128,183 14,242 45,19 51,15 88,-4 46,-24 159,-121 195,-161 23,-23 26,-50 71,-45z"/>
   <path class="fil0" d="M4595 5477l26 12c95,8 172,29 278,29 199,2 368,-21 563,-59 112,-21 209,-17 189,-121 -37,-13 -205,15 -270,15 -101,1 -180,-16 -279,-8 -128,11 -333,58 -398,61 -46,2 -27,7 -61,13 -55,10 -14,-14 -63,-3 -10,41 2,25 15,61z"/>
   <path class="fil4" d="M8500 1247c-33,-157 216,-166 251,-58 24,77 -30,118 -93,126 -75,10 -146,-8 -158,-68zm242 117c-40,146 -165,153 -249,175l0 75c115,19 263,-65 319,-196 51,-118 61,-309 -91,-370 -149,-60 -324,28 -312,191 12,167 192,194 333,125z"/>
   <path class="fil4" d="M8717 2091c202,-51 218,357 72,405 -212,69 -239,-364 -72,-405zm-14 -84c-159,35 -191,198 -178,338 15,149 104,275 274,237 259,-58 231,-648 -96,-575z"/>
   <path class="fil4" d="M9576 1383c-35,245 -310,194 -265,-119 34,-237 310,-190 265,119zm-193 -340c-74,23 -107,52 -136,124 -74,184 -7,515 256,443 132,-36 182,-193 160,-354 -19,-139 -115,-263 -280,-213z"/>
   <path class="fil4" d="M9529 2090c212,-48 215,377 60,409 -116,25 -160,-75 -166,-176 -6,-105 15,-213 106,-233zm-18 -82c-160,38 -189,207 -174,347 16,145 111,269 281,224 251,-66 222,-647 -107,-571z"/>
   <path class="fil4" d="M8039 2077c12,25 27,48 52,65 225,-125 259,-1 236,52 -44,101 -288,101 -306,385l409 0 -1 -85 -298 0c43,-165 289,-148 292,-332 3,-175 -226,-215 -384,-85z"/>
   <path class="fil0" d="M9529 2090c-91,20 -112,128 -106,233 6,101 50,201 166,176 155,-32 152,-457 -60,-409z"/>
   <path class="fil0" d="M9576 1383c45,-309 -231,-356 -265,-119 -45,313 230,364 265,119z"/>
   <path class="fil0" d="M8717 2091c-167,41 -140,474 72,405 146,-48 130,-456 -72,-405z"/>
   <path class="fil0" d="M654 4409c86,31 91,38 172,-21 110,-82 44,-73 97,-132 19,-21 16,-3 24,-36 5,-19 2,-24 11,-47 11,-27 29,-47 37,-74 21,-76 -10,1 30,-88 39,-88 4,-121 -86,-86 -49,19 -283,462 -285,484z"/>
   <polygon class="fil5" points="8044,1797 8044,1833 8082,1833 9750,1833 9750,1787 8044,1787 "/>
   <path class="fil0" d="M4914 4296c-70,93 -67,150 -92,169 -21,16 -34,4 -27,-19l43 -85c52,-111 55,-87 112,-209 20,-43 40,-65 62,-108 39,-74 90,-128 136,-195 26,-39 42,-53 55,-104 14,-61 67,-56 19,-119 -22,24 -18,44 -44,77 -9,12 -19,16 -30,29 -156,184 -314,593 -451,853 -26,50 -126,317 -127,369 56,-60 238,-397 269,-482 25,-66 54,-97 75,-176z"/>
   <path class="fil4" d="M8112 1129l2 48 97 0 1 430 87 2 1 -564c-81,-5 -61,-9 -84,23 -45,61 -74,21 -104,61z"/>
   <path class="fil4" d="M9028 2083l0 62 102 1 0 432 87 1 0 -568 -69 0c-18,30 -17,65 -120,72z"/>
   <path class="fil4" d="M8917 1117l-3 58 100 2 0 432 84 0 2 -567 -71 0c-13,57 -48,60 -112,75z"/>
   <path class="fil0" d="M3653 3941c75,4 65,13 138,-10 93,-29 271,-65 296,-190 -33,-22 -72,-43 -133,-27 -36,10 -14,21 -115,63 -94,39 -8,30 -147,107 -31,17 -34,11 -39,57z"/>
   <path class="fil0" d="M1507 3937c100,27 382,-44 434,-190 -36,-31 -62,-48 -130,-33 -36,8 -58,40 -115,62 -22,8 -39,15 -53,32 -32,37 1,19 -47,46 -38,22 -83,34 -89,83z"/>
   <path class="fil0" d="M11042 3931c9,6 1,6 26,12 41,10 71,1 107,-9 111,-33 270,-70 301,-190 -80,-61 -128,-36 -182,3 -19,14 -35,19 -58,28 -96,37 -19,31 -148,105 -29,17 -37,13 -46,51z"/>
   <path class="fil0" d="M6391 3937c104,25 371,-42 434,-184 -28,-42 -69,-52 -129,-39l-169 93c-33,38 0,24 -99,78 -29,16 -33,16 -37,52z"/>
   <path class="fil0" d="M8500 1247c12,60 83,78 158,68 63,-8 117,-49 93,-126 -35,-108 -284,-99 -251,58z"/>
   <path class="fil2" d="M5574 7047l23 -6 -4 -46c-12,-54 -55,-75 -78,-127 58,14 64,44 102,53 16,-95 -5,-88 -49,-137 -25,-28 -54,-67 -103,-77 -22,58 -14,68 11,128l-22 22c-4,5 -9,18 -10,23 -2,10 41,167 87,130 2,-1 7,-4 8,-8 0,-2 2,-3 6,-5l29 50z"/>
   <path class="fil0" d="M8550 4000l40 27c115,-30 227,-191 227,-191 21,-18 27,4 36,-30l-59 -2c-47,37 -93,41 -152,69 -48,23 -86,64 -92,127z"/>
   <path class="fil0" d="M6753 5803c24,21 21,31 54,41 11,-21 20,-54 34,-81 41,-79 142,-166 146,-229 -107,39 -234,132 -234,269z"/>
   <path class="fil0" d="M5880 5216c59,-15 134,-27 197,-39 33,-7 62,-14 96,-23 41,-11 74,-18 88,-38 -30,-18 -275,-6 -327,28 -26,16 -48,40 -54,72z"/>
   <path class="fil6" d="M4308 5232c145,-51 106,-103 157,-158l-22 -23c17,-31 24,-56 20,-100 -27,49 -38,45 -80,133 -24,52 -51,103 -75,148z"/>
   <path class="fil7" d="M3216 3669c63,-66 118,-185 192,-238 38,-28 12,-69 -29,-38 -26,20 -58,79 -78,109 -35,52 -70,100 -85,167z"/>
   <path class="fil3" d="M10478 3329l45 4c25,-61 91,-81 16,-115 -23,-11 -33,-17 -47,-2 -28,31 -33,81 -14,113z"/>
   <path class="fil3" d="M6248 4684c0,51 3,62 31,92l27 2 45 -32c-23,-67 -34,-97 -73,-102 -14,20 -7,27 -30,40z"/>
   <path class="fil3" d="M1464 4744c-15,-57 -31,-95 -71,-100 -22,30 -40,66 -18,110 9,18 14,27 42,22 20,-3 37,-21 47,-32z"/>
   <path class="fil3" d="M3537 4775c38,3 48,-8 74,-24 -6,-43 -31,-97 -67,-106 -44,32 -36,93 -7,130z"/>
   <path class="fil3" d="M10927 4775c39,3 54,-7 73,-31 -14,-43 -26,-84 -64,-99 -45,30 -37,93 -9,130z"/>
   <path class="fil6" d="M4199 5345c58,51 165,-48 197,-118 -32,9 -184,106 -197,118z"/>
   <path class="fil2" d="M6490 6929l74 15c15,-82 -43,-92 -101,-120 0,41 10,71 27,105z"/>
   <path class="fil2" d="M6448 5396c22,-27 20,-32 26,-69 -28,-20 -65,-55 -97,0 -10,48 20,75 71,69z"/>
   <path class="fil3" d="M7626 4165c-6,53 22,90 67,99l14 -30c8,-40 -2,-80 -48,-94l-33 25z"/>
   <path class="fil2" d="M9769 4986c33,-37 11,-32 26,-79 7,-23 36,-71 -19,-68 -45,2 -65,72 -7,147z"/>
   <path class="fil2" d="M7322 7605l4 -33c-23,-30 -43,-61 -82,-65l-27 14 3 53c29,21 60,22 102,31z"/>
   <path class="fil8" d="M2878 4343c62,-49 -11,5 62,-75l55 -82c17,-30 6,-48 40,-36l-1 -47c-55,59 -61,45 -93,115 -38,84 -94,71 -63,125z"/>
   <path class="fil7" d="M10010 3612c27,-6 37,-8 44,-37 4,-17 11,-59 11,-76 -74,-52 -74,61 -55,113z"/>
   <path class="fil2" d="M6820 7716c35,-21 50,-75 48,-93 -1,-17 -9,-18 -9,-23 -1,-3 -3,-3 -4,-5 -72,22 -58,71 -35,121z"/>
   <path class="fil7" d="M7724 3177c-5,23 9,31 23,47 19,23 15,32 56,29l14 -32 -25 -25c-1,-1 -2,-3 -3,-5l-12 -22c-44,-4 -31,-6 -53,8z"/>
   <path class="fil3" d="M8533 4397c14,20 29,32 49,39 55,-38 7,-72 -8,-86 -31,17 -25,21 -41,47z"/>
   <path class="fil7" d="M5314 3442c17,-21 40,-89 -20,-104 -7,16 -18,31 -14,58 5,29 16,37 34,46z"/>
   <path class="fil9" d="M9039 6074c41,7 92,5 123,-23 -37,-45 -103,-15 -123,23z"/>
   <path class="fil2" d="M9356 4762l7 -61c-16,-10 -21,-14 -45,-18 -4,19 -19,68 5,83 24,15 31,-3 33,-4z"/>
   <path class="fil2" d="M7359 7259l37 11c8,0 25,-1 34,-1 0,-36 7,-55 -42,-48 -30,4 -33,14 -29,38z"/>
   <path class="fil7" d="M7936 3718c-43,-33 -28,-65 -78,-71 -10,33 4,39 21,55 22,22 28,34 57,16z"/>
   <path class="fil3" d="M8013 2961c3,51 4,55 55,57l-4 -66 -51 9z"/>
   <path class="fil7" d="M8425 3706c6,17 19,30 28,47l53 3c-17,-62 -71,-66 -81,-50z"/>
   <path class="fil2" d="M6517 5446c44,16 52,-3 50,-53l-51 6 1 47z"/>
   <path class="fil7" d="M7710 3805c0,-49 -10,-59 -59,-59 6,40 17,54 59,59z"/>
   <path class="fil10" d="M3392 3643c-37,14 -73,81 -92,116 43,-31 17,5 44,-46 12,-24 28,-28 47,-43l1 -27z"/>
   <path class="fil7" d="M3176 4596c6,23 17,24 46,32 11,-17 17,-15 9,-36 -24,-16 -33,-17 -55,4z"/>
   <path class="fil3" d="M755 4881c-1,-39 10,-52 -22,-71 -4,6 -7,4 -9,19 -10,54 21,49 31,52z"/>
   <path class="fil11" d="M4455 5610c9,25 17,20 32,27 2,-42 13,-47 -20,-66 -8,8 -21,15 -12,39z"/>
   <path class="fil10" d="M3223 3937c1,-1 2,-5 3,-4l14 -27c8,-12 18,-17 26,-29 5,-6 8,-15 19,-26 28,-31 17,4 22,-36l-82 86c-16,24 -11,23 -2,36z"/>
   <path class="fil7" d="M5501 3771c36,-3 46,-11 46,-48 -37,-7 -43,14 -46,48z"/>
   <path class="fil7" d="M2800 3406c32,-5 49,-20 39,-56 -35,6 -38,16 -39,56z"/>
   <path class="fil11" d="M4128 3677c1,0 43,-16 0,-52 -1,1 -15,2 -14,26 1,15 12,23 14,26z"/>
   <path class="fil11" d="M11520 3678c11,-16 35,-34 -12,-54 -1,6 -4,21 -4,28 3,25 10,21 16,26z"/>
   <path class="fil12" d="M3392 3643c11,-5 3,1 16,-9 18,-16 35,-35 42,-60 -33,18 -49,40 -58,69z"/>
   <path class="fil3" d="M9926 3326c2,33 0,14 10,32 33,-9 24,0 28,-39l-38 7z"/>
   <path class="fil7" d="M1986 3676c13,-23 15,-26 0,-49 -8,4 -18,-5 -18,25 1,30 14,22 18,24z"/>
   <path class="fil7" d="M6859 3678c27,-14 35,-35 4,-51 -16,25 -12,24 -4,51z"/>
   <path class="fil10" d="M2985 4250c22,-17 31,-14 34,-46 -35,6 -31,1 -34,46z"/>
   <path class="fil13" d="M4125 5248c-25,-32 -5,-22 -48,-38 8,33 10,37 48,38z"/>
   <path class="fil14" d="M4197 5250c3,3 0,17 32,11 19,-4 18,-10 26,-25l-58 14z"/>
   <path class="fil11" d="M6829 3632c37,-42 0,-46 0,-46 -9,15 -9,-11 -8,23 1,36 5,18 8,23z"/>
   <path class="fil15" d="M1944 3631c22,-17 18,-21 10,-46 -20,11 -30,15 -10,46z"/>
   <path class="fil11" d="M4095 3634c12,-23 18,-25 -1,-47 -5,6 -12,-1 -11,22 1,38 8,20 12,25z"/>
   <path class="fil16" d="M11476 3633c18,-13 30,-17 10,-46 -20,17 -17,14 -10,46z"/>
   <path class="fil10" d="M2871 4393c-3,-37 7,-22 -30,-29 4,30 -2,30 30,29z"/>
   <path class="fil17" d="M5234 3626c11,-11 16,17 12,-16 -3,-22 -4,-11 -17,-20 -15,32 -2,25 5,36z"/>
   <path class="fil18" d="M5574 7047c11,5 -18,12 23,4 12,-33 12,-33 -4,-56l4 46 -23 6z"/>
   <path class="fil12" d="M4228 5213c24,-14 23,-13 36,-36 -33,13 -24,6 -36,36z"/>
   <path class="fil19" d="M7322 7605c7,16 2,9 19,20l-15 -53 -4 33z"/>
   <path class="fil20" d="M5683 4365c-9,-9 -10,-8 -27,-16 8,35 5,34 27,16z"/>
   <path class="fil21" d="M4932 4269c7,-5 9,10 26,-44 -1,1 -4,1 -5,4 -1,8 -13,0 -21,40z"/>
   <path class="fil22" d="M5097 3626c32,20 18,3 24,0 -1,-1 14,-36 -24,0z"/>
   <path class="fil18" d="M4812 7353l-20 -15c-11,9 -7,-15 -13,20l33 -5z"/>
   <polygon class="fil23" points="4592,5503 4604,5503 4602,5486 4621,5489 4595,5477 "/>
   <path class="fil21" d="M3058 4166c25,-20 13,2 19,-31 -25,18 -9,3 -19,31z"/>
   <path class="fil24" d="M3155 4026c7,-18 6,14 4,-12 -1,-14 -1,-10 -4,-16 -19,26 -6,23 0,28z"/>
   <path class="fil25" d="M4914 4296c15,1 11,5 11,-11l7 -16c-2,1 -5,1 -5,4 -1,2 -4,3 -5,4 -8,13 -3,3 -8,19z"/>
   <path class="fil22" d="M11547 4373c26,-6 9,6 18,-19 -5,3 -16,2 -18,19z"/>
   <path class="fil26" d="M2011 4375c24,-14 8,1 18,-22 -12,7 -16,5 -18,22z"/>
   <path class="fil27" d="M6896 4375l21 -20c-14,5 -19,2 -21,20z"/>
   <path class="fil28" d="M4156 4377c0,-8 20,0 19,-24l-19 24z"/>
  </g>
 </g>
</svg>
