<?xml version="1.0" encoding="UTF-8"?>
<!DOCTYPE svg PUBLIC "-//W3C//DTD SVG 1.1//EN" "http://www.w3.org/Graphics/SVG/1.1/DTD/svg11.dtd">
<!-- Creator: CorelDRAW Home & Student X8 -->
<svg xmlns="http://www.w3.org/2000/svg" xml:space="preserve" width="100%" height="100%" version="1.1" style="shape-rendering:geometricPrecision; text-rendering:geometricPrecision; image-rendering:optimizeQuality; fill-rule:evenodd; clip-rule:evenodd"
viewBox="0 0 3361 3827"
 xmlns:xlink="http://www.w3.org/1999/xlink">
 <defs>
  <style type="text/css">
   <![CDATA[
    .fil0 {fill:#2B2A29}
    .fil1 {fill:#DC2126}
   ]]>
  </style>
 </defs>
 <g id="Ebene_x0020_1">
  <metadata id="CorelCorpID_0Corel-Layer"/>
  <g id="_583769184">
   <path class="fil0" d="M0 290l0 1804c0,67 23,252 76,287 83,-60 67,-426 67,-533l0 -1524c1,-102 68,-169 136,-169l2785 0c108,0 153,86 153,194l0 2727c0,46 -20,82 -44,108 -34,36 -49,36 -107,46 -65,10 -1375,23 -1526,23 -55,0 -81,9 -143,9 -47,0 -108,-3 -152,0l-213 16c-47,3 -47,-10 -67,18 285,24 498,34 787,34 139,0 255,8 398,8 251,0 550,17 804,17 183,0 334,-10 390,-228 9,-35 14,-289 17,-626l0 -1942 -21 -358c-30,-115 -178,-199 -309,-199l-2557 0 -5 0 -5 0 -4 0c-98,0 -244,3 -318,49 -69,43 -142,130 -142,239z"/>
   <path class="fil0" d="M279 3110c68,-16 288,-183 352,-233 137,-107 357,-302 467,-421 204,-220 412,-504 564,-758l158 -290c31,-70 58,-136 86,-211 77,-208 148,-490 159,-729 3,-55 21,-66 -3,-124 -37,-93 -100,-112 -135,-6 -13,39 -3,94 -5,139 -11,195 -92,520 -161,694 -27,67 -54,132 -85,194l-99 189c-69,123 -145,243 -223,353 -105,149 -221,293 -345,426l-101 119c-25,25 -50,46 -72,72 -79,100 -247,254 -352,359 -41,42 -100,82 -147,141 -47,58 -55,46 -58,86z"/>
   <path class="fil0" d="M626 3110c137,-3 534,-290 659,-391 88,-71 317,-282 380,-357 125,-150 216,-237 323,-414 70,-117 163,-293 206,-429 7,-23 19,-52 10,-80 -27,-88 -114,-58 -134,-18 -6,10 -40,135 -84,221l-143 263c-39,65 -80,115 -125,172l-239 268c-34,35 -62,68 -99,96l-435 378c-20,17 -36,31 -55,46 -21,17 -34,29 -56,46 -38,30 -195,150 -208,199z"/>
   <path class="fil0" d="M1295 1103c0,326 457,302 457,8 0,-299 -457,-303 -457,-8z"/>
   <path class="fil1" d="M482 3770l-93 0 0 -59c110,0 119,-11 119,34 0,19 -6,25 -26,25zm-5 59l-156 0 0 -288 187 0c70,0 92,85 39,133 -4,4 -8,10 -9,8 -1,-2 -4,2 -5,3 29,8 42,24 42,60 0,59 -41,79 -98,84zm5 -178l-93 0 0 -59 85 0c20,0 34,14 34,34 0,20 -6,25 -26,25z"/>
   <path class="fil1" d="M1456 3609c0,140 90,84 203,110 0,66 11,51 -195,51l0 59 160 0c59,-6 103,-25 103,-84 0,-128 -114,-67 -183,-90 -37,-12 -23,-18 -20,-54 64,-15 109,-9 186,-9l0 -51c-134,0 -254,-25 -254,68z"/>
   <path class="fil1" d="M2810 3668c0,154 69,161 206,161l6 0c26,0 26,-11 26,-34 0,-40 -62,-24 -103,-24 -70,-1 -46,-17 -67,-60 115,0 170,18 170,-34 0,-41 -57,-26 -161,-26 1,-76 46,-59 161,-59l0 -51c-105,0 -238,-26 -238,127z"/>
   <path class="fil1" d="M2260 3668c0,148 69,160 185,161l45 0 7 0c0,-104 -18,-36 -152,-67 -10,-20 -8,-31 -17,-51 177,0 169,18 169,-60l-161 0c2,-76 46,-59 161,-59l0 -51c-105,0 -237,-26 -237,127z"/>
   <path class="fil1" d="M1947 3668l-85 0 0 -76c81,0 119,-12 119,43 0,19 -14,33 -34,33zm-87 161l-45 0c-14,-1 -21,-7 -21,-25l0 -263c224,0 254,-19 254,119 0,80 -148,68 -186,68l0 101 -2 0z"/>
   <path class="fil0" d="M2497 1247c-112,0 -220,-94 -220,-203l0 -43c0,-254 438,-284 446,18 3,123 -99,228 -226,228zm-254 -229c0,139 122,254 229,254l51 0c166,0 318,-241 163,-417 -99,-111 -274,-109 -373,-4 -39,41 -70,113 -70,167z"/>
   <path class="fil1" d="M753 3609l17 0c3,41 22,47 25,93l-67 0c3,-41 21,-47 25,-93zm-135 220l59 0c4,-18 18,-51 25,-67l127 0c3,30 11,40 17,67l68 0c-3,-33 -43,-110 -57,-146 -19,-49 -39,-99 -62,-142l-67 0 -57 139c-15,34 -50,112 -53,149z"/>
   <path class="fil0" d="M1862 2280c297,25 625,67 924,92l312 26 0 -25c-47,0 -111,-11 -153,-16l-1083 -103 0 26z"/>
   <path class="fil0" d="M211 1425l1132 112c119,15 128,28 138,-11l-1132 -112c-88,-11 -137,-27 -138,11z"/>
   <path class="fil0" d="M2243 1628c118,0 838,90 872,76 -9,-34 8,-20 -87,-31l-440 -43c-41,-5 -79,-8 -116,-11 -78,-4 -143,-16 -229,-16l0 25z"/>
   <path class="fil1" d="M956 3694c0,122 57,134 137,135l36 0 5 0c30,0 25,-16 25,-51 -164,0 -135,10 -135,-237l-68 0 0 153z"/>
   <path class="fil1" d="M2565 3643c0,164 36,184 132,186l71 0 0 -51c-165,0 -135,10 -135,-237l-68 0 0 102z"/>
   <path class="fil1" d="M1210 3719c0,91 55,108 122,110l73 0 0 -51c-152,0 -135,4 -135,-237l-60 0 0 178z"/>
   <path class="fil0" d="M203 2119c98,2 459,51 609,60 72,4 129,16 212,16l0 -25c-168,0 -662,-76 -821,-76l0 25z"/>
   <path class="fil1" d="M2116 3804c0,19 6,25 25,25l1 0 42 0 0 -288 -68 0 0 263z"/>
  </g>
 </g>
</svg>
