<?xml version="1.0" encoding="UTF-8"?>
<!DOCTYPE svg PUBLIC "-//W3C//DTD SVG 1.1//EN" "http://www.w3.org/Graphics/SVG/1.1/DTD/svg11.dtd">
<!-- Creator: CorelDRAW Home & Student X8 -->
<svg xmlns="http://www.w3.org/2000/svg" xml:space="preserve" width="100%" height="100%" version="1.1" style="shape-rendering:geometricPrecision; text-rendering:geometricPrecision; image-rendering:optimizeQuality; fill-rule:evenodd; clip-rule:evenodd"
viewBox="0 0 3387 3801"
 xmlns:xlink="http://www.w3.org/1999/xlink">
 <defs>
  <style type="text/css">
   <![CDATA[
    .fil0 {fill:#2B2A29}
    .fil1 {fill:#DC2126}
   ]]>
  </style>
 </defs>
 <g id="Ebene_x0020_1">
  <metadata id="CorelCorpID_0Corel-Layer"/>
  <g id="_861610136">
   <path class="fil0" d="M3 289l0 1812c0,140 40,208 59,288 47,-4 47,-29 63,-106 38,-193 22,-287 22,-486l0 -1355c0,-331 59,-288 398,-288l2370 0c119,0 220,-23 282,48 57,66 40,182 40,299l0 1016c0,448 -14,918 0,1364 1,51 9,96 9,160 0,210 -115,212 -297,212 -113,0 -226,0 -339,0 -117,0 -208,8 -330,8 -233,0 -440,10 -669,9l-567 25c-35,1 -47,-3 -76,17 63,15 671,34 779,34 96,0 169,8 271,8 184,0 351,9 542,9 92,0 163,8 262,8 221,0 481,49 546,-225 29,-125 13,-338 13,-486 0,-136 -8,-1622 6,-1721 1,-7 2,-15 2,-25l0 -220 0 -6c-6,-75 -9,-151 -8,-238l-16 -238c-15,-69 -53,-108 -101,-144 -44,-32 -115,-66 -188,-66l-2701 0c-116,0 -195,14 -260,70 -54,46 -112,122 -112,217z"/>
   <path class="fil0" d="M1129 425c0,73 64,111 121,124 39,9 34,4 49,36 25,58 60,187 67,263 -26,-7 -116,-83 -149,-105 -141,-92 -299,-152 -461,-191 -215,-52 -55,-18 -154,-100 -140,-114 -299,88 -174,199 32,28 59,28 117,28 26,101 111,90 127,423 1,35 8,39 8,76l17 0c35,-151 41,-346 -41,-484 -14,-24 -33,-44 -35,-74 159,0 461,132 586,226 35,26 135,114 159,121 -1,55 -27,160 -43,203 -20,55 -62,120 -67,178 72,-48 178,-279 178,-407 0,-123 -11,-278 -50,-382 -30,-80 -52,-95 156,-12 82,33 150,66 219,111l140 106c205,157 325,437 370,696l24 261c0,46 -9,107 13,152 -58,5 -110,36 -159,61 -27,14 -28,11 -36,40 92,-7 157,-42 271,-42 166,0 445,110 474,220 -169,4 -330,70 -466,161 -52,-35 -96,-92 -141,-138 -22,-21 -29,-24 -51,-42l-527 -413c-116,-77 -237,-139 -360,-208 -22,-12 -43,-18 -64,-29l-198 -89c-136,-54 -279,-106 -425,-143 -35,-9 -133,-28 -156,-39 -6,26 -13,33 -25,51 26,19 51,78 61,117 24,89 23,173 13,264l19 0c9,-108 34,-163 10,-280 -9,-40 -19,-52 -27,-84 194,45 372,132 553,209 258,110 494,271 724,428l313 254c84,85 210,176 290,294l-158 71c-27,15 -49,28 -74,44 -24,16 -49,40 -73,46 -11,-8 -54,-57 -70,-74l-148 -148c-17,-15 -24,-18 -42,-34 -292,-259 -749,-467 -1123,-596 -104,-35 -342,-56 -155,37 112,55 237,86 356,134 79,32 151,64 225,97 36,16 70,35 107,54l311 180 233 174c144,116 140,136 247,252 20,21 -3,7 24,19 92,41 212,-171 433,-171 8,-31 25,-40 34,-76 -24,-35 -56,-63 -76,-93 58,-31 107,-68 172,-90 60,-21 142,-46 217,-46 126,238 354,6 224,-122 -27,-27 -49,-36 -97,-38 -77,-4 -86,-78 -245,-162 -113,-59 -206,-67 -348,-67l9 -186c0,-184 -51,-380 -103,-516 -7,-19 -16,-34 -24,-52 -8,-19 -12,-33 -23,-54 -33,-67 -74,-125 -119,-185 -88,-119 -201,-212 -325,-293 -103,-66 -210,-108 -328,-146 -82,-27 -47,-2 -83,-70 -63,-121 -248,-67 -248,71z"/>
   <path class="fil0" d="M231 2973l0 17c48,4 31,12 85,0 37,-8 48,-12 69,-40 35,-47 28,-116 56,-156 29,-41 74,-68 128,-84 85,-26 227,-29 281,-143 30,-65 -2,-106 62,-149 83,-56 293,22 293,-139 0,-26 -28,-61 -49,-41 -22,24 2,48 -33,77 -52,43 -243,-37 -308,133 -26,69 6,102 -73,147 -148,85 -350,9 -375,285 -7,67 -61,93 -136,93z"/>
   <path class="fil0" d="M1332 2999c-42,-28 -16,-45 -76,-59 -35,65 16,118 84,118 115,0 158,-255 345,-210 74,18 107,83 157,132 226,222 362,14 337,-40 -8,-3 6,-20 -19,14 -15,20 -34,51 -55,65 -57,38 -124,-7 -164,-37 -134,-104 -199,-270 -401,-173 -94,46 -141,172 -208,190z"/>
   <path class="fil0" d="M2289 704c0,41 -7,64 42,77 34,-51 6,-64 26,-110 41,-91 194,-41 194,16 0,88 -110,310 136,195 23,-11 56,-32 78,-48 87,-65 181,-71 184,48l17 0c0,-65 3,-86 -36,-117 -84,-67 -181,11 -229,38 -34,19 -70,44 -116,45 2,-78 78,-140 -5,-232 -10,-12 -4,-5 -12,-13 -90,-84 -279,-42 -279,101z"/>
   <path class="fil1" d="M2246 3803l60 0 0 -203c1,1 3,2 3,5l59 101c52,88 39,96 95,97l33 0 4 0 0 -262c0,-32 -19,-26 -67,-26l0 187c-49,-57 -89,-187 -127,-187l-60 0 0 288z"/>
   <path class="fil1" d="M2560 3659c0,110 52,138 122,144l123 0c39,0 26,-47 26,-144 0,-39 -48,-25 -144,-25l0 51 76 0 0 67c-126,0 -127,-12 -127,-118 0,-88 98,-68 195,-68 0,-62 11,-51 -127,-51 -96,0 -144,51 -144,144z"/>
   <path class="fil1" d="M1137 3591c0,150 103,62 203,111l0 42c-64,15 -117,8 -194,8l0 51 185 0c50,-7 77,-29 77,-93 0,-142 -203,-23 -203,-110 0,-48 127,-34 186,-34l0 -51c-113,0 -254,-24 -254,76z"/>
   <path class="fil1" d="M1772 3803l59 0 0 -118 102 0c0,96 -7,115 19,118l49 0 0 -288c-82,0 -68,-15 -68,119l-102 0 0 -119 -59 0 0 288z"/>
   <path class="fil1" d="M942 3583c25,18 14,11 25,43 10,26 15,29 18,59l-76 0c8,-18 32,-81 33,-102zm-143 220l67 0c7,-29 13,-44 26,-68l118 0c4,19 18,52 26,68l67 0 -118 -288 -68 0 -59 144c-21,47 -38,99 -59,144z"/>
   <path class="fil1" d="M578 3625l0 178 60 0 0 -118 169 0 0 -51 -169 0c36,-77 16,-68 169,-68l0 -51c-98,0 -229,-17 -229,110z"/>
   <path class="fil1" d="M1459 3659c0,110 57,138 124,144l113 0 0 -51c-52,0 -126,10 -150,-19 -29,-33 -35,-167 57,-167l93 0 0 -51c-117,0 -237,-10 -237,144z"/>
   <path class="fil0" d="M604 2076c0,36 0,60 32,86 73,59 163,-12 163,-69 0,-140 -195,-135 -195,-17z"/>
   <path class="fil0" d="M2831 1119c158,0 127,-195 8,-195 -128,0 -122,195 -8,195z"/>
   <path class="fil0" d="M2644 2982c0,123 195,151 195,-9 0,-116 -195,-110 -195,9z"/>
   <path class="fil0" d="M1307 2474c0,147 135,121 171,78 60,-75 -14,-163 -70,-163 -49,0 -101,34 -101,85z"/>
   <polygon class="fil1" points="2085,3803 2153,3803 2153,3515 2085,3515 "/>
   <path class="fil0" d="M2577 416c0,124 182,56 111,-35 -33,-43 -111,-21 -111,35z"/>
   <path class="fil0" d="M2636 2787c0,84 127,86 127,0 0,-77 -127,-77 -127,0z"/>
   <path class="fil0" d="M790 2846c0,35 32,64 60,66 82,5 88,-125 8,-125 -36,0 -68,26 -68,59z"/>
   <path class="fil0" d="M1696 2990c0,-36 -26,-67 -59,-67 -58,0 -84,61 -51,101 36,43 110,21 110,-34z"/>
   <path class="fil0" d="M2577 1178c0,79 127,79 127,0 0,-79 -127,-79 -127,0z"/>
   <path class="fil0" d="M384 2034c0,84 118,71 118,17 0,-31 7,-77 -59,-77 -40,0 -59,20 -59,60z"/>
   <path class="fil0" d="M2780 1771c0,101 118,93 118,9 0,-92 -118,-65 -118,-9z"/>
   <path class="fil0" d="M324 967c0,61 119,102 119,-17 0,-57 -119,-76 -119,17z"/>
  </g>
 </g>
</svg>
