<?xml version="1.0" encoding="UTF-8"?>
<!DOCTYPE svg PUBLIC "-//W3C//DTD SVG 1.1//EN" "http://www.w3.org/Graphics/SVG/1.1/DTD/svg11.dtd">
<!-- Creator: CorelDRAW Home & Student X8 -->
<svg xmlns="http://www.w3.org/2000/svg" xml:space="preserve" width="34.036mm" height="38.046mm" version="1.1" style="shape-rendering:geometricPrecision; text-rendering:geometricPrecision; image-rendering:optimizeQuality; fill-rule:evenodd; clip-rule:evenodd"
viewBox="0 0 3404 3805"
 xmlns:xlink="http://www.w3.org/1999/xlink">
 <defs>
  <style type="text/css">
   <![CDATA[
    .fil0 {fill:#2B2A29}
    .fil1 {fill:#DC2126}
   ]]>
  </style>
 </defs>
 <g id="Ebene_x0020_1">
  <metadata id="CorelCorpID_0Corel-Layer"/>
  <g id="_861241944">
   <path class="fil0" d="M7 292l0 1820c0,67 24,253 76,288 88,-58 68,-473 68,-550 0,-165 -7,-1496 2,-1556 12,-84 67,-146 167,-146l2786 0c118,0 153,88 152,195l0 2100c0,134 24,599 4,689 -24,112 -92,132 -224,132 -124,-1 -221,8 -339,8 -118,0 -237,0 -355,0l-517 9c-68,0 -110,9 -169,9 -56,0 -113,0 -169,-1 -69,0 -101,9 -170,9l-253 9c-34,2 -41,8 -85,8l0 17c75,0 167,17 245,17 100,-1 166,8 263,8 45,0 91,-1 135,0 50,0 70,9 127,9 77,-1 197,-7 270,1l915 15c123,-1 468,75 466,-338 -1,-227 9,-430 9,-661l-18 -2166c-8,-67 -61,-122 -108,-155 -51,-35 -120,-66 -205,-66l-2607 0 -16 0c-110,0 -225,2 -311,54 -70,42 -139,135 -139,242z"/>
   <path class="fil0" d="M549 3044c0,15 -1,1 8,17 38,-26 96,-127 122,-175 35,-66 73,-121 112,-184l344 -546c77,-115 286,-405 404,-484 0,50 7,62 9,102 7,138 4,144 26,304 41,298 96,442 189,709 45,129 76,195 138,311 108,204 -1,-189 -8,-213 -77,-283 -201,-861 -201,-1145 0,-204 -36,-193 133,-265 97,-42 162,-40 265,-40 154,0 288,124 378,231 31,37 56,82 121,82 46,0 43,-54 43,-84 0,-82 -280,-381 -585,-381 -122,0 -233,29 -338,84 8,-100 48,-223 75,-306 59,-179 165,-337 299,-462 94,-86 193,-108 193,-197 0,-28 -41,-51 -68,-51 -118,0 -351,260 -430,383 -17,26 -34,58 -50,86 -17,32 -31,60 -44,91 -140,347 -105,446 -133,544 -10,33 -86,84 -136,135 -14,13 -21,20 -35,33 -2,1 -7,6 -9,8 -207,197 -291,345 -438,570 -88,135 -69,112 -144,261 -50,101 -240,485 -240,582z"/>
   <path class="fil0" d="M1988 953c0,111 102,237 220,237l60 0c109,0 211,-123 211,-237 0,-210 -252,-339 -421,-168 -25,25 -32,36 -47,72 -8,18 -23,74 -23,96z"/>
   <path class="fil1" d="M989 3797l59 0 0 -194 69 194 67 0 64 -187 4 187 59 0 0 -288 -93 0c-6,66 -54,138 -60,204l-16 0c-6,-66 -54,-138 -60,-204l-93 0 0 288z"/>
   <path class="fil1" d="M1396 3797l59 0 0 -203c1,2 3,2 3,5l14 20c5,10 8,17 14,29 91,165 71,149 155,149l0 -288 -59 0 0 187 -87 -142c-27,-50 -6,-45 -99,-45l0 288z"/>
   <path class="fil1" d="M371 3645c0,184 104,152 263,152l0 -169 -144 0 0 51 84 0 0 68c-37,0 -94,5 -115,-21 -14,-17 -62,-166 73,-166l102 0 0 -51c-113,0 -263,-22 -263,136z"/>
   <path class="fil1" d="M2031 3586c0,176 203,50 203,127 0,52 -94,34 -195,34l0 50c140,0 262,28 262,-84 0,-128 -156,-65 -197,-92 -23,-15 -10,-52 20,-52l161 0 0 -60c-111,0 -254,-22 -254,77z"/>
   <path class="fil1" d="M1836 3577c19,22 36,74 42,102l-76 0c8,-34 25,-63 34,-102zm-144 220l68 0c6,-27 14,-37 17,-67l127 0c6,29 12,44 25,67l68 0 -119 -288 -68 0 -89 216c-12,29 -23,45 -29,72z"/>
   <path class="fil1" d="M2809 3797l60 0 0 -127c22,15 51,59 69,84 35,49 29,43 109,43 -78,-146 -152,-101 -53,-213 18,-21 45,-47 53,-75 -80,0 -67,-2 -106,48l-72 79 0 -127 -60 0 0 288z"/>
   <path class="fil1" d="M2344 3569l84 0 0 228 68 0 0 -228c103,0 93,10 93,-60l-245 0 0 60z"/>
   <path class="fil1" d="M777 3687l0 110 60 0c0,-217 18,-115 110,-288l-76 0c-11,39 -49,69 -60,111 -19,-15 -24,-32 -39,-55 -14,-22 -24,-36 -37,-56l-68 0c16,30 110,161 110,178z"/>
   <polygon class="fil1" points="2649,3797 2716,3797 2716,3509 2649,3509 "/>
  </g>
 </g>
</svg>
