<?xml version="1.0" encoding="UTF-8"?>
<!DOCTYPE svg PUBLIC "-//W3C//DTD SVG 1.1//EN" "http://www.w3.org/Graphics/SVG/1.1/DTD/svg11.dtd">
<!-- Creator: CorelDRAW Home & Student X8 -->
<svg xmlns="http://www.w3.org/2000/svg" xml:space="preserve" width="160.514mm" height="203.2mm" version="1.1" style="shape-rendering:geometricPrecision; text-rendering:geometricPrecision; image-rendering:optimizeQuality; fill-rule:evenodd; clip-rule:evenodd"
viewBox="0 0 16051 20320"
 xmlns:xlink="http://www.w3.org/1999/xlink">
 <defs>
  <style type="text/css">
   <![CDATA[
    .fil2 {fill:#454B3C}
    .fil4 {fill:#D6C6B9}
    .fil0 {fill:#E3170E}
    .fil3 {fill:#E9E9E7}
    .fil1 {fill:#FEFEFE}
   ]]>
  </style>
 </defs>
 <g id="Ebene_x0020_1">
  <metadata id="CorelCorpID_0Corel-Layer"/>
  <g id="_865305688">
   <path class="fil0" d="M1702 18301l70 0 0 671 -70 0 0 -671zm1446 565l-35 0 0 35 -35 0 0 35 -71 0 0 36 -353 0 0 -671 318 0 0 36 106 0 0 35 35 0 0 35 35 0 0 35 35 0 0 353 -35 0 0 71zm1341 -177l282 0 0 71 -282 0 0 -71zm-177 0l71 0 0 247 35 0 0 36 -106 0 0 -212 -35 0 0 -35 -35 0 0 -36 -283 0 0 283 -70 0 0 -671 423 0 0 36 36 0 0 35 35 0 0 247 -71 0 0 70zm5680 -35l-106 0 0 35 -282 0 0 283 -71 0 0 -671 353 0 0 36 71 0 0 35 35 0 0 35 35 0 0 176 -35 0 0 71zm3634 318l-71 0 0 -671 141 0 0 141 35 0 0 71 36 0 0 106 35 0 0 70 35 0 0 106 36 0 0 35 35 0 0 -70 35 0 0 -106 35 0 0 -71 36 0 0 -105 35 0 0 -106 35 0 0 -71 141 0 0 671 -70 0 0 -530 -36 0 0 71 -35 0 0 70 -35 0 0 106 -35 0 0 106 -36 0 0 71 -35 0 0 106 -106 0 0 -71 -35 0 0 -71 -35 0 0 -105 -36 0 0 -106 -35 0 0 -71 -35 0 0 -106 -35 0 0 530zm-4869 0l-70 0 0 -671 141 0 0 71 35 0 0 141 35 0 0 70 36 0 0 106 35 0 0 71 35 0 0 70 35 0 0 -35 36 0 0 -106 35 0 0 -70 35 0 0 -106 36 0 0 -71 35 0 0 -141 141 0 0 671 -71 0 0 -494 -35 0 0 70 -35 0 0 71 -35 0 0 106 -36 0 0 105 -35 0 0 71 -35 0 0 71 -106 0 0 -106 -35 0 0 -71 -36 0 0 -106 -35 0 0 -106 -35 0 0 -70 -35 0 0 -71 -36 0 0 530zm-6738 0l-70 0 0 -671 105 0 0 71 36 0 0 35 35 0 0 35 35 0 0 71 36 0 0 35 35 0 0 71 35 0 0 35 35 0 0 71 36 0 0 35 35 0 0 70 35 0 0 -529 71 0 0 671 -106 0 0 -36 -35 0 0 -70 -36 0 0 -71 -35 0 0 -35 -35 0 0 -71 -35 0 0 -35 -36 0 0 -71 -35 0 0 -35 -35 0 0 -70 -36 0 0 -36 -35 0 0 530zm12489 -847l35 0 0 -35 35 0 0 -36 35 0 0 -35 36 0 0 -35 247 0 0 35 35 0 0 35 35 0 0 36 35 0 0 70 36 0 0 212 -36 0 0 70 -35 0 0 36 -35 0 0 35 -35 0 0 35 -212 0 0 -35 -71 0 0 -35 -35 0 0 -36 -35 0 0 -70 -35 0 0 -247zm-1482 458l353 0 0 71 -318 0 0 247 353 0 0 71 -459 0 0 -671 459 0 0 71 -388 0 0 211zm-706 -282l565 0 0 71 -247 0 0 600 -71 0 0 -600 -247 0 0 -71zm-352 106l-71 0 0 106 35 0 0 35 36 0 0 35 211 0 0 36 71 0 0 35 35 0 0 35 35 0 0 212 -35 0 0 35 -71 0 0 36 -282 0 0 -36 -70 0 0 -35 -36 0 0 -71 -35 0 0 -105 71 0 0 35 35 0 0 106 71 0 0 35 211 0 0 -35 35 0 0 -36 36 0 0 -105 -36 0 0 -36 -105 0 0 -35 -177 0 0 -35 -70 0 0 -36 -36 0 0 -211 36 0 0 -35 70 0 0 -36 212 0 0 36 70 0 0 35 36 0 0 35 35 0 0 106 -71 0 0 -71 -35 0 0 -35 -35 0 0 -35 -176 0 0 35zm-1165 0l-35 0 0 35 -35 0 0 71 35 0 0 35 35 0 0 35 212 0 0 36 71 0 0 35 35 0 0 35 35 0 0 212 -35 0 0 35 -71 0 0 36 -282 0 0 -36 -70 0 0 -35 -36 0 0 -71 -35 0 0 -105 71 0 0 35 35 0 0 106 70 0 0 35 212 0 0 -35 35 0 0 -36 36 0 0 -105 -71 0 0 -36 -71 0 0 -35 -176 0 0 -35 -70 0 0 -36 -36 0 0 -211 36 0 0 -35 70 0 0 -36 212 0 0 36 70 0 0 35 36 0 0 35 35 0 0 106 -71 0 0 -71 -35 0 0 -35 -35 0 0 -35 -177 0 0 35zm-599 176l317 0 0 71 -317 0 0 318 -71 0 0 -671 423 0 0 71 -352 0 0 211zm-3916 -282l1093 0 0 71 -247 0 0 600 -70 0 0 -600 -494 0 0 600 -71 0 0 -600 -211 0 0 -71zm-424 282l353 0 0 71 -353 0 0 247 389 0 0 71 -459 0 0 -671 459 0 0 71 -389 0 0 211zm-2504 0l388 0 0 71 -388 0 0 247 388 0 0 71 -459 0 0 -671 459 0 0 71 -388 0 0 211zm8396 -211l-35 0 0 35 -36 0 0 71 -35 0 0 70 -35 0 0 35 -36 0 0 71 -35 0 0 35 -35 0 0 283 -71 0 0 -318 -35 0 0 -35 -35 0 0 -36 -35 0 0 -70 -36 0 0 -71 -35 0 0 -35 -35 0 0 -35 -36 0 0 -71 106 0 0 36 36 0 0 70 35 0 0 71 35 0 0 35 35 0 0 70 36 0 0 36 35 0 0 -71 35 0 0 -70 35 0 0 -36 36 0 0 -70 35 0 0 -35 35 0 0 -36 106 0 0 36 -35 0 0 35zm-3845 0l-36 0 0 35 -35 0 0 35 -35 0 0 36 -36 0 0 35 -35 0 0 35 -35 0 0 35 35 0 0 71 35 0 0 35 36 0 0 36 35 0 0 70 35 0 0 35 36 0 0 36 35 0 0 70 70 0 0 -70 36 0 0 -106 35 0 0 -71 35 0 0 -106 36 0 0 -70 35 0 0 -106 35 0 0 -70 35 0 0 -36 106 0 0 106 35 0 0 71 36 0 0 105 35 0 0 71 35 0 0 106 36 0 0 70 35 0 0 106 35 0 0 36 -106 0 0 -36 -35 0 0 -106 -35 0 0 -70 -282 0 0 70 -36 0 0 71 -35 0 0 71 -212 0 0 -36 -35 0 0 -35 -35 0 0 -71 -36 0 0 -35 -35 0 0 -35 -35 0 0 -71 -35 0 0 -35 -71 0 0 35 -35 0 0 36 -35 0 0 247 -71 0 0 -671 71 0 0 318 35 0 0 -36 35 0 0 -35 35 0 0 -35 36 0 0 -35 35 0 0 -36 35 0 0 -35 35 0 0 -35 36 0 0 -35 35 0 0 -36 106 0 0 36 -35 0 0 35zm-2258 141l-35 0 0 141 -36 0 0 71 -35 0 0 141 -35 0 0 106 -106 0 0 -106 -35 0 0 -141 -36 0 0 -71 -35 0 0 -176 -35 0 0 -36 -36 0 0 141 -35 0 0 142 -35 0 0 70 -35 0 0 177 -141 0 0 -177 -36 0 0 -141 -35 0 0 -141 -35 0 0 -141 -36 0 0 -71 106 0 0 141 36 0 0 141 35 0 0 212 70 0 0 -141 36 0 0 -71 35 0 0 -176 35 0 0 -106 141 0 0 141 36 0 0 177 35 0 0 141 35 0 0 70 35 0 0 -141 36 0 0 -141 35 0 0 -141 35 0 0 -106 106 0 0 36 -35 0 0 176zm-4092 -141l-36 0 0 35 -35 0 0 35 -35 0 0 36 -36 0 0 35 -35 0 0 35 -35 0 0 71 35 0 0 70 35 0 0 36 36 0 0 35 35 0 0 70 35 0 0 36 36 0 0 35 35 0 0 35 35 0 0 36 -141 0 0 -71 -35 0 0 -35 -36 0 0 -36 -35 0 0 -70 -35 0 0 -35 -35 0 0 -36 -36 0 0 -35 -70 0 0 35 -35 0 0 283 -106 0 0 -671 106 0 0 282 70 0 0 -35 35 0 0 -35 36 0 0 -35 35 0 0 -36 35 0 0 -35 35 0 0 -35 36 0 0 -35 35 0 0 -36 106 0 0 36 -35 0 0 35zm3668 -1411l36 0 0 -36 35 0 0 -70 35 0 0 -71 36 0 0 -106 35 0 0 -35 35 0 0 -70 35 0 0 -106 36 0 0 -35 35 0 0 -71 35 0 0 -71 36 0 0 -35 35 0 0 -35 282 0 0 -71 35 0 0 -35 36 0 0 -35 35 0 0 -141 35 0 0 -71 71 0 0 212 35 0 0 70 35 0 0 353 -35 0 0 71 -35 0 0 70 -36 0 0 35 -35 0 0 71 -35 0 0 35 -35 0 0 36 -36 0 0 35 -35 0 0 -71 35 0 0 -70 36 0 0 -71 -36 0 0 35 -35 0 0 36 -35 0 0 35 -36 0 0 71 -35 0 0 35 -35 0 0 35 -35 0 0 71 -36 0 0 35 -35 0 0 71 -35 0 0 35 -35 0 0 70 -36 0 0 36 -35 0 0 70 106 0 0 71 -35 0 0 70 -36 0 0 36 -35 0 0 35 -35 0 0 35 -36 0 0 35 -35 0 0 36 -35 0 0 35 -35 0 0 35 -36 0 0 36 -35 0 0 35 -35 0 0 35 -36 0 0 35 -70 0 0 36 -71 0 0 35 -423 0 0 -35 -35 0 0 -36 -36 0 0 -35 -35 0 0 -35 -35 0 0 -35 -35 0 0 -71 -36 0 0 -35 -35 0 0 -106 -35 0 0 -318 35 0 0 36 35 0 0 141 36 0 0 70 35 0 0 36 35 0 0 35 35 0 0 35 36 0 0 35 70 0 0 36 71 0 0 35 35 0 0 35 247 0 0 -35 35 0 0 -35 71 0 0 -36 70 0 0 -35 36 0 0 -35 35 0 0 -35 35 0 0 -36 36 0 0 -35 35 0 0 -35 35 0 0 -36 -70 0 0 -35 -71 0 0 -35 -35 0 0 -71 -36 0 0 -211zm5363 -2964l-36 0 0 36 -35 0 0 70 -35 0 0 35 -35 0 0 71 -71 0 0 35 -35 0 0 36 -36 0 0 35 -35 0 0 35 -70 0 0 35 -71 0 0 36 -70 0 0 35 -283 0 0 -35 -35 0 0 -36 -35 0 0 -35 -36 0 0 -35 -35 0 0 -35 -35 0 0 -71 -35 0 0 -141 70 0 0 70 35 0 0 71 36 0 0 35 35 0 0 36 212 0 0 -36 106 0 0 -35 105 0 0 -35 36 0 0 -36 70 0 0 -35 35 0 0 -35 36 0 0 -35 35 0 0 -36 35 0 0 -35 36 0 0 -35 35 0 0 -35 35 0 0 -36 35 0 0 -35 71 0 0 71 -35 0 0 105zm-847 -705l35 0 0 35 36 0 0 35 141 0 0 -35 70 0 0 -35 106 0 0 -35 35 0 0 -36 36 0 0 -35 35 0 0 494 -35 0 0 106 -36 0 0 35 -70 0 0 35 -318 0 0 -70 -106 0 0 35 -35 0 0 -35 -35 0 0 -318 35 0 0 -211 106 0 0 35zm353 -1200l211 0 0 71 106 0 0 35 36 0 0 71 35 0 0 35 35 0 0 212 35 0 0 247 36 0 0 952 -36 0 0 71 -35 0 0 35 -35 0 0 35 -35 0 0 36 -36 0 0 35 -70 0 0 -106 -36 0 0 -71 -35 0 0 -70 35 0 0 -706 36 0 0 -70 35 0 0 -71 35 0 0 -141 36 0 0 -70 -36 0 0 -106 -35 0 0 -71 -35 0 0 -35 -36 0 0 -71 -35 0 0 -35 -35 0 0 -71 -35 0 0 -35 -106 0 0 -106zm2857 -3774l36 0 0 35 70 0 0 70 35 0 0 353 -35 0 0 106 -35 0 0 106 -35 0 0 70 -36 0 0 71 -35 0 0 176 -35 0 0 142 -36 0 0 35 -35 0 0 70 -35 0 0 106 -71 0 0 71 -35 0 0 35 -35 0 0 35 -35 0 0 36 -36 0 0 70 -70 0 0 35 -318 0 0 36 -35 0 0 141 -35 0 0 70 -36 0 0 141 -35 0 0 142 -35 0 0 388 35 0 0 35 35 0 0 35 36 0 0 106 35 0 0 988 -35 0 0 70 -36 0 0 36 -35 0 0 35 -35 0 0 70 -35 0 0 36 -71 0 0 35 -71 0 0 35 -35 0 0 36 -106 0 0 35 -423 0 0 -35 -71 0 0 -71 -70 0 0 -317 35 0 0 -106 35 0 0 -71 36 0 0 -70 35 0 0 -106 35 0 0 -36 36 0 0 -176 35 0 0 -317 35 0 0 -36 35 0 0 -106 36 0 0 -70 35 0 0 -35 35 0 0 -106 35 0 0 -71 36 0 0 -917 -36 0 0 -776 36 0 0 -353 -36 0 0 -141 -35 0 0 -141 -176 0 0 -35 -71 0 0 -36 -70 0 0 -70 -36 0 0 -71 -35 0 0 -70 -35 0 0 -318 -35 0 0 -106 -36 0 0 -141 -35 0 0 -35 -35 0 0 -106 -36 0 0 -176 -35 0 0 -36 -35 0 0 -564 -106 0 0 -35 -35 0 0 -36 -35 0 0 -35 -36 0 0 141 36 0 0 106 -106 0 0 141 -36 0 0 36 -35 0 0 35 -70 0 0 35 -71 0 0 71 -212 0 0 35 -35 0 0 35 -106 0 0 -35 -35 0 0 -71 -35 0 0 -176 -36 0 0 -106 -35 0 0 -70 -35 0 0 -247 35 0 0 -36 -70 0 0 -35 -142 0 0 35 -105 0 0 36 -459 0 0 -36 -212 0 0 -35 -176 0 0 71 35 0 0 176 36 0 0 141 35 0 0 177 35 0 0 176 35 0 0 1129 36 0 0 35 35 0 0 106 35 0 0 141 35 0 0 71 36 0 0 282 35 0 0 211 35 0 0 71 36 0 0 212 35 0 0 529 -35 0 0 212 -36 0 0 105 -35 0 0 36 -35 0 0 35 -36 0 0 35 -105 0 0 -35 -36 0 0 -35 -70 0 0 -36 -35 0 0 -35 -36 0 0 -35 -70 0 0 353 35 0 0 105 35 0 0 106 36 0 0 106 35 0 0 106 35 0 0 141 35 0 0 106 36 0 0 141 35 0 0 564 35 0 0 318 494 0 0 35 35 0 0 35 141 0 0 36 71 0 0 35 71 0 0 35 70 0 0 -35 106 0 0 -35 106 0 0 70 35 0 0 36 35 0 0 70 36 0 0 35 35 0 0 36 35 0 0 247 -35 0 0 105 -35 0 0 177 -424 0 0 -35 -35 0 0 -36 -106 0 0 36 -70 0 0 35 -106 0 0 35 -35 0 0 35 -36 0 0 36 -70 0 0 35 -71 0 0 35 -70 0 0 36 -106 0 0 35 -36 0 0 35 -35 0 0 35 -70 0 0 36 -71 0 0 35 -317 0 0 -35 -71 0 0 -36 -35 0 0 -35 -36 0 0 -35 -35 0 0 -35 -35 0 0 -36 -35 0 0 -70 -36 0 0 -36 -35 0 0 -105 -35 0 0 -106 -71 0 0 -71 -35 0 0 -106 -35 0 0 -70 -36 0 0 -71 -35 0 0 -141 -35 0 0 -70 -35 0 0 -106 -36 0 0 -106 -35 0 0 -106 -35 0 0 -106 -36 0 0 -70 -35 0 0 -71 -35 0 0 -141 -35 0 0 -35 -36 0 0 -71 -35 0 0 -70 -35 0 0 -141 -35 0 0 -71 -36 0 0 -35 -35 0 0 -71 -35 0 0 -70 -36 0 0 -36 -35 0 0 -70 -35 0 0 -71 -35 0 0 -70 -36 0 0 -71 -35 0 0 -70 -71 0 0 70 -35 0 0 35 -35 0 0 71 -35 0 0 70 -36 0 0 36 -35 0 0 70 -35 0 0 36 -35 0 0 70 -36 0 0 35 -35 0 0 71 -35 0 0 35 -36 0 0 71 -35 0 0 70 -35 0 0 36 -35 0 0 35 -36 0 0 35 -35 0 0 35 -35 0 0 71 -36 0 0 35 -35 0 0 36 -35 0 0 70 -35 0 0 35 -36 0 0 71 -35 0 0 35 -35 0 0 71 -35 0 0 35 -36 0 0 35 -35 0 0 71 -35 0 0 35 -36 0 0 71 -35 0 0 35 -35 0 0 106 -35 0 0 35 -36 0 0 141 -35 0 0 71 -35 0 0 141 35 0 0 106 35 0 0 211 36 0 0 106 35 0 0 212 35 0 0 106 35 0 0 670 -35 0 0 247 -35 0 0 247 -35 0 0 247 -36 0 0 317 -35 0 0 177 -35 0 0 282 35 0 0 247 -35 0 0 70 -36 0 0 106 -35 0 0 36 -247 0 0 -106 -35 0 0 -71 -35 0 0 -70 -36 0 0 -36 -70 0 0 -35 -212 0 0 35 -70 0 0 36 -36 0 0 247 36 0 0 35 35 0 0 35 106 0 0 35 141 0 0 36 106 0 0 70 -36 0 0 36 -35 0 0 70 -35 0 0 35 -35 0 0 106 -36 0 0 71 -35 0 0 106 -35 0 0 70 -36 0 0 71 -35 0 0 35 -247 0 0 -35 -35 0 0 -36 -35 0 0 -35 -36 0 0 -70 -35 0 0 -36 -35 0 0 36 -35 0 0 35 -36 0 0 35 -35 0 0 35 -35 0 0 36 -36 0 0 35 -35 0 0 -106 -35 0 0 35 -35 0 0 36 -4022 0 0 1905 35 0 0 176 36 0 0 106 35 0 0 70 35 0 0 71 35 0 0 71 36 0 0 35 35 0 0 70 35 0 0 36 35 0 0 35 36 0 0 35 35 0 0 36 35 0 0 35 36 0 0 35 70 0 0 35 35 0 0 36 36 0 0 35 70 0 0 35 71 0 0 35 70 0 0 36 106 0 0 35 177 0 0 35 12947 0 0 -35 176 0 0 -35 106 0 0 -36 70 0 0 -35 71 0 0 -35 70 0 0 -35 36 0 0 -36 70 0 0 -35 36 0 0 -35 35 0 0 -35 35 0 0 -36 35 0 0 -35 36 0 0 -35 35 0 0 -36 35 0 0 -70 35 0 0 -35 36 0 0 -71 35 0 0 -71 35 0 0 -70 36 0 0 -106 35 0 0 -106 35 0 0 -17215 -35 0 0 -141 -35 0 0 -106 -36 0 0 -71 -35 0 0 -70 -35 0 0 -71 -36 0 0 -70 -35 0 0 -36 -35 0 0 -35 -35 0 0 -35 -36 0 0 -71 -70 0 0 -35 -35 0 0 -35 -36 0 0 -36 -35 0 0 -35 -35 0 0 -35 -71 0 0 -36 -70 0 0 -35 -71 0 0 -35 -106 0 0 -35 -141 0 0 -36 -2364 0 0 36 71 0 0 70 106 0 0 35 35 0 0 36 71 0 0 35 35 0 0 35 35 0 0 106 36 0 0 35 35 0 0 424 -35 0 0 494 -36 0 0 35 -35 0 0 70 -35 0 0 71 -36 0 0 35 -35 0 0 36 -35 0 0 35 -35 0 0 141 776 0 0 35 106 0 0 36 70 0 0 35 35 0 0 35 36 0 0 35 70 0 0 36 71 0 0 35 70 0 0 35 36 0 0 35 105 0 0 36 71 0 0 35 35 0 0 35 71 0 0 36 35 0 0 35 35 0 0 35 71 0 0 35 35 0 0 36 35 0 0 35 36 0 0 35 35 0 0 36 35 0 0 35 71 0 0 70 70 0 0 318 36 0 0 70 35 0 0 71 35 0 0 35 36 0 0 141 35 0 0 283 35 0 0 141 35 0 0 388 36 0 0 176 35 0 0 247 35 0 0 318 35 0 0 70 36 0 0 423 -36 0 0 177 -70 0 0 70 -106 0 0 -211 -35 0 0 -36 -71 0 0 -35 -35 0 0 -317 -35 0 0 -71 -36 0 0 -70 -35 0 0 -36 -70 0 0 -35 -142 0 0 35 -35 0 0 36 -141 0 0 -142 71 0 0 -35 35 0 0 -106 35 0 0 -35 35 0 0 -35 36 0 0 -35 35 0 0 -36 71 0 0 -141 -36 0 0 -212 -35 0 0 -70 -35 0 0 -71 -36 0 0 -105 -35 0 0 -106 -35 0 0 -106 -35 0 0 -35 -36 0 0 -71 -35 0 0 -71 -35 0 0 -141 -141 0 0 36 -71 0 0 35 -70 0 0 35 -247 0 0 -35 -212 0 0 -35 -106 0 0 -71 -35 0 0 -35 -71 0 0 282 36 0 0 247 35 0 0 600 35 0 0 388 35 0 0 106 36 0 0 211 35 0 0 212 35 0 0 141 36 0 0 388 -36 0 0 35 -106 0 0 -35 -35 0 0 -70 -35 0 0 -36 -141 0 0 141 -36 0 0 71 -35 0 0 176 -35 0 0 106 -35 0 0 71 -36 0 0 106 -35 0 0 176 -35 0 0 176 -35 0 0 106 -36 0 0 71 -35 0 0 141 -35 0 0 141 -36 0 0 106 -35 0 0 106 -35 0 0 70 -35 0 0 106 35 0 0 35 35 0 0 36 35 0 0 35 36 0 0 35 35 0 0 35 141 0 0 -35 141 0 0 35 141 0 0 36z"/>
   <path class="fil1" d="M10803 5425l-35 0 0 106 -35 0 0 176 -35 0 0 106 -36 0 0 141 -388 0 0 -35 -35 0 0 -71 35 0 0 -141 35 0 0 -141 36 0 0 -106 35 0 0 -176 35 0 0 -141 36 0 0 -106 35 0 0 -35 35 0 0 -36 35 0 0 -35 106 0 0 35 106 0 0 36 35 0 0 35 36 0 0 247 -36 0 0 141zm-5468 10442l71 0 0 35 70 0 0 36 36 0 0 70 35 0 0 71 35 0 0 106 247 0 0 -36 35 0 0 -106 36 0 0 -70 35 0 0 -247 -35 0 0 -282 35 0 0 -177 35 0 0 -317 36 0 0 -247 35 0 0 -247 35 0 0 -247 35 0 0 -670 -35 0 0 -106 -35 0 0 -212 -35 0 0 -106 -36 0 0 -211 -35 0 0 -106 -35 0 0 -141 35 0 0 -71 35 0 0 -141 36 0 0 -35 35 0 0 -106 35 0 0 -35 35 0 0 -71 36 0 0 -35 35 0 0 -71 35 0 0 -35 36 0 0 -35 35 0 0 -71 35 0 0 -35 35 0 0 -71 36 0 0 -35 35 0 0 -70 35 0 0 -36 35 0 0 -35 36 0 0 -71 35 0 0 -35 35 0 0 -35 36 0 0 -35 35 0 0 -36 35 0 0 -70 35 0 0 -71 36 0 0 -35 35 0 0 -71 35 0 0 -35 36 0 0 -70 35 0 0 -36 35 0 0 -70 35 0 0 -36 36 0 0 -70 35 0 0 -71 35 0 0 -35 35 0 0 -70 71 0 0 70 35 0 0 71 36 0 0 70 35 0 0 71 35 0 0 70 35 0 0 36 36 0 0 70 35 0 0 71 35 0 0 35 36 0 0 71 35 0 0 141 35 0 0 70 35 0 0 71 36 0 0 35 35 0 0 141 35 0 0 71 35 0 0 70 36 0 0 106 35 0 0 106 35 0 0 106 36 0 0 106 35 0 0 70 35 0 0 141 35 0 0 71 36 0 0 70 35 0 0 106 35 0 0 71 71 0 0 106 35 0 0 105 35 0 0 36 36 0 0 70 35 0 0 36 35 0 0 35 35 0 0 35 36 0 0 35 35 0 0 36 71 0 0 35 317 0 0 -35 71 0 0 -36 70 0 0 -35 35 0 0 -35 36 0 0 -35 106 0 0 -36 70 0 0 -35 71 0 0 -35 70 0 0 -36 36 0 0 -35 35 0 0 -35 106 0 0 -35 70 0 0 -36 106 0 0 36 35 0 0 35 424 0 0 -177 35 0 0 -105 35 0 0 -247 -35 0 0 -36 -35 0 0 -35 -36 0 0 -70 -35 0 0 -36 -35 0 0 -70 -106 0 0 35 -106 0 0 35 -70 0 0 -35 -71 0 0 -35 -71 0 0 -36 -141 0 0 -35 -35 0 0 -35 -494 0 0 -318 -35 0 0 -564 -35 0 0 -141 -36 0 0 -106 -35 0 0 -141 -35 0 0 -106 -35 0 0 -106 -36 0 0 -106 -35 0 0 -105 -35 0 0 -353 70 0 0 35 36 0 0 35 35 0 0 36 70 0 0 35 36 0 0 35 105 0 0 -35 36 0 0 -35 35 0 0 -36 35 0 0 -105 36 0 0 -212 35 0 0 -529 -35 0 0 -212 -36 0 0 -71 -35 0 0 -211 -35 0 0 -282 -36 0 0 -71 -35 0 0 -141 -35 0 0 -106 -35 0 0 -35 -36 0 0 -1129 -35 0 0 -176 -35 0 0 -177 -35 0 0 -141 -36 0 0 -176 -35 0 0 -71 176 0 0 35 212 0 0 36 459 0 0 -36 105 0 0 -35 142 0 0 35 70 0 0 36 -35 0 0 247 35 0 0 70 35 0 0 106 36 0 0 176 35 0 0 71 35 0 0 35 106 0 0 -317 35 0 0 -36 71 0 0 -35 35 0 0 -35 71 0 0 -35 176 0 0 35 177 0 0 -71 -36 0 0 -141 36 0 0 35 35 0 0 36 35 0 0 35 106 0 0 564 35 0 0 36 35 0 0 176 36 0 0 106 35 0 0 35 35 0 0 141 36 0 0 106 35 0 0 318 35 0 0 70 35 0 0 71 36 0 0 70 70 0 0 36 71 0 0 35 176 0 0 141 35 0 0 141 36 0 0 353 -36 0 0 776 36 0 0 917 -36 0 0 71 -35 0 0 176 35 0 0 -35 177 0 0 35 70 0 0 35 36 0 0 36 35 0 0 35 35 0 0 71 36 0 0 -71 35 0 0 -564 35 0 0 -142 35 0 0 -141 36 0 0 -70 35 0 0 -141 35 0 0 -36 318 0 0 -35 70 0 0 -70 36 0 0 -36 35 0 0 -35 35 0 0 -35 35 0 0 -71 71 0 0 -106 35 0 0 -70 35 0 0 -71 -35 0 0 36 -35 0 0 35 -35 0 0 35 -36 0 0 71 -35 0 0 35 -35 0 0 70 -35 0 0 36 -36 0 0 35 -35 0 0 35 -35 0 0 36 -106 0 0 35 -106 0 0 -35 -106 0 0 -177 35 0 0 -176 36 0 0 -212 35 0 0 -529 71 0 0 35 35 0 0 36 70 0 0 35 71 0 0 35 71 0 0 35 35 0 0 -70 35 0 0 -35 35 0 0 -36 36 0 0 -106 35 0 0 -247 -35 0 0 -35 -106 0 0 -35 -71 0 0 -71 -35 0 0 -35 -35 0 0 -35 -36 0 0 -35 -35 0 0 -36 -35 0 0 -35 -35 0 0 -106 35 0 0 -70 35 0 0 -106 35 0 0 -106 36 0 0 -141 35 0 0 -141 35 0 0 -71 36 0 0 -106 35 0 0 -176 35 0 0 -176 35 0 0 -106 36 0 0 -71 35 0 0 -106 35 0 0 -176 35 0 0 -71 36 0 0 -141 141 0 0 36 35 0 0 70 35 0 0 35 106 0 0 -35 36 0 0 -388 -36 0 0 -141 -35 0 0 -212 -35 0 0 -211 -36 0 0 -106 -35 0 0 -388 -35 0 0 -600 -35 0 0 -247 -36 0 0 -282 71 0 0 35 35 0 0 71 106 0 0 35 212 0 0 35 247 0 0 -35 70 0 0 -35 71 0 0 -36 141 0 0 141 35 0 0 71 35 0 0 71 36 0 0 35 35 0 0 106 35 0 0 106 35 0 0 105 36 0 0 71 35 0 0 70 35 0 0 212 36 0 0 141 -71 0 0 36 -35 0 0 35 -36 0 0 35 -35 0 0 35 -35 0 0 106 -35 0 0 35 -71 0 0 142 141 0 0 -36 35 0 0 -35 142 0 0 35 70 0 0 36 35 0 0 70 36 0 0 71 35 0 0 317 35 0 0 35 71 0 0 36 35 0 0 211 106 0 0 -70 70 0 0 -177 36 0 0 -423 -36 0 0 -70 -35 0 0 -318 -35 0 0 -247 -35 0 0 -176 -36 0 0 -388 -35 0 0 -141 -35 0 0 -283 -35 0 0 -141 -36 0 0 -35 -35 0 0 -71 -35 0 0 -70 -36 0 0 -318 -70 0 0 -70 -71 0 0 -35 -35 0 0 -36 -35 0 0 -35 -36 0 0 -35 -35 0 0 -36 -35 0 0 -35 -71 0 0 -35 -35 0 0 -35 -35 0 0 -36 -71 0 0 -35 -35 0 0 -35 -71 0 0 -36 -105 0 0 -35 -36 0 0 -35 -70 0 0 -35 -71 0 0 -36 -70 0 0 -35 -36 0 0 -35 -35 0 0 -35 -70 0 0 -36 -106 0 0 -35 -776 0 0 -141 35 0 0 -35 35 0 0 -36 35 0 0 -35 36 0 0 -71 35 0 0 -70 35 0 0 -35 36 0 0 -494 35 0 0 -424 -35 0 0 -35 -36 0 0 -106 -35 0 0 -35 -35 0 0 -35 -71 0 0 -36 -35 0 0 -35 -106 0 0 -70 -71 0 0 -36 2364 0 0 36 141 0 0 35 106 0 0 35 71 0 0 35 70 0 0 36 71 0 0 35 35 0 0 35 35 0 0 36 36 0 0 35 35 0 0 35 70 0 0 71 36 0 0 35 35 0 0 35 35 0 0 36 35 0 0 70 36 0 0 71 35 0 0 70 35 0 0 71 36 0 0 106 35 0 0 141 35 0 0 17215 -35 0 0 106 -35 0 0 106 -36 0 0 70 -35 0 0 71 -35 0 0 71 -36 0 0 35 -35 0 0 70 -35 0 0 36 -35 0 0 35 -36 0 0 35 -35 0 0 36 -35 0 0 35 -35 0 0 35 -36 0 0 35 -70 0 0 36 -36 0 0 35 -70 0 0 35 -71 0 0 35 -70 0 0 36 -106 0 0 35 -176 0 0 35 -12947 0 0 -35 -177 0 0 -35 -106 0 0 -36 -70 0 0 -35 -71 0 0 -35 -70 0 0 -35 -36 0 0 -36 -35 0 0 -35 -70 0 0 -35 -36 0 0 -35 -35 0 0 -36 -35 0 0 -35 -36 0 0 -35 -35 0 0 -36 -35 0 0 -70 -35 0 0 -35 -36 0 0 -71 -35 0 0 -71 -35 0 0 -70 -35 0 0 -106 -36 0 0 -176 -35 0 0 -17181 35 0 0 -105 36 0 0 -106 35 0 0 -71 35 0 0 -70 35 0 0 -71 36 0 0 -70 35 0 0 -36 35 0 0 -35 35 0 0 -35 36 0 0 -36 35 0 0 -35 35 0 0 -35 36 0 0 -35 35 0 0 -36 35 0 0 -35 71 0 0 -35 35 0 0 -36 71 0 0 -35 70 0 0 -35 106 0 0 -35 141 0 0 -36 9984 0 0 71 -36 0 0 35 -35 0 0 35 -70 0 0 36 -36 0 0 35 -35 0 0 35 -35 0 0 36 -36 0 0 35 -35 0 0 35 -35 0 0 35 -35 0 0 71 -36 0 0 106 -35 0 0 176 -35 0 0 212 35 0 0 141 35 0 0 71 36 0 0 70 35 0 0 318 70 0 0 141 36 0 0 176 -141 0 0 35 -71 0 0 36 -71 0 0 35 -70 0 0 35 -71 0 0 35 -70 0 0 36 -106 0 0 35 -35 0 0 35 -106 0 0 36 -71 0 0 35 -35 0 0 35 -71 0 0 35 -35 0 0 36 -35 0 0 70 -35 0 0 36 -36 0 0 70 -35 0 0 71 -35 0 0 141 -35 0 0 247 -36 0 0 458 -35 0 0 494 -35 0 0 177 35 0 0 811 -35 0 0 -35 -36 0 0 -36 -35 0 0 -35 -35 0 0 -35 -35 0 0 -35 -36 0 0 -71 -35 0 0 -35 -35 0 0 -36 -36 0 0 -35 -35 0 0 -35 -35 0 0 -35 -35 0 0 -36 -36 0 0 -35 -35 0 0 -35 -35 0 0 -35 -35 0 0 -36 -36 0 0 -35 -70 0 0 -35 -36 0 0 -36 -35 0 0 -35 -70 0 0 -35 -71 0 0 -35 -35 0 0 -36 -71 0 0 -35 -70 0 0 -35 -177 0 0 -36 -70 0 0 -35 -600 0 0 -35 -106 0 0 -35 -212 0 0 -36 -211 0 0 -70 35 0 0 -106 35 0 0 -71 36 0 0 -35 35 0 0 -70 35 0 0 -36 35 0 0 -70 36 0 0 -71 35 0 0 -35 35 0 0 -71 36 0 0 71 35 0 0 106 35 0 0 70 141 0 0 36 36 0 0 35 70 0 0 -71 71 0 0 36 35 0 0 35 247 0 0 -35 35 0 0 -36 -70 0 0 -35 -71 0 0 -35 -35 0 0 -36 -36 0 0 -35 -35 0 0 -70 -35 0 0 -106 -35 0 0 -212 35 0 0 -317 35 0 0 -36 35 0 0 -70 -35 0 0 -141 -35 0 0 -424 -35 0 0 -105 -36 0 0 -177 -35 0 0 -70 -35 0 0 -71 -35 0 0 -35 -36 0 0 -36 -70 0 0 -35 -353 0 0 35 -353 0 0 -35 -247 0 0 -35 -423 0 0 35 -35 0 0 35 -71 0 0 36 -71 0 0 35 -70 0 0 35 -35 0 0 36 -71 0 0 35 -35 0 0 35 -35 0 0 35 -36 0 0 36 -35 0 0 35 -35 0 0 35 -36 0 0 36 -35 0 0 35 -35 0 0 35 -35 0 0 71 -36 0 0 70 -35 0 0 459 -35 0 0 458 35 0 0 459 35 0 0 106 36 0 0 70 35 0 0 36 35 0 0 70 35 0 0 71 36 0 0 35 35 0 0 71 35 0 0 141 -353 0 0 35 -70 0 0 35 -247 0 0 36 -35 0 0 35 -106 0 0 35 -71 0 0 35 -70 0 0 36 -36 0 0 35 -35 0 0 35 -35 0 0 36 -35 0 0 35 -36 0 0 35 -35 0 0 35 -35 0 0 36 -35 0 0 70 -36 0 0 71 -35 0 0 70 -35 0 0 71 -36 0 0 70 -35 0 0 71 -35 0 0 106 -35 0 0 35 -36 0 0 71 -35 0 0 35 -35 0 0 35 -36 0 0 106 -35 0 0 35 -35 0 0 36 -35 0 0 70 -36 0 0 71 -35 0 0 70 -35 0 0 71 -35 0 0 106 -36 0 0 35 -35 0 0 247 -35 0 0 35 -36 0 0 35 -35 0 0 36 -70 0 0 35 -36 0 0 35 -35 0 0 36 -35 0 0 35 -36 0 0 35 -35 0 0 35 -35 0 0 36 -35 0 0 35 -36 0 0 35 -35 0 0 71 -35 0 0 35 -35 0 0 35 -36 0 0 36 -35 0 0 35 -35 0 0 35 -36 0 0 35 -35 0 0 36 -35 0 0 35 -35 0 0 35 -36 0 0 36 -70 0 0 35 -36 0 0 35 -35 0 0 35 -35 0 0 36 -35 0 0 35 -36 0 0 35 -35 0 0 35 -70 0 0 36 -36 0 0 35 -35 0 0 35 -35 0 0 36 -71 0 0 35 -35 0 0 35 -71 0 0 35 -70 0 0 36 -71 0 0 35 -70 0 0 35 -141 0 0 36 -71 0 0 35 -71 0 0 35 -35 0 0 106 -35 0 0 564 35 0 0 36 35 0 0 35 36 0 0 35 35 0 0 35 35 0 0 36 36 0 0 35 176 0 0 -35 106 0 0 -71 -36 0 0 -35 -35 0 0 -35 -35 0 0 -71 -35 0 0 -35 -36 0 0 -71 106 0 0 71 106 0 0 -35 35 0 0 -36 36 0 0 -70 35 0 0 -71 35 0 0 -35 35 0 0 -35 71 0 0 -36 35 0 0 -35 36 0 0 -35 35 0 0 -36 35 0 0 -35 35 0 0 -35 36 0 0 -35 35 0 0 -36 35 0 0 -35 35 0 0 -35 71 0 0 -35 35 0 0 -36 71 0 0 -35 35 0 0 -35 71 0 0 -36 35 0 0 -35 71 0 0 -35 35 0 0 -35 70 0 0 -36 71 0 0 -35 70 0 0 -35 71 0 0 -36 35 0 0 -35 71 0 0 -35 35 0 0 -35 71 0 0 -36 70 0 0 -35 36 0 0 -35 70 0 0 -35 35 0 0 -36 36 0 0 -35 70 0 0 -35 35 0 0 -36 36 0 0 -35 70 0 0 -35 36 0 0 -35 35 0 0 35 35 0 0 35 71 0 0 35 35 0 0 36 71 0 0 35 70 0 0 35 71 0 0 36 247 0 0 -36 35 0 0 -35 35 0 0 -35 35 0 0 -71 36 0 0 -35 35 0 0 -141 35 0 0 -36 36 0 0 353 -36 0 0 212 36 0 0 70 35 0 0 142 35 0 0 35 35 0 0 247 36 0 0 776 -36 0 0 141 -35 0 0 353 -35 0 0 35 -35 0 0 176 35 0 0 71 35 0 0 35 71 0 0 36 35 0 0 70 -35 0 0 35 -36 0 0 71 -35 0 0 71 -35 0 0 70 -35 0 0 71 -36 0 0 70 -35 0 0 71 -35 0 0 70 -36 0 0 106 -35 0 0 35 -35 0 0 106 -35 0 0 71 -36 0 0 106 -35 0 0 105 -35 0 0 106 -36 0 0 141 -35 0 0 177 -35 0 0 211 -35 0 0 36 -36 0 0 141 -35 0 0 141 -35 0 0 71 -35 0 0 70 -36 0 0 106 -35 0 0 70 -35 0 0 212 -36 0 0 353 36 0 0 70 35 0 0 142 35 0 0 35 36 0 0 106 35 0 0 423 35 0 0 106 35 0 0 282 36 0 0 71 35 0 0 247 35 0 0 282 35 0 0 141 36 0 0 564 35 0 0 565 35 0 0 35zm10795 4480l0 -20320 -16051 0 0 20320 16051 0z"/>
   <path class="fil2" d="M2831 2920l1128 0 0 141 -1305 0 0 -1623 353 0 0 1306 952 0 0 141 -1128 0 0 35zm-1553 -1482l671 0 0 36 70 0 0 35 106 0 0 35 35 0 0 36 71 0 0 35 35 0 0 35 35 0 0 35 36 0 0 36 35 0 0 35 35 0 0 71 36 0 0 35 35 0 0 106 35 0 0 70 35 0 0 353 -35 0 0 141 -35 0 0 71 -35 0 0 70 -36 0 0 71 -35 0 0 35 -35 0 0 35 -36 0 0 36 -35 0 0 35 -35 0 0 35 -71 0 0 35 -70 0 0 36 -71 0 0 35 -176 0 0 35 -565 0 0 -141 600 0 0 -35 106 0 0 -35 -141 0 0 35 -565 0 0 -141 565 0 0 -36 106 0 0 -35 70 0 0 -35 35 0 0 -35 36 0 0 -36 35 0 0 -35 35 0 0 -70 36 0 0 -71 35 0 0 -318 -35 0 0 -35 -36 0 0 -70 -35 0 0 -36 -35 0 0 -35 -36 0 0 -35 -35 0 0 -35 -70 0 0 -36 -71 0 0 -35 -600 0 0 -141 565 0 0 35 141 0 0 35 70 0 0 36 71 0 0 -36 -35 0 0 -35 -71 0 0 -35 -106 0 0 -35 -635 0 0 -142zm4375 71l-35 0 0 35 -36 0 0 36 -35 0 0 35 71 0 0 -35 35 0 0 -36 35 0 0 -35 35 0 0 -35 36 0 0 -36 176 0 0 36 -35 0 0 35 -36 0 0 35 -35 0 0 36 -35 0 0 35 -35 0 0 35 -36 0 0 35 -70 0 0 36 -35 0 0 35 -36 0 0 35 -35 0 0 36 -35 0 0 35 -36 0 0 35 -35 0 0 35 -70 0 0 36 -36 0 0 35 -35 0 0 35 -35 0 0 35 -36 0 0 36 -35 0 0 35 -70 0 0 35 -36 0 0 36 -35 0 0 35 -35 0 0 35 -35 0 0 35 -36 0 0 36 -70 0 0 35 -36 0 0 35 -35 0 0 36 -35 0 0 35 -35 0 0 35 -36 0 0 35 -35 0 0 36 -71 0 0 35 -35 0 0 35 -35 0 0 35 -35 0 0 36 -36 0 0 35 -35 0 0 35 -70 0 0 36 -36 0 0 35 -35 0 0 35 -35 0 0 35 -36 0 0 36 -35 0 0 35 -35 0 0 35 -35 0 0 -1623 141 0 0 1306 35 0 0 -36 35 0 0 -35 -35 0 0 -1235 141 0 0 918 35 0 0 -36 36 0 0 -35 35 0 0 -35 70 0 0 -35 36 0 0 -36 35 0 0 -35 35 0 0 -35 36 0 0 -36 70 0 0 -35 35 0 0 -35 36 0 0 -35 35 0 0 -36 35 0 0 -35 71 0 0 -35 35 0 0 -35 35 0 0 -36 36 0 0 -35 35 0 0 -35 35 0 0 -36 71 0 0 -35 35 0 0 -35 35 0 0 -35 36 0 0 -36 35 0 0 -35 70 0 0 -35 36 0 0 -36 176 0 0 36 -35 0 0 35zm-5186 15452l4022 0 0 -36 35 0 0 -35 35 0 0 -35 35 0 0 -35 36 0 0 -36 35 0 0 -35 35 0 0 -71 36 0 0 -35 35 0 0 -70 35 0 0 -36 35 0 0 71 -35 0 0 70 -35 0 0 106 35 0 0 36 35 0 0 -177 36 0 0 -70 35 0 0 -71 35 0 0 -35 36 0 0 -71 35 0 0 -70 35 0 0 -106 71 0 0 -35 -36 0 0 -247 36 0 0 -36 70 0 0 -35 141 0 0 -35 -35 0 0 -565 -35 0 0 -564 -36 0 0 -141 -35 0 0 -282 -35 0 0 -247 -35 0 0 -71 -36 0 0 -282 -35 0 0 -106 -35 0 0 -423 -35 0 0 -106 -36 0 0 -35 -35 0 0 -142 -35 0 0 -70 -36 0 0 -353 36 0 0 -212 35 0 0 -70 35 0 0 -106 36 0 0 -70 35 0 0 -71 35 0 0 -141 35 0 0 -141 36 0 0 -36 35 0 0 -211 35 0 0 -177 35 0 0 -141 36 0 0 -106 35 0 0 -105 35 0 0 -106 36 0 0 -71 35 0 0 -106 35 0 0 -35 35 0 0 -106 36 0 0 -70 35 0 0 -71 35 0 0 -70 36 0 0 -71 35 0 0 -70 35 0 0 -71 35 0 0 -71 36 0 0 -35 35 0 0 -70 -35 0 0 -36 -71 0 0 -35 -35 0 0 -71 -35 0 0 -176 35 0 0 -35 35 0 0 -353 35 0 0 -141 36 0 0 -776 -36 0 0 -247 -35 0 0 -35 -35 0 0 -142 -35 0 0 -70 -36 0 0 -212 36 0 0 -353 -36 0 0 36 -35 0 0 141 -35 0 0 35 -36 0 0 71 -35 0 0 35 -35 0 0 35 -35 0 0 36 -247 0 0 -36 -71 0 0 -35 -70 0 0 -35 -71 0 0 -36 -35 0 0 -35 -71 0 0 -35 -35 0 0 -35 -35 0 0 35 -36 0 0 35 -70 0 0 35 -36 0 0 36 -35 0 0 35 -70 0 0 35 -36 0 0 36 -35 0 0 35 -70 0 0 35 -36 0 0 35 -70 0 0 36 -71 0 0 35 -35 0 0 35 -71 0 0 35 -35 0 0 36 -71 0 0 35 -70 0 0 35 -71 0 0 36 -70 0 0 35 -35 0 0 35 -71 0 0 35 -35 0 0 36 -71 0 0 35 -35 0 0 35 -71 0 0 36 -35 0 0 35 -71 0 0 35 -35 0 0 35 -35 0 0 36 -35 0 0 35 -36 0 0 35 -35 0 0 35 -35 0 0 36 -35 0 0 35 -36 0 0 35 -35 0 0 36 -71 0 0 35 -35 0 0 35 -35 0 0 71 -35 0 0 70 -36 0 0 36 -35 0 0 35 -106 0 0 -71 -106 0 0 71 36 0 0 35 35 0 0 71 35 0 0 35 35 0 0 35 36 0 0 71 -106 0 0 35 -176 0 0 -35 -36 0 0 -36 -35 0 0 -35 -35 0 0 -35 -36 0 0 -35 -35 0 0 -36 -35 0 0 -564 35 0 0 -106 35 0 0 -35 71 0 0 -35 71 0 0 -36 141 0 0 -35 70 0 0 -35 71 0 0 -36 70 0 0 -35 71 0 0 -35 35 0 0 -35 71 0 0 -36 35 0 0 -35 35 0 0 -35 36 0 0 -36 70 0 0 -35 35 0 0 -35 36 0 0 -35 35 0 0 -36 35 0 0 -35 35 0 0 -35 36 0 0 -35 70 0 0 -36 36 0 0 -35 35 0 0 -35 35 0 0 -36 35 0 0 -35 36 0 0 -35 35 0 0 -35 35 0 0 -36 36 0 0 -35 35 0 0 -35 35 0 0 -71 35 0 0 -35 36 0 0 -35 35 0 0 -36 35 0 0 -35 35 0 0 -35 36 0 0 -35 35 0 0 -36 35 0 0 -35 36 0 0 -35 70 0 0 -36 35 0 0 -35 36 0 0 -35 35 0 0 -247 35 0 0 -35 36 0 0 -106 35 0 0 -71 35 0 0 -70 35 0 0 -71 36 0 0 -70 35 0 0 -36 35 0 0 -35 35 0 0 -106 36 0 0 -35 35 0 0 -35 35 0 0 -71 36 0 0 -35 35 0 0 -106 35 0 0 -71 35 0 0 -70 36 0 0 -71 35 0 0 -70 35 0 0 -71 36 0 0 -70 35 0 0 -36 35 0 0 -35 35 0 0 -35 36 0 0 -35 35 0 0 -36 35 0 0 -35 35 0 0 -35 36 0 0 -36 70 0 0 -35 71 0 0 -35 106 0 0 -35 35 0 0 -36 247 0 0 -35 70 0 0 -35 353 0 0 -141 -35 0 0 -71 -35 0 0 -35 -36 0 0 -71 -35 0 0 -70 -35 0 0 -36 -35 0 0 -70 -36 0 0 -106 -35 0 0 -459 -35 0 0 -458 35 0 0 -459 35 0 0 -70 36 0 0 -71 35 0 0 -35 35 0 0 -35 35 0 0 -36 36 0 0 -35 35 0 0 -35 35 0 0 -36 36 0 0 -35 35 0 0 -35 35 0 0 -35 71 0 0 -36 35 0 0 -35 70 0 0 -35 71 0 0 -36 71 0 0 -35 35 0 0 -35 423 0 0 35 247 0 0 35 353 0 0 -35 353 0 0 35 70 0 0 36 36 0 0 35 35 0 0 71 35 0 0 70 35 0 0 177 36 0 0 105 35 0 0 424 35 0 0 141 35 0 0 70 -35 0 0 36 -35 0 0 317 -35 0 0 212 35 0 0 106 35 0 0 70 35 0 0 35 36 0 0 36 35 0 0 35 71 0 0 35 70 0 0 36 -35 0 0 35 -247 0 0 -35 -35 0 0 -36 -71 0 0 71 -70 0 0 -35 -36 0 0 -36 -141 0 0 -70 -35 0 0 -106 -35 0 0 -71 -36 0 0 71 -35 0 0 35 -35 0 0 71 -36 0 0 70 -35 0 0 36 -35 0 0 70 -35 0 0 35 -36 0 0 71 -35 0 0 106 -35 0 0 70 211 0 0 36 212 0 0 35 106 0 0 35 600 0 0 35 70 0 0 36 177 0 0 35 70 0 0 35 71 0 0 36 35 0 0 35 71 0 0 35 70 0 0 35 35 0 0 36 36 0 0 35 70 0 0 35 36 0 0 36 35 0 0 35 35 0 0 35 35 0 0 35 36 0 0 36 35 0 0 35 35 0 0 35 35 0 0 35 36 0 0 36 35 0 0 35 35 0 0 71 36 0 0 35 35 0 0 35 35 0 0 35 35 0 0 36 36 0 0 35 35 0 0 -811 -35 0 0 -177 35 0 0 -494 35 0 0 -458 36 0 0 -247 35 0 0 -141 35 0 0 -71 35 0 0 -70 36 0 0 -36 35 0 0 -70 35 0 0 -36 35 0 0 -35 71 0 0 -35 35 0 0 -35 71 0 0 -36 106 0 0 -35 35 0 0 -35 106 0 0 -36 70 0 0 -35 71 0 0 -35 70 0 0 -35 71 0 0 -36 71 0 0 -35 141 0 0 -176 -36 0 0 -141 -70 0 0 -318 -35 0 0 -70 -36 0 0 -71 -35 0 0 -141 -35 0 0 -212 35 0 0 -176 35 0 0 -106 36 0 0 -71 35 0 0 -35 35 0 0 -35 35 0 0 -35 36 0 0 -36 35 0 0 -35 35 0 0 -35 36 0 0 -36 70 0 0 -35 35 0 0 -35 36 0 0 -71 -9984 0 0 36 -141 0 0 35 -106 0 0 35 -70 0 0 35 -71 0 0 36 -35 0 0 35 -71 0 0 35 -35 0 0 36 -35 0 0 35 -36 0 0 35 -35 0 0 35 -35 0 0 36 -36 0 0 35 -35 0 0 35 -35 0 0 36 -35 0 0 70 -36 0 0 71 -35 0 0 70 -35 0 0 71 -35 0 0 106 -36 0 0 105 -35 0 0 15276z"/>
   <polygon class="fil1" points="5229,16961 5229,17172 5265,17172 5265,17243 5300,17243 5300,17278 5371,17278 5371,17313 5441,17313 5441,17349 5406,17349 5406,17384 5371,17384 5371,17419 5335,17419 5335,17455 5300,17455 5300,17490 5265,17490 5265,17525 5229,17525 5229,17560 5159,17560 5159,17596 5088,17596 5088,17631 5053,17631 5053,17666 4806,17666 4806,17631 4771,17631 4771,17596 4700,17596 4700,17560 4630,17560 4630,17525 4594,17525 4594,17490 4559,17490 4559,17455 4524,17455 4524,17419 4489,17419 4489,17349 4453,17349 4453,17208 4418,17208 4418,17172 4383,17172 4383,17490 4418,17490 4418,17596 4453,17596 4453,17631 4489,17631 4489,17702 4524,17702 4524,17737 4559,17737 4559,17772 4594,17772 4594,17807 4630,17807 4630,17843 4665,17843 4665,17878 5088,17878 5088,17843 5159,17843 5159,17807 5229,17807 5229,17772 5265,17772 5265,17737 5300,17737 5300,17702 5335,17702 5335,17666 5371,17666 5371,17631 5406,17631 5406,17596 5441,17596 5441,17560 5476,17560 5476,17525 5512,17525 5512,17490 5547,17490 5547,17455 5582,17455 5582,17419 5618,17419 5618,17349 5653,17349 5653,17278 5547,17278 5547,17208 5582,17208 5582,17172 5618,17172 5618,17102 5653,17102 5653,17067 5688,17067 5688,16996 5723,16996 5723,16961 5759,16961 5759,16890 5794,16890 5794,16855 5829,16855 5829,16820 5864,16820 5864,16749 5900,16749 5900,16714 5935,16714 5935,16678 5970,16678 5970,16643 6006,16643 6006,16714 5970,16714 5970,16784 5935,16784 5935,16855 5970,16855 5970,16820 6006,16820 6006,16784 6041,16784 6041,16749 6076,16749 6076,16678 6111,16678 6111,16643 6147,16643 6147,16573 6182,16573 6182,16502 6217,16502 6217,16149 6182,16149 6182,16079 6147,16079 6147,15867 6076,15867 6076,15938 6041,15938 6041,16079 6006,16079 6006,16114 5970,16114 5970,16149 5935,16149 5935,16220 5653,16220 5653,16255 5618,16255 5618,16290 5582,16290 5582,16361 5547,16361 5547,16432 5512,16432 5512,16467 5476,16467 5476,16573 5441,16573 5441,16643 5406,16643 5406,16678 5371,16678 5371,16784 5335,16784 5335,16855 5300,16855 5300,16925 5265,16925 5265,16961 "/>
   <polygon class="fil1" points="4101,3061 4136,3061 4136,3026 4171,3026 4171,2991 4206,2991 4206,2955 4242,2955 4242,2920 4277,2920 4277,2885 4312,2885 4312,2850 4348,2850 4348,2814 4418,2814 4418,2779 4453,2779 4453,2744 4489,2744 4489,2708 4524,2708 4524,2673 4559,2673 4559,2638 4594,2638 4594,2603 4665,2603 4665,2567 4700,2567 4700,2532 4736,2532 4736,2497 4771,2497 4771,2462 4806,2462 4806,2426 4841,2426 4841,2391 4877,2391 4877,2356 4947,2356 4947,2320 4983,2320 4983,2285 5018,2285 5018,2250 5053,2250 5053,2215 5088,2215 5088,2179 5124,2179 5124,2144 5194,2144 5194,2109 5229,2109 5229,2073 5265,2073 5265,2038 5300,2038 5300,2003 5335,2003 5335,1968 5371,1968 5371,1932 5441,1932 5441,1897 5476,1897 5476,1862 5512,1862 5512,1827 5547,1827 5547,1791 5582,1791 5582,1756 5618,1756 5618,1721 5653,1721 5653,1685 5723,1685 5723,1650 5759,1650 5759,1615 5794,1615 5794,1580 5829,1580 5829,1544 5864,1544 5864,1509 5900,1509 5900,1474 5935,1474 5935,1438 5759,1438 5759,1474 5723,1474 5723,1509 5688,1509 5688,1544 5653,1544 5653,1580 5618,1580 5618,1615 5547,1615 5547,1580 5582,1580 5582,1544 5618,1544 5618,1509 5653,1509 5653,1474 5688,1474 5688,1438 5512,1438 5512,1474 5476,1474 5476,1509 5406,1509 5406,1544 5371,1544 5371,1580 5335,1580 5335,1615 5300,1615 5300,1650 5265,1650 5265,1685 5194,1685 5194,1721 5159,1721 5159,1756 5124,1756 5124,1791 5088,1791 5088,1827 5053,1827 5053,1862 5018,1862 5018,1897 4947,1897 4947,1932 4912,1932 4912,1968 4877,1968 4877,2003 4841,2003 4841,2038 4806,2038 4806,2073 4736,2073 4736,2109 4700,2109 4700,2144 4665,2144 4665,2179 4630,2179 4630,2215 4594,2215 4594,2250 4524,2250 4524,2285 4489,2285 4489,2320 4453,2320 4453,2356 4418,2356 4418,1438 4277,1438 4277,2673 4312,2673 4312,2708 4277,2708 4277,2744 4242,2744 4242,1438 4101,1438 "/>
   <polygon class="fil1" points="1278,1580 1913,1580 1913,1615 2019,1615 2019,1650 2090,1650 2090,1685 2125,1685 2125,1721 2054,1721 2054,1685 1984,1685 1984,1650 1843,1650 1843,1615 1278,1615 1278,1756 1878,1756 1878,1791 1949,1791 1949,1827 2019,1827 2019,1862 2054,1862 2054,1897 2090,1897 2090,1932 2125,1932 2125,1968 2160,1968 2160,2038 2196,2038 2196,2073 2231,2073 2231,2391 2196,2391 2196,2462 2160,2462 2160,2532 2125,2532 2125,2567 2090,2567 2090,2603 2054,2603 2054,2638 2019,2638 2019,2673 1949,2673 1949,2708 1843,2708 1843,2744 1278,2744 1278,2885 1843,2885 1843,2850 1984,2850 1984,2885 1878,2885 1878,2920 1278,2920 1278,3061 1843,3061 1843,3026 2019,3026 2019,2991 2090,2991 2090,2955 2160,2955 2160,2920 2231,2920 2231,2885 2266,2885 2266,2850 2301,2850 2301,2814 2337,2814 2337,2779 2372,2779 2372,2744 2407,2744 2407,2673 2443,2673 2443,2603 2478,2603 2478,2532 2513,2532 2513,2391 2548,2391 2548,2038 2513,2038 2513,1968 2478,1968 2478,1862 2443,1862 2443,1827 2407,1827 2407,1756 2372,1756 2372,1721 2337,1721 2337,1685 2301,1685 2301,1650 2266,1650 2266,1615 2231,1615 2231,1580 2160,1580 2160,1544 2125,1544 2125,1509 2019,1509 2019,1474 1949,1474 1949,1438 1278,1438 "/>
   <path class="fil2" d="M11826 11740l36 0 0 -71 35 0 0 -71 35 0 0 -141 36 0 0 -141 35 0 0 -106 35 0 0 -35 71 0 0 741 -212 0 0 -71 -35 0 0 -35 -36 0 0 -70zm71 -212l-35 0 0 106 -36 0 0 70 -35 0 0 36 -106 0 0 35 -176 0 0 -35 -71 0 0 -36 -35 0 0 -106 35 0 0 -388 494 0 0 177 -35 0 0 141zm-564 0l35 0 0 176 -35 0 0 36 -36 0 0 70 -106 0 0 71 -35 0 0 106 -35 0 0 317 35 0 0 -141 71 0 0 35 35 0 0 35 388 0 0 -35 141 0 0 -35 71 0 0 -35 70 0 0 -36 36 0 0 -35 70 0 0 -70 35 0 0 -36 36 0 0 71 35 0 0 -988 -35 0 0 -106 -36 0 0 -35 -35 0 0 -35 -35 0 0 176 -35 0 0 71 -36 0 0 -71 -35 0 0 -35 -35 0 0 -36 -36 0 0 -35 -70 0 0 -35 -177 0 0 35 -35 0 0 -70 -35 0 0 35 -35 0 0 70 -36 0 0 106 -35 0 0 36 -35 0 0 317 -35 0 0 106z"/>
   <path class="fil2" d="M12532 9270l-35 0 0 141 -36 0 0 36 -141 0 0 -459 106 0 0 35 35 0 0 35 106 0 0 71 -35 0 0 141zm35 -988l0 71 71 0 0 35 106 0 0 35 35 0 0 247 -35 0 0 106 -36 0 0 36 -35 0 0 35 -35 0 0 70 -35 0 0 -35 -71 0 0 -35 -71 0 0 -35 -70 0 0 -36 -35 0 0 -35 -71 0 0 529 -35 0 0 212 -36 0 0 176 -35 0 0 177 106 0 0 35 106 0 0 -35 106 0 0 -36 35 0 0 -35 35 0 0 -35 36 0 0 -36 35 0 0 -70 35 0 0 -35 35 0 0 -71 36 0 0 -35 35 0 0 -35 35 0 0 -36 35 0 0 36 36 0 0 -142 35 0 0 -176 35 0 0 -71 36 0 0 -70 35 0 0 -106 35 0 0 -106 35 0 0 -106 -35 0 0 -141 -35 0 0 177 -35 0 0 106 -36 0 0 105 -35 0 0 71 -35 0 0 106 -36 0 0 70 -35 0 0 106 -35 0 0 141 -35 0 0 36 -36 0 0 35 -35 0 0 35 -70 0 0 35 -36 0 0 -70 -35 0 0 -141 35 0 0 -141 36 0 0 -106 35 0 0 -71 35 0 0 -70 35 0 0 -36 36 0 0 -35 35 0 0 -35 35 0 0 -71 35 0 0 -35 36 0 0 -423 70 0 0 -36 -141 0 0 -35 -141 0 0 35 -106 0z"/>
   <polygon class="fil3" points="2831,2920 2831,2885 3959,2885 3959,2744 3007,2744 3007,1438 2795,1438 2795,2920 "/>
   <polygon class="fil1" points="10098,12198 10204,12198 10204,12233 10239,12233 10239,12304 10274,12304 10274,12339 10309,12339 10309,12410 10345,12410 10345,12445 10380,12445 10380,12516 10415,12516 10415,12622 10451,12622 10451,12692 10415,12692 10415,12833 10380,12833 10380,12904 10345,12904 10345,12974 10309,12974 10309,13680 10274,13680 10274,13750 10309,13750 10309,13821 10345,13821 10345,13927 10415,13927 10415,13892 10451,13892 10451,13856 10486,13856 10486,13821 10521,13821 10521,13786 10556,13786 10556,13715 10592,13715 10592,12763 10556,12763 10556,12516 10521,12516 10521,12304 10486,12304 10486,12269 10451,12269 10451,12198 10415,12198 10415,12163 10309,12163 10309,12092 10098,12092 "/>
   <polygon class="fil1" points="2795,1438 2654,1438 2654,3061 3959,3061 3959,2920 2795,2920 "/>
   <path class="fil2" d="M10556 5002l177 0 0 35 35 0 0 35 35 0 0 35 -247 0 0 -105zm0 -36l-35 0 0 36 -35 0 0 35 -35 0 0 106 -36 0 0 141 -35 0 0 176 -35 0 0 106 -36 0 0 141 -35 0 0 141 -35 0 0 71 35 0 0 35 388 0 0 -141 36 0 0 -106 35 0 0 -176 35 0 0 -106 35 0 0 -141 36 0 0 -247 -36 0 0 -35 -35 0 0 -36 -106 0 0 -35 -106 0 0 35z"/>
   <polygon class="fil1" points="5229,16961 5229,16890 5265,16890 5265,16820 5300,16820 5300,16714 5335,16714 5335,16643 5371,16643 5371,16537 5406,16537 5406,16502 5441,16502 5441,16432 5476,16432 5476,16396 5512,16396 5512,16326 5406,16326 5406,16290 5265,16290 5265,16255 5159,16255 5159,16220 5053,16220 5053,16326 5018,16326 5018,16396 4983,16396 4983,16467 4947,16467 4947,16502 4912,16502 4912,16573 4877,16573 4877,16643 4841,16643 4841,16890 4877,16890 4877,16925 4912,16925 4912,16961 4947,16961 4947,16996 5194,16996 5194,16961 "/>
   <path class="fil1" d="M8193 18619l35 0 0 -71 35 0 0 -106 71 0 0 106 35 0 0 71 35 0 0 70 -211 0 0 -70zm-741 353l71 0 0 -247 35 0 0 -36 35 0 0 -35 71 0 0 35 35 0 0 71 35 0 0 35 35 0 0 35 36 0 0 71 35 0 0 35 35 0 0 36 212 0 0 -71 35 0 0 -71 36 0 0 -70 282 0 0 70 35 0 0 106 35 0 0 36 106 0 0 -36 -35 0 0 -106 -35 0 0 -70 -36 0 0 -106 -35 0 0 -71 -35 0 0 -105 -36 0 0 -71 -35 0 0 -106 -106 0 0 36 -35 0 0 70 -35 0 0 106 -35 0 0 70 -36 0 0 106 -35 0 0 71 -35 0 0 106 -36 0 0 70 -70 0 0 -70 -35 0 0 -36 -36 0 0 -35 -35 0 0 -70 -35 0 0 -36 -36 0 0 -35 -35 0 0 -71 -35 0 0 -35 35 0 0 -35 35 0 0 -35 36 0 0 -36 35 0 0 -35 35 0 0 -35 36 0 0 -35 35 0 0 -36 -106 0 0 36 -35 0 0 35 -36 0 0 35 -35 0 0 35 -35 0 0 36 -35 0 0 35 -36 0 0 35 -35 0 0 35 -35 0 0 36 -35 0 0 -318 -71 0 0 671z"/>
   <polygon class="fil1" points="9745,13786 9780,13786 9780,13856 10098,13856 10098,13821 10168,13821 10168,13786 10204,13786 10204,13680 10239,13680 10239,13186 10204,13186 10204,13221 10168,13221 10168,13257 10133,13257 10133,13292 10027,13292 10027,13327 9957,13327 9957,13362 9816,13362 9816,13327 9780,13327 9780,13292 9710,13292 9710,13327 9745,13327 "/>
   <polygon class="fil1" points="11438,11598 11403,11598 11403,11704 11438,11704 11438,11740 11509,11740 11509,11775 11685,11775 11685,11740 11791,11740 11791,11704 11826,11704 11826,11634 11862,11634 11862,11528 11897,11528 11897,11387 11932,11387 11932,11210 11438,11210 "/>
   <polygon class="fil1" points="13096,8670 13096,8423 13061,8423 13061,8353 12991,8353 12991,8318 12885,8318 12885,8741 12849,8741 12849,8776 12814,8776 12814,8847 12779,8847 12779,8882 12744,8882 12744,8917 12708,8917 12708,8953 12673,8953 12673,9023 12638,9023 12638,9094 12603,9094 12603,9200 12567,9200 12567,9341 12532,9341 12532,9482 12567,9482 12567,9552 12603,9552 12603,9517 12673,9517 12673,9482 12708,9482 12708,9447 12744,9447 12744,9411 12779,9411 12779,9270 12814,9270 12814,9164 12849,9164 12849,9094 12885,9094 12885,8988 12920,8988 12920,8917 12955,8917 12955,8812 12991,8812 12991,8706 13026,8706 13026,8529 13061,8529 13061,8670 "/>
   <polygon class="fil1" points="4841,18372 4877,18372 4877,18513 4912,18513 4912,18654 4947,18654 4947,18795 4983,18795 4983,18972 5124,18972 5124,18795 5159,18795 5159,18725 5194,18725 5194,18583 5229,18583 5229,18442 5265,18442 5265,18478 5300,18478 5300,18654 5335,18654 5335,18725 5371,18725 5371,18866 5406,18866 5406,18972 5512,18972 5512,18866 5547,18866 5547,18725 5582,18725 5582,18654 5618,18654 5618,18513 5653,18513 5653,18337 5688,18337 5688,18301 5582,18301 5582,18407 5547,18407 5547,18548 5512,18548 5512,18689 5476,18689 5476,18830 5441,18830 5441,18760 5406,18760 5406,18619 5371,18619 5371,18442 5335,18442 5335,18301 5194,18301 5194,18407 5159,18407 5159,18583 5124,18583 5124,18654 5088,18654 5088,18795 5018,18795 5018,18583 4983,18583 4983,18442 4947,18442 4947,18301 4841,18301 "/>
   <polygon class="fil1" points="10556,13856 10521,13856 10521,13892 10486,13892 10486,13927 10451,13927 10451,13962 10415,13962 10415,13997 10380,13997 10380,14033 10345,14033 10345,14068 10309,14068 10309,14103 10274,14103 10274,14138 10204,14138 10204,14174 10168,14174 10168,14209 10063,14209 10063,14244 9957,14244 9957,14280 9745,14280 9745,14244 9710,14244 9710,14209 9674,14209 9674,14138 9639,14138 9639,14068 9569,14068 9569,14209 9604,14209 9604,14280 9639,14280 9639,14315 9674,14315 9674,14350 9710,14350 9710,14385 9745,14385 9745,14421 9780,14421 9780,14456 10063,14456 10063,14421 10133,14421 10133,14385 10204,14385 10204,14350 10274,14350 10274,14315 10309,14315 10309,14280 10345,14280 10345,14244 10380,14244 10380,14209 10451,14209 10451,14138 10486,14138 10486,14103 10521,14103 10521,14033 10556,14033 10556,13997 10592,13997 10592,13892 10627,13892 10627,13821 10556,13821 "/>
   <polygon class="fil1" points="13555,18972 13626,18972 13626,18442 13661,18442 13661,18548 13696,18548 13696,18619 13731,18619 13731,18725 13767,18725 13767,18830 13802,18830 13802,18901 13837,18901 13837,18972 13943,18972 13943,18866 13978,18866 13978,18795 14014,18795 14014,18689 14049,18689 14049,18583 14084,18583 14084,18513 14119,18513 14119,18442 14155,18442 14155,18972 14225,18972 14225,18301 14084,18301 14084,18372 14049,18372 14049,18478 14014,18478 14014,18583 13978,18583 13978,18654 13943,18654 13943,18760 13908,18760 13908,18830 13873,18830 13873,18795 13837,18795 13837,18689 13802,18689 13802,18619 13767,18619 13767,18513 13731,18513 13731,18442 13696,18442 13696,18301 13555,18301 "/>
   <polygon class="fil1" points="8687,18972 8757,18972 8757,18442 8793,18442 8793,18513 8828,18513 8828,18583 8863,18583 8863,18689 8898,18689 8898,18795 8934,18795 8934,18866 8969,18866 8969,18972 9075,18972 9075,18901 9110,18901 9110,18830 9145,18830 9145,18725 9181,18725 9181,18619 9216,18619 9216,18548 9251,18548 9251,18478 9286,18478 9286,18972 9357,18972 9357,18301 9216,18301 9216,18442 9181,18442 9181,18513 9145,18513 9145,18619 9110,18619 9110,18689 9075,18689 9075,18795 9039,18795 9039,18830 9004,18830 9004,18760 8969,18760 8969,18689 8934,18689 8934,18583 8898,18583 8898,18513 8863,18513 8863,18372 8828,18372 8828,18301 8687,18301 "/>
   <polygon class="fil0" points="2725,18901 3007,18901 3007,18866 3042,18866 3042,18830 3078,18830 3078,18760 3113,18760 3113,18478 3078,18478 3078,18442 3042,18442 3042,18407 2972,18407 2972,18372 2725,18372 "/>
   <path class="fil3" d="M14825 18337l-106 0 0 -177 106 0 0 35 71 0 0 -70 35 0 0 35 35 0 0 212 -35 0 0 35 -35 0 0 35 -36 0 0 36 -176 0 0 -36 -35 0 0 -35 -36 0 0 -35 -35 0 0 -212 35 0 0 -35 36 0 0 212 35 0 0 35 35 0 0 35 141 0 0 -35 36 0 0 -71 -71 0 0 36zm-176 -318l-36 0 0 35 -35 0 0 36 -35 0 0 35 -35 0 0 247 35 0 0 70 35 0 0 36 35 0 0 35 71 0 0 35 212 0 0 -35 35 0 0 -35 35 0 0 -36 35 0 0 -70 36 0 0 -212 -36 0 0 -70 -35 0 0 -36 -35 0 0 -35 -35 0 0 -35 -247 0 0 35z"/>
   <polygon class="fil1" points="6288,18372 6499,18372 6499,18972 6570,18972 6570,18372 7064,18372 7064,18972 7134,18972 7134,18372 7381,18372 7381,18301 6288,18301 "/>
   <polygon class="fil1" points="11156,12304 11191,12304 11191,12375 11262,12375 11262,12410 11685,12410 11685,12375 11791,12375 11791,12339 11826,12339 11826,12304 11897,12304 11897,12269 11968,12269 11968,12233 12003,12233 12003,12163 12038,12163 12038,12128 12073,12128 12073,12092 12109,12092 12109,11951 12073,11951 12073,11987 12038,11987 12038,12057 11968,12057 11968,12092 11932,12092 11932,12128 11862,12128 11862,12163 11791,12163 11791,12198 11650,12198 11650,12233 11262,12233 11262,12198 11227,12198 11227,12163 11156,12163 "/>
   <polygon class="fil1" points="1067,18972 1173,18972 1173,18689 1208,18689 1208,18654 1278,18654 1278,18689 1314,18689 1314,18725 1349,18725 1349,18760 1384,18760 1384,18830 1419,18830 1419,18866 1455,18866 1455,18901 1490,18901 1490,18972 1631,18972 1631,18936 1596,18936 1596,18901 1561,18901 1561,18866 1525,18866 1525,18830 1490,18830 1490,18760 1455,18760 1455,18725 1419,18725 1419,18689 1384,18689 1384,18619 1349,18619 1349,18548 1384,18548 1384,18513 1419,18513 1419,18478 1455,18478 1455,18442 1490,18442 1490,18407 1525,18407 1525,18372 1561,18372 1561,18337 1596,18337 1596,18301 1490,18301 1490,18337 1455,18337 1455,18372 1419,18372 1419,18407 1384,18407 1384,18442 1349,18442 1349,18478 1314,18478 1314,18513 1278,18513 1278,18548 1243,18548 1243,18583 1173,18583 1173,18301 1067,18301 "/>
   <polygon class="fil1" points="1949,18972 2019,18972 2019,18442 2054,18442 2054,18478 2090,18478 2090,18548 2125,18548 2125,18583 2160,18583 2160,18654 2196,18654 2196,18689 2231,18689 2231,18760 2266,18760 2266,18795 2301,18795 2301,18866 2337,18866 2337,18936 2372,18936 2372,18972 2478,18972 2478,18301 2407,18301 2407,18830 2372,18830 2372,18760 2337,18760 2337,18725 2301,18725 2301,18654 2266,18654 2266,18619 2231,18619 2231,18548 2196,18548 2196,18513 2160,18513 2160,18442 2125,18442 2125,18407 2090,18407 2090,18372 2054,18372 2054,18301 1949,18301 "/>
   <polygon class="fil1" points="10768,18337 10698,18337 10698,18372 10662,18372 10662,18583 10698,18583 10698,18619 10768,18619 10768,18654 10944,18654 10944,18689 11015,18689 11015,18725 11086,18725 11086,18830 11050,18830 11050,18866 11015,18866 11015,18901 10803,18901 10803,18866 10733,18866 10733,18760 10698,18760 10698,18725 10627,18725 10627,18830 10662,18830 10662,18901 10698,18901 10698,18936 10768,18936 10768,18972 11050,18972 11050,18936 11121,18936 11121,18901 11156,18901 11156,18689 11121,18689 11121,18654 11086,18654 11086,18619 11015,18619 11015,18583 10803,18583 10803,18548 10768,18548 10768,18513 10733,18513 10733,18442 10768,18442 10768,18407 10803,18407 10803,18372 10980,18372 10980,18407 11015,18407 11015,18442 11050,18442 11050,18513 11121,18513 11121,18407 11086,18407 11086,18372 11050,18372 11050,18337 10980,18337 10980,18301 10768,18301 "/>
   <path class="fil1" d="M4242 18619l-283 0 0 -247 318 0 0 35 35 0 0 176 -70 0 0 36zm-353 353l70 0 0 -283 283 0 0 36 35 0 0 35 35 0 0 212 106 0 0 -36 -35 0 0 -247 -71 0 0 -70 71 0 0 -247 -35 0 0 -35 -36 0 0 -36 -423 0 0 671z"/>
   <polygon class="fil1" points="11932,18337 11862,18337 11862,18372 11826,18372 11826,18583 11862,18583 11862,18619 11932,18619 11932,18654 12109,18654 12109,18689 12214,18689 12214,18725 12250,18725 12250,18830 12214,18830 12214,18866 12179,18866 12179,18901 11968,18901 11968,18866 11897,18866 11897,18760 11862,18760 11862,18725 11791,18725 11791,18830 11826,18830 11826,18901 11862,18901 11862,18936 11932,18936 11932,18972 12214,18972 12214,18936 12285,18936 12285,18901 12320,18901 12320,18689 12285,18689 12285,18654 12250,18654 12250,18619 12179,18619 12179,18583 11968,18583 11968,18548 11932,18548 11932,18513 11897,18513 11897,18407 11968,18407 11968,18372 12144,18372 12144,18407 12179,18407 12179,18442 12214,18442 12214,18513 12285,18513 12285,18407 12250,18407 12250,18372 12214,18372 12214,18337 12144,18337 12144,18301 11932,18301 "/>
   <polygon class="fil3" points="10133,7083 10168,7083 10168,7048 10380,7048 10380,6977 10451,6977 10451,6942 10521,6942 10521,6907 10556,6907 10556,6871 10592,6871 10592,6730 10698,6730 10698,6695 10521,6695 10521,6660 10345,6660 10345,6695 10274,6695 10274,6730 10239,6730 10239,6765 10168,6765 10168,6801 10133,6801 "/>
   <path class="fil1" d="M3078 18830l-36 0 0 36 -35 0 0 35 -282 0 0 -529 247 0 0 35 70 0 0 35 36 0 0 36 35 0 0 282 -35 0 0 70zm-424 142l353 0 0 -36 71 0 0 -35 35 0 0 -35 35 0 0 -71 35 0 0 -353 -35 0 0 -35 -35 0 0 -35 -35 0 0 -35 -106 0 0 -36 -318 0 0 671z"/>
   <polygon class="fil1" points="12955,18972 13414,18972 13414,18901 13061,18901 13061,18654 13379,18654 13379,18583 13026,18583 13026,18372 13414,18372 13414,18301 12955,18301 "/>
   <polygon class="fil1" points="12038,11210 12003,11210 12003,11316 11968,11316 11968,11457 11932,11457 11932,11598 11897,11598 11897,11669 11862,11669 11862,11740 11826,11740 11826,11810 11862,11810 11862,11845 11897,11845 11897,11916 12109,11916 12109,11175 12038,11175 "/>
   <polygon class="fil1" points="3289,18972 3748,18972 3748,18901 3360,18901 3360,18654 3748,18654 3748,18583 3360,18583 3360,18372 3748,18372 3748,18301 3289,18301 "/>
   <polygon class="fil1" points="5794,18972 6253,18972 6253,18901 5864,18901 5864,18654 6217,18654 6217,18583 5864,18583 5864,18372 6253,18372 6253,18301 5794,18301 "/>
   <path class="fil1" d="M9886 18619l-282 0 0 -247 282 0 0 35 35 0 0 176 -35 0 0 36zm-353 353l71 0 0 -283 282 0 0 -35 106 0 0 -71 35 0 0 -176 -35 0 0 -35 -35 0 0 -35 -71 0 0 -36 -353 0 0 671z"/>
   <polygon class="fil1" points="10133,18972 10204,18972 10204,18654 10521,18654 10521,18583 10204,18583 10204,18372 10556,18372 10556,18301 10133,18301 "/>
   <polygon class="fil1" points="11191,18372 11227,18372 11227,18407 11262,18407 11262,18442 11297,18442 11297,18513 11333,18513 11333,18583 11368,18583 11368,18619 11403,18619 11403,18654 11438,18654 11438,18972 11509,18972 11509,18689 11544,18689 11544,18654 11579,18654 11579,18583 11615,18583 11615,18548 11650,18548 11650,18478 11685,18478 11685,18407 11721,18407 11721,18372 11756,18372 11756,18337 11791,18337 11791,18301 11685,18301 11685,18337 11650,18337 11650,18372 11615,18372 11615,18442 11579,18442 11579,18478 11544,18478 11544,18548 11509,18548 11509,18619 11474,18619 11474,18583 11438,18583 11438,18513 11403,18513 11403,18478 11368,18478 11368,18407 11333,18407 11333,18337 11297,18337 11297,18301 11191,18301 "/>
   <polygon class="fil1" points="12320,9447 12461,9447 12461,9411 12497,9411 12497,9270 12532,9270 12532,9129 12567,9129 12567,9058 12461,9058 12461,9023 12426,9023 12426,8988 12320,8988 "/>
   <polygon class="fil0" points="3959,18619 4242,18619 4242,18583 4312,18583 4312,18407 4277,18407 4277,18372 3959,18372 "/>
   <polygon class="fil1" points="12320,18372 12567,18372 12567,18972 12638,18972 12638,18372 12885,18372 12885,18301 12320,18301 "/>
   <polygon class="fil0" points="14613,18160 14578,18160 14578,18372 14613,18372 14613,18407 14649,18407 14649,18442 14684,18442 14684,18478 14860,18478 14860,18442 14896,18442 14896,18407 14931,18407 14931,18372 14966,18372 14966,18160 14931,18160 14931,18125 14896,18125 14896,18195 14825,18195 14825,18160 14719,18160 14719,18337 14825,18337 14825,18301 14896,18301 14896,18372 14860,18372 14860,18407 14719,18407 14719,18372 14684,18372 14684,18337 14649,18337 14649,18125 14613,18125 "/>
   <polygon class="fil0" points="9604,18619 9886,18619 9886,18583 9921,18583 9921,18407 9886,18407 9886,18372 9604,18372 "/>
   <polygon class="fil4" points="9745,13786 9745,13327 9710,13327 9710,13292 9745,13292 9745,13257 9639,13257 9639,13468 9604,13468 9604,13786 9639,13786 9639,13821 9674,13821 9674,13786 "/>
   <polygon class="fil1" points="1702,18972 1772,18972 1772,18301 1702,18301 "/>
   <polygon class="fil3" points="4806,16573 4771,16573 4771,16643 4736,16643 4736,16678 4700,16678 4700,16749 4665,16749 4665,16784 4630,16784 4630,16820 4594,16820 4594,16855 4559,16855 4559,16996 4594,16996 4594,16961 4630,16961 4630,16925 4665,16925 4665,16890 4700,16890 4700,16855 4736,16855 4736,16820 4771,16820 4771,16678 4806,16678 4806,16608 4841,16608 4841,16537 4806,16537 "/>
   <polygon class="fil0" points="8263,18548 8228,18548 8228,18619 8193,18619 8193,18689 8404,18689 8404,18619 8369,18619 8369,18548 8334,18548 8334,18442 8263,18442 "/>
   <polygon class="fil1" points="10556,5107 10803,5107 10803,5072 10768,5072 10768,5037 10733,5037 10733,5002 10556,5002 "/>
   <polygon class="fil3" points="11227,11810 11297,11810 11297,11740 11333,11740 11333,11704 11368,11704 11368,11528 11333,11528 11333,11598 11297,11598 11297,11634 11262,11634 11262,11740 11227,11740 "/>
   <polygon class="fil1" points="4489,18760 4771,18760 4771,18689 4489,18689 "/>
  </g>
 </g>
</svg>
