<?xml version="1.0" encoding="UTF-8"?>
<!DOCTYPE svg PUBLIC "-//W3C//DTD SVG 1.1//EN" "http://www.w3.org/Graphics/SVG/1.1/DTD/svg11.dtd">
<!-- Creator: CorelDRAW Home & Student X8 -->
<svg xmlns="http://www.w3.org/2000/svg" xml:space="preserve" width="99.991mm" height="29.125mm" version="1.1" style="shape-rendering:geometricPrecision; text-rendering:geometricPrecision; image-rendering:optimizeQuality; fill-rule:evenodd; clip-rule:evenodd"
viewBox="0 0 9999 2913"
 xmlns:xlink="http://www.w3.org/1999/xlink">
 <defs>
  <style type="text/css">
   <![CDATA[
    .fil0 {fill:#FCFDFE}
    .fil1 {fill:#DB2326}
    .fil6 {fill:#EF977C}
    .fil8 {fill:#ED866A}
    .fil5 {fill:#EC7E61}
    .fil2 {fill:#9E9F9E}
    .fil7 {fill:#949595}
    .fil4 {fill:#2D1D1A}
    .fil3 {fill:#2A2928}
   ]]>
  </style>
 </defs>
 <g id="Ebene_x0020_1">
  <metadata id="CorelCorpID_0Corel-Layer"/>
  <g id="_872058440">
   <path class="fil0" d="M8291 2287l0 -542c272,0 504,-51 507,271 4,321 -240,271 -507,271zm-894 9c-320,0 -258,-166 -258,-551l116 0 0 322c0,74 10,121 72,138 61,18 131,4 157,-43 29,-56 15,-334 15,-416l116 1c0,119 7,259 -2,375 -9,125 -97,174 -216,174zm-692 -204l0 195 -116 0 0 -542 116 0 0 218 209 2 0 -220 116 3 0 536 -116 3 0 -228 -209 0 0 33zm-4377 195l-116 0 0 -542 116 0 0 218 209 2 0 -220 116 3 -1 536 -115 3 0 -228 -209 0 0 228zm2928 -185l0 185 -115 0 0 -542c204,0 438,-44 478,126 24,97 -13,179 -81,209 -73,33 -193,17 -282,22zm2836 -35c33,73 92,143 130,220l-131 0 -117 -210 -135 -1 0 211 -116 0 0 -542c223,0 510,-57 473,198 -14,91 -49,86 -104,124zm-4962 0c34,73 93,143 131,220l-132 0 -116 -210 -135 -1 0 211 -116 0 0 -542c224,0 510,-57 472,198 -13,91 -48,86 -104,124zm6378 220l-115 0 0 -542 145 1c15,28 190,343 224,376l-5 -377 114 0 0 542 -133 0 -230 -400 0 400zm-4797 -142l18 -4 130 -394 171 -2 0 542 -115 0 9 -408c-31,59 -49,139 -73,207 -13,37 -22,69 -33,103 -39,119 -14,98 -157,98l-138 -412 7 412 -115 0 0 -542c194,0 159,-22 198,92 11,33 22,68 33,102 19,55 58,153 65,206zm-3437 0l18 -4 129 -394 171 -2 0 542 -115 0 9 -408c-42,81 -118,400 -151,408l-112 0 -137 -412 6 412 -114 0 0 -542c207,0 153,-40 231,194 18,54 57,153 65,206zm7704 -180l321 1 0 89 -322 4c10,201 157,113 322,138l0 87c-78,12 -271,9 -330,-20 -158,-79 -162,-409 -2,-490 71,-36 241,-40 332,-26l0 87c-147,23 -305,-53 -321,130zm-3158 0l328 0 0 94 -328 0 0 226 -116 2c0,-113 -16,-379 35,-456 71,-108 264,-86 409,-86l0 93c-185,0 -318,-35 -328,127zm-4022 0l321 1 0 89 -322 4c4,79 21,122 98,133 71,10 153,-6 224,5l0 87c-78,12 -271,9 -329,-20 -159,-79 -162,-409 -3,-490 71,-36 241,-40 332,-26l0 87c-147,23 -305,-53 -321,130zm4424 398l-55 0 266 -617 57 0 -268 617zm-2633 -348c34,35 69,84 102,126 34,43 69,89 106,127l222 -522c154,-1 115,-21 177,127 45,107 151,332 177,413l-128 1 -49 -135 -238 0 -47 135 -239 0c-45,-20 -167,-220 -218,-261l0 261 -116 0 0 -542 116 0 0 253 170 -199c43,-54 39,-64 179,-51 -7,6 -206,249 -214,267zm3807 -422l60 -1 31 4 0 88 -31 2 -60 0 0 -93zm-132 1l92 -1 0 42 0 51 -61 1 -31 -4 0 -89zm-1149 -535l83 1 0 372 -83 0 0 -373zm-1414 1l29 -1 25 0 29 0 0 373 -83 0 0 -372zm-1656 127l0 247 -51 0 -4 -252c65,-17 49,1 55,5zm-1134 0c9,-7 -9,-7 25,-10 16,-2 17,2 30,5 5,27 12,222 -5,252l-50 0 0 -247zm7044 -127l86 0 158 371 -87 1c-40,-104 2,-85 -199,-84 -30,99 -29,84 -114,84l156 -372zm-6292 223l4 -105 53 4c5,27 12,222 -5,252l-48 -4 0 -101 -97 0 0 105 -53 0 5 -253 47 1 1 102 93 -1zm-644 152c-12,-24 -8,-30 -8,-62 0,-23 0,-45 0,-68 0,-41 -4,-84 4,-124 29,-3 143,-16 154,9 70,0 86,74 55,124 -25,40 -101,32 -157,32l0 85 -48 4zm6450 -375l78 1 0 151 145 0 0 -152 79 0 0 372 -79 0 0 -152 -145 0 0 151 -78 1 0 -305 0 -67zm-5371 121l72 0 66 189 66 -189 73 0 0 253 -47 -4 -1 -164c-45,55 -35,160 -79,168 -53,10 -51,-32 -71,-92 -9,-27 -30,-75 -35,-93l0 185 -49 0 5 -253zm-147 253c-118,3 -206,5 -204,-129 1,-131 83,-125 203,-123l-2 43c-44,0 -91,-1 -129,9l-8 51 140 0c0,56 -2,40 -25,44l-119 0c5,43 7,56 52,61 94,10 92,-28 92,44zm-642 -245c29,-23 123,-12 168,-8l-1 48 -142 0c-33,11 -31,9 -25,50 73,29 200,-30 177,101 -14,76 -164,60 -226,51l0 -39c33,-4 136,1 155,-7 15,-7 55,-55 -56,-55 -163,0 -123,-138 -50,-141zm-1005 41c24,-35 25,-46 90,-48 41,-1 93,-1 135,2l-2 36c-46,21 -122,-4 -168,18l3 40c69,27 199,-27 176,102 -8,46 -40,52 -93,54 -42,1 -91,5 -132,-5l0 -38 171 -7 -2 -48c-109,-22 -175,34 -178,-106zm-221 -36c12,-18 -1,-10 23,-16l194 3 4 49 -86 4 -1 200 -54 0 0 -207 -78 -3 -2 -30zm6259 -134c162,0 307,-30 323,87 12,85 -21,105 -70,135l88 148 -58 2c-67,0 -77,-144 -127,-144l-77 0 0 143 -79 1 0 -339 0 -33zm-3387 0c162,0 307,-30 323,87 12,85 -20,105 -70,135l88 148 -57 2c-67,0 -78,-144 -127,-144l-78 0 0 143 -78 1 0 -339 -1 -33zm-2211 133c16,-24 19,-16 56,-15 4,41 3,8 -7,22l-94 233c-68,1 -53,1 -68,-27l-92 -223c68,-1 64,6 126,183 38,-41 50,-121 79,-173zm3517 -134l114 3 92 277c41,-51 65,-205 101,-279l115 3 0 367 -78 2 2 -277 -92 277 -82 -3c-16,-31 -33,-86 -45,-122 -14,-42 -28,-108 -56,-127l7 252 -78 0 0 -373zm4619 1l0 67 -123 0 0 303 -79 -2 0 -301 -123 0 0 -67 325 0zm-652 370c0,-353 -26,-371 305,-370l-1 67c-104,0 -215,-30 -225,85l226 0 0 68 -226 0 0 151 -79 -1zm-814 2c-175,0 -311,19 -308,-186 3,-203 133,-186 308,-186l0 67c-129,0 -218,-32 -221,119 -4,151 89,118 221,118l0 68zm-686 -66c55,-3 250,21 259,-38 13,-87 -159,-25 -227,-64 -67,-37 -64,-163 5,-192 50,-21 218,-15 282,-11l0 65c-62,3 -252,-29 -256,44 -4,84 149,12 234,57 56,29 61,166 -20,195 -48,18 -215,12 -277,9l0 -65zm-457 66c-174,0 -311,18 -308,-186 4,-203 132,-186 308,-186l0 67c-107,0 -202,-27 -218,84l218 1 0 67 -219 3c11,104 59,82 219,82l0 68zm-321 -305l-123 0 0 303 -79 -2 0 -301 -123 0 0 -59 325 -8 0 67zm-678 239c45,-3 211,5 238,-9 30,-15 29,-61 -5,-74 -63,-23 -250,46 -248,-113 0,-82 44,-110 124,-110l210 1 0 65c-49,3 -206,-10 -236,9 -29,18 -33,65 10,75 83,20 246,-52 244,112 -1,84 -49,110 -127,110l-210 -1 0 -65zm-229 66c-174,0 -311,18 -308,-186 4,-203 132,-186 308,-186l0 67c-107,0 -201,-27 -218,84l218 1 0 67 -219 3c10,104 61,82 219,82l0 68zm-1185 -66c45,-3 211,5 238,-9 31,-15 29,-61 -5,-74 -63,-23 -249,46 -248,-113 0,-82 44,-110 124,-110l210 1 0 65c-49,3 -206,-10 -236,9 -29,18 -34,65 10,75 83,20 246,-51 244,112 -1,84 -49,110 -126,110l-211 -1 0 -65zm-229 66c-174,0 -311,18 -307,-186 3,-203 131,-186 307,-186l0 67c-107,0 -201,-27 -218,84l218 1 0 67 -219 3c11,104 59,82 219,82l0 68zm-1020 -373l78 2 0 172c14,-9 5,-2 16,-14 2,-2 7,-8 8,-10l121 -149 95 0c-9,18 -129,163 -146,173l144 193c1,-1 3,4 4,6 -124,0 -85,14 -167,-90 -22,-29 -49,-64 -75,-89l0 178 -78 1 0 -373zm-2000 -517c151,-54 236,180 79,236 -156,55 -244,-176 -79,-236zm-487 283c78,-142 296,-350 478,-398 56,-15 207,-50 209,41 -50,27 -133,13 -208,37 -149,47 -322,209 -396,334 126,24 265,22 394,12 131,-10 290,-53 354,-29 -3,69 -79,70 -156,82 -139,23 -296,33 -437,27 -71,-3 -144,-18 -211,-19 -17,34 -42,67 -62,103 -22,37 -37,67 -57,104 -67,122 -270,599 -305,634 1,-103 100,-359 138,-454 69,-177 145,-273 201,-394l-12 -14c-157,-17 -436,-147 -548,-220 -73,-49 -153,-117 -210,-171 -46,-44 -129,-144 -165,-206 33,2 163,134 208,171 177,144 563,355 785,360zm-1117 2097l10000 0 0 -2912 -10000 0 0 2912z"/>
   <path class="fil1" d="M4075 1859c24,38 64,148 82,200l-160 -1 78 -199zm-486 156c8,-18 207,-261 214,-267 -140,-13 -136,-3 -179,51l-170 199 0 -253 -116 0 0 542 116 0 0 -261c51,41 173,241 218,261l239 0 47 -135 238 0 49 135 128 -1c-26,-81 -132,-306 -177,-413 -62,-148 -23,-128 -177,-127l-222 522c-37,-38 -72,-84 -106,-127 -33,-42 -68,-91 -102,-126z"/>
   <path class="fil1" d="M1292 2141c-6,17 6,12 -10,19l-8 -15c-8,-53 -47,-152 -65,-206 -78,-234 -24,-194 -231,-194l0 542 114 0 -6 -412 137 412 112 0c33,-8 109,-327 151,-408l-9 408 115 0 0 -542 -171 2 -129 394z"/>
   <path class="fil1" d="M4729 2141c-6,17 6,12 -9,19l-9 -15c-7,-53 -46,-151 -65,-206 -11,-34 -22,-69 -33,-102 -39,-114 -4,-92 -198,-92l0 542 115 0 -7 -412 138 412c143,0 118,21 157,-98 11,-34 20,-66 33,-103 24,-68 42,-148 73,-207l-9 408 115 0 0 -542 -171 2 -130 394z"/>
   <path class="fil1" d="M9508 1887l230 400 133 0 0 -542 -114 0 5 377c-34,-33 -209,-348 -224,-376l-145 -1 0 542 115 0 0 -400z"/>
   <path class="fil1" d="M2878 1841c84,-10 245,-29 241,73 -3,56 -40,67 -91,68 -44,2 -107,3 -150,-2l0 -139zm252 226c56,-38 91,-33 104,-124 38,-255 -248,-198 -472,-198l0 542 116 0 0 -211 135 1 116 210 132 0c-38,-77 -97,-147 -131,-220z"/>
   <path class="fil1" d="M7839 1841c84,-9 246,-29 241,73 -4,91 -153,76 -241,66l0 -139zm253 226c55,-38 90,-33 104,-124 37,-255 -250,-198 -473,-198l0 542 116 0 0 -211 135 1 117 210 131 0c-38,-77 -97,-147 -130,-220z"/>
   <path class="fil1" d="M8407 1841c161,-18 246,-12 262,114 7,50 5,125 -10,171 -29,85 -148,73 -252,66l0 -351zm-116 446c267,0 511,50 507,-271 -3,-322 -235,-271 -507,-271l0 542z"/>
   <polygon class="fil1" points="2328,2059 2537,2059 2537,2287 2652,2284 2653,1748 2537,1745 2537,1965 2328,1963 2328,1745 2212,1745 2212,2287 2328,2287 "/>
   <polygon class="fil1" points="6705,2059 6914,2059 6914,2287 7030,2284 7030,1748 6914,1745 6914,1965 6705,1963 6705,1745 6589,1745 6589,2287 6705,2287 6705,2092 "/>
   <path class="fil1" d="M5256 1840c43,-3 125,-5 167,0 54,7 78,27 77,83 -2,110 -144,88 -244,84l0 -167zm0 262c89,-5 209,11 282,-22 68,-30 105,-112 81,-209 -40,-170 -274,-126 -478,-126l0 542 115 0 0 -185z"/>
   <path class="fil1" d="M8978 1965c16,-183 174,-107 321,-130l0 -87c-91,-14 -261,-10 -332,26 -160,81 -156,411 2,490 59,29 252,32 330,20l0 -87c-165,-25 -312,63 -322,-138l322 -4 0 -89 -321 -1z"/>
   <path class="fil1" d="M1798 1965c16,-183 174,-107 321,-130l0 -87c-91,-14 -261,-10 -332,26 -159,81 -156,411 3,490 58,29 251,32 329,20l0 -87c-71,-11 -153,5 -224,-5 -77,-11 -94,-54 -98,-133l322 -4 0 -89 -321 -1z"/>
   <path class="fil1" d="M7397 2296c119,0 207,-49 216,-174 9,-116 2,-256 2,-375l-116 -1c0,82 14,360 -15,416 -26,47 -96,61 -157,43 -62,-17 -72,-64 -72,-138l0 -322 -116 0c0,385 -62,551 258,551z"/>
   <path class="fil1" d="M5820 1965c10,-162 143,-127 328,-127l0 -93c-145,0 -338,-22 -409,86 -51,77 -35,343 -35,456l116 -2 0 -226 328 0 0 -94 -328 0z"/>
   <path class="fil2" d="M5261 1432l78 0 -7 -252c28,19 42,85 56,127 12,36 29,91 45,122l82 3 92 -277 -2 277 78 -2 0 -367 -115 -3c-36,74 -60,228 -101,279l-92 -277 -114 -3 0 373z"/>
   <path class="fil0" d="M8407 2192c104,7 223,19 252,-66 15,-46 17,-121 10,-171 -16,-126 -101,-132 -262,-114l0 351z"/>
   <path class="fil2" d="M4034 1127c73,0 109,-8 163,15 6,39 7,38 -8,69 -44,12 -103,9 -155,9l0 -50 0 -43zm-78 -34l0 339 78 -1 0 -143 78 0c49,0 60,144 127,144l57 -2 -88 -148c50,-30 82,-50 70,-135 -16,-117 -161,-87 -323,-87l1 33z"/>
   <path class="fil2" d="M7421 1127c73,0 109,-8 162,15 7,39 8,38 -7,69 -44,12 -103,9 -155,9l0 -50 0 -43zm-79 -34l0 339 79 -1 0 -143 77 0c50,0 60,144 127,144l58 -2 -88 -148c49,-30 82,-50 70,-135 -16,-117 -161,-87 -323,-87l0 33z"/>
   <path class="fil2" d="M7728 1366l0 65c62,3 229,9 277,-9 81,-29 76,-166 20,-195 -85,-45 -238,27 -234,-57 4,-73 194,-41 256,-44l0 -65c-64,-4 -232,-10 -282,11 -69,29 -72,155 -5,192 68,39 240,-23 227,64 -9,59 -204,35 -259,38z"/>
   <path class="fil2" d="M6272 1366l0 65 210 1c78,0 126,-26 127,-110 2,-164 -161,-92 -244,-112 -43,-10 -39,-57 -10,-75 30,-19 187,-6 236,-9l0 -65 -210 -1c-80,0 -124,28 -124,110 -2,159 185,90 248,113 34,13 35,59 5,74 -27,14 -193,6 -238,9z"/>
   <path class="fil2" d="M4858 1366l0 65 211 1c77,0 125,-26 126,-110 2,-163 -161,-92 -244,-112 -44,-10 -39,-57 -10,-75 30,-19 187,-6 236,-9l0 -65 -210 -1c-80,0 -124,28 -124,110 -1,159 185,90 248,113 34,13 36,59 5,74 -27,14 -193,6 -238,9z"/>
   <path class="fil1" d="M1052 891l20 1 48 -63 2 -4c-222,-5 -608,-216 -785,-360 -45,-37 -175,-169 -208,-171 36,62 119,162 165,206 57,54 137,122 210,171 112,73 391,203 548,220z"/>
   <path class="fil2" d="M4629 1432l0 -68c-160,0 -208,22 -219,-82l219 -3 0 -67 -218 -1c17,-111 111,-84 218,-84l0 -67c-176,0 -304,-17 -307,186 -4,204 133,186 307,186z"/>
   <path class="fil2" d="M7271 1432l0 -68c-160,0 -208,22 -219,-82l219 -3 0 -67 -218 -1c16,-111 111,-84 218,-84l0 -67c-176,0 -304,-17 -308,186 -3,204 134,186 308,186z"/>
   <path class="fil2" d="M6043 1432l0 -68c-158,0 -209,22 -219,-82l219 -3 0 -67 -218 -1c17,-111 111,-84 218,-84l0 -67c-176,0 -304,-17 -308,186 -3,204 134,186 308,186z"/>
   <polygon class="fil2" points="8469,1127 8469,1432 8547,1431 8547,1280 8692,1280 8692,1432 8771,1432 8771,1060 8692,1060 8692,1212 8547,1212 8547,1061 8469,1060 "/>
   <path class="fil2" d="M3609 1432l78 -1 0 -178c26,25 53,60 75,89 82,104 43,90 167,90 -1,-2 -3,-7 -4,-6l-144 -193c17,-10 137,-155 146,-173l-95 0 -121 149c-1,2 -6,8 -8,10 -11,12 -2,5 -16,14l0 -172 -78 -2 0 373z"/>
   <path class="fil2" d="M8990 1154c1,-1 3,-2 3,-5 1,-2 3,-3 6,-5l53 136 -110 0 48 -126zm-191 278c85,0 84,15 114,-84 201,-1 159,-20 199,84l87 -1 -158 -371 -86 0 -156 372z"/>
   <path class="fil3" d="M1122 825l-2 4 78 8 7 2c74,-125 247,-287 396,-334 75,-24 158,-10 208,-37 -2,-91 -153,-56 -209,-41 -182,48 -400,256 -478,398z"/>
   <path class="fil1" d="M1205 839l-7 -2c-12,27 -29,51 -47,73l-2 2c67,1 140,16 211,19 141,6 298,-4 437,-27 77,-12 153,-13 156,-82 -64,-24 -223,19 -354,29 -129,10 -268,12 -394,-12z"/>
   <path class="fil3" d="M1064 905c-56,121 -132,217 -201,394 -38,95 -137,351 -138,454 35,-35 238,-512 305,-634 20,-37 35,-67 57,-104 20,-36 45,-69 62,-103l2 -2 -80 -13 -7 8z"/>
   <path class="fil2" d="M9228 1430l79 1 0 -151 226 0 0 -68 -226 0c10,-115 121,-85 225,-85l1 -67c-331,-1 -305,17 -305,370z"/>
   <path class="fil2" d="M8414 1432l0 -68c-132,0 -225,33 -221,-118 3,-151 92,-119 221,-119l0 -67c-175,0 -305,-17 -308,186 -3,205 133,186 308,186z"/>
   <path class="fil2" d="M1609 542c-165,60 -77,291 79,236 157,-56 72,-290 -79,-236z"/>
   <path class="fil1" d="M3093 1434l49 0 0 -185c5,18 26,66 35,93 20,60 18,102 71,92 44,-8 34,-113 79,-168l1 164 47 4 0 -253 -73 0 -66 189 -66 -189 -72 0 -5 253z"/>
   <polygon class="fil2" points="9555,1127 9678,1127 9678,1428 9757,1430 9757,1127 9880,1127 9880,1060 9555,1060 "/>
   <polygon class="fil2" points="6625,1068 6625,1127 6748,1127 6748,1428 6827,1430 6827,1127 6950,1127 6950,1060 "/>
   <path class="fil0" d="M5256 2007c100,4 242,26 244,-84 1,-56 -23,-76 -77,-83 -42,-5 -124,-3 -167,0l0 167z"/>
   <polygon class="fil1" points="6490,1746 6433,1746 6167,2363 6222,2363 "/>
   <path class="fil3" d="M1304 1230c3,140 69,84 178,106l2 48 -171 7 0 38c41,10 90,6 132,5 53,-2 85,-8 93,-54 23,-129 -107,-75 -176,-102l-3 -40c46,-22 122,3 168,-18l2 -36c-42,-3 -94,-3 -135,-2 -65,2 -66,13 -90,48z"/>
   <path class="fil0" d="M7839 1980c88,10 237,25 241,-66 5,-102 -157,-82 -241,-73l0 139z"/>
   <path class="fil0" d="M2878 1980c43,5 106,4 150,2 51,-1 88,-12 91,-68 4,-102 -157,-83 -241,-73l0 139z"/>
   <path class="fil1" d="M2334 1229c30,-15 97,-7 139,-7 -2,-53 18,-31 -164,-33 -73,3 -113,141 50,141 111,0 71,48 56,55 -19,8 -122,3 -155,7l0 39c62,9 212,25 226,-51 23,-131 -104,-72 -177,-101 -6,-41 -8,-39 25,-50z"/>
   <polygon class="fil2" points="6115,1432 6198,1432 6198,1060 6115,1059 "/>
   <polygon class="fil2" points="4701,1432 4784,1432 4784,1059 4755,1059 4730,1059 4701,1060 "/>
   <path class="fil1" d="M2951 1434c0,-72 2,-34 -92,-44 -45,-5 -47,-18 -52,-61l119 0c23,-4 25,12 25,-44l-140 0 8 -51c38,-10 85,-9 129,-9l2 -43c-120,-2 -202,-8 -203,123 -2,134 86,132 204,129z"/>
   <path class="fil1" d="M2067 1227l38 -1c38,0 73,-2 74,37 0,35 -30,38 -65,38l-47 0 0 -74zm-48 208l48 -4 0 -85c56,0 132,8 157,-32 31,-50 15,-124 -55,-124l-150 -3 0 248z"/>
   <path class="fil1" d="M2715 1434l0 -249 -44 0 0 78c-2,14 -4,13 -8,20l-93 1 -1 -102 -47 -1 -5 253 53 0 0 -105 97 0 0 101 48 4z"/>
   <path class="fil3" d="M1793 1200c-13,-15 0,-11 -26,-13 -17,-2 -12,2 -23,6 -29,52 -41,132 -79,173 -62,-177 -58,-184 -126,-183l92 223c15,28 0,28 68,27l94 -233z"/>
   <path class="fil3" d="M1218 1234c14,-15 -29,-12 77,-12l0 -35c-58,0 -161,-9 -212,7l2 30 78 3 0 207 54 0 1 -200z"/>
   <path class="fil0" d="M3997 2058l160 1c-18,-52 -58,-162 -82,-200l-78 199z"/>
   <path class="fil0" d="M4034 1170l0 50c52,0 111,3 155,-9 15,-31 14,-30 8,-69 -54,-23 -90,-15 -163,-15l0 43z"/>
   <path class="fil0" d="M7421 1170l0 50c52,0 111,3 155,-9 15,-31 14,-30 7,-69 -53,-23 -89,-15 -162,-15l0 43z"/>
   <polygon class="fil1" points="2994,1434 3045,1434 3045,1187 2994,1185 "/>
   <polygon class="fil1" points="1961,1434 1961,1185 1911,1187 1911,1434 "/>
   <polygon class="fil1" points="7396,1686 7456,1686 7487,1684 7487,1596 7456,1592 7396,1593 "/>
   <polygon class="fil1" points="7264,1683 7295,1687 7356,1686 7356,1635 7356,1593 7264,1594 "/>
   <path class="fil0" d="M8942 1280l110 0 -53 -136c-3,2 -5,3 -6,5 0,3 -2,4 -3,5l-48 126z"/>
   <path class="fil0" d="M2067 1301l47 0c35,0 65,-3 65,-38 -1,-39 -36,-37 -74,-37l-38 1 0 74z"/>
   <path class="fil4" d="M1072 892l-1 5 80 13c18,-22 35,-46 47,-73l-78 -8 -48 63z"/>
   <path class="fil5" d="M2019 1435l0 -248 150 3c-11,-25 -125,-12 -154,-9 -8,40 -4,83 -4,124 0,23 0,45 0,68 0,32 -4,38 8,62z"/>
   <path class="fil5" d="M2334 1229l142 0 1 -48c-45,-4 -139,-15 -168,8 182,2 162,-20 164,33 -42,0 -109,-8 -139,7z"/>
   <path class="fil6" d="M2663 1283c4,-7 6,-6 8,-20l0 -78 44 0 0 249c17,-30 10,-225 5,-252l-53 -4 -4 105z"/>
   <path class="fil6" d="M1961 1434c17,-30 10,-225 5,-252 -13,-3 -14,-7 -30,-5 -34,3 -16,3 -25,10l50 -2 0 249z"/>
   <path class="fil7" d="M1218 1234l86 -4 -4 -49 -194 -3c-24,6 -11,-2 -23,16 51,-16 154,-7 212,-7l0 35c-106,0 -63,-3 -77,12z"/>
   <path class="fil6" d="M2994 1434l0 -249 51 2c-6,-4 10,-22 -55,-5l4 252z"/>
   <path class="fil7" d="M1793 1200c10,-14 11,19 7,-22 -37,-1 -40,-9 -56,15 11,-4 6,-8 23,-6 26,2 13,-2 26,13z"/>
   <path class="fil8" d="M4729 2141l-18 4 9 15c15,-7 3,-2 9,-19z"/>
   <path class="fil8" d="M1292 2141l-18 4 8 15c16,-7 4,-2 10,-19z"/>
   <polygon class="fil6" points="1064,905 1071,897 1072,892 1052,891 "/>
  </g>
 </g>
</svg>
