<?xml version="1.0" encoding="UTF-8"?>
<!DOCTYPE svg PUBLIC "-//W3C//DTD SVG 1.1//EN" "http://www.w3.org/Graphics/SVG/1.1/DTD/svg11.dtd">
<!-- Creator: CorelDRAW Home & Student X8 -->
<svg xmlns="http://www.w3.org/2000/svg" xml:space="preserve" width="100%" height="100%" version="1.1" style="shape-rendering:geometricPrecision; text-rendering:geometricPrecision; image-rendering:optimizeQuality; fill-rule:evenodd; clip-rule:evenodd"
viewBox="0 0 3387 3852"
 xmlns:xlink="http://www.w3.org/1999/xlink">
 <defs>
  <style type="text/css">
   <![CDATA[
    .fil0 {fill:#2B2A29}
    .fil1 {fill:#DC2126}
   ]]>
  </style>
 </defs>
 <g id="Ebene_x0020_1">
  <metadata id="CorelCorpID_0Corel-Layer"/>
  <g id="_575354280">
   <path class="fil0" d="M1 334l0 1702c0,89 20,205 42,288 9,33 12,56 51,59 8,-33 20,-43 35,-117 36,-180 25,-252 25,-433l-1 -1525c1,-90 57,-160 145,-160l2777 0c114,0 161,69 161,186l0 2447c-1,300 73,442 -213,465 -216,18 -479,-6 -702,1l-686 17c-124,0 -217,9 -338,8l-250 13c-45,6 -52,-6 -72,21l550 25c69,0 112,9 187,9l567 8c68,0 111,9 186,9l280 0c46,0 54,6 93,8l177 0c170,0 301,-31 352,-232 27,-106 12,-255 12,-377l0 -1736c0,-68 8,-110 9,-168l0 -22 -15 -464c-13,-97 37,-233 -160,-331 -48,-24 -87,-39 -155,-39l-2625 0 -24 0c-117,0 -199,2 -288,68 -86,64 -120,159 -120,270z"/>
   <path class="fil0" d="M1161 597c133,-3 259,-197 539,273 34,57 116,210 130,269 -67,32 -162,55 -271,110 -85,43 -224,114 -294,180 -21,20 -29,24 -51,42 -33,29 -64,67 -92,103 -93,122 -114,279 -71,428 27,94 34,55 34,178 0,159 -194,417 -313,508 -88,67 -110,94 -229,178 -41,29 -174,116 -206,150 -96,101 283,-87 285,-88 164,-83 384,-251 483,-397 231,-340 73,-570 73,-639l0 -59c0,-156 172,-298 275,-361 123,-75 183,-102 318,-156 36,-14 85,-26 118,-42 8,98 151,264 236,332 52,41 117,69 186,93 178,59 432,45 596,-17 37,-14 88,-83 36,-124 -72,-57 -150,29 -334,29 -262,0 -419,-56 -550,-279 -16,-27 -21,-49 -34,-76 107,-25 188,-27 211,-127 -18,-27 -39,-51 -84,-51 -42,0 -150,29 -178,42l-93 -203c-91,-184 -264,-423 -500,-423 -86,0 -203,64 -220,127z"/>
   <path class="fil0" d="M2253 978c0,23 18,86 25,103 62,152 260,219 417,93 81,-65 83,-147 83,-230 0,-183 -274,-323 -447,-151 -22,23 -40,46 -51,76 -8,20 -27,84 -27,109z"/>
   <path class="fil1" d="M1932 3823c0,18 6,24 20,25l37 0 2 0 0 -119 93 0c0,99 -7,116 20,119l39 0 0 -288 -59 0 0 110 -93 0 0 -110 -59 0 0 263z"/>
   <path class="fil1" d="M289 3679c0,164 50,169 190,169l22 0c0,-83 -10,-56 -94,-59 -51,-1 -49,-17 -59,-60 112,0 153,18 153,-33 0,-40 -48,-26 -144,-26 0,-26 4,-31 8,-51 60,-14 64,-8 136,-8l0 -51c-92,0 -212,-23 -212,119z"/>
   <path class="fil1" d="M2431 3696c0,128 61,149 138,152l74 0 0 -59c-126,0 -142,15 -144,-60l144 0 0 -59 -144 0c6,-75 41,-59 144,-59l0 -51c-112,0 -212,-21 -212,136z"/>
   <path class="fil1" d="M1014 3848c27,-3 20,-20 20,-119l93 0 0 119 51 0 0 -288 -51 0 0 110 -93 0 0 -110 -59 0 0 288 39 0z"/>
   <path class="fil1" d="M3109 3848c78,0 59,-10 59,-127 21,15 44,58 60,83 26,39 28,43 69,44l28 0 4 0 -102 -152c8,-10 -1,3 12,-14l90 -122 -77 0c-5,22 -24,42 -38,63 -14,19 -31,44 -46,56l0 -119 -59 0 0 288z"/>
   <path class="fil1" d="M1559 3628c8,34 23,57 26,93l-68 0c26,-54 10,-70 42,-93zm-135 220c79,0 47,-8 76,-68l110 0c7,30 13,44 25,68l60 0 -84 -221c-6,-17 -6,-21 -14,-37 -13,-31 -1,-30 -55,-30 -26,0 -18,6 -27,24l-91 264z"/>
   <path class="fil1" d="M696 3704c0,121 67,141 142,144l69 0 0 -59c-72,0 -75,5 -135,-9 -48,-206 51,-169 135,-169l0 -51c-105,0 -211,-24 -211,144z"/>
   <path class="fil1" d="M1229 3585c0,34 24,26 85,26l0 237 59 0 0 -237 85 0 0 -51 -229 0 0 25z"/>
   <path class="fil1" d="M1661 3611l84 0 0 237 42 0c28,-5 18,-40 18,-237l76 0 0 -51 -220 0 0 51z"/>
   <polygon class="fil1" points="2694,3611 2770,3611 2770,3848 2829,3848 2829,3611 2914,3611 2914,3560 2694,3560 "/>
   <path class="fil1" d="M2211 3679c0,165 44,169 156,169l5 0c30,0 25,-17 25,-51 -53,0 -73,5 -118,-17 -16,-68 -9,-149 -9,-220l-59 0 0 119z"/>
   <path class="fil1" d="M69 3721c0,107 47,125 113,127l65 0 0 -51c-145,0 -119,8 -119,-237l-59 0 0 161z"/>
   <polygon class="fil1" points="2965,3848 3024,3848 3024,3560 2965,3560 "/>
   <path class="fil1" d="M569 3823c0,19 5,25 24,25l1 0 34 0 0 -288 -59 0 0 263z"/>
  </g>
 </g>
</svg>
