<?xml version="1.0" encoding="UTF-8"?>
<!DOCTYPE svg PUBLIC "-//W3C//DTD SVG 1.1//EN" "http://www.w3.org/Graphics/SVG/1.1/DTD/svg11.dtd">
<!-- Creator: CorelDRAW Home & Student X8 -->
<svg xmlns="http://www.w3.org/2000/svg" xml:space="preserve" width="99.991mm" height="42.926mm" version="1.1" style="shape-rendering:geometricPrecision; text-rendering:geometricPrecision; image-rendering:optimizeQuality; fill-rule:evenodd; clip-rule:evenodd"
viewBox="0 0 9999 4293"
 xmlns:xlink="http://www.w3.org/1999/xlink">
 <defs>
  <style type="text/css">
   <![CDATA[
    .fil0 {fill:#FEFEFE}
    .fil8 {fill:#F29E82}
    .fil1 {fill:#DB2326}
    .fil12 {fill:#F2AA8F}
    .fil10 {fill:#F1A68C}
    .fil9 {fill:#EF977B}
    .fil13 {fill:#EB755C}
    .fil6 {fill:#E66048}
    .fil5 {fill:#AFB0B0}
    .fil7 {fill:#A1A1A1}
    .fil2 {fill:#9E9F9E}
    .fil11 {fill:#949695}
    .fil4 {fill:#2D1D1A}
    .fil3 {fill:#2A2928}
   ]]>
  </style>
 </defs>
 <g id="Ebene_x0020_1">
  <metadata id="CorelCorpID_0Corel-Layer"/>
  <g id="_870076552">
   <path class="fil0" d="M6568 2565l180 -1 30 4 1 952 -32 2 -179 0 0 -957zm476 957l-200 0 402 -956 216 -1 406 957 -226 0c-9,-32 -73,-222 -99,-228l-403 0c-14,41 -67,213 -96,228zm-4183 -957l202 0c0,202 -11,430 1,627 14,251 271,135 454,173l0 153c-56,12 -326,5 -387,-3 -107,-16 -194,-75 -237,-169 -54,-117 -33,-614 -33,-781zm5068 957l0 -957c482,0 877,-88 889,474 5,229 -74,382 -232,450 -121,53 -500,33 -657,33zm-5740 -979c336,-34 528,107 552,422 24,331 -89,543 -398,571 -342,31 -525,-106 -551,-426 -27,-330 87,-537 397,-567zm3387 22l452 0c134,0 266,21 327,96 60,76 92,207 55,329 -83,276 -444,162 -632,197l0 335 -202 0 0 -957zm-1073 956l-206 1 0 -957 298 0 240 726 244 -726 296 0 0 956 -198 2 15 -720 -242 717 -217 2c-1,-5 -216,-682 -248,-724l18 723zm5184 1c-177,0 -447,25 -588,-49 -131,-70 -201,-226 -197,-434 11,-543 387,-474 785,-474l0 170c-310,0 -534,-64 -555,219l555 1 0 169 -556 0c-1,293 238,228 556,228l0 170zm-6000 0c0,-110 0,-220 0,-330 0,-83 10,-81 -30,-136l-331 -491 213 0c44,20 190,302 245,358 27,-23 101,-147 121,-178 36,-56 88,-123 116,-180l235 3c-41,64 -90,132 -136,198 -45,66 -88,127 -135,194 -102,145 -96,113 -96,232 0,110 0,220 0,330l-202 0zm859 -1725c12,-7 -1,-4 18,-7l61 2c13,36 12,335 2,380 -28,7 -57,11 -83,-3l2 -372zm-1542 1l2 370c-24,14 -56,10 -82,4 -10,-44 -11,-345 2,-380 23,-3 66,-10 78,6zm831 369l1 -375 78 0 1 153 145 -2 0 -152 78 3 1 370c-13,16 5,5 -17,13 -21,7 -47,0 -65,-6l-1 -159 -137 0 -4 159c-29,11 -71,11 -75,0 -1,-3 -4,-2 -5,-4zm3717 -787l179 0 335 787 -186 0c-8,-33 -23,-63 -36,-97 -46,-117 21,-89 -377,-88l-68 185 -178 -1 331 -786zm-4472 412c169,0 374,-31 329,161 -25,108 -147,82 -250,88l-4 131 -72 0 -3 -30 0 -350zm1705 105c-19,21 -10,102 -10,135 0,46 4,95 -4,141l-69 -1c-13,-71 -6,-285 1,-374 1,-4 2,-4 4,-6l110 1 97 286c17,-44 34,-100 49,-147 54,-163 13,-140 161,-140l-5 380 -65 0 -4 -282c-16,51 -34,101 -51,154 -41,123 -26,128 -80,130 -52,1 -48,-3 -62,-47 -17,-52 -70,-195 -72,-230zm-1088 269c-26,21 -206,16 -252,7l5 -71 226 -3c41,-9 35,-31 26,-71 -77,-27 -207,14 -251,-53 -23,-34 -49,-183 96,-180 37,-17 174,-11 224,-4 11,29 9,38 2,73l-214 1c-44,5 -54,25 -36,72 69,32 206,-12 248,48 44,63 21,175 -74,181zm-1423 0c-26,22 -206,15 -248,7 -8,-31 -10,-39 2,-71l226 -2c41,-10 34,-32 26,-72 -112,-34 -294,36 -267,-149 17,-116 182,-89 331,-86 5,9 5,2 8,19l-3 50 -215 1c-63,10 -56,79 2,88 52,8 118,-8 172,7 86,24 87,197 -34,208zm-274 -375c20,25 12,45 4,72l-117 1 -4 307c-29,12 -55,13 -86,0l0 -307c-35,0 -87,7 -118,-9l2 -61 319 -3zm2483 381c-172,3 -306,7 -304,-191 3,-202 123,-193 307,-189l1 64c-143,4 -205,-25 -217,91l217 1 -2 65 -217 2c11,123 104,90 219,92l-4 65zm-1962 -2l-159 -378 84 1 116 280 112 -281 81 0 -137 343c-19,44 -12,36 -97,35zm4063 -790l375 0c112,0 215,16 267,80 48,62 77,176 46,275 -68,217 -337,147 -522,164l0 268 -166 0 0 -85 0 -702zm2383 644c100,-5 211,-1 312,-1 93,0 222,21 231,-76 18,-191 -292,-41 -479,-133 -128,-64 -143,-339 27,-410 97,-40 458,-25 589,-24l0 144c-106,0 -211,0 -317,0 -96,0 -209,-17 -219,85 -21,191 320,40 486,131 119,65 134,339 -37,404 -91,35 -475,28 -593,22l0 -142zm-855 0c100,-5 210,-1 312,-1 93,0 222,21 231,-76 18,-191 -292,-41 -479,-133 -126,-63 -147,-337 27,-410 96,-40 459,-25 589,-24l0 144c-106,0 -212,0 -317,0 -97,0 -209,-16 -220,85 -12,122 116,101 211,101 91,0 201,-11 275,30 120,65 136,338 -36,404 -92,35 -474,28 -593,22l0 -142zm-2371 0c101,-5 210,-1 312,-1 93,0 222,21 231,-76 25,-257 -606,105 -573,-356 7,-101 44,-154 121,-187 96,-40 459,-25 589,-24l0 144c-105,0 -211,0 -317,0 -96,0 -209,-16 -219,85 -13,122 115,101 211,101 90,0 200,-11 275,30 119,65 135,338 -37,404 -92,35 -474,28 -593,22l0 -142zm-3273 -1195c114,-42 213,37 239,121 74,239 -283,350 -360,114 -33,-98 13,-194 121,-235zm-2206 -371c45,22 117,96 156,131l149 130c298,248 759,474 1162,541l6 5c14,-36 65,-100 91,-133 166,-201 351,-390 613,-471 88,-28 321,-75 334,41 -32,51 -72,41 -140,41 -153,0 -294,72 -408,153 -121,86 -130,117 -197,175 -31,27 -148,166 -167,207 277,41 594,30 874,-15 88,-15 180,-54 251,-9 8,99 -138,105 -224,119 -102,16 -206,28 -310,36 -379,29 -441,-22 -669,-23 -59,100 -121,191 -179,303 -81,156 -413,903 -459,965 -21,-96 165,-586 206,-693 54,-141 154,-325 228,-458 28,-49 59,-92 83,-140 -307,-68 -599,-181 -829,-326 -116,-72 -228,-172 -320,-256 -42,-38 -241,-256 -257,-317l-12 -19 18 13zm-254 3843l9999 0 0 -4293 -9999 0 0 4293z"/>
   <path class="fil1" d="M4485 2798c32,42 247,719 248,724l217 -2 242 -717 -15 720 198 -2 0 -956 -296 0 -244 726 -240 -726 -298 0 0 957 206 -1 -18 -723z"/>
   <path class="fil1" d="M8132 2739c71,-14 304,-7 361,19 143,67 148,509 -6,573 -56,24 -289,31 -356,18l1 -610zm-203 783c157,0 536,20 657,-33 158,-68 237,-221 232,-450 -12,-562 -407,-474 -889,-474l0 957z"/>
   <path class="fil1" d="M2519 3115c-13,99 -32,152 -90,203 -68,61 -315,108 -392,-98 -59,-157 -62,-596 307,-510 80,18 127,71 153,143 26,70 33,184 22,262zm-330 -572c-310,30 -424,237 -397,567 26,320 209,457 551,426 309,-28 422,-240 398,-571 -24,-315 -216,-456 -552,-422z"/>
   <path class="fil1" d="M9687 3522l0 -170c-318,0 -557,65 -556,-228l556 0 0 -169 -555 -1c21,-283 245,-219 555,-219l0 -170c-398,0 -774,-69 -785,474 -4,208 66,364 197,434 141,74 411,49 588,49z"/>
   <path class="fil1" d="M5778 2739c45,-9 231,-7 282,-2 93,9 143,41 140,141 -2,92 -61,127 -147,134 -52,4 -230,7 -275,-2l0 -271zm-202 783l202 0 0 -335c188,-35 549,79 632,-197 37,-122 5,-253 -55,-329 -61,-75 -193,-96 -327,-96l-452 0 0 957z"/>
   <path class="fil1" d="M7347 2762l141 362 -280 -4 139 -358zm-303 760c29,-15 82,-187 96,-228l403 0c26,6 90,196 99,228l226 0 -406 -957 -216 1 -402 956 200 0z"/>
   <path class="fil2" d="M5741 2024l0 142c119,6 501,13 593,-22 172,-66 156,-339 37,-404 -75,-41 -185,-30 -275,-30 -96,0 -224,21 -211,-101 10,-101 123,-85 219,-85 106,0 212,0 317,0l0 -144c-130,-1 -493,-16 -589,24 -77,33 -114,86 -121,187 -33,461 598,99 573,356 -9,97 -138,76 -231,76 -102,0 -211,-4 -312,1z"/>
   <path class="fil2" d="M8112 2024l0 142c119,6 501,13 593,-22 172,-66 156,-339 36,-404 -74,-41 -184,-30 -275,-30 -95,0 -223,21 -211,-101 11,-101 123,-85 220,-85 105,0 211,0 317,0l0 -144c-130,-1 -493,-16 -589,24 -174,73 -153,347 -27,410 187,92 497,-58 479,133 -9,97 -138,76 -231,76 -102,0 -212,-4 -312,1z"/>
   <path class="fil2" d="M8967 2024l0 142c118,6 502,13 593,-22 171,-65 156,-339 37,-404 -166,-91 -507,60 -486,-131 10,-102 123,-85 219,-85 106,0 211,0 317,0l0 -144c-131,-1 -492,-16 -589,24 -170,71 -155,346 -27,410 187,92 497,-58 479,133 -9,97 -138,76 -231,76 -101,0 -212,-4 -312,1z"/>
   <path class="fil2" d="M6750 1526c58,-5 174,-6 232,0 77,6 120,36 118,116 -3,77 -50,103 -124,109 -59,4 -168,5 -227,-1l1 -224zm-166 556l0 85 166 0 0 -268c185,-17 454,53 522,-164 31,-99 2,-213 -46,-275 -52,-64 -155,-80 -267,-80l-375 0 0 702z"/>
   <path class="fil1" d="M3687 3522l202 0c0,-110 0,-220 0,-330 0,-119 -6,-87 96,-232 47,-67 90,-128 135,-194 46,-66 95,-134 136,-198l-235 -3c-28,57 -80,124 -116,180 -20,31 -94,155 -121,178 -55,-56 -201,-338 -245,-358l-213 0 331 491c40,55 30,53 30,136 0,110 0,220 0,330z"/>
   <path class="fil2" d="M7640 1546l114 291 -233 -1 119 -290zm-419 620l178 1 68 -185c398,-1 331,-29 377,88 13,34 28,64 36,97l186 0 -335 -787 -179 0 -331 786z"/>
   <path class="fil0" d="M2519 3115c11,-78 4,-192 -22,-262 -26,-72 -73,-125 -153,-143 -369,-86 -366,353 -307,510 77,206 324,159 392,98 58,-51 77,-104 90,-203z"/>
   <path class="fil0" d="M8131 3349c67,13 300,6 356,-18 154,-64 149,-506 6,-573 -57,-26 -290,-33 -361,-19l-1 610z"/>
   <path class="fil1" d="M2861 2565c0,167 -21,664 33,781 43,94 130,153 237,169 61,8 331,15 387,3l0 -153c-183,-38 -440,78 -454,-173 -12,-197 -1,-425 -1,-627l-202 0z"/>
   <polygon class="fil1" points="6568,3522 6747,3522 6779,3520 6778,2568 6748,2564 6568,2565 "/>
   <path class="fil1" d="M1662 1363l5 3 62 -106c-403,-67 -864,-293 -1162,-541l-149 -130c-39,-35 -111,-109 -156,-131l-6 6c16,61 215,279 257,317 92,84 204,184 320,256 230,145 522,258 829,326z"/>
   <path class="fil3" d="M1735 1265l119 12 7 1c19,-41 136,-180 167,-207 67,-58 76,-89 197,-175 114,-81 255,-153 408,-153 68,0 108,10 140,-41 -13,-116 -246,-69 -334,-41 -262,81 -447,270 -613,471 -26,33 -77,97 -91,133z"/>
   <path class="fil3" d="M1783 1386l4 -15c-46,20 -71,2 -120,-5l-5 -3c-24,48 -55,91 -83,140 -74,133 -174,317 -228,458 -41,107 -227,597 -206,693 46,-62 378,-809 459,-965 58,-112 120,-203 179,-303z"/>
   <path class="fil1" d="M1861 1278l-7 -1c-10,23 -17,29 -33,53 -6,7 -10,16 -17,25 -16,21 -1,11 -17,16l-4 15c228,1 290,52 669,23 104,-8 208,-20 310,-36 86,-14 232,-20 224,-119 -71,-45 -163,-6 -251,9 -280,45 -597,56 -874,15z"/>
   <path class="fil2" d="M2468 829c-108,41 -154,137 -121,235 77,236 434,125 360,-114 -26,-84 -125,-163 -239,-121z"/>
   <path class="fil0" d="M5778 3010c45,9 223,6 275,2 86,-7 145,-42 147,-134 3,-100 -47,-132 -140,-141 -51,-5 -237,-7 -282,2l0 271z"/>
   <path class="fil1" d="M4785 1897c2,35 55,178 72,230 14,44 10,48 62,47 54,-2 39,-7 80,-130 17,-53 35,-103 51,-154l4 282 65 0 5 -380c-148,0 -107,-23 -161,140 -15,47 -32,103 -49,147l-97 -286 -110 -1 0 369 60 0 -1 -249c0,-2 1,-14 2,-15 4,-19 1,-8 9,-18 28,1 0,-5 8,18z"/>
   <path class="fil0" d="M6749 1750c59,6 168,5 227,1 74,-6 121,-32 124,-109 2,-80 -41,-110 -118,-116 -58,-6 -174,-5 -232,0l-1 224z"/>
   <path class="fil1" d="M3676 2099c-30,17 -55,11 -104,10 -40,0 -80,0 -120,0l0 60 245 -3c95,-6 118,-118 74,-181 -42,-60 -179,-16 -248,-48 -18,-47 -8,-67 36,-72l22 -9 178 0 10 0 0 -59 -222 -2c-145,-3 -119,146 -96,180 44,67 174,26 251,53 9,40 15,62 -26,71z"/>
   <path class="fil3" d="M2254 2100c-29,16 -64,10 -104,10 -40,-1 -80,0 -120,0l-1 58 245 -2c121,-11 120,-184 34,-208 -54,-15 -120,1 -172,-7 -58,-9 -65,-78 -2,-88l25 -9 185 0 0 -61c-149,-3 -314,-30 -331,86 -27,185 155,115 267,149 8,40 15,62 -26,72z"/>
   <path class="fil1" d="M3159 1861c64,-4 112,-7 160,16 19,79 -5,95 -85,95l-43 0 -32 -1 0 -110zm-79 281l3 30 72 0 4 -131c103,-6 225,20 250,-88 45,-192 -160,-161 -329,-161l0 350z"/>
   <path class="fil1" d="M3835 2167l75 3 9 -158 137 0c1,2 3,3 3,6 0,4 3,5 3,7 5,26 0,-12 3,15 0,9 -1,31 -1,42 0,29 0,58 0,87l75 -5 -1 -370 -78 -3 0 152 -145 2 -1 -153 -78 0 -1 375z"/>
   <path class="fil1" d="M4483 2172l4 -65c-115,-2 -208,31 -219,-92l217 -2 2 -65 -217 -1c12,-116 74,-87 217,-91l-1 -64c-184,-4 -304,-13 -307,189 -2,198 132,194 304,191z"/>
   <path class="fil3" d="M2521 2170c85,1 78,9 97,-35l137 -343 -81 0 -112 281 -116 -280 -84 -1 159 378z"/>
   <polygon class="fil0" points="7208,3120 7488,3124 7347,2762 "/>
   <polygon class="fil3" points="1679,1855 1804,1857 1804,2169 1878,2169 1883,1856 2000,1855 2000,1791 1681,1794 "/>
   <polygon class="fil0" points="7521,1836 7754,1837 7640,1546 "/>
   <polygon class="fil1" points="4544,2169 4623,2169 4623,1797 4546,1797 "/>
   <polygon class="fil1" points="3006,2168 3004,1798 2928,1798 2928,2168 "/>
   <path class="fil0" d="M3159 1971l32 1 43 0c80,0 104,-16 85,-95 -48,-23 -96,-20 -160,-16l0 110z"/>
   <path class="fil4" d="M1667 1366c49,7 74,25 120,5 16,-5 1,5 17,-16 7,-9 11,-18 17,-25 16,-24 23,-30 33,-53l-119 -12 -6 -5 -62 106z"/>
   <path class="fil5" d="M1679 1855c31,16 83,9 118,9l0 307c31,13 57,12 86,0l4 -307 117 -1c8,-27 16,-47 -4,-72l0 64 -117 1 -5 313 -74 0 0 -312 -125 -2z"/>
   <path class="fil6" d="M4785 1897c-8,-23 20,-17 -8,-18 -8,10 -5,-1 -9,18 -1,1 -2,13 -2,15l1 249 -60 0 0 -369c-2,2 -3,2 -4,6 -7,89 -14,303 -1,374l69 1c8,-46 4,-95 4,-141 0,-33 -9,-114 10,-135z"/>
   <path class="fil7" d="M2274 2166l-245 2 1 -58c40,0 80,-1 120,0 40,0 75,6 104,-10l-226 2c-12,32 -10,40 -2,71 42,8 222,15 248,-7z"/>
   <path class="fil8" d="M3697 2166l-245 3 0 -60c40,0 80,0 120,0 49,1 74,7 104,-10l-226 3 -5 71c46,9 226,14 252,-7z"/>
   <path class="fil8" d="M4544 2169c26,14 55,10 83,3 10,-45 11,-344 -2,-380l-61 -2c-19,3 -6,0 -18,7l77 0 0 372 -79 0z"/>
   <path class="fil9" d="M3006 2168l-78 0 0 -370 76 0c-12,-16 -55,-9 -78,-6 -13,35 -12,336 -2,380 26,6 58,10 82,-4z"/>
   <path class="fil10" d="M3559 1865l214 -1c7,-35 9,-44 -2,-73 -50,-7 -187,-13 -224,4l222 2 0 59 -10 0 -178 0 -22 9z"/>
   <path class="fil11" d="M2134 1863l215 -1 3 -50c-3,-17 -3,-10 -8,-19l0 61 -185 0 -25 9z"/>
   <path class="fil12" d="M4139 2164l-75 5c0,-29 0,-58 0,-87 0,-11 1,-33 1,-42 -3,-27 2,11 -3,-15 0,-2 -3,-3 -3,-7 0,-3 -2,-4 -3,-6l1 159c18,6 44,13 65,6 22,-8 4,3 17,-13z"/>
   <path class="fil12" d="M3835 2167c1,2 4,1 5,4 4,11 46,11 75,0l4 -159 -9 158 -75 -3z"/>
   <polygon class="fil13" points="256,464 262,458 244,445 "/>
  </g>
 </g>
</svg>
