<?xml version="1.0" encoding="UTF-8"?>
<!DOCTYPE svg PUBLIC "-//W3C//DTD SVG 1.1//EN" "http://www.w3.org/Graphics/SVG/1.1/DTD/svg11.dtd">
<!-- Creator: CorelDRAW Home & Student X8 -->
<svg xmlns="http://www.w3.org/2000/svg" xml:space="preserve" width="33.867mm" height="37.914mm" version="1.1" style="shape-rendering:geometricPrecision; text-rendering:geometricPrecision; image-rendering:optimizeQuality; fill-rule:evenodd; clip-rule:evenodd"
viewBox="0 0 3387 3791"
 xmlns:xlink="http://www.w3.org/1999/xlink">
 <defs>
  <style type="text/css">
   <![CDATA[
    .fil0 {fill:#2B2A29}
    .fil1 {fill:#DC2126}
   ]]>
  </style>
 </defs>
 <g id="Ebene_x0020_1">
  <metadata id="CorelCorpID_0Corel-Layer"/>
  <g id="_861628736">
   <path class="fil0" d="M1 343l0 1710c0,70 9,128 21,191 11,67 19,136 64,148 26,-19 35,-76 42,-111 9,-46 12,-80 20,-132 14,-101 6,-1570 5,-1823 0,-61 6,-84 36,-117 28,-29 54,-52 108,-52l2794 0c108,0 153,83 153,194 0,441 10,2701 -2,2775 -17,103 -94,130 -218,130 -170,-1 -872,3 -1034,16 -105,9 -242,-11 -344,3 -103,14 -454,10 -507,18l-164 30c125,0 377,27 525,26 62,-1 124,0 186,-1 63,0 106,9 178,9 62,0 124,0 186,0 64,0 106,9 178,9l550 8c60,0 128,-3 186,0 72,4 93,14 170,0 53,-9 95,-26 132,-54 41,-31 59,-56 82,-104 60,-123 27,-180 33,-229 3,-22 5,-109 7,-238l0 -2144 0 -4c0,-95 -6,-363 -26,-418 -31,-84 -163,-179 -279,-179l-2709 0c-128,0 -204,21 -274,83 -70,62 -99,159 -99,256z"/>
   <path class="fil0" d="M763 3112l26 0 66 -146c22,-53 42,-100 66,-154 112,-250 200,-521 333,-751 25,-44 51,-96 85,-135l154 626c11,40 -23,96 -39,141l-105 284c-15,39 -51,110 -36,143 30,-21 87,-200 103,-244l92 -256c22,16 19,25 29,56 22,71 125,365 170,423 18,22 3,14 30,21 16,-71 -70,-440 -93,-551 -51,-258 -84,-87 98,-562 25,-65 43,-120 69,-185l54 -142c10,-36 18,-14 -18,-33 -55,113 -226,643 -263,686l-102 -431c-31,-158 -49,-131 80,-236 191,-155 271,-59 343,-113 142,-106 -149,-241 -433,-2 -71,60 -48,53 -68,-96 -23,-177 -24,-329 6,-499 16,-93 -127,-152 -153,-9l-15 254c16,136 -3,182 36,422 26,154 33,63 -85,251 -113,180 -227,424 -298,625 -32,93 -58,190 -83,289 -26,107 -49,185 -49,324z"/>
   <path class="fil0" d="M2228 2290c34,-9 27,-15 54,-81l205 -489c18,-36 31,-53 48,-87l57 -88c0,50 50,240 68,305 32,124 42,68 -37,268l-56 172c24,-6 20,-1 43,-66l92 -239 104 277c14,24 12,21 31,28 0,-76 -20,-161 -35,-227 -68,-287 -63,-174 36,-449 14,-38 28,-76 44,-117 19,-49 44,-94 32,-121 -28,11 -37,65 -48,96 -14,40 -27,71 -42,111 -15,40 -61,185 -88,216 -1,-48 -28,-121 -39,-173 -12,-56 -33,-129 -37,-182 88,-60 78,-119 279,-119 12,-17 25,-22 25,-42 0,-70 -146,-60 -250,3 -34,21 -41,39 -80,48 0,-164 -32,-171 -6,-372 3,-24 6,-25 -1,-44 -4,-9 -16,-33 -27,-33 -77,0 -64,86 -68,161 -1,28 -4,30 -3,48l8 167c35,239 45,110 -80,327 -117,202 -136,296 -196,498 -17,56 -33,131 -33,204z"/>
   <path class="fil0" d="M1212 588c0,125 111,212 203,212 280,0 303,-423 -8,-423 -95,0 -195,92 -195,211z"/>
   <path class="fil0" d="M2507 707c0,180 263,190 263,0 0,-167 -263,-162 -263,0z"/>
   <path class="fil1" d="M1720 3789l59 0 31 -147c7,-44 -7,-28 20,-48 0,36 31,172 42,195l60 0c3,-43 24,-101 33,-145 10,-51 23,-94 34,-143 -78,0 -54,7 -70,83l-31 120c-6,-63 -41,-141 -43,-203l-67 0c0,38 -10,70 -17,102 -8,44 -12,79 -26,101 -5,-63 -41,-141 -42,-203l-59 0 76 288z"/>
   <path class="fil1" d="M120 3789l50 0 0 -203c9,10 5,3 15,19l79 184 59 0 0 -288 -51 0 0 178c-8,-9 -4,-2 -14,-20 -7,-13 -6,-13 -10,-24 -9,-21 -10,-25 -21,-47 -49,-96 -10,-87 -107,-87l0 288z"/>
   <path class="fil1" d="M2821 3789l50 0 0 -195c8,9 5,2 14,20 8,14 8,16 13,30 62,156 59,145 126,145l0 -288 -51 0 0 186c-21,-24 -79,-161 -85,-186l-67 0 0 288z"/>
   <path class="fil1" d="M3075 3620c0,181 48,169 211,169 0,-207 24,-178 -93,-178 -31,0 -25,18 -25,59l67 0 0 60c-109,0 -101,-2 -101,-119 0,-77 60,-59 152,-59l0 -51c-99,0 -211,-24 -211,119z"/>
   <path class="fil1" d="M1043 3730l-77 0 0 -178c95,0 110,-14 110,110 0,30 -4,68 -33,68zm-127 59l110 0c87,0 99,-55 103,-141 3,-58 -7,-147 -86,-147l-127 0 0 288z"/>
   <path class="fil1" d="M535 3730c-97,22 -102,2 -102,-102 0,-116 118,-115 118,8 0,41 -9,62 -16,94zm-161 -94c0,226 228,188 228,34 0,-100 8,-177 -127,-177 -70,0 -101,74 -101,143z"/>
   <path class="fil1" d="M780 3620l-68 0 0 -68c61,0 93,-10 93,42 0,20 -5,26 -25,26zm-118 169c60,0 50,9 50,-110 80,0 41,-6 102,110l51 0c-11,-48 -41,-85 -51,-127 67,-18 59,-161 -25,-161l-127 0 0 288z"/>
   <path class="fil0" d="M1127 1655c-42,-9 -6,-20 -96,91 -142,174 -393,511 -535,700 -26,34 -90,104 -83,121 11,26 17,9 47,-29l312 -409c40,-54 346,-440 355,-474z"/>
   <path class="fil1" d="M2084 3569c29,21 9,-3 21,38 7,22 11,32 13,55l-59 0c11,-23 24,-60 25,-93zm-110 220l51 0c5,-23 11,-45 17,-68l101 0c3,31 11,40 17,68l51 0c-1,-55 -52,-165 -71,-226 -17,-54 -9,-62 -56,-62 -31,0 -43,72 -63,132 -13,41 -44,117 -47,156z"/>
   <path class="fil1" d="M2456 3789l51 0 0 -127c17,13 65,96 85,127l59 0c-11,-40 -80,-117 -82,-145 -2,-23 67,-114 82,-143l-59 0c-18,27 -63,103 -85,119l0 -119 -51 0 0 288z"/>
   <path class="fil1" d="M1297 3636c0,169 87,153 186,153l0 -51c-54,0 -74,5 -119,-17 -47,-201 48,-169 119,-169l0 -51c-88,0 -186,-21 -186,135z"/>
   <path class="fil1" d="M2245 3645c0,153 60,144 161,144l0 -51 -93 -8c-28,-57 -17,-149 -17,-229l-51 0 0 144z"/>
   <path class="fil0" d="M2016 1960c24,-16 198,-249 228,-289l164 -216c73,-98 51,-103 -19,-11l-334 436c-21,26 -53,48 -39,80z"/>
   <polygon class="fil1" points="1186,3789 1237,3789 1237,3501 1186,3501 "/>
   <polygon class="fil1" points="2694,3789 2744,3789 2744,3501 2694,3501 "/>
  </g>
 </g>
</svg>
