<?xml version="1.0" encoding="UTF-8"?>
<!DOCTYPE svg PUBLIC "-//W3C//DTD SVG 1.1//EN" "http://www.w3.org/Graphics/SVG/1.1/DTD/svg11.dtd">
<!-- Creator: CorelDRAW Home & Student X8 -->
<svg xmlns="http://www.w3.org/2000/svg" xml:space="preserve" width="33.7818mm" height="38.29mm" version="1.1" style="shape-rendering:geometricPrecision; text-rendering:geometricPrecision; image-rendering:optimizeQuality; fill-rule:evenodd; clip-rule:evenodd"
viewBox="0 0 3378 3829"
 xmlns:xlink="http://www.w3.org/1999/xlink">
 <defs>
  <style type="text/css">
   <![CDATA[
    .fil1 {fill:#2A2928}
    .fil0 {fill:#2B2A29}
    .fil4 {fill:#434140}
    .fil2 {fill:#DB2126}
    .fil5 {fill:#DC2126}
    .fil6 {fill:#F6F6F6}
    .fil3 {fill:#FFFEFE}
   ]]>
  </style>
 </defs>
 <g id="Ebene_x0020_1">
  <metadata id="CorelCorpID_0Corel-Layer"/>
  <g id="_579700328">
   <path class="fil0" d="M-2 340l0 1702c0,89 19,205 42,288 9,33 11,56 51,59 8,-34 20,-43 35,-118 35,-180 24,-252 24,-432l0 -1525c0,-90 56,-160 144,-160l2777 0c115,0 162,69 161,186l0 2447c0,300 73,442 -212,465 -216,17 -480,-6 -703,0l-685 17c-124,0 -218,9 -339,9l-249 13c-46,6 -53,-6 -73,21l551 25c68,0 111,9 186,9l567 8c69,0 112,9 186,9l280 -1c47,0 55,7 93,9l178 0c169,0 300,-31 352,-232 27,-106 12,-255 12,-378l0 -1735c0,-68 7,-110 8,-168l0 -22 -14 -464c-14,-97 36,-233 -161,-331 -47,-24 -86,-40 -155,-40l-2625 0 -24 0c-117,0 -199,3 -288,69 -86,64 -119,159 -119,270z"/>
   <path class="fil1" d="M2597 1246l-15 -69 92 216 325 -131 -190 -475c-37,8 -305,115 -327,130l79 221 -23 -38c-199,133 -510,202 -727,60 -43,-29 -141,-110 -154,-160l97 -43c46,-26 72,-66 72,-134 -88,-60 -142,-5 -262,59 -31,-58 -128,-166 -176,-214 -108,-108 -192,-189 -351,-242 -59,-19 -104,-25 -170,-12 -37,7 -40,8 -70,23l-79 56c-30,28 -59,64 -60,109 40,-3 69,-38 104,-56 211,-106 363,71 525,232 32,32 140,149 150,189 -150,79 -366,265 -472,408 -147,199 -206,432 -51,647 144,200 17,468 -95,655 -50,85 -124,178 -188,252 -21,24 -28,35 -51,59 -23,23 -28,36 -51,59 -22,23 -31,36 -51,60 -20,23 -37,41 -40,78 45,-11 39,-14 73,-37l187 -144c144,-120 304,-325 376,-504 73,-179 71,-352 -8,-519 -36,-76 -130,-165 -81,-332 65,-224 294,-388 473,-518 25,-19 45,-32 72,-46 108,161 254,264 453,300 162,30 348,-20 481,-77 42,-19 92,-52 133,-62z"/>
   <path class="fil2" d="M2003 3146c15,13 3,8 27,12l1069 1 0 -1032c-6,-27 5,-11 -14,-28 -87,84 -180,177 -271,262l-811 785z"/>
   <path class="fil3" d="M2003 3146l811 -785c91,-85 184,-178 271,-262l-1084 -1c-11,59 -6,1030 2,1048z"/>
   <path class="fil0" d="M2334 636c0,-206 -246,-346 -428,-208 -82,62 -117,169 -94,274 12,58 35,87 76,127 166,164 446,40 446,-193z"/>
   <path class="fil4" d="M3085 2099c19,17 8,1 14,28l0 1032 -1069 -1c-24,-4 -12,1 -27,-12 -8,-18 -13,-989 -2,-1048l1084 1zm-1098 1069l1126 0 0 -1084 -1126 0 0 1084z"/>
   <path class="fil5" d="M2766 3591c3,30 15,72 26,93l-51 0c0,-25 3,-31 9,-50 17,-58 -9,-3 16,-43zm-254 93c0,44 12,97 41,112 34,18 110,7 154,7 3,-33 8,-22 8,-59l94 0c2,26 8,40 16,59l51 0c-11,-23 -82,-254 -84,-280l-51 0c-10,20 -75,232 -76,254 -8,-10 -6,10 -9,-25 -114,0 -93,23 -93,-229l-51 0 0 161z"/>
   <path class="fil5" d="M2165 3803l110 0 0 -169 -101 0 0 59 50 0 0 51c-95,0 -84,5 -84,-110 0,-76 58,-60 135,-60l0 -51c-93,0 -194,-29 -194,144 0,57 24,136 84,136z"/>
   <path class="fil5" d="M1928 3625l0 0zm0 0l39 88c15,31 24,62 37,90l51 0 0 -280 -42 0 0 178 -77 -178 -59 0 0 280 51 0 0 -178z"/>
   <path class="fil5" d="M1547 3642l-51 0 0 -68c36,0 85,0 85,34 0,20 -14,34 -34,34zm-102 161l51 0 0 -102 51 0c9,41 24,61 34,102l51 0c-2,-26 -32,-90 -43,-110 36,-53 34,-1 34,-119 0,-68 -120,-51 -178,-51l0 280z"/>
   <path class="fil5" d="M777 3803l50 0c0,-76 -8,-118 -8,-195l6 11c1,1 5,9 6,11l55 131c18,43 2,42 68,42l0 -280 -42 0 0 178 -76 -178 -59 0 0 280z"/>
   <path class="fil5" d="M387 3642l-51 0 0 -68c43,0 44,6 76,9 3,25 14,59 -25,59zm-102 161l51 0 0 -102c41,0 61,0 85,102l51 0c-10,-40 -34,-73 -43,-110 31,-46 34,-19 34,-102 0,-88 -87,-68 -178,-68l0 280z"/>
   <path class="fil5" d="M167 3752c-69,0 -59,-48 -59,-118 0,-76 101,-95 101,25 0,39 -5,93 -42,93zm-110 -118c0,60 -6,177 93,177 159,0 134,-296 17,-296 -73,0 -110,50 -110,119z"/>
   <path class="fil5" d="M2292 3608c0,152 144,28 152,127 -78,38 -143,-46 -143,68 136,0 220,32 177,-153 -45,-10 -135,4 -135,-42 0,-46 82,-34 135,-34l0 -51c-79,0 -186,-27 -186,85z"/>
   <path class="fil5" d="M1242 3659c0,164 78,144 170,144l0 -51c-133,0 -99,-18 -119,-59l119 0 0 -59 -111 0c2,-70 46,-60 111,-60l0 -51c-70,0 -122,-13 -151,45 -8,18 -19,67 -19,91z"/>
   <path class="fil5" d="M573 3650c0,177 60,153 170,153l0 -51c-71,0 -113,11 -119,-59 110,0 119,18 119,-59l-119 0c6,-71 48,-60 119,-60l0 -51c-89,0 -170,-19 -170,127z"/>
   <path class="fil5" d="M2876 3549c0,127 -19,245 81,258 133,18 106,-153 106,-284l-51 0c0,195 21,229 -51,229 -53,0 -34,-141 -34,-229 -34,0 -51,-4 -51,26z"/>
   <path class="fil5" d="M1657 3693c0,62 16,104 72,114 139,25 106,-134 106,-284l-42 0c0,167 21,229 -51,229 -55,0 -34,-113 -34,-229l-51 0 0 170z"/>
   <path class="fil5" d="M3096 3634l0 169 51 0 0 -110 119 0 0 -51 -119 0c0,-75 31,-68 119,-68l0 -51c-69,0 -170,-23 -170,111z"/>
   <path class="fil5" d="M971 3549l0 25 68 0 0 229 51 0 0 -229 59 0 0 -51c-111,0 -178,-16 -178,26z"/>
   <path class="fil6" d="M2538 1100l23 38 -79 -221c22,-15 290,-122 327,-130l190 475 -325 131 -92 -216 15 69c26,49 42,112 68,161l257 -98c33,-14 62,-23 90,-38l-144 -372c-16,-39 -32,-92 -51,-127l-347 135c4,48 63,147 68,193z"/>
   <polygon class="fil5" points="497,3803 548,3803 548,3523 497,3523 "/>
   <polygon class="fil5" points="1174,3803 1217,3803 1217,3523 1174,3523 "/>
  </g>
 </g>
</svg>
