<?xml version="1.0" encoding="UTF-8"?>
<!DOCTYPE svg PUBLIC "-//W3C//DTD SVG 1.1//EN" "http://www.w3.org/Graphics/SVG/1.1/DTD/svg11.dtd">
<!-- Creator: CorelDRAW Home & Student X8 -->
<svg xmlns="http://www.w3.org/2000/svg" xml:space="preserve" width="202.184mm" height="61.807mm" version="1.1" style="shape-rendering:geometricPrecision; text-rendering:geometricPrecision; image-rendering:optimizeQuality; fill-rule:evenodd; clip-rule:evenodd"
viewBox="0 0 20218 6181"
 xmlns:xlink="http://www.w3.org/1999/xlink">
 <defs>
  <style type="text/css">
   <![CDATA[
    .fil0 {fill:#FEFEFE}
    .fil1 {fill:#DB2326}
    .fil2 {fill:#9E9F9E}
    .fil4 {fill:#2D1D1A}
    .fil3 {fill:#2A2928}
   ]]>
  </style>
 </defs>
 <g id="Ebene_x0020_1">
  <metadata id="CorelCorpID_0Corel-Layer"/>
  <g id="_142562200">
   <path class="fil0" d="M16733 5627c-10,-74 -2,-1200 -2,-1399 0,-34 0,-68 -1,-102 0,-34 -9,-63 22,-63l703 0c111,0 220,15 319,49 110,38 152,76 227,145 158,145 182,449 182,657 0,344 -161,586 -415,677 -133,48 -346,39 -499,39 -145,0 -405,15 -536,-3zm-7910 -1564l323 0c22,80 -10,531 9,635l595 0 4 -635 324 0c17,64 5,1380 5,1567l-333 -1 -2 -654 -595 2c-12,134 12,583 -7,653l-327 0 4 -1567zm-2538 -26c550,-47 853,188 885,708 32,530 -153,873 -664,912 -531,40 -850,-153 -890,-707 -39,-543 153,-868 669,-913zm12753 1593c-185,-3 -305,-15 -442,-104 -233,-152 -316,-442 -278,-816 67,-684 544,-647 1008,-647 332,0 267,-66 267,271 -100,21 -490,-13 -632,11 -189,32 -283,186 -274,353 175,16 821,-15 906,7l0 268 -910 0c0,222 69,345 277,375 150,22 533,-11 633,10l-2 269 -553 3zm-4289 -2c-164,10 -353,2 -520,2 -166,0 -300,-7 -433,-80 -221,-122 -336,-358 -328,-704 14,-581 266,-784 770,-783 163,0 352,-9 514,1l0 272c-401,35 -892,-141 -908,364l908 2 0 271 -912 0c10,535 438,344 913,383l-4 272zm-3165 2c-171,-1 -342,-1 -513,0 -173,0 -296,-5 -435,-77 -229,-119 -332,-361 -331,-707 1,-900 655,-783 1282,-783l1 275c-165,0 -484,-18 -629,6 -194,33 -289,185 -277,356l906 0 0 273 -913 2c9,221 66,343 277,373 164,23 456,6 636,6l-4 276zm-3007 -2c-162,11 -355,2 -520,2 -170,0 -297,-7 -433,-79 -221,-118 -329,-369 -327,-705 3,-575 273,-784 769,-783 162,0 351,-9 514,1l-3 269c-549,33 -897,-160 -919,513 -22,689 396,466 922,510l-3 272zm3296 2c0,-184 -11,-1504 5,-1567l409 0c89,119 591,1062 641,1107l-13 -1107 337 2 -3 1564 -380 1 -671 -1172 14 1171 -339 1zm3167 -3c-13,-95 1,-1270 -3,-1492 -1,-89 -30,-72 174,-72 80,0 162,-2 243,-1l635 1112 -9 -1111 331 0c9,93 8,1510 -1,1567l-374 0 -171 -294c-54,-99 -110,-193 -166,-292l-337 -582c-4,358 9,800 13,1167l-335 -2zm-11388 1c-47,-103 -519,-1538 -519,-1565l351 -1 362 1192 305 -1191 381 0c22,35 157,518 180,598 25,89 151,552 176,592l338 -1190 331 0c1,28 -458,1528 -483,1567l-399 -2 -334 -1153 -293 1155 -396 -2zm3963 -2204c-1,-110 -14,-551 5,-623l130 1 0 621 -135 1zm-2644 -623l129 1 0 621 -133 1 4 -623zm1490 0l120 0c13,49 5,190 5,251l237 1 0 -251 127 -1 0 623 -127 -2 -3 -259 -234 2 0 259 -129 0 4 -623zm-1236 0c105,0 236,-7 338,3 296,27 226,321 102,378 -90,41 -210,16 -315,26l0 216 -129 0 4 -623zm2650 0l184 2c27,56 87,263 117,350l29 89c18,35 2,9 16,25l156 -465 186 0 0 621 -116 1 -4 -465c-29,76 -53,163 -79,239 -90,269 -38,226 -213,225l-161 -467 -1 468 -118 0 4 -623zm-2051 513c190,-21 419,46 423,-68 8,-191 -471,78 -448,-277 5,-81 35,-126 96,-149 72,-28 362,-23 458,-18l-3 109c-187,11 -408,-40 -417,74 -10,139 274,37 381,99 85,50 115,264 -29,320 -71,29 -369,26 -461,18l0 -108zm1698 108c-291,25 -509,3 -505,-311 2,-143 37,-227 130,-276 76,-39 280,-44 375,-31l0 101c-166,14 -346,-54 -354,150l353 1 1 107 -355 0c-19,205 206,142 354,154l1 105zm-4024 -110c83,0 166,0 250,0 75,0 166,15 174,-60 15,-153 -235,-36 -370,-107 -111,-59 -109,-268 10,-322 78,-35 359,-21 465,-21l0 109c-82,0 -164,0 -246,0 -79,0 -162,-10 -174,67 -32,208 467,-82 449,277 -12,223 -272,169 -558,169l0 -112zm-565 -508l528 0 0 105 -198 0 0 513 -133 2 -2 -515 -195 0 0 -105zm1375 618l-264 -620 142 2 187 457 185 -459 138 1 -253 621 -135 -2zm11654 -1472c501,-42 786,158 823,635 18,229 -14,466 -123,622 -99,141 -256,226 -492,244 -510,40 -787,-161 -824,-645 -39,-506 134,-815 616,-856zm1032 24l791 0c558,0 510,514 411,683 -31,53 -50,74 -97,106 -40,28 -102,39 -132,60l266 449c27,44 70,107 88,154l-333 0c-20,-6 -220,-373 -253,-434 -26,-48 -63,-135 -94,-135l-341 0 0 568 -306 1 0 -1452zm-3057 0c148,0 297,0 445,0 243,0 577,-34 730,143 182,211 169,665 -183,770 -168,50 -492,29 -685,31l0 506 -307 2 0 -1452zm4420 2c199,0 1133,-8 1255,2l0 252 -470 2 0 1194 -317 0 0 -1194 -468 -2 0 -254zm-5964 1187c191,0 383,0 575,0 171,0 410,40 421,-146 12,-221 -201,-182 -379,-182 -346,0 -698,26 -677,-461 8,-186 82,-294 216,-351 152,-65 345,-49 520,-49 191,0 381,-1 572,0l0 260c-194,0 -387,0 -580,0 -182,0 -386,-33 -406,157 -53,481 1114,-203 1054,647 -12,176 -88,293 -225,343 -201,74 -834,45 -1094,45l3 -263zm-8125 -1951c393,-71 503,533 113,610 -410,80 -532,-533 -113,-610zm-1255 720l6 5c39,-95 355,-462 454,-549 184,-161 340,-297 593,-397 132,-52 405,-124 558,-78 33,9 84,51 93,77 18,54 -30,77 -70,90 -128,41 -514,-103 -1121,513 -50,51 -105,116 -155,176 -46,56 -103,125 -142,190 81,29 399,43 502,44 353,3 659,-20 1004,-80 60,-11 181,-45 231,-39 92,10 147,51 76,124 -54,56 -93,63 -190,82 -458,93 -1038,126 -1506,75 -72,-8 -175,-29 -241,-27l-6 -1c-21,43 -50,81 -76,122 -186,297 -316,583 -465,898 -85,180 -163,349 -248,530 -43,90 -80,181 -119,272 -30,68 -80,226 -141,255 -9,-222 266,-930 346,-1143 38,-99 185,-400 238,-499l265 -472c-134,-35 -249,-58 -380,-98 -343,-102 -691,-261 -983,-440 -224,-137 -525,-408 -700,-611 -54,-63 -240,-290 -248,-346 50,13 312,252 387,325 217,213 692,514 987,655 322,156 691,280 1051,347zm-2974 4294l20219 0 0 -6180 -20219 0 0 6180z"/>
   <path class="fil1" d="M3652 5628l396 2 293 -1155 334 1153 399 2c25,-39 484,-1539 483,-1567l-331 0 -338 1190c-25,-40 -151,-503 -176,-592 -23,-80 -158,-563 -180,-598l-381 0 -305 1191 -362 -1192 -351 1c0,27 472,1462 519,1565z"/>
   <path class="fil1" d="M11873 5630l339 -1 -14 -1171 671 1172 380 -1 3 -1564 -337 -2 13 1107c-50,-45 -552,-988 -641,-1107l-409 0c-16,63 -5,1383 -5,1567z"/>
   <path class="fil1" d="M15040 5627l335 2c-4,-367 -17,-809 -13,-1167l337 582c56,99 112,193 166,292l171 294 374 0c9,-57 10,-1474 1,-1567l-331 0 9 1111 -635 -1112c-81,-1 -163,1 -243,1 -204,0 -175,-17 -174,72 4,222 -10,1397 3,1492z"/>
   <path class="fil1" d="M17062 4338c523,0 760,-75 761,500 0,290 -36,516 -368,516l-393 0 0 -1016zm-329 1289c131,18 391,3 536,3 153,0 366,9 499,-39 254,-91 415,-333 415,-677 0,-208 -24,-512 -182,-657 -75,-69 -117,-107 -227,-145 -99,-34 -208,-49 -319,-49l-703 0c-31,0 -22,29 -22,63 1,34 1,68 1,102 0,199 -8,1325 2,1399z"/>
   <path class="fil1" d="M6307 4311c334,-56 481,144 503,442 60,793 -554,679 -703,536 -79,-75 -118,-207 -130,-353 -26,-317 46,-577 330,-625zm-22 -274c-516,45 -708,370 -669,913 40,554 359,747 890,707 511,-39 696,-382 664,-912 -32,-520 -335,-755 -885,-708z"/>
   <path class="fil1" d="M8819 5630l327 0c19,-70 -5,-519 7,-653l595 -2 2 654 333 1c0,-187 12,-1503 -5,-1567l-324 0 -4 635 -595 0c-19,-104 13,-555 -9,-635l-323 0 -4 1567z"/>
   <path class="fil1" d="M19591 5627l2 -269c-100,-21 -483,12 -633,-10 -208,-30 -277,-153 -277,-375l910 0 0 -268c-85,-22 -731,9 -906,-7 -9,-167 85,-321 274,-353 142,-24 532,10 632,-11 0,-337 65,-271 -267,-271 -464,0 -941,-37 -1008,647 -38,374 45,664 278,816 137,89 257,101 442,104l553 -3z"/>
   <path class="fil1" d="M14749 5628l4 -272c-475,-39 -903,152 -913,-383l912 0 0 -271 -908 -2c16,-505 507,-329 908,-364l0 -272c-162,-10 -351,-1 -514,-1 -504,-1 -756,202 -770,783 -8,346 107,582 328,704 133,73 267,80 433,80 167,0 356,8 520,-2z"/>
   <path class="fil1" d="M11584 5630l4 -276c-180,0 -472,17 -636,-6 -211,-30 -268,-152 -277,-373l913 -2 0 -273 -906 0c-12,-171 83,-323 277,-356 145,-24 464,-6 629,-6l-1 -275c-627,0 -1281,-117 -1282,783 -1,346 102,588 331,707 139,72 262,77 435,77 171,-1 342,-1 513,0z"/>
   <path class="fil2" d="M17300 2234c136,0 283,-5 418,1 139,6 225,38 226,181 0,142 -98,177 -235,180 -134,4 -274,0 -409,0l0 -362zm-306 1192l306 -1 0 -568 341 0c31,0 68,87 94,135 33,61 233,428 253,434l333 0c-18,-47 -61,-110 -88,-154l-266 -449c30,-21 92,-32 132,-60 47,-32 66,-53 97,-106 99,-169 147,-683 -411,-683l-791 0 0 1452z"/>
   <path class="fil2" d="M15997 2200c310,-43 440,146 457,429 16,286 -48,533 -318,569 -308,43 -439,-143 -457,-426 -18,-291 45,-534 318,-572zm-35 -250c-482,41 -655,350 -616,856 37,484 314,685 824,645 236,-18 393,-103 492,-244 109,-156 141,-393 123,-622 -37,-477 -322,-677 -823,-635z"/>
   <path class="fil2" d="M12393 3163l-3 263c260,0 893,29 1094,-45 137,-50 213,-167 225,-343 60,-850 -1107,-166 -1054,-647 20,-190 224,-157 406,-157 193,0 386,0 580,0l0 -260c-191,-1 -381,0 -572,0 -175,0 -368,-16 -520,49 -134,57 -208,165 -216,351 -21,487 331,461 677,461 178,0 391,-39 379,182 -11,186 -250,146 -421,146 -192,0 -384,0 -575,0z"/>
   <path class="fil2" d="M14247 2660l-3 -426c131,0 299,-9 426,3 141,13 218,60 216,213 -4,274 -359,212 -639,210zm-310 766l307 -2 0 -506c193,-2 517,19 685,-31 352,-105 365,-559 183,-770 -153,-177 -487,-143 -730,-143 -148,0 -297,0 -445,0l0 1452z"/>
   <path class="fil1" d="M8577 5628l3 -272c-526,-44 -944,179 -922,-510 22,-673 370,-480 919,-513l3 -269c-163,-10 -352,-1 -514,-1 -496,-1 -766,208 -769,783 -2,336 106,587 327,705 136,72 263,79 433,79 165,0 358,9 520,-2z"/>
   <path class="fil0" d="M6307 4311c-284,48 -356,308 -330,625 12,146 51,278 130,353 149,143 763,257 703,-536 -22,-298 -169,-498 -503,-442z"/>
   <path class="fil0" d="M17062 5354l393 0c332,0 368,-226 368,-516 -1,-575 -238,-500 -761,-500l0 1016z"/>
   <path class="fil2" d="M18357 2230l468 2 0 1194 317 0 0 -1194 470 -2 0 -252c-122,-10 -1056,-2 -1255,-2l0 254z"/>
   <path class="fil0" d="M15997 2200c-273,38 -336,281 -318,572 18,283 149,469 457,426 270,-36 334,-283 318,-569 -17,-283 -147,-472 -457,-429z"/>
   <path class="fil1" d="M2899 2100l7 2c29,-61 75,-110 107,-170 -360,-67 -729,-191 -1051,-347 -295,-141 -770,-442 -987,-655 -75,-73 -337,-312 -387,-325 8,56 194,283 248,346 175,203 476,474 700,611 292,179 640,338 983,440 131,40 246,63 380,98z"/>
   <path class="fil3" d="M3019 1937l202 23 8 -1c39,-65 96,-134 142,-190 50,-60 105,-125 155,-176 607,-616 993,-472 1121,-513 40,-13 88,-36 70,-90 -9,-26 -60,-68 -93,-77 -153,-46 -426,26 -558,78 -253,100 -409,236 -593,397 -99,87 -415,454 -454,549z"/>
   <path class="fil3" d="M3099 2137l-193 -35 -7 -2 -265 472c-53,99 -200,400 -238,499 -80,213 -355,921 -346,1143 61,-29 111,-187 141,-255 39,-91 76,-182 119,-272 85,-181 163,-350 248,-530 149,-315 279,-601 465,-898 26,-41 55,-79 76,-122z"/>
   <path class="fil1" d="M3229 1959l-8 1c-25,56 -87,117 -116,178 66,-2 169,19 241,27 468,51 1048,18 1506,-75 97,-19 136,-26 190,-82 71,-73 16,-114 -76,-124 -50,-6 -171,28 -231,39 -345,60 -651,83 -1004,80 -103,-1 -421,-15 -502,-44z"/>
   <path class="fil2" d="M4268 1212c-419,77 -297,690 113,610 390,-77 280,-681 -113,-610z"/>
   <path class="fil1" d="M7871 3424l118 0 1 -468 161 467c175,1 123,44 213,-225 26,-76 50,-163 79,-239l4 465 116 -1 0 -621 -186 0 -156 465c-14,-16 2,10 -16,-25l-29 -89c-30,-87 -90,-294 -117,-350l-184 -2 -4 623z"/>
   <path class="fil0" d="M14247 2660c280,2 635,64 639,-210 2,-153 -75,-200 -216,-213 -127,-12 -295,-3 -426,-3l3 426z"/>
   <path class="fil0" d="M17300 2596c135,0 275,4 409,0 137,-3 235,-38 235,-180 -1,-143 -87,-175 -226,-181 -135,-6 -282,-1 -418,-1l0 362z"/>
   <path class="fil1" d="M5824 3314l0 108c92,8 390,11 461,-18 144,-56 114,-270 29,-320 -107,-62 -391,40 -381,-99 9,-114 230,-63 417,-74l3 -109c-96,-5 -386,-10 -458,18 -61,23 -91,68 -96,149 -23,355 456,86 448,277 -4,114 -233,47 -423,68z"/>
   <path class="fil3" d="M3498 3312l0 112c286,0 546,54 558,-169 18,-359 -481,-69 -449,-277 12,-77 95,-67 174,-67 82,0 164,0 246,0l0 -109c-106,0 -387,-14 -465,21 -119,54 -121,263 -10,322 135,71 385,-46 370,107 -8,75 -99,60 -174,60 -84,0 -167,0 -250,0z"/>
   <path class="fil1" d="M6457 3424l129 0 0 -259 234 -2 3 259 127 2 0 -623 -127 1 0 251 -237 -1c0,-61 8,-202 -5,-251l-120 0 -4 623z"/>
   <path class="fil1" d="M7522 3422l-1 -105c-148,-12 -373,51 -354,-154l355 0 -1 -107 -353 -1c8,-204 188,-136 354,-150l0 -101c-95,-13 -299,-8 -375,31 -93,49 -128,133 -130,276 -4,314 214,336 505,311z"/>
   <path class="fil1" d="M5350 2915c69,-11 227,-16 260,35 21,31 18,85 -5,112 -38,45 -194,36 -255,31l0 -178zm-129 509l129 0 0 -216c105,-10 225,15 315,-26 124,-57 194,-351 -102,-378 -102,-10 -233,-3 -338,-3l-4 623z"/>
   <polygon class="fil3" points="4308,3422 4443,3424 4696,2803 4558,2802 4373,3261 4186,2804 4044,2802 "/>
   <polygon class="fil3" points="2933,2909 3128,2909 3130,3424 3263,3422 3263,2909 3461,2909 3461,2804 2933,2804 "/>
   <path class="fil1" d="M7615 3424l135 -1 0 -621 -130 -1c-19,72 -6,513 -5,623z"/>
   <polygon class="fil1" points="4967,3424 5100,3423 5100,2802 4971,2801 "/>
   <path class="fil0" d="M5350 3093c61,5 217,14 255,-31 23,-27 26,-81 5,-112 -33,-51 -191,-46 -260,-35l0 178z"/>
   <path class="fil4" d="M2906 2102l193 35 6 1c29,-61 91,-122 116,-178l-202 -23 -6 -5c-32,60 -78,109 -107,170z"/>
  </g>
 </g>
</svg>
