<?xml version="1.0" encoding="UTF-8"?>
<!DOCTYPE svg PUBLIC "-//W3C//DTD SVG 1.1//EN" "http://www.w3.org/Graphics/SVG/1.1/DTD/svg11.dtd">
<!-- Creator: CorelDRAW Home & Student X8 -->
<svg xmlns="http://www.w3.org/2000/svg" xml:space="preserve" width="33.844mm" height="38.354mm" version="1.1" style="shape-rendering:geometricPrecision; text-rendering:geometricPrecision; image-rendering:optimizeQuality; fill-rule:evenodd; clip-rule:evenodd"
viewBox="0 0 3384 3835"
 xmlns:xlink="http://www.w3.org/1999/xlink">
 <defs>
  <style type="text/css">
   <![CDATA[
    .fil0 {fill:#2B2A29}
    .fil1 {fill:#DC2126}
   ]]>
  </style>
 </defs>
 <g id="Ebene_x0020_1">
  <metadata id="CorelCorpID_0Corel-Layer"/>
  <g id="_579680000">
   <path class="fil0" d="M1 319l0 1736c0,68 27,294 77,330 53,-36 61,-181 69,-244 15,-117 7,-1379 7,-1593 0,-77 -15,-259 10,-311 68,-142 258,-81 362,-87 46,-2 77,-9 136,-9l2353 0c283,0 221,184 221,483l0 2117c0,49 -4,120 1,168 18,158 28,332 -187,331l-873 9c-68,-1 -101,8 -169,8l-948 25c-39,2 -40,9 -85,9l177 27c60,6 116,6 187,6 53,1 76,9 178,9 62,0 131,-4 190,5 109,17 264,-5 371,10 114,16 270,-11 385,4 107,15 253,7 375,7 127,0 258,24 355,-17 93,-39 151,-105 174,-207 23,-98 13,-262 13,-378 0,-204 -10,-1789 6,-1907l-15 -557c1,-122 -33,-186 -139,-250 -35,-21 -97,-46 -149,-46l-2735 0c-202,0 -347,112 -347,322z"/>
   <path class="fil0" d="M950 1487c0,82 -5,175 0,255 17,319 116,740 262,1033 27,55 129,307 203,313 -3,-133 -321,-854 -321,-1516 105,56 209,96 331,135 56,18 126,35 190,47 60,11 147,28 147,-63 0,-82 -78,-74 -141,-87 -215,-43 -336,-96 -519,-193l54 -259c12,-41 26,-78 38,-114 18,-55 43,-90 43,-118 0,-84 -105,-123 -157,4 -61,147 -78,249 -113,403l-265 -218c-86,-72 -361,-379 -292,-209 62,152 171,302 292,404 28,23 48,43 77,66 50,40 114,88 171,117z"/>
   <path class="fil0" d="M1119 615c0,66 28,118 60,152 134,142 373,52 379,-144 3,-109 -86,-219 -227,-219 -115,0 -212,98 -212,211z"/>
   <path class="fil0" d="M1813 1987l1059 0c25,0 23,-10 25,-34l-1058 0 0 -68 1236 0 0 -25 -1262 0 0 127z"/>
   <path class="fil1" d="M2495 3833c43,-2 29,-24 29,-195l58 95c14,23 46,76 52,100l77 0 0 -288 -60 0 0 195 -110 -195 -84 0 0 288 38 0z"/>
   <path class="fil1" d="M2118 3807c0,18 6,24 20,26l46 0 2 0 7 -194 86 152c17,33 19,40 43,42l47 0 3 0 0 -288 -59 0 0 186c-38,-28 -87,-186 -127,-186l-68 0 0 262z"/>
   <path class="fil1" d="M2939 3613l0 33c0,126 203,23 203,102 0,49 -133,34 -194,34l0 51 175 0c52,-7 87,-28 87,-85 0,-78 -46,-86 -127,-84 -41,0 -78,6 -83,-27 -8,-58 123,-41 193,-41l0 -51c-115,0 -254,-25 -254,68z"/>
   <path class="fil1" d="M602 3613l0 33c0,129 204,21 204,102 0,47 -142,34 -195,34l0 51 168 0c31,-3 57,-10 70,-24 30,-31 53,-144 -68,-146 -82,-1 -130,22 -111,-59 64,-15 110,-8 186,-8l0 -51c-115,0 -254,-25 -254,68z"/>
   <path class="fil1" d="M1229 3833l68 0 0 -119 101 0 0 119 52 0c28,-7 16,-48 16,-263 0,-32 -20,-25 -68,-25l0 110 -101 0 0 -110 -68 0 0 288z"/>
   <path class="fil1" d="M1805 3689c0,115 62,139 136,144l101 0 0 -51c-101,0 -159,15 -161,-68l161 0 0 -51 -161 0c2,-84 50,-67 161,-67l0 -51c-115,0 -237,-22 -237,144z"/>
   <path class="fil1" d="M924 3689c0,115 59,139 135,144l102 0 0 -51c-139,0 -169,11 -169,-102 0,-102 64,-84 169,-84l0 -51c-107,0 -237,-26 -237,144z"/>
   <polygon class="fil1" points="1517,3596 1610,3596 1610,3833 1678,3833 1678,3596 1762,3596 1762,3545 1517,3545 "/>
   <polygon class="fil1" points="154,3596 238,3596 238,3833 306,3833 306,3596 399,3596 399,3545 154,3545 "/>
   <path class="fil0" d="M1771 1479c0,-153 245,-193 245,17 0,132 -245,143 -245,-17zm-26 -8c0,81 63,152 127,152 61,0 91,6 138,-48 84,-95 25,-248 -121,-248 -77,0 -144,66 -144,144z"/>
   <path class="fil1" d="M2795 3833l43 0 1 0c18,0 24,-6 24,-26l0 -262 -68 0 0 288z"/>
   <polygon class="fil1" points="459,3833 518,3833 518,3545 459,3545 "/>
  </g>
 </g>
</svg>
