<?xml version="1.0" encoding="UTF-8"?>
<!DOCTYPE svg PUBLIC "-//W3C//DTD SVG 1.1//EN" "http://www.w3.org/Graphics/SVG/1.1/DTD/svg11.dtd">
<!-- Creator: CorelDRAW Home & Student X8 -->
<svg xmlns="http://www.w3.org/2000/svg" xml:space="preserve" width="30.564mm" height="21.563mm" version="1.1" style="shape-rendering:geometricPrecision; text-rendering:geometricPrecision; image-rendering:optimizeQuality; fill-rule:evenodd; clip-rule:evenodd"
viewBox="0 0 3056 2156"
 xmlns:xlink="http://www.w3.org/1999/xlink">
 <defs>
  <style type="text/css">
   <![CDATA[
    .fil0 {fill:#2D2A29}
    .fil7 {fill:#B92025}
    .fil1 {fill:#E21E24}
    .fil6 {fill:#E3D38A}
    .fil5 {fill:#F0878A}
    .fil4 {fill:#FBE9E2}
    .fil3 {fill:#FDFDFD}
    .fil2 {fill:#FEEC98}
   ]]>
  </style>
 </defs>
 <g id="Ebene_x0020_1">
  <metadata id="CorelCorpID_0Corel-Layer"/>
  <g id="_867869328">
   <path class="fil0" d="M2206 2047l-34 0 0 9 -51 0 0 8 -25 0 0 9 -51 0 0 8 -42 0 0 9 -60 0 0 8 -67 0 0 9 -407 0 0 -9 -101 0 0 -8 -68 0 0 -9 -42 0 0 -8 -51 0 0 -9 -43 0 0 -8 -33 0 0 -9 -17 0 0 -8 93 0 0 -9 161 0 0 -8 135 0 0 -8 406 0 0 8 229 0 0 8 93 0 0 9 -25 0 0 8zm-1948 -271l43 0 0 -8 51 0 0 -8 42 0 0 -9 51 0 0 -8 34 0 0 -9 59 0 0 -8 42 0 0 -9 34 0 0 -8 68 0 0 -9 42 0 0 -8 85 0 0 -9 59 0 0 -8 76 0 0 -9 85 0 0 -8 68 0 0 -9 135 0 0 -8 153 0 0 -8 651 0 0 8 119 0 0 8 135 0 0 9 68 0 0 8 93 0 0 9 76 0 0 8 51 0 0 9 60 0 0 8 59 0 0 9 51 0 0 8 67 0 0 9 43 0 0 8 34 0 0 9 59 0 0 8 51 0 0 9 25 0 0 33 -8 0 0 17 -9 0 0 26 -8 0 0 25 -9 0 0 17 -8 0 0 25 -9 0 0 17 -8 0 0 26 -9 0 0 25 -8 0 0 17 -9 0 0 26 -8 0 0 25 -9 0 0 17 -8 0 0 25 -68 0 0 -8 -34 0 0 -9 -67 0 0 -8 -60 0 0 -9 -67 0 0 -8 -68 0 0 -9 -59 0 0 -8 -77 0 0 -8 -118 0 0 -9 -85 0 0 -8 -186 0 0 -9 -567 0 0 9 -144 0 0 8 -102 0 0 9 -84 0 0 8 -119 0 0 8 -68 0 0 9 -101 0 0 8 -77 0 0 9 -76 0 0 8 -67 0 0 9 -77 0 0 8 -50 0 0 9 -94 0 0 8 -17 0 0 -17 -8 0 0 -17 -8 0 0 -25 -9 0 0 -17 -8 0 0 -17 -9 0 0 -25 -8 0 0 -17 -9 0 0 -26 -8 0 0 -17 -9 0 0 -25 -8 0 0 -17 -9 0 0 -25 -8 0 0 -17 -9 0 0 -26 -8 0 0 -17 -9 0 0 -17zm610 -118l-42 0 0 8 -68 0 0 9 -51 0 0 8 -51 0 0 9 -59 0 0 -9 9 0 0 -8 8 0 0 -9 9 0 0 -17 8 0 0 -16 8 0 0 -9 9 0 0 -17 8 0 0 -8 9 0 0 -34 8 0 0 8 9 0 0 9 8 0 0 42 9 0 0 9 8 0 0 8 9 0 0 8 67 0 0 -8 17 0 0 -17 9 0 0 -25 8 0 0 8 17 0 0 9 17 0 0 8 17 0 0 9 17 0 0 8 17 0 0 8 -34 0 0 9zm-161 -68l9 0 0 -8 17 0 0 -9 33 0 0 9 17 0 0 8 9 0 0 26 -9 0 0 8 -17 0 0 9 -33 0 0 -9 -17 0 0 -8 -9 0 0 -26zm1126 0l9 0 0 -8 17 0 0 8 8 0 0 17 -34 0 0 -17zm-389 0l25 0 0 -8 51 0 0 -9 85 0 0 -8 34 0 0 -9 33 0 0 -8 85 0 0 42 9 0 0 17 -322 0 0 -17zm1337 43l-8 0 0 25 -8 0 0 25 -9 0 0 9 -17 0 0 -9 -17 0 0 -296 9 0 0 8 8 0 0 17 9 0 0 9 8 0 0 17 9 0 0 25 8 0 0 17 8 0 0 42 9 0 0 77 -9 0 0 34zm-1888 -85l9 0 0 -9 51 0 0 17 8 0 0 17 -8 0 0 9 -9 0 0 8 -34 0 0 -8 -8 0 0 -9 -9 0 0 -25zm-465 68l25 0 0 -17 9 0 0 -17 8 0 0 -17 9 0 0 -17 8 0 0 -17 9 0 0 -9 8 0 0 -8 8 0 0 -8 60 0 0 8 17 0 0 8 17 0 0 9 17 0 0 8 16 0 0 43 -8 0 0 25 -8 0 0 17 -9 0 0 9 -8 0 0 16 -9 0 0 9 -8 0 0 8 -9 0 0 9 -8 0 0 8 -9 0 0 9 -8 0 0 8 -17 0 0 9 -51 0 0 8 -51 0 0 9 -34 0 0 -9 -8 0 0 -8 -9 0 0 -17 -8 0 0 -17 -8 0 0 -42 -9 0 0 -77 9 0 0 -17 8 0 0 -17 8 0 0 -8 9 0 0 -17 8 0 0 -8 9 0 0 -9 8 0 0 -17 17 0 0 110 -8 0 0 43zm330 -85l8 0 0 8 9 0 0 17 -17 0 0 -25zm356 -152l8 0 0 -9 9 0 0 -8 50 0 0 8 9 0 0 9 8 0 0 33 -8 0 0 9 -17 0 0 8 -34 0 0 -8 -17 0 0 -17 -8 0 0 -25zm-796 16l-43 0 0 -8 9 0 0 -8 8 0 0 -9 9 0 0 -8 17 0 0 -9 17 0 0 -8 25 0 0 -9 68 0 0 9 34 0 0 8 34 0 0 9 16 0 0 8 26 0 0 9 17 0 0 8 25 0 0 8 17 0 0 9 17 0 0 8 9 0 0 9 8 0 0 8 8 0 0 9 9 0 0 17 8 0 0 8 9 0 0 17 8 0 0 34 9 0 0 25 -17 0 0 -8 -17 0 0 -9 -9 0 0 -8 -16 0 0 -8 -17 0 0 -9 -26 0 0 -8 -25 0 0 -9 -43 0 0 9 -16 0 0 8 -9 0 0 9 -8 0 0 16 -9 0 0 9 -8 0 0 -76 -9 0 0 -17 -8 0 0 -17 -17 0 0 -9 -9 0 0 -8 -17 0 0 -9 -25 0 0 -8 -59 0 0 8zm1075 -33l34 0 0 8 127 0 0 9 288 0 0 8 -9 0 0 17 -8 0 0 8 -9 0 0 17 -8 0 0 17 -9 0 0 17 -8 0 0 17 -9 0 0 26 -8 0 0 8 -102 0 0 8 -42 0 0 9 -51 0 0 8 -59 0 0 9 -161 0 0 -9 -8 0 0 -17 -9 0 0 -8 -8 0 0 -17 -9 0 0 -8 -17 0 0 -9 -17 0 0 -17 60 0 0 9 67 0 0 8 60 0 0 -25 -9 0 0 -9 -17 0 0 -8 -8 0 0 -9 -9 0 0 -8 -8 0 0 -17 -9 0 0 -9 -8 0 0 -8 -9 0 0 -8 -8 0 0 -17zm584 -9l-8 0 0 9 -9 0 0 8 -8 0 0 17 -9 0 0 8 -8 0 0 17 -9 0 0 85 -25 0 0 9 -25 0 0 8 -17 0 0 8 -9 0 0 9 -8 0 0 8 -9 0 0 9 -8 0 0 17 -9 0 0 25 -17 0 0 -17 -8 0 0 -51 8 0 0 -25 9 0 0 -17 8 0 0 -17 9 0 0 -17 8 0 0 -17 9 0 0 -17 8 0 0 -8 9 0 0 -17 8 0 0 -8 9 0 0 -9 8 0 0 -8 9 0 0 -9 16 0 0 -8 17 0 0 -9 60 0 0 9 -9 0 0 8zm-118 -59l8 0 0 -9 9 0 0 9 84 0 0 -9 17 0 0 -8 42 0 0 8 9 0 0 60 -9 0 0 -26 -25 0 0 -8 -68 0 0 8 -17 0 0 9 -33 0 0 -9 -9 0 0 -8 -8 0 0 -17zm863 17l-8 0 0 8 -9 0 0 9 -169 0 0 -237 8 0 0 8 9 0 0 9 8 0 0 8 9 0 0 9 8 0 0 8 9 0 0 8 8 0 0 9 9 0 0 17 8 0 0 8 9 0 0 9 8 0 0 8 9 0 0 9 8 0 0 8 8 0 0 9 9 0 0 8 8 0 0 9 9 0 0 8 8 0 0 17 9 0 0 8 8 0 0 9 9 0 0 8 8 0 0 9 9 0 0 8 -9 0 0 9zm-889 -17l-8 0 0 8 8 0 0 9 9 0 0 8 8 0 0 9 9 0 0 8 8 0 0 17 -254 0 0 -8 9 0 0 -9 17 0 0 -8 16 0 0 -9 17 0 0 -8 9 0 0 -9 17 0 0 -8 8 0 0 -9 17 0 0 -8 9 0 0 -9 8 0 0 9 9 0 0 8 8 0 0 9 9 0 0 -17 16 0 0 -34 9 0 0 -8 17 0 0 8 8 0 0 9 9 0 0 8 8 0 0 8 9 0 0 17 -9 0 0 9zm220 -51l9 0 0 -8 8 0 0 8 17 0 0 9 9 0 0 8 8 0 0 8 17 0 0 9 9 0 0 17 8 0 0 8 8 0 0 17 9 0 0 119 -9 0 0 17 -8 0 0 25 -8 0 0 17 -9 0 0 17 -8 0 0 17 -9 0 0 8 -8 0 0 17 -9 0 0 9 -8 0 0 8 -9 0 0 9 -8 0 0 8 -17 0 0 9 -9 0 0 8 -17 0 0 9 -50 0 0 -9 -17 0 0 -8 -9 0 0 -9 -17 0 0 -8 -8 0 0 -9 -9 0 0 -8 -16 0 0 -9 -9 0 0 -8 -17 0 0 -9 9 0 0 -8 17 0 0 -9 25 0 0 -8 42 0 0 -8 9 0 0 -17 -17 0 0 -77 8 0 0 -17 9 0 0 -8 8 0 0 -8 34 0 0 -9 17 0 0 -8 8 0 0 -9 17 0 0 -8 9 0 0 -17 8 0 0 -68 -8 0 0 -8 -9 0 0 -9zm26 -76l8 0 0 -17 9 0 0 -17 8 0 0 -25 9 0 0 -26 8 0 0 -25 390 0 0 296 186 0 0 322 -68 0 0 -9 -59 0 0 -8 -68 0 0 -9 -93 0 0 -8 -59 0 0 -144 -77 0 0 136 -42 0 0 -9 -85 0 0 -8 -84 0 0 -9 8 0 0 -8 17 0 0 -9 9 0 0 -8 8 0 0 -17 9 0 0 -9 8 0 0 -17 9 0 0 -8 8 0 0 -17 8 0 0 -17 9 0 0 -25 8 0 0 -17 9 0 0 -26 8 0 0 -93 -8 0 0 -34 -9 0 0 -17 -8 0 0 -8 -9 0 0 -9 -8 0 0 -8 -8 0 0 -8 -9 0 0 -9 -8 0 0 -8 -17 0 0 -9 -9 0 0 -8 -8 0 0 -51zm-34 59l-9 0 0 9 -8 0 0 8 -34 0 0 -8 -17 0 0 -9 -8 0 0 -51 8 0 0 -8 9 0 0 -9 50 0 0 9 9 0 0 17 8 0 0 34 -8 0 0 8zm-644 -25l-8 0 0 8 -8 0 0 9 -9 0 0 8 -8 0 0 9 -9 0 0 8 -8 0 0 9 -9 0 0 8 -17 0 0 8 -8 0 0 9 -17 0 0 25 51 0 0 -8 135 0 0 8 -17 0 0 9 -8 0 0 8 -17 0 0 9 -17 0 0 8 -26 0 0 9 -25 0 0 8 -25 0 0 26 17 0 0 8 8 0 0 8 17 0 0 17 8 0 0 9 9 0 0 8 8 0 0 17 9 0 0 9 -42 0 0 -9 -111 0 0 9 -25 0 0 25 9 0 0 9 16 0 0 8 17 0 0 9 17 0 0 8 9 0 0 8 8 0 0 17 9 0 0 17 8 0 0 9 9 0 0 8 8 0 0 9 17 0 0 8 9 0 0 9 -43 0 0 8 -42 0 0 9 -42 0 0 8 -111 0 0 9 -127 0 0 8 -76 0 0 -8 -25 0 0 -9 -17 0 0 -8 -17 0 0 -9 -25 0 0 -8 -17 0 0 -9 -9 0 0 -8 -17 0 0 -17 -8 0 0 -9 -9 0 0 -17 -8 0 0 -17 -9 0 0 -16 -8 0 0 -17 8 0 0 -26 9 0 0 -25 8 0 0 -17 9 0 0 -9 17 0 0 9 8 0 0 8 9 0 0 17 8 0 0 17 9 0 0 9 8 0 0 17 9 0 0 8 8 0 0 9 8 0 0 8 9 0 0 8 -9 0 0 9 -8 0 0 8 -8 0 0 51 8 0 0 9 8 0 0 8 17 0 0 9 34 0 0 -9 17 0 0 -8 9 0 0 -9 8 0 0 -51 -8 0 0 -8 -9 0 0 -9 -17 0 0 -8 -17 0 0 -8 9 0 0 -17 8 0 0 -127 110 0 0 8 26 0 0 9 17 0 0 42 8 0 0 8 9 0 0 9 8 0 0 8 68 0 0 -8 8 0 0 -9 9 0 0 -8 8 0 0 -9 9 0 0 -33 -9 0 0 -17 -8 0 0 -9 -9 0 0 -8 -17 0 0 -9 -59 0 0 -8 -8 0 0 -17 -9 0 0 -9 -8 0 0 -8 -9 0 0 -17 -8 0 0 -9 -9 0 0 -16 9 0 0 -9 144 0 0 -8 42 0 0 -9 17 0 0 -8 34 0 0 -9 25 0 0 -8 17 0 0 -9 17 0 0 -8 9 0 0 -9 16 0 0 -8 9 0 0 17 -9 0 0 17zm-1346 -76l9 0 0 -9 17 0 0 -8 59 0 0 8 8 0 0 9 9 0 0 50 -9 0 0 9 -8 0 0 8 -17 0 0 9 -42 0 0 -9 -9 0 0 -8 -8 0 0 -9 -9 0 0 -50zm1203 33l-9 0 0 9 -8 0 0 8 -34 0 0 -8 -17 0 0 -9 -9 0 0 -42 9 0 0 -8 8 0 0 -9 43 0 0 9 17 0 0 17 8 0 0 25 -8 0 0 8zm177 -25l-17 0 0 8 -17 0 0 9 -16 0 0 8 -9 0 0 9 -17 0 0 8 -17 0 0 9 -17 0 0 8 -34 0 0 9 -25 0 0 8 -25 0 0 9 -26 0 0 8 -93 0 0 -8 9 0 0 -9 16 0 0 -8 17 0 0 -9 9 0 0 -8 17 0 0 8 59 0 0 -8 17 0 0 -9 8 0 0 -8 9 0 0 -68 17 0 0 -8 8 0 0 -9 17 0 0 -8 17 0 0 -9 17 0 0 -8 9 0 0 -9 17 0 0 -8 8 0 0 -9 8 0 0 -8 9 0 0 17 8 0 0 42 9 0 0 26 8 0 0 25zm-1185 -42l8 0 0 -9 9 0 0 9 8 0 0 8 9 0 0 17 8 0 0 9 9 0 0 16 8 0 0 9 -25 0 0 -9 -9 0 0 -8 -8 0 0 -8 -9 0 0 -9 -8 0 0 -25zm550 8l-8 0 0 17 -9 0 0 9 -8 0 0 8 -9 0 0 8 -8 0 0 9 -8 0 0 8 -9 0 0 9 -17 0 0 8 -17 0 0 9 -76 0 0 -9 -17 0 0 -8 -8 0 0 -9 25 0 0 -8 17 0 0 -9 17 0 0 -8 17 0 0 -8 17 0 0 -9 17 0 0 -8 8 0 0 -9 9 0 0 -8 8 0 0 -9 17 0 0 -8 8 0 0 -9 9 0 0 -17 8 0 0 -8 9 0 0 -9 8 0 0 -8 9 0 0 59 -9 0 0 17zm-567 -76l9 0 0 -17 8 0 0 59 -17 0 0 -42zm2303 25l203 0 0 34 -8 0 0 93 -9 0 0 26 -8 0 0 42 -9 0 0 -8 -8 0 0 -9 -9 0 0 -8 -8 0 0 -9 -9 0 0 -17 -8 0 0 -8 -9 0 0 -9 -8 0 0 -8 -8 0 0 -9 -9 0 0 -8 -8 0 0 -9 -9 0 0 -8 -8 0 0 -8 -9 0 0 -9 -8 0 0 -17 -9 0 0 -8 -8 0 0 -9 -9 0 0 -8 -8 0 0 -9 -9 0 0 -8 -8 0 0 -9zm-762 9l-8 0 0 8 -9 0 0 17 -8 0 0 17 -9 0 0 9 -8 0 0 25 -9 0 0 51 9 0 0 51 -9 0 0 8 -8 0 0 9 -9 0 0 8 -17 0 0 8 -8 0 0 9 -17 0 0 8 -17 0 0 9 -17 0 0 8 -17 0 0 9 -17 0 0 8 -34 0 0 9 -17 0 0 8 -25 0 0 9 -59 0 0 -9 17 0 0 -8 8 0 0 -9 17 0 0 -8 25 0 0 -9 26 0 0 -8 8 0 0 -26 -169 0 0 9 -42 0 0 -9 17 0 0 -8 8 0 0 -8 9 0 0 -9 8 0 0 -8 8 0 0 -9 9 0 0 -8 8 0 0 -17 9 0 0 -17 8 0 0 -9 17 0 0 -8 17 0 0 -9 26 0 0 -8 17 0 0 -9 25 0 0 -8 17 0 0 -8 25 0 0 -9 26 0 0 -8 17 0 0 -9 17 0 0 -8 16 0 0 -9 17 0 0 -8 17 0 0 -9 17 0 0 -8 17 0 0 -9 26 0 0 -8 17 0 0 -9 16 0 0 9 -8 0 0 17zm762 -110l8 0 0 8 9 0 0 9 17 0 0 8 8 0 0 9 17 0 0 8 9 0 0 9 8 0 0 8 17 0 0 8 17 0 0 9 -110 0 0 -76zm-1101 186l26 0 0 -8 8 0 0 -9 9 0 0 -8 8 0 0 -94 263 0 0 9 -26 0 0 8 -17 0 0 9 -17 0 0 8 -17 0 0 9 -17 0 0 8 -16 0 0 9 -17 0 0 8 -17 0 0 9 -26 0 0 8 -17 0 0 9 -25 0 0 8 -17 0 0 9 -25 0 0 8 -17 0 0 8 -26 0 0 9 -17 0 0 -17zm-1168 -169l8 0 0 -9 26 0 0 17 8 0 0 76 9 0 0 26 8 0 0 17 9 0 0 17 8 0 0 25 9 0 0 8 17 0 0 -25 -9 0 0 -17 -8 0 0 -25 -9 0 0 -17 -8 0 0 -26 -9 0 0 -42 9 0 0 -8 34 0 0 17 8 0 0 93 8 0 0 25 9 0 0 17 8 0 0 17 9 0 0 8 17 0 0 -17 -9 0 0 -25 -8 0 0 -25 -9 0 0 -26 -8 0 0 -76 17 0 0 9 8 0 0 25 9 0 0 25 8 0 0 26 9 0 0 17 8 0 0 17 9 0 0 17 8 0 0 8 9 0 0 17 8 0 0 8 9 0 0 9 8 0 0 8 8 0 0 9 85 0 0 8 17 0 0 9 9 0 0 8 8 0 0 85 -8 0 0 51 8 0 0 42 -17 0 0 -8 -17 0 0 -9 -17 0 0 -8 -25 0 0 -9 -26 0 0 -8 -17 0 0 -26 9 0 0 -8 8 0 0 -26 -67 0 0 -8 -17 0 0 -9 -17 0 0 -8 -9 0 0 -8 -17 0 0 -9 -8 0 0 -8 -9 0 0 -9 -8 0 0 -8 -8 0 0 -17 -9 0 0 -9 -8 0 0 -17 -9 0 0 -17 -8 0 0 -17 -9 0 0 -16 -8 0 0 -9 -9 0 0 -17 -8 0 0 -8 -9 0 0 -17 -8 0 0 -17 -9 0 0 -34 -8 0 0 -59zm880 17l9 0 0 -9 8 0 0 -8 43 0 0 8 8 0 0 9 9 0 0 25 -9 0 0 8 -8 0 0 9 -43 0 0 -9 -8 0 0 -8 -9 0 0 -25zm-33 25l-17 0 0 8 -17 0 0 9 -26 0 0 8 -17 0 0 9 -8 0 0 8 -9 0 0 9 -8 0 0 8 -8 0 0 17 -9 0 0 9 -8 0 0 25 93 0 0 9 25 0 0 8 9 0 0 8 17 0 0 9 25 0 0 8 8 0 0 17 -17 0 0 9 -16 0 0 8 -9 0 0 9 -17 0 0 8 -17 0 0 9 -8 0 0 8 -17 0 0 9 -17 0 0 8 -9 0 0 17 9 0 0 8 8 0 0 17 9 0 0 9 8 0 0 8 9 0 0 17 8 0 0 9 9 0 0 8 8 0 0 26 -8 0 0 -9 -34 0 0 -8 -43 0 0 -9 -84 0 0 9 -9 0 0 8 -8 0 0 136 -17 0 0 -9 -9 0 0 -8 -8 0 0 -9 -8 0 0 -17 -9 0 0 -17 -8 0 0 -17 -9 0 0 -8 -8 0 0 -9 -17 0 0 -8 -26 0 0 8 -8 0 0 9 -9 0 0 17 -8 0 0 25 -9 0 0 26 -8 0 0 25 -8 0 0 17 -9 0 0 25 -8 0 0 17 -17 0 0 -8 -9 0 0 -34 -8 0 0 -25 -9 0 0 -26 -8 0 0 -17 -9 0 0 -8 -8 0 0 -9 -9 0 0 -8 -8 0 0 -34 8 0 0 -34 -8 0 0 -85 25 0 0 9 85 0 0 -9 25 0 0 -8 17 0 0 -8 9 0 0 -9 8 0 0 -8 9 0 0 -17 8 0 0 -17 9 0 0 -17 8 0 0 -17 9 0 0 -34 8 0 0 -51 9 0 0 -25 16 0 0 -9 26 0 0 -8 17 0 0 -9 25 0 0 -8 26 0 0 -9 25 0 0 -8 25 0 0 -8 17 0 0 -9 68 0 0 9 -8 0 0 8zm855 -34l0 9 -9 0 0 -9 9 0zm-1448 -42l17 0 0 8 8 0 0 17 9 0 0 34 -9 0 0 17 -8 0 0 8 -17 0 0 9 -59 0 0 -9 -17 0 0 -16 -9 0 0 -17 -8 0 0 -26 8 0 0 -8 9 0 0 -9 8 0 0 -8 9 0 0 -9 59 0 0 9zm1397 51l-9 0 0 17 -8 0 0 16 -8 0 0 17 -9 0 0 17 -8 0 0 51 8 0 0 17 -34 0 0 9 -8 0 0 8 -9 0 0 8 -17 0 0 9 -8 0 0 8 -9 0 0 9 -8 0 0 17 -9 0 0 17 -8 0 0 17 -8 0 0 8 -9 0 0 -17 -8 0 0 -84 8 0 0 -17 9 0 0 -9 8 0 0 -17 8 0 0 -17 9 0 0 -8 8 0 0 -17 9 0 0 -9 8 0 0 -8 9 0 0 -17 8 0 0 -8 9 0 0 -9 8 0 0 -8 9 0 0 -9 8 0 0 -8 59 0 0 8 -8 0 0 9zm-644 -43l-8 0 0 17 -8 0 0 17 59 0 0 9 34 0 0 8 17 0 0 9 8 0 0 8 -8 0 0 8 -17 0 0 9 -17 0 0 8 -17 0 0 9 -9 0 0 8 -17 0 0 9 -17 0 0 8 -16 0 0 9 -60 0 0 8 -17 0 0 9 -8 0 0 8 -9 0 0 9 -8 0 0 17 -25 0 0 -9 -17 0 0 -8 -17 0 0 -9 -51 0 0 -8 -26 0 0 -9 9 0 0 -17 17 0 0 -8 8 0 0 -9 17 0 0 -8 26 0 0 -9 17 0 0 -8 25 0 0 8 8 0 0 9 17 0 0 8 34 0 0 -8 26 0 0 -9 8 0 0 -17 9 0 0 -42 -9 0 0 -17 -17 0 0 -8 -59 0 0 8 -17 0 0 -8 8 0 0 -9 17 0 0 -8 17 0 0 -9 9 0 0 -8 8 0 0 -9 17 0 0 -8 9 0 0 -9 8 0 0 -8 9 0 0 -8 8 0 0 -9 9 0 0 -8 8 0 0 -9 8 0 0 17 9 0 0 68 -9 0 0 8zm-711 -42l9 0 0 -9 8 0 0 -8 9 0 0 -8 17 0 0 -9 42 0 0 9 17 0 0 8 17 0 0 17 8 0 0 42 -8 0 0 9 -9 0 0 8 -17 0 0 9 -59 0 0 -9 -17 0 0 -8 -8 0 0 -17 -9 0 0 -34zm1524 -34l9 0 0 -8 398 0 0 8 8 0 0 34 9 0 0 144 -381 0 0 -76 -9 0 0 -26 -8 0 0 -17 -9 0 0 -25 -8 0 0 -9 -9 0 0 -25zm-84 0l33 0 0 9 17 0 0 8 9 0 0 8 8 0 0 9 9 0 0 17 8 0 0 25 9 0 0 17 8 0 0 119 -8 0 0 17 -9 0 0 25 -8 0 0 17 -9 0 0 25 -17 0 0 -8 -8 0 0 -9 -17 0 0 -8 -42 0 0 8 -17 0 0 9 -9 0 0 8 -8 0 0 17 -9 0 0 51 9 0 0 17 8 0 0 9 -67 0 0 -9 -17 0 0 -8 -9 0 0 -9 -8 0 0 -8 -9 0 0 -9 -8 0 0 -8 -17 0 0 -9 -9 0 0 -17 9 0 0 -8 8 0 0 -9 9 0 0 -8 17 0 0 -9 8 0 0 -8 59 0 0 -8 -8 0 0 -17 -9 0 0 -9 -8 0 0 -17 -8 0 0 -17 8 0 0 -17 8 0 0 -17 9 0 0 -17 34 0 0 -8 17 0 0 -8 17 0 0 -9 17 0 0 -8 8 0 0 -9 8 0 0 -25 9 0 0 -51 -9 0 0 -17 -8 0 0 -8 -8 0 0 -9zm-127 -42l8 0 0 -9 9 0 0 -8 50 0 0 8 9 0 0 17 8 0 0 26 -8 0 0 8 -9 0 0 9 -8 0 0 8 -42 0 0 -8 -9 0 0 -17 -8 0 0 -34zm-1287 34l-17 0 0 8 -9 0 0 9 -8 0 0 16 -9 0 0 17 -34 0 0 -8 -42 0 0 8 -25 0 0 9 -9 0 0 8 -8 0 0 9 -9 0 0 8 -8 0 0 26 -17 0 0 8 -9 0 0 -25 9 0 0 -17 8 0 0 -17 9 0 0 -9 8 0 0 -8 9 0 0 -9 8 0 0 -8 9 0 0 -8 17 0 0 -9 8 0 0 -8 9 0 0 -9 8 0 0 -8 17 0 0 -9 8 0 0 -8 9 0 0 -9 8 0 0 -8 9 0 0 -9 8 0 0 -17 26 0 0 9 8 0 0 8 9 0 0 9 8 0 0 8 17 0 0 9 9 0 0 8 16 0 0 9 17 0 0 8 -67 0 0 9zm1490 0l-9 0 0 8 -8 0 0 -8 -9 0 0 -9 -25 0 0 -34 8 0 0 -8 517 0 0 25 8 0 0 51 9 0 0 34 -34 0 0 -9 -9 0 0 -17 -8 0 0 -50 -8 0 0 -9 -432 0 0 26zm-1363 -43l17 0 0 9 25 0 0 8 25 0 0 9 26 0 0 8 17 0 0 9 17 0 0 8 25 0 0 9 34 0 0 -9 8 0 0 -34 9 0 0 43 -9 0 0 8 -8 0 0 17 -9 0 0 8 -16 0 0 -8 -26 0 0 -9 -17 0 0 26 17 0 0 8 17 0 0 9 9 0 0 8 8 0 0 9 8 0 0 34 -8 0 0 17 -8 0 0 16 -9 0 0 17 -8 0 0 26 -9 0 0 25 -8 0 0 59 -9 0 0 26 -8 0 0 25 -9 0 0 9 -8 0 0 17 -9 0 0 8 -8 0 0 9 -9 0 0 8 -25 0 0 9 -102 0 0 -43 43 0 0 -8 17 0 0 -9 25 0 0 -8 9 0 0 -9 16 0 0 -8 9 0 0 -9 8 0 0 -8 9 0 0 -9 8 0 0 -16 9 0 0 -9 8 0 0 -25 9 0 0 -119 -17 0 0 9 -9 0 0 8 -8 0 0 17 -9 0 0 8 -8 0 0 17 -9 0 0 9 -8 0 0 8 -8 0 0 9 -9 0 0 8 -8 0 0 9 -9 0 0 8 -17 0 0 9 -8 0 0 8 -17 0 0 9 -9 0 0 8 -17 0 0 9 -25 0 0 8 -17 0 0 8 -42 0 0 9 -60 0 0 -9 -8 0 0 -8 -8 0 0 -8 -9 0 0 -17 -8 0 0 -17 -9 0 0 -17 -8 0 0 -17 -9 0 0 -17 17 0 0 8 51 0 0 -8 17 0 0 -9 8 0 0 -8 9 0 0 -9 8 0 0 -8 9 0 0 -34 17 0 0 9 17 0 0 8 50 0 0 -8 17 0 0 -9 17 0 0 -8 9 0 0 -17 8 0 0 -9 9 0 0 -42 -9 0 0 -17 -8 0 0 -8 -9 0 0 -9 17 0 0 9 9 0 0 8 17 0 0 8 8 0 0 9 17 0 0 -9 -8 0 0 -16 -9 0 0 -17 -8 0 0 -17 -9 0 0 -17 -8 0 0 -9zm-220 0l-9 0 0 9 -8 0 0 8 -17 0 0 9 -9 0 0 8 -8 0 0 9 -9 0 0 8 -8 0 0 9 -17 0 0 8 -9 0 0 8 -8 0 0 17 -9 0 0 9 -8 0 0 17 -8 0 0 17 -9 0 0 8 -42 0 0 -8 -9 0 0 -9 -8 0 0 -17 8 0 0 -8 9 0 0 -9 8 0 0 -8 9 0 0 -9 8 0 0 -8 9 0 0 -8 8 0 0 -9 9 0 0 -8 8 0 0 -9 17 0 0 -8 17 0 0 -9 8 0 0 -8 17 0 0 -9 17 0 0 -8 26 0 0 -9 17 0 0 -8 16 0 0 17 -16 0 0 8zm1583 -34l17 0 0 -8 17 0 0 -9 17 0 0 -8 8 0 0 -8 17 0 0 -9 8 0 0 -8 9 0 0 -17 8 0 0 -9 9 0 0 -8 8 0 0 -9 9 0 0 -8 169 0 0 8 9 0 0 9 8 0 0 8 8 0 0 9 9 0 0 8 8 0 0 9 9 0 0 8 8 0 0 9 9 0 0 8 17 0 0 8 8 0 0 9 26 0 0 8 8 0 0 9 -423 0 0 -9zm-1499 -17l110 0 0 9 161 0 0 8 9 0 0 9 8 0 0 8 9 0 0 9 8 0 0 17 8 0 0 25 -33 0 0 -8 -17 0 0 -9 -17 0 0 -8 -26 0 0 -9 -25 0 0 -8 -25 0 0 -9 -26 0 0 -8 -25 0 0 -9 -34 0 0 17 8 0 0 9 9 0 0 8 8 0 0 9 9 0 0 17 -9 0 0 -9 -17 0 0 -8 -17 0 0 -9 -17 0 0 -8 -16 0 0 -9 -9 0 0 -8 -8 0 0 -9 -17 0 0 -8 -9 0 0 -9zm610 -8l34 0 0 -8 93 0 0 8 25 0 0 8 17 0 0 9 9 0 0 8 8 0 0 9 9 0 0 8 8 0 0 17 8 0 0 17 9 0 0 17 8 0 0 17 9 0 0 25 8 0 0 26 9 0 0 25 8 0 0 26 9 0 0 34 8 0 0 93 -8 0 0 17 -9 0 0 -26 -8 0 0 -34 -9 0 0 -25 -8 0 0 -17 -9 0 0 -8 -8 0 0 -9 -17 0 0 -8 -8 0 0 -9 -17 0 0 -8 -26 0 0 -9 -51 0 0 -17 9 0 0 -17 8 0 0 -67 -8 0 0 -17 -9 0 0 -17 -8 0 0 -9 -9 0 0 -8 -8 0 0 -9 -17 0 0 -8 -8 0 0 -9 -17 0 0 -8 -17 0 0 -9 -17 0 0 -8zm-305 -8l-8 0 0 -9 8 0 0 9zm0 -85l8 0 0 -9 17 0 0 -8 51 0 0 8 17 0 0 9 9 0 0 42 -17 0 0 9 -68 0 0 -9 -17 0 0 -42zm-8 76l-17 0 0 -8 -26 0 0 -9 -34 0 0 -8 -25 0 0 -9 -34 0 0 -8 -34 0 0 -9 -34 0 0 -8 -17 0 0 -9 34 0 0 -8 93 0 0 8 34 0 0 9 43 0 0 25 8 0 0 17 9 0 0 17zm584 -245l8 0 0 -9 26 0 0 9 17 0 0 8 8 0 0 17 8 0 0 17 9 0 0 101 8 0 0 17 9 0 0 9 8 0 0 8 212 0 0 9 17 0 0 8 8 0 0 9 9 0 0 8 -17 0 0 9 -25 0 0 8 -60 0 0 9 -51 0 0 25 60 0 0 8 25 0 0 9 26 0 0 8 8 0 0 9 17 0 0 8 8 0 0 9 9 0 0 8 -76 0 0 -8 -26 0 0 -9 -17 0 0 -8 -8 0 0 -9 -17 0 0 -8 -17 0 0 8 -8 0 0 9 8 0 0 8 8 0 0 9 17 0 0 8 17 0 0 9 17 0 0 8 9 0 0 9 17 0 0 8 8 0 0 9 9 0 0 8 8 0 0 9 9 0 0 16 -9 0 0 9 -34 0 0 -9 -17 0 0 -8 -8 0 0 -8 -9 0 0 -9 -17 0 0 -8 -8 0 0 -9 -9 0 0 -8 -8 0 0 -9 -17 0 0 -8 -17 0 0 17 9 0 0 17 8 0 0 8 9 0 0 9 8 0 0 8 8 0 0 8 9 0 0 9 8 0 0 8 9 0 0 9 8 0 0 17 -8 0 0 8 -26 0 0 -8 -8 0 0 -9 -17 0 0 -8 -8 0 0 -9 -9 0 0 -8 -8 0 0 -9 -9 0 0 -16 -8 0 0 -9 -9 0 0 -8 -8 0 0 -17 -17 0 0 -9 -9 0 0 -8 -33 0 0 8 -17 0 0 9 -17 0 0 8 -9 0 0 9 -17 0 0 8 -8 0 0 -17 -9 0 0 -17 -8 0 0 -17 -9 0 0 -17 -8 0 0 -8 -9 0 0 -17 9 0 0 -9 8 0 0 -8 9 0 0 -8 8 0 0 -9 9 0 0 -8 8 0 0 -9 9 0 0 -8 8 0 0 -17 9 0 0 -85 -9 0 0 -25 -8 0 0 -93zm-771 -9l9 0 0 -8 8 0 0 -9 17 0 0 -8 42 0 0 8 17 0 0 9 9 0 0 8 8 0 0 34 -8 0 0 8 -9 0 0 9 -76 0 0 -9 -8 0 0 -8 -9 0 0 -34zm-51 25l-25 0 0 9 -25 0 0 8 -26 0 0 9 -17 0 0 8 -8 0 0 9 -9 0 0 8 -8 0 0 9 -9 0 0 8 -8 0 0 17 -8 0 0 76 25 0 0 -8 17 0 0 -9 8 0 0 -8 9 0 0 -9 17 0 0 -8 17 0 0 -8 34 0 0 -9 160 0 0 9 17 0 0 8 17 0 0 8 17 0 0 9 17 0 0 8 -25 0 0 -8 -60 0 0 -9 -76 0 0 9 -34 0 0 8 -25 0 0 9 -8 0 0 8 -17 0 0 9 -9 0 0 8 -17 0 0 9 -17 0 0 17 43 0 0 -9 76 0 0 9 34 0 0 8 17 0 0 9 42 0 0 8 34 0 0 9 17 0 0 8 -68 0 0 -8 -212 0 0 8 -25 0 0 8 -17 0 0 9 -25 0 0 8 -17 0 0 9 -17 0 0 8 -17 0 0 9 -17 0 0 8 -17 0 0 9 -17 0 0 8 -8 0 0 9 -17 0 0 8 -9 0 0 9 -8 0 0 8 -9 0 0 9 -8 0 0 8 -9 0 0 8 -8 0 0 9 -9 0 0 8 -8 0 0 9 -9 0 0 17 -8 0 0 8 -9 0 0 9 -8 0 0 17 -8 0 0 17 -9 0 0 8 -8 0 0 17 -9 0 0 8 -8 0 0 -16 -9 0 0 -17 -8 0 0 -51 -26 0 0 8 -17 0 0 9 -17 0 0 8 -8 0 0 9 -8 0 0 17 -9 0 0 8 -8 0 0 25 -9 0 0 17 -8 0 0 43 -9 0 0 -9 -8 0 0 -8 -9 0 0 -17 -8 0 0 -17 -9 0 0 -17 -8 0 0 -25 -9 0 0 -102 9 0 0 -17 8 0 0 -17 9 0 0 -8 8 0 0 -9 9 0 0 -8 8 0 0 -9 9 0 0 -8 8 0 0 -9 17 0 0 -8 17 0 0 -9 25 0 0 -8 34 0 0 -9 43 0 0 -8 8 0 0 -8 9 0 0 -17 8 0 0 -17 8 0 0 -17 9 0 0 -9 8 0 0 -17 9 0 0 -8 8 0 0 -9 9 0 0 -17 8 0 0 -8 9 0 0 -8 8 0 0 -9 9 0 0 -8 8 0 0 -9 9 0 0 -8 8 0 0 -9 9 0 0 -8 16 0 0 -9 9 0 0 -8 8 0 0 -9 17 0 0 -8 17 0 0 -9 17 0 0 -8 17 0 0 -9 17 0 0 -8 25 0 0 -8 34 0 0 -9 85 0 0 9 17 0 0 8 -9 0 0 8zm1330 466l0 -25 -26 0 0 -9 -76 0 0 9 -17 0 0 8 -8 0 0 9 -9 0 0 8 -8 0 0 9 -9 0 0 8 -42 0 0 -8 -288 0 0 -9 -8 0 0 -34 -9 0 0 -25 -8 0 0 -34 8 0 0 -8 17 0 0 -9 9 0 0 -8 17 0 0 -9 25 0 0 9 8 0 0 8 9 0 0 9 8 0 0 8 9 0 0 17 8 0 0 8 9 0 0 9 8 0 0 8 9 0 0 9 8 0 0 8 9 0 0 9 17 0 0 8 16 0 0 9 34 0 0 -9 9 0 0 -8 8 0 0 -17 9 0 0 -9 -9 0 0 -8 26 0 0 8 25 0 0 -8 17 0 0 -9 8 0 0 -17 9 0 0 -16 -9 0 0 -17 -8 0 0 -9 -8 0 0 -8 50 0 0 -9 9 0 0 -8 8 0 0 -17 -8 0 0 -17 -9 0 0 -9 -8 0 0 -8 -17 0 0 -9 -9 0 0 -8 -16 0 0 -8 -9 0 0 -9 34 0 0 -8 25 0 0 -9 9 0 0 -8 8 0 0 -9 9 0 0 -17 -9 0 0 -8 -8 0 0 -9 -17 0 0 -8 -17 0 0 -9 -17 0 0 -8 -203 0 0 -17 -9 0 0 -59 -8 0 0 -60 -9 0 0 -8 -8 0 0 -17 -9 0 0 -8 -16 0 0 -9 -17 0 0 -8 -43 0 0 8 -8 0 0 17 -9 0 0 93 9 0 0 43 8 0 0 33 9 0 0 26 -9 0 0 8 -8 0 0 17 -9 0 0 9 -8 0 0 8 -9 0 0 9 -8 0 0 8 -9 0 0 9 -16 0 0 8 -9 0 0 -8 -17 0 0 -9 -17 0 0 -8 -25 0 0 -9 -102 0 0 9 -59 0 0 8 -9 0 0 25 9 0 0 9 8 0 0 8 17 0 0 9 17 0 0 8 17 0 0 9 17 0 0 8 17 0 0 9 9 0 0 8 -9 0 0 9 -8 0 0 8 -9 0 0 9 -8 0 0 8 -9 0 0 9 -8 0 0 8 -9 0 0 8 -17 0 0 9 -8 0 0 8 -9 0 0 9 -17 0 0 8 -8 0 0 9 -17 0 0 8 -17 0 0 9 -8 0 0 8 -17 0 0 9 -26 0 0 8 -25 0 0 9 -17 0 0 8 -25 0 0 9 -26 0 0 8 -25 0 0 8 -26 0 0 9 -8 0 0 -17 8 0 0 -25 9 0 0 -34 -9 0 0 -51 9 0 0 -9 8 0 0 -8 9 0 0 -68 -9 0 0 -8 -17 0 0 -9 -8 0 0 -8 -9 0 0 -9 -8 0 0 -17 8 0 0 -8 -8 0 0 -8 25 0 0 8 43 0 0 -8 17 0 0 -9 8 0 0 -8 17 0 0 -9 9 0 0 -17 8 0 0 -51 -8 0 0 -8 -9 0 0 -9 -17 0 0 -8 -25 0 0 -8 -34 0 0 8 -26 0 0 8 -25 0 0 -8 -17 0 0 -8 -8 0 0 -9 -17 0 0 -8 -17 0 0 -9 -34 0 0 -8 -152 0 0 8 -34 0 0 9 -17 0 0 8 -17 0 0 9 -17 0 0 8 -9 0 0 8 -17 0 0 -8 9 0 0 -25 8 0 0 -17 9 0 0 -9 8 0 0 -8 9 0 0 -9 17 0 0 -8 17 0 0 -9 25 0 0 -8 25 0 0 -9 34 0 0 9 9 0 0 8 8 0 0 17 17 0 0 9 17 0 0 8 42 0 0 -8 17 0 0 -9 9 0 0 -8 8 0 0 -9 9 0 0 -8 8 0 0 -9 9 0 0 -50 -9 0 0 -9 -8 0 0 -8 -9 0 0 -9 -17 0 0 -8 -33 0 0 -9 -9 0 0 9 -34 0 0 8 -17 0 0 9 -8 0 0 8 -9 0 0 9 -17 0 0 -9 -25 0 0 -8 -93 0 0 8 -26 0 0 9 -25 0 0 8 -17 0 0 9 -25 0 0 8 -17 0 0 8 -17 0 0 9 -9 0 0 8 -17 0 0 9 -8 0 0 8 -8 0 0 9 -17 0 0 8 -9 0 0 9 -8 0 0 8 -9 0 0 9 -8 0 0 8 -9 0 0 9 -8 0 0 8 -9 0 0 9 -8 0 0 16 -9 0 0 9 -8 0 0 8 -9 0 0 17 -8 0 0 9 -8 0 0 17 -9 0 0 17 -8 0 0 17 -9 0 0 8 -34 0 0 9 -34 0 0 8 -25 0 0 8 -17 0 0 9 -17 0 0 8 -17 0 0 9 -8 0 0 8 -9 0 0 9 -8 0 0 8 -9 0 0 9 -8 0 0 8 -9 0 0 9 -8 0 0 17 -9 0 0 25 -8 0 0 93 8 0 0 34 9 0 0 25 8 0 0 17 9 0 0 9 8 0 0 17 9 0 0 8 8 0 0 17 -8 0 0 9 -9 0 0 17 -8 0 0 59 8 0 0 17 9 0 0 8 17 0 0 9 17 0 0 8 42 0 0 -8 25 0 0 -9 17 0 0 -8 9 0 0 -9 8 0 0 -17 9 0 0 -34 -9 0 0 -25 -8 0 0 -8 -9 0 0 -9 -8 0 0 -8 -9 0 0 -9 -42 0 0 -42 9 0 0 -26 8 0 0 -16 8 0 0 -17 9 0 0 -9 8 0 0 -8 17 0 0 -9 9 0 0 51 8 0 0 17 9 0 0 8 8 0 0 9 9 0 0 25 8 0 0 26 9 0 0 17 8 0 0 25 9 0 0 8 8 0 0 17 17 0 0 9 8 0 0 8 51 0 0 17 9 0 0 17 8 0 0 17 9 0 0 9 8 0 0 8 9 0 0 9 8 0 0 8 8 0 0 8 9 0 0 9 17 0 0 8 17 0 0 9 17 0 0 8 25 0 0 9 26 0 0 8 -9 0 0 9 -25 0 0 -9 -43 0 0 -8 -59 0 0 8 -34 0 0 9 -17 0 0 8 -8 0 0 9 -17 0 0 8 -9 0 0 9 -8 0 0 8 -9 0 0 9 -8 0 0 8 -8 0 0 25 8 0 0 9 42 0 0 -9 85 0 0 9 17 0 0 8 17 0 0 9 8 0 0 8 -17 0 0 9 -8 0 0 17 -9 0 0 8 -8 0 0 17 -8 0 0 9 -9 0 0 16 -8 0 0 9 -9 0 0 25 -8 0 0 77 8 0 0 42 9 0 0 25 8 0 0 17 9 0 0 9 8 0 0 8 -34 0 0 9 -42 0 0 8 -43 0 0 9 -25 0 0 33 9 0 0 26 8 0 0 17 8 0 0 25 9 0 0 17 8 0 0 25 9 0 0 17 8 0 0 17 9 0 0 26 8 0 0 17 9 0 0 25 8 0 0 17 9 0 0 25 8 0 0 17 9 0 0 26 8 0 0 17 9 0 0 17 84 0 0 -9 68 0 0 -8 68 0 0 -9 76 0 0 -8 68 0 0 -9 76 0 0 -8 84 0 0 -9 85 0 0 -8 26 0 0 8 25 0 0 9 25 0 0 8 34 0 0 9 34 0 0 8 34 0 0 9 42 0 0 8 43 0 0 9 50 0 0 8 60 0 0 9 76 0 0 8 169 0 0 8 68 0 0 -8 169 0 0 -8 76 0 0 -9 60 0 0 -8 50 0 0 -9 43 0 0 -8 34 0 0 -9 42 0 0 -8 34 0 0 -9 25 0 0 -8 34 0 0 -9 26 0 0 -8 25 0 0 -9 25 0 0 -8 34 0 0 8 93 0 0 9 85 0 0 8 76 0 0 9 68 0 0 8 59 0 0 9 59 0 0 8 51 0 0 9 51 0 0 8 42 0 0 -8 9 0 0 -26 8 0 0 -17 9 0 0 -25 8 0 0 -25 9 0 0 -17 8 0 0 -26 9 0 0 -25 8 0 0 -17 9 0 0 -26 8 0 0 -25 9 0 0 -17 8 0 0 -25 8 0 0 -17 9 0 0 -26 8 0 0 -50 -17 0 0 -9 -42 0 0 -8 -42 0 0 -9 -51 0 0 -8 -51 0 0 -9 -42 0 0 -8 -26 0 0 -9 9 0 0 -17 8 0 0 -33 9 0 0 -43 8 0 0 -59 -8 0 0 -42 -9 0 0 -34 -8 0 0 -17 -9 0 0 -17 -8 0 0 -17 -8 0 0 -17 -9 0 0 -8 -8 0 0 -17 -9 0 0 -9 -8 0 0 -8 -9 0 0 -9 9 0 0 -8 8 0 0 -9 9 0 0 -8 8 0 0 -9 9 0 0 -8 -9 0 0 -9 -8 0 0 -8 -9 0 0 -59 9 0 0 -68 8 0 0 -68 9 0 0 -59 -17 0 0 -9 -43 0 0 -8 -25 0 0 -8 -26 0 0 -9 -16 0 0 -8 -17 0 0 -9 -9 0 0 -8 -17 0 0 -9 -8 0 0 -8 -9 0 0 -9 26 0 0 -34 -9 0 0 -33 -8 0 0 -43 -9 0 0 -34 -8 0 0 -17 -17 0 0 -8 -26 0 0 -9 -16 0 0 -8 -17 0 0 -8 -17 0 0 -9 -9 0 0 -8 -17 0 0 -9 -8 0 0 -8 -9 0 0 -9 -8 0 0 -8 -9 0 0 -9 -8 0 0 -8 -9 0 0 -9 -8 0 0 -8 -8 0 0 -9 -187 0 0 9 -8 0 0 8 -9 0 0 9 -8 0 0 8 -9 0 0 9 -8 0 0 8 -9 0 0 9 -8 0 0 8 -8 0 0 9 -9 0 0 8 -8 0 0 9 -17 0 0 8 -17 0 0 8 -26 0 0 9 -17 0 0 8 -25 0 0 34 -8 0 0 17 -26 0 0 -17 -8 0 0 -17 -9 0 0 -8 -17 0 0 -9 -50 0 0 9 -17 0 0 8 -9 0 0 9 -8 0 0 17 -9 0 0 67 9 0 0 17 8 0 0 9 17 0 0 8 34 0 0 -8 17 0 0 -9 8 0 0 -8 9 0 0 8 17 0 0 9 8 0 0 17 9 0 0 42 -17 0z"/>
   <path class="fil1" d="M1698 1709l42 0 0 220 -42 0 0 -220zm-119 186l-8 0 0 8 -9 0 0 9 -8 0 0 8 -9 0 0 9 -67 0 0 -9 -9 0 0 -8 -8 0 0 -9 -9 0 0 -8 -8 0 0 -17 -9 0 0 -110 9 0 0 -25 8 0 0 -9 9 0 0 -8 8 0 0 -9 17 0 0 -8 51 0 0 8 17 0 0 9 8 0 0 8 9 0 0 17 8 0 0 25 9 0 0 94 -9 0 0 25zm991 0l-9 0 0 68 -8 0 0 25 -17 0 0 -8 -25 0 0 -26 8 0 0 -59 8 0 0 -59 9 0 0 -68 42 0 0 85 -8 0 0 42zm-390 51l-25 0 0 -9 -17 0 0 -93 8 0 0 -118 43 0 0 93 84 0 0 -85 43 0 0 119 -9 0 0 101 -42 0 0 -101 -85 0 0 93zm-1676 -85l-25 0 0 51 8 0 0 59 9 0 0 43 8 0 0 25 -17 0 0 8 -25 0 0 -25 -9 0 0 -59 -8 0 0 -60 -9 0 0 -33 -51 0 0 8 -16 0 0 -34 8 0 0 -8 42 0 0 -9 51 0 0 -8 59 0 0 34 -25 0 0 8zm610 -93l8 0 0 -17 9 0 0 -8 16 0 0 -9 17 0 0 -8 43 0 0 8 17 0 0 9 17 0 0 8 8 0 0 17 9 0 0 85 -9 0 0 17 -8 0 0 17 -9 0 0 16 -8 0 0 9 -9 0 0 17 -8 0 0 8 -9 0 0 9 -42 0 0 -9 8 0 0 -17 9 0 0 -8 8 0 0 -17 9 0 0 -17 -34 0 0 -8 -17 0 0 -9 -8 0 0 -8 -9 0 0 -17 -8 0 0 -68zm-517 76l-8 0 0 26 8 0 0 8 26 0 0 9 50 0 0 8 17 0 0 8 9 0 0 9 8 0 0 8 9 0 0 68 -9 0 0 9 -8 0 0 8 -9 0 0 9 -17 0 0 8 -67 0 0 -8 -17 0 0 -9 -9 0 0 -8 -8 0 0 -9 -9 0 0 -17 -8 0 0 -17 42 0 0 9 9 0 0 8 8 0 0 9 9 0 0 8 33 0 0 -8 9 0 0 -9 8 0 0 -25 -8 0 0 -9 -26 0 0 -8 -33 0 0 -9 -26 0 0 -8 -8 0 0 -9 -9 0 0 -8 -8 0 0 -17 -9 0 0 -34 9 0 0 -17 8 0 0 -8 9 0 0 -9 8 0 0 -8 26 0 0 -9 42 0 0 9 17 0 0 8 17 0 0 9 8 0 0 17 9 0 0 17 -26 0 0 8 -17 0 0 -17 -8 0 0 -8 -51 0 0 8zm2235 34l-8 0 0 59 -9 0 0 60 -8 0 0 25 -34 0 0 -34 8 0 0 -68 9 0 0 -42 -9 0 0 17 -8 0 0 17 -8 0 0 17 -9 0 0 25 -8 0 0 17 -9 0 0 17 -8 0 0 17 -9 0 0 9 -34 0 0 -9 -8 0 0 -25 -9 0 0 -110 -8 0 0 -26 -9 0 0 43 -8 0 0 67 -8 0 0 43 -34 0 0 -60 8 0 0 -67 9 0 0 -43 8 0 0 -51 34 0 0 9 25 0 0 25 9 0 0 68 8 0 0 85 9 0 0 -17 8 0 0 -17 9 0 0 -17 8 0 0 -25 9 0 0 -17 8 0 0 -17 9 0 0 -17 8 0 0 -26 8 0 0 -8 26 0 0 8 34 0 0 17 -9 0 0 51zm-1845 -93l17 0 0 -9 16 0 0 -16 9 0 0 -17 34 0 0 101 8 0 0 51 9 0 0 59 -43 0 0 -42 -8 0 0 -102 -42 0 0 -25zm948 34l-9 0 0 8 -8 0 0 9 -9 0 0 8 -84 0 0 85 -43 0 0 -220 102 0 0 8 25 0 0 9 9 0 0 8 8 0 0 9 9 0 0 17 8 0 0 42 -8 0 0 17zm-1236 -34l51 0 0 17 8 0 0 17 8 0 0 17 9 0 0 25 8 0 0 17 9 0 0 17 8 0 0 17 9 0 0 17 8 0 0 -17 9 0 0 -42 8 0 0 -60 9 0 0 -42 8 0 0 -8 34 0 0 33 -8 0 0 68 -9 0 0 26 -8 0 0 42 -9 0 0 59 -51 0 0 -8 -8 0 0 -17 -9 0 0 -17 -8 0 0 -17 -9 0 0 -17 -8 0 0 -17 -8 0 0 -17 -9 0 0 -17 -8 0 0 -17 -9 0 0 -17 -8 0 0 -17 -9 0 0 -17 -8 0 0 -8zm1710 51l34 0 0 8 42 0 0 34 -93 0 0 59 93 0 0 43 -17 0 0 -9 -59 0 0 -8 -59 0 0 -85 8 0 0 -51 9 0 0 -59 8 0 0 -17 93 0 0 9 34 0 0 33 -51 0 0 -8 -42 0 0 51zm-1024 42l8 0 0 59 -51 0 0 -152 -42 0 0 -25 25 0 0 -9 9 0 0 -8 8 0 0 -9 9 0 0 -17 25 0 0 68 9 0 0 93zm626 -118l-8 0 0 25 8 0 0 8 17 0 0 9 17 0 0 8 17 0 0 9 17 0 0 8 17 0 0 17 8 0 0 68 -8 0 0 8 -9 0 0 9 -17 0 0 8 -76 0 0 -8 -17 0 0 -9 -8 0 0 -8 -9 0 0 -9 -8 0 0 -42 34 0 0 17 8 0 0 17 17 0 0 8 42 0 0 -8 9 0 0 -34 -17 0 0 -8 -17 0 0 -9 -17 0 0 -8 -17 0 0 -9 -17 0 0 -8 -8 0 0 -17 -9 0 0 -51 9 0 0 -17 8 0 0 -8 17 0 0 -9 76 0 0 9 17 0 0 8 9 0 0 17 8 0 0 34 -34 0 0 -17 -8 0 0 -8 -9 0 0 -9 -42 0 0 9zm-626 -119l-153 0 0 8 -135 0 0 9 -68 0 0 8 -85 0 0 9 -76 0 0 8 -59 0 0 9 -85 0 0 8 -42 0 0 9 -68 0 0 8 -34 0 0 9 -42 0 0 8 -59 0 0 9 -34 0 0 8 -51 0 0 9 -42 0 0 8 -51 0 0 8 -43 0 0 17 9 0 0 17 8 0 0 26 9 0 0 17 8 0 0 25 9 0 0 17 8 0 0 25 9 0 0 17 8 0 0 26 9 0 0 17 8 0 0 25 9 0 0 17 8 0 0 17 9 0 0 25 8 0 0 17 8 0 0 17 17 0 0 -8 94 0 0 -9 50 0 0 -8 77 0 0 -9 67 0 0 -8 76 0 0 -9 77 0 0 -8 101 0 0 -9 68 0 0 -8 119 0 0 -8 84 0 0 -9 102 0 0 -8 144 0 0 -9 567 0 0 9 186 0 0 8 85 0 0 9 118 0 0 8 77 0 0 8 59 0 0 9 68 0 0 8 67 0 0 9 60 0 0 8 67 0 0 9 34 0 0 8 68 0 0 -25 8 0 0 -17 9 0 0 -25 8 0 0 -26 9 0 0 -17 8 0 0 -25 9 0 0 -26 8 0 0 -17 9 0 0 -25 8 0 0 -17 9 0 0 -25 8 0 0 -26 9 0 0 -17 8 0 0 -33 -25 0 0 -9 -51 0 0 -8 -59 0 0 -9 -34 0 0 -8 -43 0 0 -9 -67 0 0 -8 -51 0 0 -9 -59 0 0 -8 -60 0 0 -9 -51 0 0 -8 -76 0 0 -9 -93 0 0 -8 -68 0 0 -9 -135 0 0 -8 -119 0 0 -8 -651 0 0 8z"/>
   <path class="fil2" d="M2341 1277l51 0 0 76 -51 0 0 -76zm-127 0l51 0 0 76 -51 0 0 -76zm127 -152l51 0 0 67 -51 0 0 -67zm-127 0l51 0 0 67 -51 0 0 -67zm-93 -43l-8 0 0 26 -9 0 0 25 -8 0 0 17 -9 0 0 17 -8 0 0 51 8 0 0 8 9 0 0 9 17 0 0 8 8 0 0 9 9 0 0 8 8 0 0 8 8 0 0 9 9 0 0 8 8 0 0 17 9 0 0 34 8 0 0 93 -8 0 0 26 -9 0 0 17 -8 0 0 25 -9 0 0 17 -8 0 0 17 -8 0 0 8 -9 0 0 17 -8 0 0 9 -9 0 0 17 -8 0 0 8 -9 0 0 9 -17 0 0 8 -8 0 0 9 84 0 0 8 85 0 0 9 42 0 0 -136 77 0 0 144 59 0 0 8 93 0 0 9 68 0 0 8 59 0 0 9 68 0 0 -322 -186 0 0 -296 -390 0 0 25z"/>
   <polygon class="fil3" points="1401,1175 1385,1175 1385,1184 1376,1184 1376,1192 1359,1192 1359,1201 1342,1201 1342,1209 1317,1209 1317,1218 1283,1218 1283,1226 1266,1226 1266,1235 1224,1235 1224,1243 1080,1243 1080,1252 1071,1252 1071,1268 1080,1268 1080,1277 1088,1277 1088,1294 1097,1294 1097,1302 1105,1302 1105,1311 1114,1311 1114,1328 1122,1328 1122,1336 1181,1336 1181,1345 1198,1345 1198,1353 1207,1353 1207,1362 1215,1362 1215,1379 1224,1379 1224,1412 1215,1412 1215,1421 1207,1421 1207,1429 1198,1429 1198,1438 1190,1438 1190,1446 1122,1446 1122,1438 1114,1438 1114,1429 1105,1429 1105,1421 1097,1421 1097,1379 1080,1379 1080,1370 1054,1370 1054,1362 944,1362 944,1489 936,1489 936,1506 927,1506 927,1514 944,1514 944,1522 961,1522 961,1531 970,1531 970,1539 978,1539 978,1590 970,1590 970,1599 961,1599 961,1607 944,1607 944,1616 910,1616 910,1607 893,1607 893,1599 885,1599 885,1590 877,1590 877,1539 885,1539 885,1531 893,1531 893,1522 902,1522 902,1514 893,1514 893,1506 885,1506 885,1497 877,1497 877,1489 868,1489 868,1472 860,1472 860,1463 851,1463 851,1446 843,1446 843,1429 834,1429 834,1421 826,1421 826,1412 809,1412 809,1421 800,1421 800,1438 792,1438 792,1463 783,1463 783,1489 775,1489 775,1506 783,1506 783,1522 792,1522 792,1539 800,1539 800,1556 809,1556 809,1565 817,1565 817,1582 834,1582 834,1590 843,1590 843,1599 860,1599 860,1607 885,1607 885,1616 902,1616 902,1624 919,1624 919,1633 944,1633 944,1641 1020,1641 1020,1633 1147,1633 1147,1624 1258,1624 1258,1616 1300,1616 1300,1607 1342,1607 1342,1599 1385,1599 1385,1590 1376,1590 1376,1582 1359,1582 1359,1573 1351,1573 1351,1565 1342,1565 1342,1556 1334,1556 1334,1539 1325,1539 1325,1522 1317,1522 1317,1514 1308,1514 1308,1506 1291,1506 1291,1497 1274,1497 1274,1489 1258,1489 1258,1480 1249,1480 1249,1455 1274,1455 1274,1446 1385,1446 1385,1455 1427,1455 1427,1446 1418,1446 1418,1429 1410,1429 1410,1421 1401,1421 1401,1412 1393,1412 1393,1395 1376,1395 1376,1387 1368,1387 1368,1379 1351,1379 1351,1353 1376,1353 1376,1345 1401,1345 1401,1336 1427,1336 1427,1328 1444,1328 1444,1319 1461,1319 1461,1311 1469,1311 1469,1302 1486,1302 1486,1294 1351,1294 1351,1302 1300,1302 1300,1277 1317,1277 1317,1268 1325,1268 1325,1260 1342,1260 1342,1252 1351,1252 1351,1243 1359,1243 1359,1235 1368,1235 1368,1226 1376,1226 1376,1218 1385,1218 1385,1209 1393,1209 1393,1201 1401,1201 1401,1184 1410,1184 1410,1167 1401,1167 "/>
   <polygon class="fil1" points="546,490 512,490 512,498 487,498 487,506 470,506 470,515 453,515 453,523 436,523 436,532 419,532 419,540 402,540 402,549 394,549 394,557 385,557 385,566 369,566 369,574 360,574 360,583 352,583 352,591 343,591 343,600 335,600 335,608 326,608 326,617 318,617 318,625 309,625 309,633 301,633 301,650 292,650 292,659 284,659 284,667 275,667 275,684 267,684 267,693 258,693 258,710 250,710 250,727 242,727 242,744 233,744 233,752 225,752 225,760 182,760 182,769 148,769 148,777 123,777 123,786 106,786 106,794 89,794 89,803 81,803 81,811 72,811 72,820 64,820 64,828 55,828 55,837 47,837 47,845 38,845 38,862 30,862 30,879 21,879 21,981 30,981 30,1006 38,1006 38,1023 47,1023 47,1040 55,1040 55,1057 64,1057 64,1065 72,1065 72,1074 81,1074 81,1031 89,1031 89,1014 98,1014 98,989 106,989 106,981 115,981 115,964 123,964 123,955 131,955 131,947 148,947 148,938 165,938 165,930 191,930 191,981 199,981 199,998 208,998 208,1014 216,1014 216,1006 225,1006 225,989 233,989 233,981 242,981 242,964 250,964 250,947 258,947 258,938 267,938 267,930 275,930 275,913 284,913 284,904 292,904 292,896 301,896 301,887 309,887 309,879 318,879 318,871 326,871 326,862 335,862 335,854 343,854 343,845 352,845 352,837 369,837 369,828 377,828 377,820 394,820 394,811 411,811 411,803 428,803 428,794 445,794 445,786 462,786 462,777 479,777 479,769 504,769 504,760 521,760 521,752 546,752 546,744 758,744 758,752 826,752 826,744 809,744 809,735 775,735 775,727 733,727 733,718 716,718 716,710 682,710 682,701 606,701 606,710 563,710 563,693 580,693 580,684 597,684 597,676 606,676 606,667 623,667 623,659 631,659 631,650 656,650 656,642 690,642 690,633 766,633 766,642 826,642 826,650 851,650 851,642 834,642 834,633 817,633 817,625 800,625 800,617 783,617 783,608 623,608 623,617 589,617 589,625 572,625 572,633 555,633 555,642 546,642 546,650 538,650 538,659 521,659 521,667 496,667 496,591 504,591 504,574 512,574 512,566 521,566 521,557 529,557 529,549 538,549 538,540 546,540 546,532 563,532 563,523 589,523 589,515 614,515 614,506 639,506 639,498 648,498 648,490 631,490 631,481 546,481 "/>
   <polygon class="fil1" points="1054,998 1037,998 1037,1006 1012,1006 1012,1014 987,1014 987,1023 961,1023 961,1031 936,1031 936,1040 919,1040 919,1048 893,1048 893,1057 877,1057 877,1082 868,1082 868,1133 860,1133 860,1167 851,1167 851,1184 843,1184 843,1201 834,1201 834,1218 826,1218 826,1235 817,1235 817,1243 809,1243 809,1252 800,1252 800,1260 783,1260 783,1268 758,1268 758,1277 673,1277 673,1268 648,1268 648,1353 656,1353 656,1387 648,1387 648,1421 656,1421 656,1429 665,1429 665,1438 673,1438 673,1446 682,1446 682,1463 690,1463 690,1489 699,1489 699,1514 707,1514 707,1548 716,1548 716,1556 733,1556 733,1539 741,1539 741,1514 750,1514 750,1497 758,1497 758,1472 766,1472 766,1446 775,1446 775,1421 783,1421 783,1404 792,1404 792,1395 800,1395 800,1387 826,1387 826,1395 843,1395 843,1404 851,1404 851,1412 860,1412 860,1429 868,1429 868,1446 877,1446 877,1463 885,1463 885,1472 893,1472 893,1480 902,1480 902,1489 919,1489 919,1353 927,1353 927,1345 936,1345 936,1336 1020,1336 1020,1345 1063,1345 1063,1353 1097,1353 1097,1362 1105,1362 1105,1336 1097,1336 1097,1328 1088,1328 1088,1319 1080,1319 1080,1302 1071,1302 1071,1294 1063,1294 1063,1285 1054,1285 1054,1268 1046,1268 1046,1260 1037,1260 1037,1243 1046,1243 1046,1235 1063,1235 1063,1226 1080,1226 1080,1218 1088,1218 1088,1209 1105,1209 1105,1201 1122,1201 1122,1192 1131,1192 1131,1184 1147,1184 1147,1175 1164,1175 1164,1158 1156,1158 1156,1150 1131,1150 1131,1141 1114,1141 1114,1133 1105,1133 1105,1125 1080,1125 1080,1116 987,1116 987,1091 995,1091 995,1082 1004,1082 1004,1065 1012,1065 1012,1057 1020,1057 1020,1048 1029,1048 1029,1040 1037,1040 1037,1031 1054,1031 1054,1023 1080,1023 1080,1014 1097,1014 1097,1006 1114,1006 1114,998 1122,998 1122,989 1054,989 "/>
   <polygon class="fil1" points="1655,7 1647,7 1647,83 1655,83 1655,168 1630,168 1630,176 1461,176 1461,15 1452,15 1452,7 1427,7 1427,15 1359,15 1359,185 1368,185 1368,439 1469,439 1469,252 1537,252 1537,244 1655,244 1655,371 1664,371 1664,430 1757,430 1757,142 1749,142 1749,-2 1655,-2 "/>
   <path class="fil1" d="M1114 354l-34 0 0 9 -26 0 0 8 -25 0 0 -161 8 0 0 17 9 0 0 9 8 0 0 8 9 0 0 8 8 0 0 9 9 0 0 8 8 0 0 17 9 0 0 9 8 0 0 8 9 0 0 9 8 0 0 8 9 0 0 9 8 0 0 17 -25 0 0 8zm-94 -254l-25 0 0 9 -25 0 0 8 -26 0 0 8 -8 0 0 449 17 0 0 -8 25 0 0 -9 26 0 0 -8 25 0 0 -9 8 0 0 -59 -8 0 0 -25 8 0 0 -9 26 0 0 -8 25 0 0 -9 34 0 0 -8 25 0 0 -9 26 0 0 -8 25 0 0 8 9 0 0 9 8 0 0 8 9 0 0 17 8 0 0 9 9 0 0 8 8 0 0 9 34 0 0 -9 25 0 0 -8 34 0 0 -9 9 0 0 -8 -9 0 0 -9 -8 0 0 -8 -9 0 0 -9 -8 0 0 -8 -9 0 0 -9 -8 0 0 -8 -9 0 0 -17 -8 0 0 -8 -9 0 0 -9 -8 0 0 -8 -8 0 0 -9 -9 0 0 -8 -8 0 0 -9 -9 0 0 -8 -8 0 0 -17 -9 0 0 -9 -8 0 0 -8 -9 0 0 -9 -8 0 0 -8 -9 0 0 -9 -8 0 0 -8 -9 0 0 -8 -8 0 0 -9 -9 0 0 -17 -8 0 0 -8 -8 0 0 -9 -9 0 0 -8 -8 0 0 -9 -9 0 0 -8 -8 0 0 -9 -9 0 0 -8 -8 0 0 -9 -9 0 0 -17 -8 0 0 -8 -9 0 0 -8 -8 0 0 -9 -9 0 0 -8 -17 0 0 8z"/>
   <path class="fil1" d="M2011 295l8 0 0 -9 9 0 0 -8 8 0 0 -9 9 0 0 -17 8 0 0 -8 9 0 0 -8 8 0 0 -17 9 0 0 -9 8 0 0 -8 9 0 0 -17 8 0 0 -9 9 0 0 -8 8 0 0 169 -8 0 0 -8 -34 0 0 -9 -43 0 0 -8 -25 0 0 -17zm85 -220l-9 0 0 8 -8 0 0 9 -9 0 0 8 -8 0 0 9 -9 0 0 16 -8 0 0 9 -9 0 0 8 -8 0 0 9 -9 0 0 17 -8 0 0 8 -8 0 0 9 -9 0 0 8 -8 0 0 17 -9 0 0 9 -8 0 0 8 -9 0 0 9 -8 0 0 16 -9 0 0 9 -8 0 0 8 -9 0 0 9 -8 0 0 8 -9 0 0 17 -8 0 0 9 -8 0 0 8 -9 0 0 9 -8 0 0 17 -9 0 0 8 -8 0 0 9 -9 0 0 8 -8 0 0 17 -9 0 0 8 -8 0 0 9 -9 0 0 8 -8 0 0 17 17 0 0 9 34 0 0 8 50 0 0 -17 9 0 0 -8 8 0 0 -9 9 0 0 -17 8 0 0 -8 9 0 0 -9 51 0 0 9 33 0 0 8 34 0 0 9 34 0 0 8 17 0 0 93 25 0 0 9 34 0 0 8 43 0 0 -50 -9 0 0 -187 -8 0 0 -186 -9 0 0 -25 -25 0 0 -9 -34 0 0 -8 -42 0 0 17z"/>
   <path class="fil1" d="M2629 371l0 25 -8 0 0 26 -9 0 0 25 -8 0 0 26 -9 0 0 25 -8 0 0 17 -9 0 0 8 -17 0 0 -8 -17 0 0 -9 -8 0 0 -8 -17 0 0 -8 -17 0 0 -9 -8 0 0 -8 -9 0 0 -9 9 0 0 -8 17 0 0 -9 8 0 0 -8 17 0 0 -9 8 0 0 -8 17 0 0 -9 9 0 0 -8 17 0 0 -9 8 0 0 -8 9 0 0 -9 17 0 0 -8 8 0zm0 0l0 -8 9 0 0 8 -9 0zm34 -110l-17 0 0 8 -8 0 0 9 -17 0 0 8 -9 0 0 9 -17 0 0 8 -8 0 0 9 -17 0 0 8 -9 0 0 9 -17 0 0 8 -17 0 0 9 -8 0 0 8 -17 0 0 9 -8 0 0 8 -17 0 0 8 -9 0 0 9 -17 0 0 8 -8 0 0 9 -17 0 0 8 -9 0 0 9 -17 0 0 8 -8 0 0 9 -17 0 0 8 -8 0 0 9 -17 0 0 8 -9 0 0 9 -17 0 0 8 -8 0 0 9 -17 0 0 8 -9 0 0 8 -17 0 0 9 -8 0 0 8 -17 0 0 17 17 0 0 9 17 0 0 8 8 0 0 9 17 0 0 8 17 0 0 9 9 0 0 -9 8 0 0 -8 17 0 0 -9 9 0 0 -8 8 0 0 -9 17 0 0 -8 8 0 0 -9 26 0 0 9 8 0 0 8 17 0 0 9 17 0 0 8 17 0 0 9 9 0 0 8 17 0 0 9 16 0 0 8 9 0 0 9 17 0 0 8 -9 0 0 25 -8 0 0 17 -9 0 0 26 -8 0 0 17 8 0 0 8 17 0 0 9 17 0 0 8 17 0 0 9 9 0 0 8 17 0 0 -8 8 0 0 -26 9 0 0 -25 8 0 0 -26 9 0 0 -33 8 0 0 -26 8 0 0 -25 9 0 0 -26 8 0 0 -25 9 0 0 -25 8 0 0 -26 9 0 0 -25 8 0 0 -26 9 0 0 -25 8 0 0 -25 9 0 0 -26 8 0 0 -25 9 0 0 -9 -9 0 0 -8 -8 0 0 -9 -17 0 0 -8 -17 0 0 -9 -17 0 0 -8 -9 0 0 -9 -8 0 0 9z"/>
   <polygon class="fil1" points="1503,2022 1368,2022 1368,2030 1207,2030 1207,2039 1114,2039 1114,2047 1131,2047 1131,2056 1164,2056 1164,2064 1207,2064 1207,2073 1258,2073 1258,2081 1300,2081 1300,2090 1368,2090 1368,2098 1469,2098 1469,2107 1876,2107 1876,2098 1943,2098 1943,2090 2003,2090 2003,2081 2045,2081 2045,2073 2096,2073 2096,2064 2121,2064 2121,2056 2172,2056 2172,2047 2206,2047 2206,2039 2231,2039 2231,2030 2138,2030 2138,2022 1909,2022 1909,2014 1503,2014 "/>
   <path class="fil4" d="M597 1065l9 0 0 9 8 0 0 8 17 0 0 -8 8 0 0 -9 9 0 0 -17 8 0 0 -8 17 0 0 25 -8 0 0 17 -9 0 0 9 -8 0 0 8 -51 0 0 -8 -8 0 0 -9 -9 0 0 -8 -8 0 0 -34 8 0 0 -17 9 0 0 -17 17 0 0 25 -9 0 0 34zm119 -245l8 0 0 17 9 0 0 17 8 0 0 17 9 0 0 16 8 0 0 9 -17 0 0 -9 -8 0 0 -8 -17 0 0 -8 -9 0 0 -9 -17 0 0 9 9 0 0 8 8 0 0 17 9 0 0 42 -9 0 0 9 -8 0 0 17 -9 0 0 8 -17 0 0 9 -17 0 0 8 -50 0 0 -8 -17 0 0 -9 -17 0 0 34 -9 0 0 8 -8 0 0 9 -9 0 0 8 -8 0 0 9 -17 0 0 8 -51 0 0 -8 -17 0 0 17 9 0 0 17 8 0 0 17 9 0 0 17 8 0 0 17 9 0 0 8 8 0 0 8 8 0 0 9 60 0 0 -9 42 0 0 -8 17 0 0 -8 25 0 0 -9 17 0 0 -8 9 0 0 -9 17 0 0 -8 8 0 0 -9 17 0 0 -8 9 0 0 -9 8 0 0 -8 9 0 0 -9 8 0 0 -8 8 0 0 -9 9 0 0 -17 8 0 0 -8 9 0 0 -17 8 0 0 -8 9 0 0 -9 17 0 0 119 -9 0 0 25 -8 0 0 9 -9 0 0 16 -8 0 0 9 -9 0 0 8 -8 0 0 9 -9 0 0 8 -16 0 0 9 -9 0 0 8 -25 0 0 9 -17 0 0 8 -43 0 0 43 102 0 0 -9 25 0 0 -8 9 0 0 -9 8 0 0 -8 9 0 0 -17 8 0 0 -9 9 0 0 -25 8 0 0 -26 9 0 0 -59 8 0 0 -25 9 0 0 -26 8 0 0 -17 9 0 0 -16 8 0 0 -17 8 0 0 -34 -8 0 0 -9 -8 0 0 -8 -9 0 0 -9 -17 0 0 -8 -17 0 0 -26 17 0 0 9 26 0 0 8 16 0 0 -8 9 0 0 -17 8 0 0 -8 9 0 0 -43 -9 0 0 34 -8 0 0 9 -34 0 0 -9 -25 0 0 -8 -17 0 0 -9 -17 0 0 -8 -26 0 0 -9 -25 0 0 -8 -25 0 0 -9 -17 0 0 9z"/>
   <polygon class="fil4" points="1469,490 1461,490 1461,583 1469,583 1469,608 1478,608 1478,693 1469,693 1469,710 1461,710 1461,718 1452,718 1452,727 1444,727 1444,735 1435,735 1435,744 1427,744 1427,752 1418,752 1418,760 1410,760 1410,769 1401,769 1401,786 1410,786 1410,794 1418,794 1418,811 1427,811 1427,828 1435,828 1435,845 1444,845 1444,862 1452,862 1452,854 1469,854 1469,845 1478,845 1478,837 1495,837 1495,828 1512,828 1512,820 1545,820 1545,828 1554,828 1554,837 1571,837 1571,854 1579,854 1579,862 1588,862 1588,871 1596,871 1596,887 1605,887 1605,896 1613,896 1613,904 1622,904 1622,913 1630,913 1630,921 1647,921 1647,930 1655,930 1655,938 1681,938 1681,930 1689,930 1689,913 1681,913 1681,904 1672,904 1672,896 1664,896 1664,887 1655,887 1655,879 1647,879 1647,871 1639,871 1639,862 1630,862 1630,854 1622,854 1622,837 1613,837 1613,820 1630,820 1630,828 1647,828 1647,837 1655,837 1655,845 1664,845 1664,854 1672,854 1672,862 1689,862 1689,871 1698,871 1698,879 1706,879 1706,887 1723,887 1723,896 1757,896 1757,887 1766,887 1766,871 1757,871 1757,862 1749,862 1749,854 1740,854 1740,845 1732,845 1732,837 1715,837 1715,828 1706,828 1706,820 1689,820 1689,811 1672,811 1672,803 1655,803 1655,794 1647,794 1647,786 1639,786 1639,777 1647,777 1647,769 1664,769 1664,777 1681,777 1681,786 1689,786 1689,794 1706,794 1706,803 1732,803 1732,811 1808,811 1808,803 1799,803 1799,794 1791,794 1791,786 1774,786 1774,777 1766,777 1766,769 1740,769 1740,760 1715,760 1715,752 1655,752 1655,727 1706,727 1706,718 1766,718 1766,710 1791,710 1791,701 1808,701 1808,693 1799,693 1799,684 1791,684 1791,676 1774,676 1774,667 1562,667 1562,659 1554,659 1554,650 1545,650 1545,633 1537,633 1537,532 1528,532 1528,515 1520,515 1520,498 1512,498 1512,490 1495,490 1495,481 1469,481 "/>
   <path class="fil2" d="M2341 913l51 0 0 68 -51 0 0 -68zm-127 0l51 0 0 68 -51 0 0 -68zm-118 -51l-9 0 0 25 9 0 0 9 8 0 0 25 9 0 0 17 8 0 0 26 9 0 0 76 381 0 0 -144 -9 0 0 -34 -8 0 0 -8 -398 0 0 8z"/>
   <polygon class="fil1" points="1393,1379 1401,1379 1401,1387 1410,1387 1410,1395 1418,1395 1418,1404 1427,1404 1427,1421 1435,1421 1435,1429 1444,1429 1444,1438 1452,1438 1452,1446 1469,1446 1469,1455 1478,1455 1478,1480 1418,1480 1418,1472 1351,1472 1351,1463 1291,1463 1291,1480 1308,1480 1308,1489 1325,1489 1325,1497 1334,1497 1334,1514 1342,1514 1342,1522 1351,1522 1351,1539 1359,1539 1359,1548 1520,1548 1520,1539 1579,1539 1579,1531 1630,1531 1630,1522 1672,1522 1672,1514 1774,1514 1774,1506 1782,1506 1782,1480 1791,1480 1791,1463 1799,1463 1799,1446 1808,1446 1808,1429 1816,1429 1816,1412 1825,1412 1825,1404 1833,1404 1833,1387 1842,1387 1842,1379 1554,1379 1554,1370 1427,1370 1427,1362 1393,1362 "/>
   <polygon class="fil4" points="275,964 267,964 267,1023 275,1023 275,1057 284,1057 284,1074 292,1074 292,1091 301,1091 301,1099 309,1099 309,1116 318,1116 318,1125 326,1125 326,1141 335,1141 335,1158 343,1158 343,1175 352,1175 352,1192 360,1192 360,1201 369,1201 369,1218 377,1218 377,1226 385,1226 385,1235 394,1235 394,1243 402,1243 402,1252 419,1252 419,1260 428,1260 428,1268 445,1268 445,1277 462,1277 462,1285 529,1285 529,1311 521,1311 521,1319 512,1319 512,1345 529,1345 529,1353 555,1353 555,1362 580,1362 580,1370 597,1370 597,1379 614,1379 614,1387 631,1387 631,1345 623,1345 623,1294 631,1294 631,1209 623,1209 623,1201 614,1201 614,1192 597,1192 597,1184 512,1184 512,1175 504,1175 504,1167 496,1167 496,1158 487,1158 487,1150 479,1150 479,1133 470,1133 470,1125 462,1125 462,1108 453,1108 453,1091 445,1091 445,1074 436,1074 436,1048 428,1048 428,1023 419,1023 419,998 411,998 411,989 394,989 394,1065 402,1065 402,1091 411,1091 411,1116 419,1116 419,1141 428,1141 428,1158 411,1158 411,1150 402,1150 402,1133 394,1133 394,1116 385,1116 385,1091 377,1091 377,998 369,998 369,981 335,981 335,989 326,989 326,1031 335,1031 335,1057 343,1057 343,1074 352,1074 352,1099 360,1099 360,1116 369,1116 369,1141 352,1141 352,1133 343,1133 343,1108 335,1108 335,1091 326,1091 326,1074 318,1074 318,1048 309,1048 309,972 301,972 301,955 275,955 "/>
   <polygon class="fil1" points="1766,1040 1749,1040 1749,1048 1723,1048 1723,1057 1706,1057 1706,1065 1689,1065 1689,1074 1672,1074 1672,1082 1655,1082 1655,1091 1639,1091 1639,1099 1622,1099 1622,1108 1605,1108 1605,1116 1579,1116 1579,1125 1554,1125 1554,1133 1537,1133 1537,1141 1512,1141 1512,1150 1495,1150 1495,1158 1469,1158 1469,1167 1452,1167 1452,1175 1435,1175 1435,1184 1427,1184 1427,1201 1418,1201 1418,1218 1410,1218 1410,1226 1401,1226 1401,1235 1393,1235 1393,1243 1385,1243 1385,1252 1376,1252 1376,1260 1368,1260 1368,1268 1351,1268 1351,1277 1393,1277 1393,1268 1562,1268 1562,1294 1554,1294 1554,1302 1528,1302 1528,1311 1503,1311 1503,1319 1486,1319 1486,1328 1478,1328 1478,1336 1461,1336 1461,1345 1520,1345 1520,1336 1545,1336 1545,1328 1562,1328 1562,1319 1596,1319 1596,1311 1613,1311 1613,1302 1630,1302 1630,1294 1647,1294 1647,1285 1664,1285 1664,1277 1681,1277 1681,1268 1689,1268 1689,1260 1706,1260 1706,1252 1715,1252 1715,1243 1723,1243 1723,1235 1732,1235 1732,1184 1723,1184 1723,1133 1732,1133 1732,1108 1740,1108 1740,1099 1749,1099 1749,1082 1757,1082 1757,1065 1766,1065 1766,1057 1774,1057 1774,1040 1782,1040 1782,1031 1766,1031 "/>
   <polygon class="fil1" points="2062,1243 2053,1243 2053,1252 2062,1252 2062,1260 2070,1260 2070,1328 2062,1328 2062,1345 2053,1345 2053,1353 2036,1353 2036,1362 2028,1362 2028,1370 2011,1370 2011,1379 1977,1379 1977,1387 1969,1387 1969,1395 1960,1395 1960,1412 1952,1412 1952,1489 1969,1489 1969,1506 1960,1506 1960,1514 1918,1514 1918,1522 1893,1522 1893,1531 1876,1531 1876,1539 1867,1539 1867,1548 1884,1548 1884,1556 1893,1556 1893,1565 1909,1565 1909,1573 1918,1573 1918,1582 1926,1582 1926,1590 1943,1590 1943,1599 1952,1599 1952,1607 1969,1607 1969,1616 2019,1616 2019,1607 2036,1607 2036,1599 2045,1599 2045,1590 2062,1590 2062,1582 2070,1582 2070,1573 2079,1573 2079,1565 2087,1565 2087,1556 2096,1556 2096,1539 2104,1539 2104,1531 2113,1531 2113,1514 2121,1514 2121,1497 2130,1497 2130,1480 2138,1480 2138,1455 2146,1455 2146,1438 2155,1438 2155,1319 2146,1319 2146,1302 2138,1302 2138,1294 2130,1294 2130,1277 2121,1277 2121,1268 2104,1268 2104,1260 2096,1260 2096,1252 2087,1252 2087,1243 2070,1243 2070,1235 2062,1235 "/>
   <polygon class="fil1" points="2003,871 2011,871 2011,879 2019,879 2019,896 2028,896 2028,947 2019,947 2019,972 2011,972 2011,981 2003,981 2003,989 1986,989 1986,998 1969,998 1969,1006 1952,1006 1952,1014 1918,1014 1918,1031 1909,1031 1909,1048 1901,1048 1901,1065 1893,1065 1893,1082 1901,1082 1901,1099 1909,1099 1909,1108 1918,1108 1918,1125 1926,1125 1926,1133 1867,1133 1867,1141 1859,1141 1859,1150 1842,1150 1842,1158 1833,1158 1833,1167 1825,1167 1825,1175 1816,1175 1816,1192 1825,1192 1825,1201 1842,1201 1842,1209 1850,1209 1850,1218 1859,1218 1859,1226 1867,1226 1867,1235 1876,1235 1876,1243 1893,1243 1893,1252 1960,1252 1960,1243 1952,1243 1952,1226 1943,1226 1943,1175 1952,1175 1952,1158 1960,1158 1960,1150 1969,1150 1969,1141 1986,1141 1986,1133 2028,1133 2028,1141 2045,1141 2045,1150 2053,1150 2053,1158 2070,1158 2070,1133 2079,1133 2079,1116 2087,1116 2087,1091 2096,1091 2096,1074 2104,1074 2104,955 2096,955 2096,938 2087,938 2087,913 2079,913 2079,896 2070,896 2070,887 2062,887 2062,879 2053,879 2053,871 2036,871 2036,862 2003,862 "/>
   <polygon class="fil3" points="419,1480 411,1480 411,1489 402,1489 402,1497 394,1497 394,1514 385,1514 385,1522 377,1522 377,1539 369,1539 369,1556 360,1556 360,1633 369,1633 369,1675 377,1675 377,1692 385,1692 385,1709 394,1709 394,1717 402,1717 402,1726 436,1726 436,1717 487,1717 487,1709 538,1709 538,1700 555,1700 555,1692 563,1692 563,1683 572,1683 572,1675 580,1675 580,1666 589,1666 589,1658 597,1658 597,1649 606,1649 606,1633 614,1633 614,1624 623,1624 623,1607 631,1607 631,1582 639,1582 639,1539 623,1539 623,1531 606,1531 606,1522 589,1522 589,1514 572,1514 572,1506 512,1506 512,1514 504,1514 504,1522 496,1522 496,1531 487,1531 487,1548 479,1548 479,1565 470,1565 470,1582 462,1582 462,1599 453,1599 453,1616 428,1616 428,1573 436,1573 436,1463 419,1463 "/>
   <polygon class="fil1" points="1224,752 1190,752 1190,760 1207,760 1207,769 1224,769 1224,777 1241,777 1241,786 1249,786 1249,794 1266,794 1266,803 1274,803 1274,811 1283,811 1283,820 1291,820 1291,837 1300,837 1300,854 1308,854 1308,921 1300,921 1300,938 1291,938 1291,955 1342,955 1342,964 1368,964 1368,972 1385,972 1385,981 1393,981 1393,989 1410,989 1410,998 1418,998 1418,1006 1427,1006 1427,1023 1435,1023 1435,1048 1444,1048 1444,1082 1452,1082 1452,1108 1461,1108 1461,1091 1469,1091 1469,998 1461,998 1461,964 1452,964 1452,938 1444,938 1444,913 1435,913 1435,887 1427,887 1427,862 1418,862 1418,845 1410,845 1410,828 1401,828 1401,811 1393,811 1393,794 1385,794 1385,786 1376,786 1376,777 1368,777 1368,769 1359,769 1359,760 1342,760 1342,752 1317,752 1317,744 1224,744 "/>
   <polygon class="fil1" points="360,1345 335,1345 335,1353 318,1353 318,1362 301,1362 301,1370 292,1370 292,1379 284,1379 284,1387 275,1387 275,1395 318,1395 318,1387 377,1387 377,1395 402,1395 402,1404 419,1404 419,1412 428,1412 428,1421 445,1421 445,1438 453,1438 453,1455 462,1455 462,1531 470,1531 470,1522 479,1522 479,1506 487,1506 487,1497 496,1497 496,1489 512,1489 512,1480 555,1480 555,1489 580,1489 580,1497 606,1497 606,1506 623,1506 623,1514 639,1514 639,1522 648,1522 648,1531 665,1531 665,1539 682,1539 682,1514 673,1514 673,1480 665,1480 665,1463 656,1463 656,1455 648,1455 648,1438 639,1438 639,1429 631,1429 631,1421 623,1421 623,1412 614,1412 614,1404 597,1404 597,1395 580,1395 580,1387 555,1387 555,1379 538,1379 538,1370 512,1370 512,1362 496,1362 496,1353 462,1353 462,1345 428,1345 428,1336 360,1336 "/>
   <polygon class="fil2" points="2206,684 2197,684 2197,693 2189,693 2189,701 2180,701 2180,710 2172,710 2172,727 2163,727 2163,735 2155,735 2155,744 2138,744 2138,752 2130,752 2130,760 2113,760 2113,769 2096,769 2096,777 2079,777 2079,786 2502,786 2502,777 2494,777 2494,769 2468,769 2468,760 2460,760 2460,752 2443,752 2443,744 2434,744 2434,735 2426,735 2426,727 2417,727 2417,718 2409,718 2409,710 2400,710 2400,701 2392,701 2392,693 2384,693 2384,684 2375,684 2375,676 2206,676 "/>
   <polygon class="fil3" points="2629,1827 2621,1827 2621,1870 2612,1870 2612,1937 2604,1937 2604,1997 2638,1997 2638,1954 2646,1954 2646,1887 2654,1887 2654,1844 2663,1844 2663,1870 2671,1870 2671,1980 2680,1980 2680,2005 2688,2005 2688,2014 2722,2014 2722,2005 2731,2005 2731,1988 2739,1988 2739,1971 2748,1971 2748,1954 2756,1954 2756,1929 2765,1929 2765,1912 2773,1912 2773,1895 2781,1895 2781,1878 2790,1878 2790,1920 2781,1920 2781,1988 2773,1988 2773,2022 2807,2022 2807,1997 2815,1997 2815,1937 2824,1937 2824,1878 2832,1878 2832,1827 2841,1827 2841,1810 2807,1810 2807,1802 2781,1802 2781,1810 2773,1810 2773,1836 2765,1836 2765,1853 2756,1853 2756,1870 2748,1870 2748,1887 2739,1887 2739,1912 2731,1912 2731,1929 2722,1929 2722,1946 2714,1946 2714,1963 2705,1963 2705,1878 2697,1878 2697,1810 2688,1810 2688,1785 2663,1785 2663,1776 2629,1776 "/>
   <polygon class="fil3" points="1266,854 1258,854 1258,862 1249,862 1249,871 1241,871 1241,879 1232,879 1232,887 1224,887 1224,896 1215,896 1215,904 1198,904 1198,913 1190,913 1190,921 1181,921 1181,930 1164,930 1164,938 1147,938 1147,947 1139,947 1139,955 1156,955 1156,947 1215,947 1215,955 1232,955 1232,972 1241,972 1241,1014 1232,1014 1232,1031 1224,1031 1224,1040 1198,1040 1198,1048 1164,1048 1164,1040 1147,1040 1147,1031 1139,1031 1139,1023 1114,1023 1114,1031 1097,1031 1097,1040 1071,1040 1071,1048 1054,1048 1054,1057 1046,1057 1046,1065 1029,1065 1029,1082 1020,1082 1020,1091 1046,1091 1046,1099 1097,1099 1097,1108 1114,1108 1114,1116 1131,1116 1131,1125 1156,1125 1156,1108 1164,1108 1164,1099 1173,1099 1173,1091 1181,1091 1181,1082 1198,1082 1198,1074 1258,1074 1258,1065 1274,1065 1274,1057 1291,1057 1291,1048 1308,1048 1308,1040 1317,1040 1317,1031 1334,1031 1334,1023 1351,1023 1351,1014 1368,1014 1368,1006 1376,1006 1376,998 1368,998 1368,989 1351,989 1351,981 1317,981 1317,972 1258,972 1258,955 1266,955 1266,938 1274,938 1274,930 1283,930 1283,862 1274,862 1274,845 1266,845 "/>
   <polygon class="fil2" points="2536,1328 2705,1328 2705,1319 2714,1319 2714,1311 2722,1311 2722,1302 2731,1302 2731,1294 2722,1294 2722,1285 2714,1285 2714,1277 2705,1277 2705,1268 2697,1268 2697,1260 2688,1260 2688,1243 2680,1243 2680,1235 2671,1235 2671,1226 2663,1226 2663,1218 2654,1218 2654,1209 2646,1209 2646,1201 2638,1201 2638,1192 2629,1192 2629,1184 2621,1184 2621,1175 2612,1175 2612,1167 2604,1167 2604,1150 2595,1150 2595,1141 2587,1141 2587,1133 2578,1133 2578,1125 2570,1125 2570,1116 2561,1116 2561,1108 2553,1108 2553,1099 2544,1099 2544,1091 2536,1091 "/>
   <polygon class="fil1" points="2968,490 2959,490 2959,498 2951,498 2951,506 2934,506 2934,515 2925,515 2925,523 2917,523 2917,532 2908,532 2908,540 2900,540 2900,549 2892,549 2892,557 2883,557 2883,566 2866,566 2866,574 2858,574 2858,583 2849,583 2849,591 2841,591 2841,600 2832,600 2832,608 2824,608 2824,617 2815,617 2815,625 2798,625 2798,633 2790,633 2790,642 2781,642 2781,650 2773,650 2773,659 2765,659 2765,667 2756,667 2756,684 2765,684 2765,693 2773,693 2773,701 2781,701 2781,710 2790,710 2790,718 2798,718 2798,727 2815,727 2815,718 2824,718 2824,710 2832,710 2832,701 2841,701 2841,693 2858,693 2858,684 2866,684 2866,676 2875,676 2875,667 2892,667 2892,659 2900,659 2900,650 2908,650 2908,642 2917,642 2917,633 2934,633 2934,625 2942,625 2942,617 2951,617 2951,608 2968,608 2968,600 2976,600 2976,591 2985,591 2985,583 2993,583 2993,574 3010,574 3010,566 3019,566 3019,557 3027,557 3027,549 3044,549 3044,532 3035,532 3035,523 3027,523 3027,515 3019,515 3019,506 3010,506 3010,498 3002,498 3002,490 2985,490 2985,481 2968,481 "/>
   <polygon class="fil3" points="2146,1844 2138,1844 2138,1937 2155,1937 2155,1946 2180,1946 2180,1853 2265,1853 2265,1954 2307,1954 2307,1853 2316,1853 2316,1734 2273,1734 2273,1819 2189,1819 2189,1726 2146,1726 "/>
   <polygon class="fil3" points="606,1802 580,1802 580,1810 572,1810 572,1819 563,1819 563,1827 555,1827 555,1844 546,1844 546,1878 555,1878 555,1895 563,1895 563,1903 572,1903 572,1912 580,1912 580,1920 606,1920 606,1929 639,1929 639,1937 665,1937 665,1946 673,1946 673,1971 665,1971 665,1980 656,1980 656,1988 623,1988 623,1980 614,1980 614,1971 606,1971 606,1963 597,1963 597,1954 555,1954 555,1971 563,1971 563,1988 572,1988 572,1997 580,1997 580,2005 589,2005 589,2014 606,2014 606,2022 673,2022 673,2014 690,2014 690,2005 699,2005 699,1997 707,1997 707,1988 716,1988 716,1920 707,1920 707,1912 699,1912 699,1903 690,1903 690,1895 673,1895 673,1887 623,1887 623,1878 597,1878 597,1870 589,1870 589,1844 597,1844 597,1836 648,1836 648,1844 656,1844 656,1861 673,1861 673,1853 699,1853 699,1836 690,1836 690,1819 682,1819 682,1810 665,1810 665,1802 648,1802 648,1793 606,1793 "/>
   <polygon class="fil2" points="2536,1057 2544,1057 2544,1065 2553,1065 2553,1074 2561,1074 2561,1082 2570,1082 2570,1091 2578,1091 2578,1099 2587,1099 2587,1116 2595,1116 2595,1125 2604,1125 2604,1133 2612,1133 2612,1141 2621,1141 2621,1150 2629,1150 2629,1158 2638,1158 2638,1167 2646,1167 2646,1175 2654,1175 2654,1184 2663,1184 2663,1192 2671,1192 2671,1209 2680,1209 2680,1218 2688,1218 2688,1226 2697,1226 2697,1235 2705,1235 2705,1243 2714,1243 2714,1201 2722,1201 2722,1175 2731,1175 2731,1082 2739,1082 2739,1048 2536,1048 "/>
   <polygon class="fil3" points="1994,1726 1977,1726 1977,1734 1969,1734 1969,1751 1960,1751 1960,1802 1969,1802 1969,1819 1977,1819 1977,1827 1994,1827 1994,1836 2011,1836 2011,1844 2028,1844 2028,1853 2045,1853 2045,1861 2062,1861 2062,1895 2053,1895 2053,1903 2011,1903 2011,1895 1994,1895 1994,1878 1986,1878 1986,1861 1952,1861 1952,1903 1960,1903 1960,1912 1969,1912 1969,1920 1977,1920 1977,1929 1994,1929 1994,1937 2070,1937 2070,1929 2087,1929 2087,1920 2096,1920 2096,1912 2104,1912 2104,1844 2096,1844 2096,1827 2079,1827 2079,1819 2062,1819 2062,1810 2045,1810 2045,1802 2028,1802 2028,1793 2011,1793 2011,1785 2003,1785 2003,1760 2011,1760 2011,1751 2053,1751 2053,1760 2062,1760 2062,1768 2070,1768 2070,1785 2104,1785 2104,1751 2096,1751 2096,1734 2087,1734 2087,1726 2070,1726 2070,1717 1994,1717 "/>
   <polygon class="fil1" points="1435,1133 1435,1108 1427,1108 1427,1082 1418,1082 1418,1040 1410,1040 1410,1023 1401,1023 1401,1031 1393,1031 1393,1040 1385,1040 1385,1048 1368,1048 1368,1057 1359,1057 1359,1065 1342,1065 1342,1074 1325,1074 1325,1082 1308,1082 1308,1091 1300,1091 1300,1099 1283,1099 1283,1167 1274,1167 1274,1175 1266,1175 1266,1184 1249,1184 1249,1192 1190,1192 1190,1184 1173,1184 1173,1192 1164,1192 1164,1201 1147,1201 1147,1209 1131,1209 1131,1218 1122,1218 1122,1226 1215,1226 1215,1218 1241,1218 1241,1209 1266,1209 1266,1201 1291,1201 1291,1192 1325,1192 1325,1184 1342,1184 1342,1175 1359,1175 1359,1167 1376,1167 1376,1158 1385,1158 1385,1150 1401,1150 1401,1141 1418,1141 1418,1133 "/>
   <path class="fil3" d="M1537 1887l-9 0 0 8 -33 0 0 -8 -9 0 0 -17 -8 0 0 -102 8 0 0 -17 9 0 0 -8 25 0 0 8 8 0 0 9 9 0 0 8 8 0 0 93 -8 0 0 26zm-51 -170l-17 0 0 9 -8 0 0 8 -9 0 0 9 -8 0 0 25 -9 0 0 110 9 0 0 17 8 0 0 8 9 0 0 9 8 0 0 8 9 0 0 9 67 0 0 -9 9 0 0 -8 8 0 0 -9 9 0 0 -8 8 0 0 -25 9 0 0 -94 -9 0 0 -25 -8 0 0 -17 -9 0 0 -8 -8 0 0 -9 -17 0 0 -8 -51 0 0 8z"/>
   <path class="fil3" d="M1876 1751l8 0 0 9 9 0 0 42 -9 0 0 8 -59 0 0 -67 51 0 0 8zm-94 178l43 0 0 -85 84 0 0 -8 9 0 0 -9 8 0 0 -8 9 0 0 -17 8 0 0 -42 -8 0 0 -17 -9 0 0 -9 -8 0 0 -8 -9 0 0 -9 -25 0 0 -8 -102 0 0 220z"/>
   <polygon class="fil3" points="1926,1345 1909,1345 1909,1353 1893,1353 1893,1362 1884,1362 1884,1370 1876,1370 1876,1379 1867,1379 1867,1387 1859,1387 1859,1404 1850,1404 1850,1412 1842,1412 1842,1429 1833,1429 1833,1446 1825,1446 1825,1463 1816,1463 1816,1480 1808,1480 1808,1497 1799,1497 1799,1522 1791,1522 1791,1573 1799,1573 1799,1590 1816,1590 1816,1565 1825,1565 1825,1548 1833,1548 1833,1539 1842,1539 1842,1531 1850,1531 1850,1522 1859,1522 1859,1514 1876,1514 1876,1506 1901,1506 1901,1497 1926,1497 1926,1412 1935,1412 1935,1395 1943,1395 1943,1387 1952,1387 1952,1370 1960,1370 1960,1362 1969,1362 1969,1353 1977,1353 1977,1345 1986,1345 1986,1336 1926,1336 "/>
   <polygon class="fil3" points="2375,1768 2367,1768 2367,1827 2358,1827 2358,1878 2350,1878 2350,1963 2409,1963 2409,1971 2468,1971 2468,1980 2485,1980 2485,1937 2392,1937 2392,1878 2485,1878 2485,1844 2443,1844 2443,1836 2409,1836 2409,1785 2451,1785 2451,1793 2502,1793 2502,1760 2468,1760 2468,1751 2375,1751 "/>
   <polygon class="fil3" points="1867,972 1859,972 1859,981 1850,981 1850,989 1842,989 1842,998 1833,998 1833,1006 1825,1006 1825,1023 1816,1023 1816,1031 1808,1031 1808,1040 1799,1040 1799,1057 1791,1057 1791,1065 1782,1065 1782,1082 1774,1082 1774,1099 1766,1099 1766,1108 1757,1108 1757,1125 1749,1125 1749,1209 1757,1209 1757,1226 1766,1226 1766,1218 1774,1218 1774,1201 1782,1201 1782,1184 1791,1184 1791,1167 1799,1167 1799,1158 1808,1158 1808,1150 1816,1150 1816,1141 1833,1141 1833,1133 1842,1133 1842,1125 1850,1125 1850,1116 1884,1116 1884,1099 1876,1099 1876,1048 1884,1048 1884,1031 1893,1031 1893,1014 1901,1014 1901,998 1909,998 1909,981 1918,981 1918,972 1926,972 1926,964 1867,964 "/>
   <polygon class="fil2" points="2036,811 2028,811 2028,845 2053,845 2053,854 2062,854 2062,862 2070,862 2070,854 2079,854 2079,828 2511,828 2511,837 2519,837 2519,887 2527,887 2527,904 2536,904 2536,913 2570,913 2570,879 2561,879 2561,828 2553,828 2553,803 2036,803 "/>
   <path class="fil3" d="M1156 1776l8 0 0 -8 9 0 0 -8 25 0 0 8 9 0 0 8 8 0 0 60 -8 0 0 8 -43 0 0 -17 -8 0 0 -51zm8 -42l-17 0 0 9 -16 0 0 8 -9 0 0 17 -8 0 0 68 8 0 0 17 9 0 0 8 8 0 0 9 17 0 0 8 34 0 0 17 -9 0 0 17 -8 0 0 8 -9 0 0 17 -8 0 0 9 42 0 0 -9 9 0 0 -8 8 0 0 -17 9 0 0 -9 8 0 0 -16 9 0 0 -17 8 0 0 -17 9 0 0 -85 -9 0 0 -17 -8 0 0 -8 -17 0 0 -9 -17 0 0 -8 -43 0 0 8z"/>
   <polygon class="fil1" points="1435,1133 1435,1150 1452,1150 1452,1141 1478,1141 1478,1133 1495,1133 1495,1125 1520,1125 1520,1116 1537,1116 1537,1108 1562,1108 1562,1099 1579,1099 1579,1091 1605,1091 1605,1082 1622,1082 1622,1074 1639,1074 1639,1065 1655,1065 1655,1057 1672,1057 1672,1048 1689,1048 1689,1040 1706,1040 1706,1031 1723,1031 1723,1023 1749,1023 1749,1014 1486,1014 1486,1108 1478,1108 1478,1116 1469,1116 1469,1125 1461,1125 1461,1133 "/>
   <polygon class="fil3" points="851,1768 843,1768 843,1810 834,1810 834,1870 826,1870 826,1912 817,1912 817,1929 809,1929 809,1912 800,1912 800,1895 792,1895 792,1878 783,1878 783,1861 775,1861 775,1836 766,1836 766,1819 758,1819 758,1802 750,1802 750,1785 699,1785 699,1793 707,1793 707,1810 716,1810 716,1827 724,1827 724,1844 733,1844 733,1861 741,1861 741,1878 750,1878 750,1895 758,1895 758,1912 766,1912 766,1929 775,1929 775,1946 783,1946 783,1963 792,1963 792,1980 800,1980 800,1988 851,1988 851,1929 860,1929 860,1887 868,1887 868,1861 877,1861 877,1793 885,1793 885,1760 851,1760 "/>
   <polygon class="fil1" points="2722,1683 2739,1683 2739,1692 2756,1692 2756,1683 2765,1683 2765,1658 2773,1658 2773,1633 2781,1633 2781,1599 2790,1599 2790,1522 2781,1522 2781,1480 2773,1480 2773,1463 2765,1463 2765,1438 2756,1438 2756,1421 2748,1421 2748,1412 2739,1412 2739,1395 2731,1395 2731,1387 2722,1387 "/>
   <polygon class="fil1" points="1791,1243 1782,1243 1782,1277 1766,1277 1766,1294 1757,1294 1757,1285 1749,1285 1749,1277 1740,1277 1740,1268 1732,1268 1732,1277 1723,1277 1723,1285 1706,1285 1706,1294 1698,1294 1698,1302 1681,1302 1681,1311 1672,1311 1672,1319 1655,1319 1655,1328 1639,1328 1639,1336 1622,1336 1622,1345 1613,1345 1613,1353 1867,1353 1867,1336 1859,1336 1859,1328 1850,1328 1850,1319 1842,1319 1842,1311 1833,1311 1833,1302 1825,1302 1825,1294 1833,1294 1833,1285 1842,1285 1842,1268 1833,1268 1833,1260 1825,1260 1825,1252 1816,1252 1816,1243 1808,1243 1808,1235 1791,1235 "/>
   <polygon class="fil4" points="546,794 538,794 538,803 529,803 529,811 521,811 521,820 512,820 512,828 504,828 504,837 487,837 487,845 479,845 479,854 470,854 470,862 462,862 462,871 445,871 445,879 436,879 436,887 428,887 428,896 419,896 419,904 411,904 411,913 402,913 402,930 394,930 394,947 385,947 385,972 394,972 394,964 411,964 411,938 419,938 419,930 428,930 428,921 436,921 436,913 445,913 445,904 470,904 470,896 512,896 512,904 546,904 546,887 555,887 555,871 563,871 563,862 572,862 572,854 589,854 589,845 656,845 656,837 639,837 639,828 623,828 623,820 614,820 614,811 597,811 597,803 589,803 589,794 580,794 580,786 572,786 572,777 546,777 "/>
   <polygon class="fil3" points="470,1827 419,1827 419,1836 377,1836 377,1844 369,1844 369,1878 385,1878 385,1870 436,1870 436,1903 445,1903 445,1963 453,1963 453,2022 462,2022 462,2047 487,2047 487,2039 504,2039 504,2014 496,2014 496,1971 487,1971 487,1912 479,1912 479,1861 504,1861 504,1853 529,1853 529,1819 470,1819 "/>
   <polygon class="fil1" points="1672,1556 1639,1556 1639,1565 1605,1565 1605,1573 1520,1573 1520,1582 1469,1582 1469,1590 1444,1590 1444,1607 1766,1607 1766,1590 1757,1590 1757,1548 1672,1548 "/>
   <polygon class="fil1" points="665,1599 656,1599 656,1607 648,1607 648,1624 639,1624 639,1633 631,1633 631,1649 623,1649 623,1666 614,1666 614,1675 606,1675 606,1683 597,1683 597,1692 656,1692 656,1683 707,1683 707,1675 758,1675 758,1666 826,1666 826,1658 868,1658 868,1649 902,1649 902,1641 885,1641 885,1633 868,1633 868,1624 851,1624 851,1616 834,1616 834,1607 817,1607 817,1599 809,1599 809,1624 800,1624 800,1641 783,1641 783,1649 716,1649 716,1641 707,1641 707,1633 699,1633 699,1624 690,1624 690,1582 682,1582 682,1573 673,1573 673,1565 665,1565 "/>
   <polygon class="fil2" points="580,769 589,769 589,777 606,777 606,786 614,786 614,794 623,794 623,803 639,803 639,811 656,811 656,820 673,820 673,828 690,828 690,837 699,837 699,820 690,820 690,811 682,811 682,803 673,803 673,794 665,794 665,777 699,777 699,786 724,786 724,794 750,794 750,803 775,803 775,811 800,811 800,820 826,820 826,828 843,828 843,837 860,837 860,845 893,845 893,820 885,820 885,803 877,803 877,794 868,794 868,786 860,786 860,777 851,777 851,769 690,769 690,760 580,760 "/>
   <polygon class="fil3" points="800,1031 792,1031 792,1040 783,1040 783,1048 775,1048 775,1065 766,1065 766,1074 758,1074 758,1082 741,1082 741,1091 733,1091 733,1099 724,1099 724,1108 716,1108 716,1116 699,1116 699,1125 682,1125 682,1133 665,1133 665,1141 648,1141 648,1150 631,1150 631,1158 606,1158 606,1167 614,1167 614,1175 631,1175 631,1184 707,1184 707,1175 724,1175 724,1167 741,1167 741,1158 750,1158 750,1150 758,1150 758,1141 766,1141 766,1133 775,1133 775,1125 783,1125 783,1116 792,1116 792,1099 800,1099 800,1082 809,1082 809,1023 800,1023 "/>
   <polygon class="fil3" points="1029,1760 1020,1760 1020,1776 1004,1776 1004,1785 987,1785 987,1810 1029,1810 1029,1912 1037,1912 1037,1954 1080,1954 1080,1895 1071,1895 1071,1844 1063,1844 1063,1743 1029,1743 "/>
   <polygon class="fil2" points="496,794 479,794 479,803 453,803 453,811 436,811 436,820 419,820 419,828 411,828 411,837 394,837 394,845 377,845 377,854 369,854 369,862 360,862 360,871 352,871 352,879 343,879 343,887 335,887 335,896 326,896 326,904 318,904 318,913 309,913 309,921 301,921 301,938 309,938 309,947 318,947 318,955 360,955 360,947 369,947 369,930 377,930 377,913 385,913 385,904 394,904 394,887 402,887 402,879 411,879 411,871 428,871 428,862 436,862 436,854 445,854 445,845 453,845 453,837 462,837 462,828 479,828 479,820 487,820 487,811 496,811 496,803 512,803 512,786 496,786 "/>
   <polygon class="fil3" points="1698,1929 1740,1929 1740,1709 1698,1709 "/>
   <polygon class="fil3" points="2536,1836 2527,1836 2527,1895 2519,1895 2519,1954 2511,1954 2511,1980 2536,1980 2536,1988 2553,1988 2553,1963 2561,1963 2561,1895 2570,1895 2570,1853 2578,1853 2578,1768 2536,1768 "/>
   <polygon class="fil1" points="2671,727 2663,727 2663,735 2654,735 2654,744 2646,744 2646,752 2638,752 2638,777 2646,777 2646,794 2654,794 2654,803 2663,803 2663,811 2680,811 2680,820 2714,820 2714,811 2731,811 2731,803 2748,803 2748,786 2756,786 2756,744 2748,744 2748,735 2739,735 2739,727 2731,727 2731,718 2671,718 "/>
   <polygon class="fil3" points="1342,1870 1351,1870 1351,1929 1385,1929 1385,1785 1376,1785 1376,1717 1351,1717 1351,1734 1342,1734 1342,1743 1334,1743 1334,1751 1325,1751 1325,1760 1300,1760 1300,1785 1342,1785 "/>
   <polygon class="fil1" points="1495,1751 1486,1751 1486,1768 1478,1768 1478,1870 1486,1870 1486,1887 1495,1887 1495,1895 1528,1895 1528,1887 1537,1887 1537,1861 1545,1861 1545,1768 1537,1768 1537,1760 1528,1760 1528,1751 1520,1751 1520,1743 1495,1743 "/>
   <path class="fil3" d="M580 896l9 0 0 -9 42 0 0 9 8 0 0 25 -8 0 0 9 -42 0 0 -9 -9 0 0 -25zm26 -25l-17 0 0 8 -9 0 0 8 -8 0 0 9 -9 0 0 34 9 0 0 17 8 0 0 8 17 0 0 9 59 0 0 -9 17 0 0 -8 9 0 0 -9 8 0 0 -42 -8 0 0 -17 -17 0 0 -8 -17 0 0 -9 -42 0 0 9z"/>
   <polygon class="fil3" points="81,1116 64,1116 64,1125 55,1125 55,1175 64,1175 64,1184 72,1184 72,1192 81,1192 81,1201 123,1201 123,1192 140,1192 140,1184 148,1184 148,1175 157,1175 157,1125 148,1125 148,1116 140,1116 140,1108 81,1108 "/>
   <path class="fil3" d="M521 930l0 8 8 0 0 34 -8 0 0 9 -34 0 0 -9 -8 0 0 -34 8 0 0 -8 34 0zm0 0l0 -9 -59 0 0 9 -9 0 0 8 -8 0 0 9 -9 0 0 8 -8 0 0 26 8 0 0 17 9 0 0 16 17 0 0 9 59 0 0 -9 17 0 0 -8 8 0 0 -17 9 0 0 -34 -9 0 0 -17 -8 0 0 -8 -17 0z"/>
   <polygon class="fil3" points="724,464 707,464 707,473 699,473 699,481 690,481 690,515 699,515 699,523 707,523 707,532 783,532 783,523 792,523 792,515 800,515 800,481 792,481 792,473 783,473 783,464 766,464 766,456 724,456 "/>
   <polygon class="fil3" points="910,650 893,650 893,659 885,659 885,701 902,701 902,710 970,710 970,701 987,701 987,659 978,659 978,650 961,650 961,642 910,642 "/>
   <polygon class="fil3" points="1986,1167 1977,1167 1977,1175 1969,1175 1969,1226 1977,1226 1977,1235 1994,1235 1994,1243 2028,1243 2028,1235 2036,1235 2036,1226 2045,1226 2045,1218 2053,1218 2053,1184 2045,1184 2045,1167 2036,1167 2036,1158 1986,1158 "/>
   <polygon class="fil3" points="1893,811 1884,811 1884,820 1876,820 1876,854 1884,854 1884,871 1893,871 1893,879 1935,879 1935,871 1943,871 1943,862 1952,862 1952,854 1960,854 1960,828 1952,828 1952,811 1943,811 1943,803 1893,803 "/>
   <polygon class="fil1" points="1198,1108 1190,1108 1190,1116 1181,1116 1181,1158 1190,1158 1190,1167 1207,1167 1207,1175 1241,1175 1241,1167 1249,1167 1249,1158 1258,1158 1258,1150 1266,1150 1266,1125 1258,1125 1258,1108 1241,1108 1241,1099 1198,1099 "/>
   <polygon class="fil2" points="1977,1285 1960,1285 1960,1294 1876,1294 1876,1285 1867,1285 1867,1294 1859,1294 1859,1311 1867,1311 1867,1319 1876,1319 1876,1328 1909,1328 1909,1319 1926,1319 1926,1311 1994,1311 1994,1319 2019,1319 2019,1345 2028,1345 2028,1285 2019,1285 2019,1277 1977,1277 "/>
   <polygon class="fil1" points="1131,1370 1122,1370 1122,1379 1114,1379 1114,1404 1122,1404 1122,1421 1139,1421 1139,1429 1173,1429 1173,1421 1190,1421 1190,1412 1198,1412 1198,1379 1190,1379 1190,1370 1181,1370 1181,1362 1131,1362 "/>
   <polygon class="fil1" points="1173,1768 1164,1768 1164,1776 1156,1776 1156,1827 1164,1827 1164,1844 1207,1844 1207,1836 1215,1836 1215,1776 1207,1776 1207,1768 1198,1768 1198,1760 1173,1760 "/>
   <polygon class="fil2" points="2536,1023 2646,1023 2646,1014 2629,1014 2629,1006 2612,1006 2612,998 2604,998 2604,989 2595,989 2595,981 2578,981 2578,972 2570,972 2570,964 2553,964 2553,955 2544,955 2544,947 2536,947 "/>
   <polygon class="fil0" points="589,1023 580,1023 580,1040 572,1040 572,1074 580,1074 580,1082 589,1082 589,1091 597,1091 597,1099 648,1099 648,1091 656,1091 656,1082 665,1082 665,1065 673,1065 673,1040 656,1040 656,1048 648,1048 648,1065 639,1065 639,1074 631,1074 631,1082 614,1082 614,1074 606,1074 606,1065 597,1065 597,1031 606,1031 606,1006 589,1006 "/>
   <polygon class="fil0" points="2341,1353 2392,1353 2392,1277 2341,1277 "/>
   <polygon class="fil0" points="2214,1353 2265,1353 2265,1277 2214,1277 "/>
   <polygon class="fil1" points="733,1582 716,1582 716,1590 707,1590 707,1616 716,1616 716,1624 733,1624 733,1633 766,1633 766,1624 783,1624 783,1616 792,1616 792,1590 783,1590 783,1582 766,1582 766,1573 733,1573 "/>
   <polygon class="fil1" points="1164,972 1156,972 1156,981 1147,981 1147,1006 1156,1006 1156,1014 1164,1014 1164,1023 1207,1023 1207,1014 1215,1014 1215,1006 1224,1006 1224,981 1215,981 1215,972 1207,972 1207,964 1164,964 "/>
   <polygon class="fil0" points="2341,981 2392,981 2392,913 2341,913 "/>
   <polygon class="fil0" points="2214,981 2265,981 2265,913 2214,913 "/>
   <polygon class="fil0" points="2214,1192 2265,1192 2265,1125 2214,1125 "/>
   <polygon class="fil0" points="2341,1192 2392,1192 2392,1125 2341,1125 "/>
   <polygon class="fil1" points="1833,1810 1884,1810 1884,1802 1893,1802 1893,1760 1884,1760 1884,1751 1833,1751 "/>
   <polygon class="fil1" points="902,1548 893,1548 893,1573 902,1573 902,1582 910,1582 910,1590 944,1590 944,1582 953,1582 953,1573 961,1573 961,1556 953,1556 953,1539 902,1539 "/>
   <polygon class="fil0" points="521,930 487,930 487,938 479,938 479,972 487,972 487,981 521,981 521,972 529,972 529,938 521,938 "/>
   <polygon class="fil0" points="589,896 580,896 580,921 589,921 589,930 631,930 631,921 639,921 639,896 631,896 631,887 589,887 "/>
   <polygon class="fil4" points="258,1091 250,1091 250,1116 258,1116 258,1125 267,1125 267,1133 275,1133 275,1141 284,1141 284,1150 309,1150 309,1141 301,1141 301,1125 292,1125 292,1116 284,1116 284,1099 275,1099 275,1091 267,1091 267,1082 258,1082 "/>
   <polygon class="fil5" points="1385,1878 1385,1929 1351,1929 1351,1870 1342,1870 1342,1937 1393,1937 1393,1878 "/>
   <polygon class="fil5" points="1833,1810 1833,1751 1876,1751 1876,1743 1825,1743 1825,1810 "/>
   <polygon class="fil6" points="242,1023 233,1023 233,1065 250,1065 250,1006 242,1006 "/>
   <polygon class="fil1" points="1842,1590 1833,1590 1833,1607 1867,1607 1867,1590 1859,1590 1859,1582 1842,1582 "/>
   <polygon class="fil7" points="758,1556 775,1556 775,1539 766,1539 766,1531 758,1531 "/>
   <polygon class="fil4" points="910,913 919,913 919,904 927,904 927,887 919,887 919,896 910,896 "/>
  </g>
 </g>
</svg>
