<?xml version="1.0" encoding="UTF-8"?>
<!DOCTYPE svg PUBLIC "-//W3C//DTD SVG 1.1//EN" "http://www.w3.org/Graphics/SVG/1.1/DTD/svg11.dtd">
<!-- Creator: CorelDRAW Home & Student X8 -->
<svg xmlns="http://www.w3.org/2000/svg" xml:space="preserve" width="189.569mm" height="85.259mm" version="1.1" style="shape-rendering:geometricPrecision; text-rendering:geometricPrecision; image-rendering:optimizeQuality; fill-rule:evenodd; clip-rule:evenodd"
viewBox="0 0 18957 8526"
 xmlns:xlink="http://www.w3.org/1999/xlink">
 <defs>
  <style type="text/css">
   <![CDATA[
    .fil0 {fill:#2B2A29}
    .fil2 {fill:#9D9E9E}
    .fil1 {fill:#DC2126}
   ]]>
  </style>
 </defs>
 <g id="Ebene_x0020_1">
  <metadata id="CorelCorpID_0Corel-Layer"/>
  <g id="_861623480">
   <path class="fil0" d="M5746 3144c-13,34 -47,75 -68,104 -24,36 -39,61 -63,98 -21,30 -117,181 -134,194l-206 338c-17,25 -25,44 -41,69l-240 420c-75,125 -239,458 -300,581 -25,49 -48,95 -73,147 -69,137 -284,594 -345,755 -198,519 -402,1090 -578,1616 -10,31 -19,56 -27,83 -9,32 -20,59 -25,85 -13,68 -26,118 -43,177 -33,110 -63,234 -89,351 -21,92 -70,281 -48,376 39,-9 42,-23 60,-51 16,-26 29,-42 45,-73 161,-319 283,-627 429,-952 24,-54 45,-108 73,-163 88,-175 197,-448 291,-632l222 -472c26,-61 48,-103 77,-161 92,-184 169,-380 254,-550l268 -545c27,-54 54,-99 82,-155 151,-304 413,-734 594,-1023 31,-50 65,-94 93,-142 7,-17 238,-372 281,-401 14,-46 402,-523 468,-597l334 -359c249,-251 706,-612 996,-766 370,-197 612,-284 1032,-339 205,-27 371,27 526,-24 355,-117 112,-337 -29,-393 -133,-54 -574,-18 -722,6 -233,38 -420,97 -613,174 -100,40 -175,75 -268,122 -237,118 -680,407 -875,589 -84,78 -164,138 -259,233 -61,62 -127,113 -199,190l-232 259c-147,156 -483,591 -606,774 -14,20 -26,43 -42,57z"/>
   <path class="fil1" d="M5481 3540c17,-13 113,-164 134,-194 24,-37 39,-62 63,-98 21,-29 55,-70 68,-104 -38,0 -78,-12 -118,-19 -484,-83 -948,-243 -1409,-394l-397 -154c-34,-13 -60,-26 -96,-40 -176,-70 -319,-144 -483,-220l-806 -438c-200,-120 -407,-243 -596,-377l-780 -600c-15,-12 -20,-18 -37,-32l-845 -755c-40,-33 -113,-102 -176,-103 9,102 389,561 467,659l391 448 287 279c27,28 47,38 73,63 28,29 49,42 76,68l463 384c137,108 350,268 489,358 386,247 698,390 1104,580 603,282 1241,481 1891,641 67,16 171,41 237,48z"/>
   <path class="fil1" d="M6235 3218c-43,29 -274,384 -281,401 31,13 221,30 276,38 93,14 196,30 285,37l600 43c200,17 411,17 627,17 199,0 491,-15 694,-25l515 -44c188,-20 391,-46 572,-72 197,-29 629,-99 811,-154 64,-19 100,-51 145,-92 20,-19 28,-20 47,-38 244,-244 -136,-336 -322,-288 -45,12 -83,20 -130,30 -248,58 -573,102 -829,137 -99,14 -187,21 -287,34 -54,8 -93,8 -147,15l-358 31c-129,7 -251,18 -389,17 -65,0 -92,9 -153,9l-482 0c-63,0 -102,-8 -152,-9 -53,-2 -108,4 -158,-3l-301 -22c-206,-16 -384,-41 -583,-62z"/>
   <path class="fil2" d="M8809 2899c297,0 561,-174 677,-432 18,-40 34,-82 46,-132 59,-257 -16,-487 -179,-674l-95 -83c-267,-192 -616,-197 -880,1l-138 133c-92,115 -172,337 -156,472 8,64 9,102 22,156 77,320 375,559 703,559z"/>
   <path class="fil1" d="M17216 6667l280 0 0 -1127c1,2 2,3 3,6l334 978c16,47 31,103 52,143l322 0c3,-41 166,-511 183,-562l189 -565 0 1127 271 0 0 -1465 -448 0c-3,31 -32,112 -42,145l-277 840c-16,48 -35,95 -46,141 -1,-2 -2,-7 -3,-6l-10 -23c-6,-15 -8,-23 -13,-38l-324 -997c-9,-28 -10,-62 -39,-62l-432 0 0 1465z"/>
   <path class="fil1" d="M12322 5591c0,106 -4,139 31,241 21,59 42,82 82,121 40,41 70,57 126,77 45,17 113,31 168,35 117,9 277,1 398,0 206,-1 254,48 254,195 0,106 -97,144 -203,144l-796 0 0 263 829 0c318,0 492,-135 492,-441 0,-501 -427,-415 -805,-415 -113,0 -262,0 -262,-160 0,-139 99,-195 237,-195l753 0 0 -254 -872 0c-117,0 -244,43 -307,99 -69,62 -125,164 -125,290z"/>
   <path class="fil0" d="M7886 6235c0,207 -214,169 -440,169l-441 0c-153,0 -127,-46 -127,237 0,20 6,26 26,26l813 0c140,0 255,-31 342,-90 146,-99 140,-256 140,-410 0,-254 -183,-357 -423,-356 -115,1 -467,17 -559,-25 -111,-50 -145,-330 169,-330l745 0 0 -254 -880 0c-100,0 -181,25 -249,64 -66,36 -117,95 -146,168 -35,88 -34,167 -28,267 6,102 39,171 88,234 41,53 128,96 201,112 324,68 769,-91 769,188z"/>
   <path class="fil1" d="M11671 5888l-407 0 0 -432 280 0c235,0 364,19 364,228 0,136 -102,204 -237,204zm-720 753c0,20 6,26 25,26l263 0c19,0 25,-6 25,-26l0 -491 322 0c111,0 105,19 263,-8 75,-13 156,-43 210,-78 247,-163 241,-587 49,-750 -81,-69 -245,-112 -395,-112l-762 0 0 1439z"/>
   <path class="fil1" d="M13872 6667l288 0c19,0 25,-6 25,-26l0 -593 559 0 0 619 296 0 0 -1465 -296 0 0 592 -559 0 0 -592 -313 0 0 1465z"/>
   <path class="fil1" d="M15201 5913l0 68c0,424 237,686 661,686l508 0c19,0 25,-6 25,-26 0,-285 55,-228 -271,-228 -86,0 -214,7 -295,-2 -216,-22 -281,-156 -281,-363l847 0 0 -228c0,-20 -6,-26 -25,-26l-813 0c0,-215 99,-347 338,-347l500 0 0 -245 -559 0c-297,0 -528,150 -594,413 -22,86 -41,186 -41,298z"/>
   <path class="fil0" d="M8800 6667l314 0 523 -1280c13,-33 24,-55 38,-90 13,-33 25,-67 40,-95l-322 0c-9,38 -37,95 -53,133l-333 810c-16,39 -46,104 -54,141 -36,-26 -209,-497 -225,-538 -38,-94 -71,-177 -109,-272l-107 -274 -338 0c2,33 129,313 151,365l395 917c26,62 51,128 80,183z"/>
   <path class="fil0" d="M5549 5456l457 0 0 1185c0,20 6,26 26,26l296 0 0 -1211 466 0 0 -254 -1245 0 0 254z"/>
   <polygon class="fil1" points="10350,6667 10671,6667 10671,5202 10350,5202 "/>
   <polygon class="fil1" points="16615,6667 16928,6667 16928,5202 16615,5202 "/>
   <path class="fil0" d="M15718 7251c0,-127 304,-121 304,51l0 25c-162,0 -304,30 -304,-76zm-153 -26c0,73 -2,140 71,183 88,53 267,37 386,37 0,97 -55,161 -144,161l-279 0 0 119c158,0 390,21 498,-78 32,-30 45,-54 64,-97 50,-118 30,-307 -37,-401 -108,-154 -559,-140 -559,76z"/>
   <path class="fil0" d="M16801 7623c-262,0 -189,-345 -141,-404 13,-16 31,-33 50,-42 110,-53 269,-1 269,184 0,125 -9,262 -178,262zm-338 -237c0,205 93,347 296,347 158,0 306,-21 352,-198 25,-96 26,-194 -2,-288 -20,-67 -48,-106 -98,-146 -74,-59 -548,-166 -548,285z"/>
   <path class="fil0" d="M18418 7725l144 0 223 -633c38,-92 37,-78 -113,-78 -30,0 -36,53 -56,113 -20,61 -118,363 -121,403l-42 -128c-15,-46 -29,-87 -44,-133l-63 -200c-22,-69 3,-55 -173,-55 1,39 94,291 117,356l128 355z"/>
   <path class="fil0" d="M17724 7310l17 0c49,0 75,35 76,85l-169 0c4,-45 28,-85 76,-85zm-220 119c0,123 18,254 159,297 108,33 232,-4 281,-77 -38,-26 -67,-56 -101,-85 -39,26 -59,51 -119,35 -48,-13 -75,-36 -76,-94l313 0 0 -68c0,-131 -84,-254 -237,-254 -119,0 -220,123 -220,246z"/>
   <polygon class="fil0" points="16251,7725 16395,7725 16395,7056 16251,7056 "/>
   <polygon class="fil0" points="15337,7725 15481,7725 15481,7056 15337,7056 "/>
   <path class="fil0" d="M18766 7632c0,144 194,133 194,8 0,-130 -194,-116 -194,-8z"/>
   <path class="fil0" d="M18021 7632c0,124 119,122 163,79 45,-45 41,-164 -79,-164 -42,0 -84,42 -84,85z"/>
  </g>
 </g>
</svg>
