<?xml version="1.0" encoding="UTF-8"?>
<!DOCTYPE svg PUBLIC "-//W3C//DTD SVG 1.1//EN" "http://www.w3.org/Graphics/SVG/1.1/DTD/svg11.dtd">
<!-- Creator: CorelDRAW Home & Student X8 -->
<svg xmlns="http://www.w3.org/2000/svg" xml:space="preserve" width="33.7818mm" height="38.29mm" version="1.1" style="shape-rendering:geometricPrecision; text-rendering:geometricPrecision; image-rendering:optimizeQuality; fill-rule:evenodd; clip-rule:evenodd"
viewBox="0 0 3378 3829"
 xmlns:xlink="http://www.w3.org/1999/xlink">
 <defs>
  <style type="text/css">
   <![CDATA[
    .fil0 {fill:#2B2A29}
    .fil1 {fill:#DC2126}
   ]]>
  </style>
 </defs>
 <g id="Ebene_x0020_1">
  <metadata id="CorelCorpID_0Corel-Layer"/>
  <g id="_569087312">
   <path class="fil0" d="M-3 332l0 1710c0,70 9,128 20,191 16,86 21,143 73,148 8,-34 20,-44 35,-118 42,-214 24,-826 24,-1059l1 -931c4,-38 30,-76 57,-96 30,-22 77,-32 128,-32l2718 0c237,0 178,270 178,517 0,344 9,2365 -1,2437 -15,108 -90,142 -210,145 -249,7 -432,-6 -695,9 -109,6 -236,0 -347,0 -211,0 -470,16 -686,16 -54,0 -275,13 -330,26 42,29 302,30 348,33 79,7 147,-1 270,9l1041 17c75,0 118,9 187,9 227,-2 466,52 548,-214 21,-66 10,-103 10,-167 0,-43 6,-53 9,-85l0 -7 0 -93 0 -2 0 -2176c0,-167 -8,-230 -17,-389 -2,-52 -13,-66 -35,-100 -97,-149 -277,-129 -397,-129l-2167 0c-111,0 -461,-12 -534,8 -133,38 -228,151 -228,323z"/>
   <path class="fil0" d="M1986 535c0,75 77,202 28,502 -4,27 -15,124 -36,124 -185,0 -352,-32 -509,-58 -107,-17 -363,-79 -459,-117 -219,-87 -378,-128 -592,-272 -43,-29 -133,-91 -184,-103 3,34 3,24 23,45 16,18 19,24 34,42 43,48 187,166 249,208 289,192 514,265 867,335 162,32 351,64 537,64l-84 187c-103,206 -174,237 -265,565 -47,171 -80,278 -83,468 -1,69 -21,185 -12,248 6,39 9,90 12,124 4,49 4,88 34,110 42,-180 46,-285 84,-475 16,-79 35,-153 51,-228 45,-221 127,-421 224,-615 30,-62 64,-121 102,-177 44,-66 56,-129 90,-198 107,0 441,3 546,-12 86,-13 169,-14 255,-25 71,-8 198,-7 198,-107 0,-28 -47,-49 -73,-54l-359 37c-81,2 -177,13 -254,17 -85,4 -185,0 -271,0 4,-48 51,-256 39,-335 -13,-85 -2,-370 -134,-374 -35,-2 -58,38 -58,74z"/>
   <path class="fil0" d="M2215 848c0,151 110,254 212,254 86,0 133,1 205,-74 218,-225 -138,-586 -368,-309 -26,31 -49,84 -49,129z"/>
   <path class="fil1" d="M1707 3820l68 0 0 -195c4,5 9,10 15,19 10,13 7,10 16,26l79 150 76 0 0 -288 -59 0 0 195c-11,-13 -4,-4 -14,-20l-96 -175 -85 0 0 288z"/>
   <path class="fil1" d="M2342 3820l68 0 0 -195 87 150c25,52 10,45 99,45l0 -288 -59 0 0 195c-26,-30 -103,-162 -110,-195l-85 0 0 288z"/>
   <path class="fil1" d="M1521 3659l-76 0 0 -68 93 0c20,0 34,14 34,34 0,26 -25,34 -51,34zm-136 161l60 0 0 -110c79,0 67,-6 96,48 13,25 24,33 31,62l67 0 -59 -119c51,-26 51,-33 51,-93 0,-99 -137,-76 -246,-76l0 288z"/>
   <path class="fil1" d="M2029 3659c0,180 77,161 237,161l0 -51c-103,0 -162,19 -169,-68l169 0 0 -50 -169 0c33,-70 -10,-68 169,-68l0 -51c-100,0 -237,-17 -237,127z"/>
   <path class="fil1" d="M1055 3761c0,84 246,99 246,-26l0 -203 -60 0c0,110 7,134 -17,237 -139,33 -110,-28 -110,-237l-59 0 0 229z"/>
   <polygon class="fil1" points="750,3583 835,3583 835,3820 903,3820 903,3583 996,3583 996,3532 750,3532 "/>
  </g>
 </g>
</svg>
